<svg viewBox="0 0 24 24" fill="none" xmlns="http://www.w3.org/2000/svg">
<path opacity="0.3" d="M20.2109 9.9702C22.0561 8.12498 22.068 5.14515 20.2374 3.31456C18.4068 1.48398 15.427 1.49585 13.5818 3.34108L3.3411 13.5818C1.49587 15.427 1.484 18.4068 3.31458 20.2374C5.14517 22.068 8.125 22.0561 9.97022 20.2109L20.2109 9.9702Z" fill="currentColor"/>
<path d="M19.6808 9.43959C21.2369 7.88325 21.2407 5.37851 19.7071 3.84488C18.1735 2.31126 15.6687 2.31507 14.1124 3.87112L3.87176 14.1117C2.31543 15.6681 2.31112 18.1734 3.84483 19.7071C5.37854 21.2409 7.8839 21.2365 9.44023 19.6802L19.6808 9.43959ZM10.5009 20.7409C8.36676 22.875 4.91162 22.8953 2.78417 20.7678C0.656718 18.6403 0.676971 15.1852 2.8111 13.0511L13.0517 2.81046C15.1859 0.676607 18.6404 0.656864 20.7677 2.78422C22.8951 4.91158 22.8754 8.3661 20.7415 10.5003L10.5009 20.7409Z" fill="currentColor"/>
<path d="M7.09117 13.5812C7.46132 13.4635 7.85503 13.6483 8.0062 13.9973L8.03355 14.0686L9.08335 17.3684L9.10288 17.4426C9.18117 17.8147 8.96621 18.193 8.59605 18.3107C8.22611 18.4284 7.83237 18.2443 7.68101 17.8957L7.65367 17.8234L6.60386 14.5236L6.58433 14.4494C6.50619 14.0774 6.72113 13.699 7.09117 13.5812Z" fill="currentColor"/>
<path d="M13.2883 13.2589C13.4054 13.656 13.1786 14.0732 12.7814 14.1905C12.3843 14.3078 11.9672 14.0808 11.8498 13.6837L13.2883 13.2589ZM11.3811 9.45129C11.7533 9.34129 12.1432 9.53426 12.2873 9.88586L12.3137 9.95812L13.2883 13.2589L12.5686 13.4708L11.8498 13.6837L10.8742 10.3839L10.8566 10.3087C10.7864 9.93527 11.0088 9.56138 11.3811 9.45129Z" fill="currentColor"/>
<path d="M15.3412 5.10627C15.7113 4.9885 16.105 5.17335 16.2562 5.52229L16.2835 5.59358L17.3334 8.89338L17.3529 8.9676C17.4312 9.33975 17.2162 9.71799 16.846 9.83576C16.4761 9.95346 16.0824 9.76927 15.931 9.42073L15.9037 9.34846L14.8539 6.04866L14.8343 5.97444C14.7562 5.60239 14.9711 5.22406 15.3412 5.10627Z" fill="currentColor"/>
</svg>
