<svg viewBox="0 0 24 24" fill="none" xmlns="http://www.w3.org/2000/svg">
<path opacity="0.3" d="M12.4775 5.84924L17.6748 11.0465L8.07579 20.6454C7.71009 21.0111 7.2141 21.2166 6.69692 21.2166C6.17975 21.2166 5.68378 21.0112 5.31809 20.6455L2.98462 18.312C2.61893 17.9463 2.41347 17.4503 2.41347 16.9331C2.41347 16.416 2.61894 15.92 2.98463 15.5543L12.5836 5.95532L12.4775 5.84924Z" fill="currentColor"/>
<path d="M16.6138 11.0462L12.5839 7.01624L3.5151 16.085C3.29014 16.31 3.16296 16.6149 3.16293 16.933C3.16293 17.2511 3.28953 17.5566 3.51441 17.7817L5.84841 20.1157C6.0733 20.3404 6.37844 20.4663 6.69639 20.4665C7.0146 20.4665 7.32003 20.3399 7.54506 20.115L16.6138 11.0462ZM8.60572 21.1756C8.09941 21.6819 7.41303 21.9669 6.69708 21.967C5.98113 21.967 5.29408 21.6825 4.78775 21.1763L2.45375 18.8423C1.94757 18.336 1.66309 17.649 1.66309 16.933C1.66312 16.217 1.94823 15.5306 2.45444 15.0244L11.7387 5.74013C11.7613 5.58616 11.8287 5.43741 11.9472 5.3189C12.2401 5.02601 12.715 5.02601 13.0079 5.3189L18.2048 10.5159C18.4977 10.8088 18.4977 11.2836 18.2048 11.5765L8.60572 21.1756Z" fill="currentColor"/>
<path d="M17.1233 4.35624L19.2446 6.47756L20.7293 4.99291C21.0106 4.7116 21.1691 4.32937 21.1691 3.93156C21.169 3.53389 21.0105 3.15279 20.7293 2.87159C20.4481 2.59038 20.067 2.43183 19.6693 2.43172C19.2715 2.43172 18.8893 2.59028 18.608 2.87159L17.1233 4.35624ZM17.5473 1.81093C18.1099 1.24833 18.8736 0.931879 19.6693 0.931878C20.4648 0.931991 21.2274 1.24842 21.7899 1.81093C22.3524 2.37344 22.6689 3.13606 22.669 3.93156C22.669 4.72722 22.3525 5.49097 21.7899 6.05357L19.775 8.06855L19.7176 8.12034C19.4231 8.36029 18.9888 8.34302 18.7143 8.06855L15.5323 4.88657C15.2394 4.59367 15.2394 4.1188 15.5323 3.82591L17.5473 1.81093Z" fill="currentColor"/>
<path d="M22.2714 9.47164C22.5643 9.76453 22.5643 10.2394 22.2714 10.5323L19.8 13.0037C19.5071 13.2965 19.0322 13.2966 18.7394 13.0037L10.5192 4.7836C10.2264 4.49074 10.2264 4.01584 10.5192 3.72294L12.9907 1.25152L13.048 1.19973C13.3426 0.959776 13.7769 0.977046 14.0513 1.25152L22.2714 9.47164ZM12.1102 4.25327L19.2697 11.4127L20.6805 10.002L13.521 2.84251L12.1102 4.25327Z" fill="currentColor"/>
<path d="M8.82323 8.51443C9.08879 8.23117 9.52204 8.19991 9.82421 8.43045L9.8828 8.48025L11.083 9.60525C11.3851 9.88853 11.4004 10.3627 11.1172 10.6648C10.8517 10.9481 10.4184 10.9793 10.1162 10.7488L10.0576 10.699L8.85741 9.574L8.8037 9.51932C8.55398 9.23264 8.55762 8.79776 8.82323 8.51443Z" fill="currentColor"/>
<path d="M6.36486 11.0469C6.63947 10.7723 7.07419 10.7548 7.36877 10.9951L7.42541 11.0469L8.55041 12.1719L8.60217 12.2285C8.84248 12.5231 8.82501 12.9578 8.55041 13.2324C8.27581 13.507 7.84108 13.5245 7.5465 13.2842L7.48986 13.2324L6.36486 12.1074L6.31311 12.0508C6.0728 11.7562 6.09026 11.3215 6.36486 11.0469Z" fill="currentColor"/>
<path d="M3.88977 13.4469C4.16437 13.1723 4.59909 13.1548 4.89367 13.3951L4.95031 13.4469L6.15051 14.6471L6.20227 14.7037C6.44238 14.9983 6.42503 15.4331 6.15051 15.7076C5.87597 15.9822 5.44118 15.9995 5.1466 15.7594L5.08996 15.7076L3.88977 14.5074L3.83801 14.4508C3.5977 14.1562 3.61516 13.7215 3.88977 13.4469Z" fill="currentColor"/>
</svg>
