<svg viewBox="0 0 24 24" fill="none" xmlns="http://www.w3.org/2000/svg">
<path opacity="0.3" d="M11.5501 21.8265C14.0768 21.8265 16.1251 19.7782 16.1251 17.2515C16.1251 14.7248 14.0768 12.6765 11.5501 12.6765C9.02342 12.6765 6.9751 14.7248 6.9751 17.2515C6.9751 19.7782 9.02342 21.8265 11.5501 21.8265Z" fill="currentColor"/>
<path d="M15.3755 17.2517C15.3755 15.1393 13.6627 13.4266 11.5503 13.4265C9.4378 13.4265 7.7251 15.1392 7.7251 17.2517C7.7252 19.3641 9.43786 21.0769 11.5503 21.0769C13.6626 21.0768 15.3754 19.3641 15.3755 17.2517ZM16.8755 17.2517C16.8754 20.1925 14.4911 22.5768 11.5503 22.5769C8.60945 22.5769 6.2252 20.1925 6.2251 17.2517C6.2251 14.3108 8.60938 11.9265 11.5503 11.9265C14.4911 11.9266 16.8755 14.3109 16.8755 17.2517Z" fill="currentColor"/>
<path d="M19.6504 12.0016L19.7266 12.0055C20.1048 12.0438 20.4004 12.3632 20.4004 12.7516C20.4004 13.14 20.1048 13.4593 19.7266 13.4977L19.6504 13.5016H3.75C3.33579 13.5016 3 13.1658 3 12.7516C3 12.3374 3.33579 12.0016 3.75 12.0016H19.6504Z" fill="currentColor"/>
<path opacity="0.3" d="M9.44989 5.40157C9.07567 4.93605 8.88847 4.34773 8.92488 3.75157C9.0309 3.1221 9.35651 2.55055 9.84393 2.13836C10.3313 1.72617 10.949 1.5 11.5874 1.5C12.2257 1.5 12.8434 1.72617 13.3308 2.13836C13.8182 2.55055 14.1438 3.1221 14.2499 3.75157C14.2502 4.3427 14.0667 4.91932 13.7248 5.40157" fill="currentColor"/>
<path d="M12.9751 9.07617V5.40137C12.9751 5.24606 13.023 5.09448 13.1128 4.96777C13.3524 4.62972 13.4843 4.22869 13.4966 3.81543C13.4099 3.38504 13.1823 2.99522 12.8462 2.71094C12.4942 2.41338 12.0483 2.25001 11.5874 2.25C11.1265 2.25 10.6806 2.41339 10.3286 2.71094C9.98675 3.00001 9.75557 3.39787 9.67233 3.83691C9.65767 4.23315 9.78565 4.62191 10.0346 4.93164C10.1416 5.06478 10.1996 5.23057 10.1997 5.40137V9.07617C10.1997 9.49039 9.86389 9.82617 9.44968 9.82617C9.03555 9.82606 8.69968 9.49032 8.69968 9.07617V5.64355C8.32023 5.07395 8.13425 4.3943 8.17624 3.70605L8.18503 3.62695C8.3205 2.82263 8.73702 2.09211 9.35983 1.56543C9.9826 1.03888 10.7718 0.75 11.5874 0.75C12.4029 0.750008 13.1921 1.03887 13.8149 1.56543C14.4377 2.09211 14.8542 2.82263 14.9897 3.62695C14.9966 3.66792 14.9994 3.70944 14.9995 3.75098C14.9999 4.41269 14.817 5.05937 14.4751 5.62207V9.07617C14.4751 9.49031 14.1392 9.82605 13.7251 9.82617C13.3109 9.82617 12.9751 9.49039 12.9751 9.07617Z" fill="currentColor"/>
</svg>
