<svg viewBox="0 0 24 24" fill="none" xmlns="http://www.w3.org/2000/svg">
<path opacity="0.3" d="M22.0925 18.3593C20.7943 19.535 19.2586 20.418 17.5893 20.9485C15.9201 21.479 14.1564 21.6447 12.4176 21.4343C6.79256 20.8343 0.942558 16.4093 1.54256 10.7843C1.76756 8.30925 1.84253 9.20926 2.21753 3.50926C2.21753 3.20926 3.04256 3.05926 3.04256 3.05926C3.04256 3.05926 4.39255 2.75926 4.39255 3.50926C4.39175 4.86284 4.61999 6.20681 5.06757 7.48426C5.89722 9.93029 7.47143 12.0554 9.56958 13.5618C11.6677 15.0681 14.1846 15.8802 16.7675 15.8843C18.0126 15.9047 19.253 15.7275 20.4426 15.3593C20.8334 15.2034 21.2677 15.1957 21.6637 15.3377C22.0598 15.4796 22.3904 15.7615 22.5931 16.1302C22.7959 16.4989 22.857 16.9289 22.7648 17.3395C22.6726 17.75 22.4335 18.1127 22.0925 18.3593Z" fill="currentColor"/>
<path d="M3.75885 2.25387C3.97468 2.26585 4.28988 2.30991 4.57233 2.48238C4.90691 2.68685 5.14249 3.0433 5.14264 3.50875C5.142 4.61906 5.30597 5.72336 5.628 6.78414L5.77546 7.23629L5.77839 7.24312C6.55772 9.5408 8.03605 11.5371 10.0069 12.9521C11.9779 14.3671 14.3423 15.1299 16.7686 15.1337H16.7803C17.9459 15.1528 19.1071 14.9873 20.2208 14.6425C20.767 14.4396 21.3673 14.4347 21.9171 14.6318C22.4852 14.8355 22.9591 15.2397 23.2501 15.7685C23.541 16.2975 23.6284 16.9148 23.4962 17.5039C23.3687 18.0712 23.0448 18.5733 22.584 18.9257C21.2087 20.1682 19.583 21.1016 17.8165 21.663C16.0449 22.2261 14.1727 22.402 12.3272 22.1787C9.36547 21.8603 6.35224 20.5415 4.14362 18.5507C1.92829 16.554 0.46479 13.8202 0.796941 10.705C1.02955 8.15136 1.09335 9.16701 1.46882 3.45992H1.47272C1.49396 3.04716 1.77322 2.80213 1.90534 2.70601C2.06584 2.58929 2.24518 2.51363 2.37409 2.46676C2.51191 2.41666 2.64398 2.381 2.73737 2.35836C2.785 2.34682 2.82523 2.33808 2.85456 2.33199C2.86497 2.32983 2.87425 2.32862 2.8819 2.32711L2.88385 2.32613C2.88545 2.32578 2.88752 2.32562 2.88971 2.32515C2.89077 2.32493 2.89244 2.3254 2.89362 2.32515C2.89673 2.32455 2.89917 2.32265 2.90143 2.32222H2.90632L2.90729 2.32125C2.92179 2.3183 2.94214 2.31386 2.96589 2.30953C3.01336 2.30086 3.07923 2.29035 3.15729 2.28023C3.3089 2.26058 3.52733 2.24104 3.75885 2.25387ZM3.64655 3.75191C3.54855 3.74894 3.44179 3.7556 3.34968 3.76754C3.30142 3.7738 3.26172 3.78032 3.23542 3.78512C3.22234 3.7875 3.21236 3.7899 3.2071 3.79097H3.20514L3.17682 3.79683C3.17384 3.79741 3.16764 3.7992 3.16022 3.80074C3.14458 3.80399 3.12023 3.80926 3.09089 3.81637C3.04647 3.82713 2.99534 3.84307 2.9444 3.85933C2.63269 8.53406 2.52849 8.5938 2.3653 10.0878L2.28913 10.8525L2.28815 10.8642C2.02066 13.3736 3.18195 15.6647 5.14753 17.4365C6.99435 19.1011 9.50051 20.2537 11.9981 20.625L12.4971 20.6884L12.5079 20.6894L12.8135 20.7226C14.3462 20.8665 15.8933 20.7003 17.3624 20.2334C18.929 19.7354 20.3705 18.9071 21.5889 17.8037L21.7227 17.6962C21.8784 17.5605 21.9877 17.3778 22.0333 17.1748C22.0853 16.9428 22.0502 16.6995 21.9356 16.4912C21.8211 16.2832 21.6347 16.1242 21.4112 16.0439C21.2155 15.9737 21.0027 15.9677 20.8048 16.0263L20.7208 16.0556C20.7023 16.063 20.6831 16.0703 20.6641 16.0761C19.4025 16.4666 18.0871 16.6532 16.7667 16.6328H16.7647C16.7616 16.6327 16.7581 16.6338 16.7549 16.6337C14.0195 16.6271 11.3541 15.7663 9.1319 14.1709C6.90852 12.5745 5.2399 10.3229 4.35944 7.7314C3.91071 6.45065 3.67161 5.10774 3.64655 3.75191Z" fill="currentColor"/>
<path d="M4.41258 6.17945C4.69977 5.91804 5.13448 5.92163 5.41746 6.17555L5.47215 6.22926L5.72703 6.49976C7.02205 7.8328 8.62296 8.83341 10.393 9.41187C12.2808 10.0287 14.2964 10.1444 16.2427 9.74879L16.2534 9.74684L16.685 9.65699C17.6872 9.42611 18.6523 9.05439 19.5522 8.55348L19.5796 8.5398L19.769 8.45387C20.216 8.27382 20.7077 8.22719 21.1831 8.32301C21.7263 8.43256 22.217 8.72172 22.5766 9.14332C22.9363 9.565 23.144 10.0954 23.1665 10.6492C23.1861 11.1338 23.0633 11.6121 22.8149 12.0252L22.7007 12.198C22.6863 12.2178 22.6709 12.2373 22.6548 12.2556L21.5298 13.53C21.2557 13.8406 20.7818 13.8705 20.4712 13.5964C20.1607 13.3224 20.1308 12.8484 20.4048 12.5379L21.4936 11.3025C21.6138 11.1286 21.676 10.9212 21.6675 10.7097C21.6585 10.4917 21.5767 10.283 21.435 10.117C21.2933 9.95091 21.1002 9.83684 20.8862 9.79371C20.6724 9.75065 20.4502 9.78059 20.2553 9.87867C19.0936 10.5217 17.8367 10.9756 16.5317 11.2214L16.5307 11.2205C14.3334 11.6652 12.0584 11.534 9.92722 10.8377C7.92584 10.1836 6.11512 9.05284 4.65086 7.54566L4.36277 7.23902L4.31394 7.17945C4.08796 6.87396 4.12551 6.4408 4.41258 6.17945Z" fill="currentColor"/>
</svg>
