<svg viewBox="0 0 24 24" fill="none" xmlns="http://www.w3.org/2000/svg">
<path opacity="0.3" d="M20.4002 12.6C20.4002 14.8477 19.5073 17.0033 17.9179 18.5927C16.3286 20.1821 14.1729 21.075 11.9252 21.075C9.67749 21.075 7.52184 20.1821 5.93247 18.5927C4.34309 17.0033 3.4502 14.8477 3.4502 12.6" fill="currentColor"/>
<path d="M2.7002 12.6C2.7002 12.1858 3.03598 11.85 3.4502 11.85C3.86441 11.85 4.2002 12.1858 4.2002 12.6C4.2002 14.6487 5.01429 16.6132 6.46289 18.0619C7.91152 19.5105 9.87615 20.3245 11.9248 20.3246C13.9736 20.3246 15.939 19.5106 17.3877 18.0619C18.8362 16.6132 19.6504 14.6486 19.6504 12.6C19.6504 12.1858 19.9862 11.85 20.4004 11.85C20.8145 11.8501 21.1504 12.1858 21.1504 12.6C21.1504 15.0466 20.1783 17.3934 18.4482 19.1234C16.7182 20.8533 14.3713 21.8246 11.9248 21.8246C9.47846 21.8245 7.13225 20.8532 5.40234 19.1234C3.67232 17.3934 2.7002 15.0466 2.7002 12.6Z" fill="currentColor"/>
<path d="M22.2754 9.52502L22.3516 9.52893C22.7298 9.56728 23.0254 9.88666 23.0254 10.275C23.0254 10.6634 22.7298 10.9828 22.3516 11.0211L22.2754 11.025H1.5C1.08579 11.025 0.75 10.6892 0.75 10.275C0.75 9.86081 1.08579 9.52502 1.5 9.52502H22.2754Z" fill="currentColor"/>
<path d="M14.8496 12.75L14.9268 12.7539C15.3049 12.7923 15.5996 13.1117 15.5996 13.5C15.5996 13.8883 15.3049 14.2077 14.9268 14.2461L14.8496 14.25H9C8.58579 14.25 8.25 13.9142 8.25 13.5C8.25 13.0858 8.58579 12.75 9 12.75H14.8496Z" fill="currentColor"/>
<path d="M5.41276 18.2832C5.64895 17.9852 6.0778 17.9088 6.40495 18.1182C6.75365 18.3415 6.85475 18.8055 6.63151 19.1543L4.2321 22.9043C4.00883 23.2532 3.54484 23.3551 3.19596 23.1318C2.8471 22.9086 2.74519 22.4446 2.96842 22.0957L5.36882 18.3457L5.41276 18.2832Z" fill="currentColor"/>
<path d="M17.3709 18.1182C17.6979 17.9089 18.1259 17.9855 18.3621 18.2832L18.407 18.3457L20.8064 22.0957L20.8445 22.1621C21.0163 22.5014 20.9069 22.9224 20.5799 23.1318C20.2527 23.3412 19.8239 23.2648 19.5877 22.9668L19.5437 22.9043L17.1433 19.1543L17.1052 19.0879C16.9336 18.7486 17.0437 18.3275 17.3709 18.1182Z" fill="currentColor"/>
<path d="M5.8501 7.12463V3.15002C5.8501 2.73581 6.18588 2.40002 6.6001 2.40002C7.01431 2.40002 7.3501 2.73581 7.3501 3.15002V7.12463C7.3501 7.53885 7.01431 7.87463 6.6001 7.87463C6.18588 7.87463 5.8501 7.53885 5.8501 7.12463Z" fill="currentColor"/>
<path d="M15.75 7.12463V3.15002C15.75 2.73581 16.0858 2.40002 16.5 2.40002C16.9142 2.40002 17.25 2.73581 17.25 3.15002V7.12463C17.25 7.53885 16.9142 7.87463 16.5 7.87463C16.0858 7.87463 15.75 7.53885 15.75 7.12463Z" fill="currentColor"/>
<path d="M10.7998 4.875V1.5C10.7998 1.08579 11.1356 0.75 11.5498 0.75C11.964 0.75 12.2998 1.08579 12.2998 1.5V4.875C12.2998 5.28921 11.964 5.625 11.5498 5.625C11.1356 5.625 10.7998 5.28921 10.7998 4.875Z" fill="currentColor"/>
</svg>
