<svg viewBox="0 0 24 24" fill="none" xmlns="http://www.w3.org/2000/svg">
<path opacity="0.3" d="M9.0752 3.75V1.5H14.9252V3.75" fill="currentColor"/>
<path opacity="0.3" d="M21.0751 12.525C20.8686 14.7991 19.8192 16.9138 18.1331 18.4538C16.447 19.9937 14.2461 20.8475 11.9626 20.8475C9.67915 20.8475 7.47819 19.9937 5.7921 18.4538C4.10601 16.9138 3.05662 14.7991 2.8501 12.525" fill="currentColor"/>
<path d="M21.1431 11.7779C21.5554 11.8154 21.859 12.1801 21.8218 12.5923C21.5983 15.0528 20.4634 17.3413 18.6392 19.0074C16.8149 20.6735 14.433 21.5972 11.9624 21.5972C9.49189 21.5972 7.11085 20.6734 5.28662 19.0074C3.57642 17.4455 2.47136 15.3371 2.15576 13.0523L2.10303 12.5923L2.1001 12.5162C2.10409 12.136 2.39595 11.813 2.78271 11.7779C3.16937 11.743 3.51414 12.0082 3.58643 12.3814L3.59717 12.4576L3.64111 12.8472C3.90891 14.7858 4.84729 16.5747 6.29834 17.9C7.84614 19.3134 9.86631 20.0972 11.9624 20.0972C14.0587 20.0972 16.0796 19.3137 17.6274 17.9C19.1752 16.4864 20.1389 14.5451 20.3286 12.4576C20.3661 12.0451 20.7305 11.7404 21.1431 11.7779Z" fill="currentColor"/>
<path d="M4.55439 10.2977C4.45899 10.7006 4.05503 10.9505 3.65205 10.8553C3.24922 10.76 3.00043 10.3559 3.09541 9.953L4.55439 10.2977ZM20.905 9.953C20.9999 10.356 20.7503 10.7602 20.3474 10.8553C19.9444 10.9505 19.5404 10.7006 19.445 10.2977L20.905 9.953ZM11.9997 2.90613C14.0606 2.90613 16.0613 3.60196 17.6774 4.88074C19.2936 6.15962 20.4312 7.94723 20.905 9.953L20.1745 10.1249L19.445 10.2977C19.0489 8.62081 18.098 7.12672 16.7468 6.0575C15.3955 4.98826 13.7228 4.40613 11.9997 4.40613C10.2767 4.40618 8.60382 4.98831 7.25264 6.0575C5.90158 7.12671 4.9505 8.62092 4.55439 10.2977L3.8249 10.1249L3.09541 9.953C3.56922 7.94725 4.7058 6.15962 6.32197 4.88074C7.93811 3.60189 9.9388 2.90618 11.9997 2.90613Z" fill="currentColor"/>
<path d="M22.4248 9.375L22.502 9.37891C22.88 9.41743 23.1748 9.73676 23.1748 10.125C23.1748 10.5132 22.88 10.8326 22.502 10.8711L22.4248 10.875H1.5C1.08579 10.875 0.75 10.5392 0.75 10.125C0.75 9.71079 1.08579 9.375 1.5 9.375H22.4248Z" fill="currentColor"/>
<path d="M14.625 12.75L14.7012 12.7539C15.0795 12.7922 15.375 13.1116 15.375 13.5C15.375 13.8884 15.0795 14.2078 14.7012 14.2461L14.625 14.25H9.2998C8.88559 14.25 8.5498 13.9142 8.5498 13.5C8.5498 13.0858 8.88559 12.75 9.2998 12.75H14.625Z" fill="currentColor"/>
<path d="M14.1748 3.75V2.25H9.8252V3.75C9.8252 4.16421 9.48941 4.5 9.0752 4.5C8.66098 4.5 8.3252 4.16421 8.3252 3.75V1.5L8.3291 1.42285C8.36772 1.04488 8.68703 0.75 9.0752 0.75H14.9248L15.002 0.753906C15.3801 0.792333 15.6748 1.11169 15.6748 1.5V3.75C15.6748 4.16421 15.339 4.5 14.9248 4.5C14.5108 4.49977 14.1748 4.16407 14.1748 3.75Z" fill="currentColor"/>
<path d="M5.38277 18.4742C5.61813 18.1333 6.08586 18.0474 6.42672 18.2828C6.7673 18.5182 6.85231 18.985 6.61715 19.3258L4.44234 22.4762L4.39547 22.5367C4.14911 22.8261 3.71894 22.8879 3.39938 22.6676C3.05852 22.4322 2.97262 21.9645 3.20797 21.6236L5.38277 18.4742Z" fill="currentColor"/>
<path d="M17.4894 18.2896C17.8054 18.0642 18.2365 18.1186 18.4875 18.4039L18.5353 18.4644L20.7853 21.6138L20.8264 21.6783C21.0153 22.0084 20.9267 22.4349 20.6105 22.6607C20.2947 22.886 19.8635 22.8315 19.6125 22.5465L19.5646 22.4859L17.3146 19.3355L17.2736 19.2711C17.0851 18.941 17.1735 18.5153 17.4894 18.2896Z" fill="currentColor"/>
</svg>
