<svg viewBox="0 0 24 24" fill="none" xmlns="http://www.w3.org/2000/svg">
<path opacity="0.3" d="M3.6748 10.8682C4.10465 11.1165 4.59453 11.2529 5.09961 11.2529H5.7002V15.0029C5.7002 15.6196 5.94485 16.2114 6.38086 16.6475C6.81688 17.0835 7.40876 17.3281 8.02539 17.3281C8.64184 17.328 9.23302 17.0833 9.66895 16.6475C10.105 16.2114 10.3496 15.6196 10.3496 15.0029V11.2529H15.5996C15.9837 11.2529 16.3648 11.1773 16.7197 11.0303C16.8251 10.9866 16.9262 10.9343 17.0254 10.8789V21.1533C17.0254 21.551 16.8671 21.9326 16.5859 22.2139C16.3047 22.4951 15.923 22.6532 15.5254 22.6533H5.1748C4.77702 22.6533 4.39553 22.4951 4.11426 22.2139C3.833 21.9326 3.6748 21.5511 3.6748 21.1533V10.8682Z" fill="currentColor"/>
<path d="M2.9248 21.1531V9.97827C2.9248 9.56406 3.26059 9.22827 3.6748 9.22827C4.08902 9.22827 4.4248 9.56406 4.4248 9.97827V21.1531L4.43945 21.3005C4.4683 21.4446 4.53916 21.5779 4.64453 21.6833C4.78518 21.824 4.97589 21.9031 5.1748 21.9031H15.5244C15.7233 21.9031 15.914 21.8239 16.0547 21.6833C16.1953 21.5427 16.2744 21.352 16.2744 21.1531V9.97827C16.2744 9.56419 16.6104 9.22848 17.0244 9.22827C17.4386 9.22827 17.7744 9.56406 17.7744 9.97827V21.1531C17.7744 21.7496 17.5379 22.322 17.1162 22.7439C16.6943 23.1659 16.1212 23.4031 15.5244 23.4031H5.1748C4.57807 23.4031 4.00594 23.1659 3.58398 22.7439C3.21484 22.3747 2.98669 21.8907 2.93555 21.3757L2.9248 21.1531Z" fill="currentColor"/>
<path d="M5.7002 15.003V11.253H5.09961C4.34402 11.2529 3.61932 10.9532 3.08496 10.419C2.55048 9.88449 2.25 9.15921 2.25 8.40335C2.25 7.64749 2.55049 6.9222 3.08496 6.38772C3.46307 6.00973 3.93702 5.75113 4.44922 5.63089C4.71661 4.36293 5.37951 3.20645 6.34961 2.33206C7.46827 1.32381 8.91789 0.760584 10.4238 0.750028C11.9298 0.739497 13.3878 1.28191 14.5205 2.27444C15.5135 3.14466 16.1952 4.30832 16.4746 5.5889C16.9645 5.73218 17.4113 6.00436 17.7637 6.38382C18.2543 6.91227 18.5267 7.6071 18.5254 8.32815L18.5107 8.61526C18.4826 8.90079 18.4129 9.18124 18.3027 9.44729C18.1557 9.80217 17.9396 10.1249 17.668 10.3965C17.3965 10.668 17.0744 10.8833 16.7197 11.0303C16.4535 11.1406 16.1725 11.2111 15.8867 11.2393L15.5996 11.253H10.3496V15.003C10.3496 15.6196 10.105 16.2115 9.66895 16.6475C9.23302 17.0834 8.64183 17.3281 8.02539 17.3282C7.40876 17.3282 6.81688 17.0835 6.38086 16.6475C5.94485 16.2115 5.7002 15.6196 5.7002 15.003ZM3.75 8.40335C3.75 8.76139 3.89234 9.10526 4.14551 9.35843C4.39856 9.61133 4.74184 9.75285 5.09961 9.75296H6.4502C6.86418 9.75306 7.19998 10.089 7.2002 10.503V15.003C7.2002 15.2218 7.28669 15.4322 7.44141 15.5869C7.59612 15.7417 7.80659 15.8282 8.02539 15.8282C8.24401 15.8281 8.45378 15.7415 8.6084 15.5869C8.76311 15.4322 8.84961 15.2218 8.84961 15.003V10.503C8.84983 10.0891 9.18571 9.75317 9.59961 9.75296H15.5996L15.7402 9.74612C15.8793 9.73237 16.016 9.69822 16.1455 9.64456C16.3183 9.57297 16.4752 9.46818 16.6074 9.33597C16.7397 9.20368 16.8454 9.04688 16.917 8.87405C16.9886 8.70116 17.0254 8.51529 17.0254 8.32815V8.3262L17.0195 8.19925C16.9923 7.90355 16.8677 7.62366 16.6641 7.40433C16.4314 7.15385 16.1125 7.00102 15.7715 6.97659C15.4145 6.95103 15.1256 6.67639 15.0811 6.32132C14.9394 5.19159 14.3876 4.15275 13.5312 3.40237C12.6749 2.65214 11.573 2.2421 10.4346 2.25003C9.29591 2.25799 8.19935 2.68396 7.35352 3.44632C6.5608 4.16093 6.03978 5.12485 5.87402 6.17483L5.8457 6.38577C5.80877 6.71801 5.55815 6.97979 5.24023 7.04007L5.09961 7.05374C4.74171 7.05384 4.39859 7.19617 4.14551 7.44925C3.89245 7.7024 3.75 8.0454 3.75 8.40335Z" fill="currentColor"/>
<path d="M12.1499 19.9529V13.7283C12.1499 13.3141 12.4857 12.9783 12.8999 12.9783C13.3141 12.9783 13.6499 13.3141 13.6499 13.7283V19.9529C13.6499 20.3671 13.3141 20.7029 12.8999 20.7029C12.4857 20.7029 12.1499 20.3671 12.1499 19.9529Z" fill="currentColor"/>
<path d="M7.2749 20.4031V18.9783C7.2749 18.5641 7.61069 18.2283 8.0249 18.2283C8.43912 18.2283 8.7749 18.5641 8.7749 18.9783V20.4031C8.7749 20.8173 8.43912 21.1531 8.0249 21.1531C7.61069 21.1531 7.2749 20.8173 7.2749 20.4031Z" fill="currentColor"/>
<path d="M19.644 12.8445C19.6325 12.7868 19.6042 12.7334 19.562 12.6912C19.5058 12.6349 19.4296 12.6033 19.3501 12.6033H17.7749V17.9285H19.3501L19.4087 17.9226C19.4663 17.9111 19.5198 17.8827 19.562 17.8406C19.6182 17.7844 19.6498 17.7081 19.6499 17.6287V12.9031L19.644 12.8445ZM21.1499 17.6287C21.1498 18.1059 20.96 18.5637 20.6226 18.9011C20.3272 19.1964 19.9399 19.3788 19.5278 19.4197L19.3501 19.4285H17.0249C16.6108 19.4285 16.275 19.0926 16.2749 18.6785V11.8533L16.2788 11.7761C16.3174 11.3982 16.6367 11.1033 17.0249 11.1033H19.3501C19.8274 11.1033 20.285 11.2931 20.6226 11.6306C20.9601 11.9681 21.1499 12.4257 21.1499 12.9031V17.6287Z" fill="currentColor"/>
</svg>
