<svg viewBox="0 0 24 24" fill="none" xmlns="http://www.w3.org/2000/svg">
<path opacity="0.3" d="M22.2753 9.2675C22.2753 10.3814 21.8328 11.4497 21.0451 12.2373C20.2575 13.025 19.1892 13.4675 18.0753 13.4675C17.052 13.4738 16.063 13.0996 15.3003 12.4175C14.8261 13.3054 14.1131 14.0431 13.2418 14.5474C12.3706 15.0516 11.3758 15.3022 10.3696 15.271C9.36348 15.2398 8.38609 14.928 7.54776 14.3708C6.70943 13.8136 6.04355 13.0331 5.62527 12.1175C5.21273 12.4202 4.71183 12.5784 4.20025 12.5675C3.84568 12.5675 3.49459 12.4977 3.16701 12.362C2.83943 12.2263 2.5418 12.0274 2.29108 11.7767C2.04036 11.526 1.84147 11.2283 1.70578 10.9007C1.5701 10.5732 1.50027 10.2221 1.50027 9.8675C1.49265 9.33647 1.64628 8.81562 1.94087 8.37373C2.23546 7.93184 2.65714 7.5897 3.15026 7.3925C3.02263 6.98026 2.9718 6.5481 3.00027 6.1175C3.00689 5.1709 3.30224 4.24886 3.84688 3.47461C4.39153 2.70036 5.15952 2.11078 6.0482 1.78466C6.93687 1.45854 7.9039 1.41141 8.82007 1.64958C9.73625 1.88775 10.5579 2.39987 11.1753 3.1175C12.0471 2.48363 13.0974 2.1423 14.1753 2.1425C15.1191 2.14197 16.0408 2.42869 16.8178 2.96456C17.5948 3.50042 18.1904 4.26005 18.5253 5.1425C19.5531 5.23631 20.5083 5.71199 21.2026 6.47564C21.8968 7.2393 22.2796 8.23546 22.2753 9.2675Z" fill="currentColor"/>
<path d="M5.79025 1.08104C6.82225 0.702329 7.94506 0.647228 9.009 0.923809C9.85934 1.14487 10.6394 1.56931 11.2844 2.15623C12.1623 1.65739 13.1579 1.39345 14.175 1.39354C15.2709 1.39293 16.3412 1.72459 17.2434 2.34666C18.0202 2.88243 18.6403 3.61178 19.0461 4.45799C20.0866 4.6524 21.0404 5.18138 21.758 5.97068C22.5778 6.87244 23.0299 8.04895 23.0256 9.26756L23.0197 9.51268C22.9591 10.7362 22.4458 11.8972 21.5754 12.7676C20.648 13.6949 19.3907 14.2158 18.0793 14.2168L18.0803 14.2178C18.0791 14.2178 18.0776 14.2168 18.0764 14.2168L18.0754 14.2178V14.2168C17.1624 14.2215 16.273 13.97 15.5041 13.499C15.0018 14.1872 14.3602 14.7664 13.6174 15.1963C12.6253 15.7704 11.4926 16.056 10.3469 16.0205C9.20101 15.985 8.08778 15.6297 7.13302 14.9951C6.39814 14.5066 5.78074 13.867 5.31759 13.123C4.96211 13.2548 4.58427 13.3226 4.2004 13.3164V13.3174C4.1978 13.3174 4.19519 13.3164 4.19259 13.3164C4.18999 13.3163 4.18737 13.3174 4.18478 13.3174V13.3164C3.73705 13.3144 3.29383 13.226 2.88009 13.0547C2.46157 12.8813 2.08126 12.6269 1.76095 12.3066C1.44069 11.9863 1.18625 11.606 1.0129 11.1875C0.861261 10.8213 0.774532 10.4321 0.75509 10.0371L0.750207 9.86717C0.742691 9.18842 0.940077 8.52297 1.31661 7.95799C1.57358 7.57254 1.90714 7.24728 2.2922 6.99803C2.24691 6.70268 2.23291 6.40288 2.25021 6.1035C2.25964 5.00729 2.60279 3.9397 3.23361 3.04295C3.8661 2.14384 4.75826 1.45975 5.79025 1.08104ZM8.63204 2.37498C7.86371 2.17524 7.05213 2.21481 6.30685 2.48826C5.5615 2.76179 4.91696 3.25687 4.46017 3.90623C4.06058 4.47436 3.82125 5.13749 3.76388 5.82615L3.75021 6.12303L3.74923 6.16697C3.72682 6.50597 3.76693 6.84637 3.86739 7.17088C3.96837 7.49757 3.83487 7.84466 3.55685 8.02342L3.42892 8.08885C3.07672 8.22971 2.77508 8.47439 2.56466 8.79002C2.35447 9.10549 2.24482 9.47738 2.25021 9.85643V9.86717L2.25997 10.0586C2.27872 10.2489 2.32523 10.4359 2.39864 10.6133C2.4966 10.8498 2.6405 11.065 2.8215 11.2461C3.00258 11.4272 3.21774 11.5709 3.45431 11.6689C3.69087 11.7669 3.94435 11.8174 4.2004 11.8174C4.20559 11.8174 4.21084 11.8173 4.21603 11.8174L4.34591 11.8154C4.64687 11.7971 4.93731 11.6921 5.18185 11.5127L5.25216 11.4668C5.42148 11.3696 5.62361 11.3419 5.81466 11.3916C6.03287 11.4485 6.21409 11.6005 6.30782 11.8056C6.668 12.5941 7.24124 13.2662 7.9631 13.7461C8.68491 14.2259 9.52648 14.4945 10.3928 14.5215C11.2592 14.5483 12.1162 14.3326 12.8664 13.8984C13.6166 13.4643 14.2305 12.8289 14.6389 12.0644L14.6838 11.9912C14.797 11.8274 14.9718 11.7138 15.1701 11.6787C15.3965 11.6388 15.6286 11.7052 15.8 11.8584C16.424 12.4164 17.2335 12.7228 18.0705 12.7178H18.0754L18.2463 12.7129C19.0991 12.6706 19.9083 12.3136 20.5149 11.707C21.1618 11.06 21.5256 10.1825 21.5256 9.26756V9.26463L21.5119 8.9492C21.4465 8.21911 21.1446 7.52709 20.6477 6.98045C20.0797 6.35564 19.2981 5.96639 18.4572 5.88963C18.2074 5.86681 17.9884 5.72057 17.8693 5.50486L17.8244 5.40818C17.5435 4.66822 17.0434 4.03139 16.3918 3.58201C15.7402 3.1327 14.9675 2.89214 14.176 2.89256H14.175C13.2558 2.89246 12.3599 3.18311 11.6164 3.72361C11.3006 3.95323 10.8613 3.90243 10.6067 3.60643C10.089 3.00475 9.40023 2.57475 8.63204 2.37498Z" fill="currentColor"/>
<path d="M17.9403 12.7302C18.3475 12.6555 18.7384 12.9246 18.8133 13.3318C18.8881 13.7389 18.6186 14.1286 18.2117 14.2039C18.212 14.2051 18.2126 14.2049 18.2127 14.2049H18.2137L18.2166 14.2039L18.2264 14.2019C18.2281 14.2016 18.2267 14.2018 18.2225 14.2029C18.2139 14.2051 18.1934 14.2109 18.1629 14.2215C18.1015 14.2427 17.9984 14.284 17.868 14.3572C17.6094 14.5024 17.2302 14.7804 16.8358 15.2996C16.0471 16.3378 15.1502 18.4091 15.1502 22.4675C15.1502 22.8818 14.8144 23.2175 14.4002 23.2175H10.576C10.372 23.2175 10.1764 23.1341 10.035 22.9871C9.89372 22.8401 9.81806 22.642 9.82599 22.4383V22.4295C9.82623 22.4212 9.82666 22.4078 9.82697 22.3894C9.82761 22.3522 9.82849 22.2947 9.82795 22.2195C9.82687 22.0688 9.82126 21.8467 9.80353 21.5701C9.76796 21.0154 9.68315 20.2478 9.4881 19.4011C9.09381 17.6898 8.27293 15.7551 6.60431 14.5203C6.2715 14.2739 6.20171 13.8044 6.44806 13.4715C6.69446 13.1386 7.16398 13.068 7.49689 13.3142C9.57813 14.8543 10.5193 17.1954 10.95 19.0652C11.1674 20.0088 11.2612 20.8587 11.3006 21.4734C11.3061 21.5592 11.3087 21.641 11.3123 21.7175H13.661C13.7645 17.9131 14.6549 15.6899 15.6404 14.3924C16.1645 13.7025 16.7041 13.2902 17.1346 13.0486C17.3485 12.9286 17.5332 12.8517 17.6727 12.8035C17.7424 12.7794 17.8013 12.7625 17.8465 12.7508C17.8689 12.7449 17.8885 12.7405 17.9041 12.7371C17.9118 12.7354 17.9187 12.7344 17.9246 12.7332C17.9277 12.7326 17.9308 12.7317 17.9334 12.7312C17.9345 12.731 17.9354 12.7304 17.9363 12.7302H17.9383C17.939 12.7301 17.9399 12.7299 18.0242 13.1883L17.9403 12.7302Z" fill="currentColor"/>
</svg>
