<svg viewBox="0 0 24 24" fill="none" xmlns="http://www.w3.org/2000/svg">
<path opacity="0.3" d="M3.67676 17.25H20.6267V18.375C20.6267 19.1706 20.3107 19.9337 19.7481 20.4963C19.1855 21.0589 18.4224 21.375 17.6267 21.375H6.67676C5.88111 21.375 5.11804 21.0589 4.55544 20.4963C3.99283 19.9337 3.67676 19.1706 3.67676 18.375V17.25Z" fill="currentColor"/>
<path opacity="0.3" d="M20.5518 12.6749H18.6018H17.2889L15 15.5L12.3388 12.6749H10.3518H3.75183C3.45353 12.6644 3.15627 12.7155 2.87855 12.8249C2.60083 12.9342 2.3486 13.0996 2.13755 13.3106C1.92649 13.5217 1.76113 13.7739 1.65177 14.0516C1.5424 14.3294 1.49135 14.6266 1.50183 14.9249C1.49176 15.2266 1.54252 15.5273 1.65108 15.809C1.75964 16.0907 1.92378 16.3477 2.13373 16.5646C2.34367 16.7816 2.59514 16.954 2.87313 17.0718C3.15112 17.1895 3.44994 17.2501 3.75183 17.2499H20.5518C21.1685 17.2499 21.7598 17.005 22.1959 16.5689C22.6319 16.1329 22.8768 15.5416 22.8768 14.9249C22.877 14.623 22.8164 14.3242 22.6987 14.0462C22.5809 13.7682 22.4085 13.5168 22.1916 13.3068C21.9746 13.0969 21.7176 12.9327 21.4359 12.8242C21.1542 12.7156 20.8536 12.6649 20.5518 12.6749Z" fill="currentColor"/>
<path opacity="0.3" d="M10.1267 3H14.2517C15.9624 3 17.603 3.67955 18.8126 4.88916C20.0222 6.09877 20.7018 7.73936 20.7018 9.45H3.67676C3.67676 7.73936 4.35629 6.09877 5.5659 4.88916C6.77551 3.67955 8.41609 3 10.1267 3Z" fill="currentColor"/>
<path d="M19.877 18H4.42676V18.375C4.42676 18.9717 4.66398 19.5439 5.08594 19.9658C5.50789 20.3878 6.08002 20.625 6.67676 20.625H17.627C18.2236 20.6249 18.7959 20.3877 19.2178 19.9658C19.6397 19.5439 19.877 18.9717 19.877 18.375V18ZM21.377 18.375C21.377 19.3695 20.9815 20.3231 20.2783 21.0264C19.5751 21.7296 18.6214 22.1249 17.627 22.125H6.67676C5.6822 22.125 4.72865 21.7296 4.02539 21.0264C3.32213 20.3231 2.92676 19.3696 2.92676 18.375V17.25L2.93066 17.1729C2.96929 16.7949 3.28859 16.5 3.67676 16.5H20.627C21.0411 16.5001 21.377 16.8359 21.377 17.25V18.375Z" fill="currentColor"/>
<path d="M3.75146 11.9256V11.9246H10.3521L10.4282 11.9285C10.8065 11.9667 11.1019 12.2863 11.1021 12.6746C11.1021 13.063 10.8065 13.3824 10.4282 13.4207L10.3521 13.4246H3.7251C3.53001 13.4178 3.33549 13.4508 3.15381 13.5222C2.97186 13.5939 2.80577 13.7023 2.66748 13.8406C2.5292 13.9789 2.42077 14.145 2.34912 14.3269C2.27766 14.5086 2.24467 14.7031 2.25146 14.8982C2.25207 14.9153 2.25204 14.9329 2.25146 14.95C2.24476 15.1511 2.27871 15.352 2.35107 15.5398C2.42339 15.7273 2.53266 15.8983 2.67236 16.0427C2.81232 16.1874 2.9802 16.3031 3.16553 16.3816C3.35083 16.4601 3.55023 16.4999 3.75146 16.4998H20.5522C20.9698 16.4997 21.3703 16.3341 21.6655 16.0388C21.9609 15.7435 22.1265 15.3423 22.1265 14.9246L22.1196 14.7742C22.1046 14.6246 22.0672 14.4777 22.0083 14.3386C21.9298 14.1533 21.815 13.9854 21.6704 13.8455C21.5259 13.7056 21.3542 13.5966 21.1665 13.5242C20.9787 13.4518 20.7778 13.4179 20.5767 13.4246H18.6021C18.1878 13.4246 17.8521 13.0888 17.8521 12.6746C17.8522 12.2605 18.188 11.9246 18.6021 11.9246H20.5522V11.9256C20.946 11.9158 21.3379 11.9831 21.7056 12.1248C22.0811 12.2695 22.4241 12.4884 22.7134 12.7683C23.0025 13.0482 23.2323 13.3833 23.3892 13.7537C23.546 14.1241 23.6266 14.5223 23.6265 14.9246L23.6235 15.0779C23.5857 15.8378 23.2666 16.5589 22.7261 17.0994C22.1495 17.6759 21.3676 17.9997 20.5522 17.9998H3.75146V17.9988C3.34921 17.9989 2.95098 17.9194 2.58057 17.7625C2.21014 17.6056 1.87504 17.3757 1.59521 17.0867C1.31536 16.7975 1.09641 16.4544 0.95166 16.0789C0.813029 15.7192 0.746147 15.3361 0.752441 14.951L0.750488 14.8006C0.756243 14.4504 0.82506 14.1037 0.953613 13.7771C1.10069 13.4036 1.3231 13.0639 1.60693 12.7801C1.89076 12.4962 2.23051 12.2738 2.604 12.1267C2.96911 11.983 3.35937 11.9154 3.75146 11.9256Z" fill="currentColor"/>
<path d="M21.377 8.92505C21.9737 8.92505 22.5458 9.16228 22.9678 9.58423C23.3898 10.0062 23.627 10.5783 23.627 11.175V11.1858C23.6187 11.7626 23.3875 12.312 22.9854 12.7239L22.9863 12.7249C22.9828 12.7288 22.9782 12.7317 22.9746 12.7356C22.9667 12.7436 22.9602 12.7531 22.9521 12.761L22.9512 12.759C22.7528 12.971 22.5142 13.1416 22.2471 13.2561C21.9723 13.3738 21.6756 13.4302 21.377 13.4241L17.8184 13.425L15.4922 16.093C15.3498 16.2563 15.1434 16.3499 14.9268 16.3499C14.7101 16.3498 14.5037 16.2563 14.3613 16.093L12.0352 13.425H2.92676C2.63169 13.4253 2.33962 13.3655 2.06836 13.2493C1.79673 13.1329 1.5512 12.9625 1.34766 12.7483C1.14419 12.5341 0.98706 12.2803 0.884766 12.0032C0.808039 11.7953 0.763758 11.5772 0.75293 11.3567V10.9934C0.763759 10.7729 0.80804 10.5548 0.884766 10.3469C0.987061 10.0698 1.14419 9.81601 1.34766 9.60181C1.5512 9.38755 1.79673 9.21722 2.06836 9.10083C2.33959 8.98461 2.63166 8.92579 2.92676 8.92603L21.377 8.92505ZM2.79004 10.4387C2.74525 10.4479 2.70141 10.4616 2.65918 10.4797C2.5749 10.5159 2.4987 10.5685 2.43555 10.635C2.37239 10.7015 2.32375 10.7804 2.29199 10.8665C2.26023 10.9525 2.24615 11.0444 2.25098 11.136V11.2141C2.24615 11.3057 2.26024 11.3976 2.29199 11.4836C2.32375 11.5697 2.37239 11.6486 2.43555 11.7151C2.4987 11.7816 2.5749 11.8342 2.65918 11.8704C2.74341 11.9065 2.83411 11.9252 2.92578 11.925H12.377L12.458 11.929C12.6444 11.9492 12.8178 12.0391 12.9424 12.1819L14.9268 14.4583L16.9121 12.1819L16.9678 12.1243C17.1055 11.9969 17.287 11.9252 17.4766 11.925H21.4014L21.5312 11.9153C21.5741 11.9072 21.616 11.8944 21.6562 11.8772C21.7367 11.8427 21.8088 11.791 21.8672 11.7258L21.9023 11.6897L21.9961 11.5764C22.0777 11.457 22.1229 11.3158 22.126 11.1692C22.1244 10.9724 22.0465 10.784 21.9072 10.6448C21.7666 10.5041 21.5759 10.425 21.377 10.425H2.92578L2.79004 10.4387Z" fill="currentColor"/>
<path d="M14.252 2.25C16.1613 2.25006 17.9926 3.00836 19.3428 4.3584C20.693 5.70865 21.4521 7.54063 21.4521 9.4502C21.452 9.86419 21.1161 10.2 20.7021 10.2002H3.67676C3.47789 10.2002 3.28713 10.1211 3.14648 9.98047C3.00588 9.83986 2.92681 9.64904 2.92676 9.4502C2.92676 7.54064 3.68489 5.70866 5.03516 4.3584C6.38542 3.00814 8.2174 2.25 10.127 2.25H14.252ZM10.127 3.75C8.61522 3.75 7.16564 4.35097 6.09668 5.41992C5.20606 6.31054 4.64142 7.46527 4.47754 8.7002H19.9014C19.7375 7.46536 19.1727 6.31053 18.2822 5.41992C17.2133 4.35102 15.7636 3.75006 14.252 3.75H10.127Z" fill="currentColor"/>
<path d="M7.44307 5.82417C7.72838 5.56081 8.16321 5.56071 8.44796 5.81245L8.50264 5.86616L9.40303 6.84077L9.45186 6.90034C9.68017 7.20425 9.64629 7.6379 9.36104 7.90132C9.07556 8.16484 8.63992 8.16427 8.35518 7.91206L8.3005 7.85835L7.40108 6.88374L7.35128 6.82515C7.12292 6.52126 7.15787 6.08762 7.44307 5.82417Z" fill="currentColor"/>
<path d="M17.5761 6.54003C17.8578 6.84357 17.8405 7.31779 17.537 7.5996C17.2336 7.88136 16.7593 7.86378 16.4775 7.56054L17.5761 6.54003ZM15.5409 5.45019C15.8255 5.18597 16.2603 5.18555 16.5458 5.43652L16.6015 5.48925L17.5761 6.54003L17.0263 7.0498L16.4775 7.56054L15.5019 6.51074L15.453 6.45117C15.2239 6.14794 15.2565 5.71442 15.5409 5.45019Z" fill="currentColor"/>
<path d="M12.0919 4.92522C12.3953 4.64374 12.8697 4.66106 13.1514 4.96429C13.4333 5.26782 13.4159 5.74298 13.1124 6.02483L12.0626 6.99944C11.759 7.2813 11.2839 7.26391 11.002 6.96038C10.7204 6.65698 10.738 6.18268 11.0411 5.90081L12.0919 4.92522Z" fill="currentColor"/>
</svg>
