<svg viewBox="0 0 24 24" fill="none" xmlns="http://www.w3.org/2000/svg">
<path opacity="0.3" d="M22.575 14.175H1.5V22.215H22.575V14.175Z" fill="currentColor"/>
<path opacity="0.3" d="M19.7999 11.025H4.2749V14.1825H19.7999V11.025Z" fill="currentColor"/>
<path d="M22.5752 13.425C22.9893 13.4252 23.3252 13.7609 23.3252 14.175V22.2151C23.3252 22.6292 22.9893 22.965 22.5752 22.9651H1.5C1.0858 22.9651 0.750021 22.6293 0.75 22.2151V14.175L0.753906 14.0979C0.792528 13.7199 1.11183 13.425 1.5 13.425H22.5752ZM2.25 21.4651H21.8252V14.925H2.25V21.4651Z" fill="currentColor"/>
<path d="M19.8003 10.275C20.2143 10.2752 20.5503 10.6109 20.5503 11.025V14.1823C20.5503 14.5963 20.2143 14.932 19.8003 14.9323H4.2749C3.86069 14.9323 3.5249 14.5965 3.5249 14.1823V11.025L3.52881 10.9479C3.56743 10.5699 3.88674 10.275 4.2749 10.275H19.8003ZM5.0249 13.4323H19.0503V11.775H5.0249V13.4323Z" fill="currentColor"/>
<path d="M8.59961 14.9271C9.01258 14.9544 9.32576 15.3109 9.29883 15.7239C9.22797 16.802 8.7363 17.8097 7.93066 18.5296C7.13358 19.2418 6.09166 19.6154 5.02441 19.5745C3.95752 19.6151 2.91595 19.2416 2.11914 18.5296C1.36374 17.8546 0.884713 16.9269 0.769531 15.9251L0.751953 15.7239L0.75 15.6478C0.763396 15.2677 1.06359 14.9525 1.45117 14.9271C1.83866 14.9018 2.17632 15.1751 2.23926 15.5501L2.27734 15.8812C2.37441 16.4696 2.6697 17.0106 3.11816 17.4114C3.56673 17.8123 4.13769 18.045 4.7334 18.0755H5.31641C5.91218 18.045 6.48302 17.8123 6.93164 17.4114C7.44423 16.9534 7.75659 16.3122 7.80176 15.6263C7.82892 15.213 8.18629 14.8999 8.59961 14.9271Z" fill="currentColor"/>
<path d="M15.6494 14.9269C16.0624 14.9543 16.3756 15.3108 16.3486 15.7238C16.2778 16.8019 15.7861 17.8095 14.9805 18.5295C14.1834 19.2417 13.1415 19.6153 12.0742 19.5744C11.0073 19.615 9.96575 19.2415 9.16895 18.5295C8.41354 17.8544 7.93452 16.9268 7.81934 15.925L7.80176 15.7238L7.7998 15.6476C7.8132 15.2676 8.1134 14.9524 8.50098 14.9269C8.88846 14.9016 9.22613 15.175 9.28906 15.55L9.32715 15.881C9.42421 16.4695 9.7195 17.0105 10.168 17.4113C10.6165 17.8122 11.1875 18.0449 11.7832 18.0754H12.3662C12.962 18.0449 13.5328 17.8122 13.9814 17.4113C14.494 16.9533 14.8064 16.3121 14.8516 15.6262C14.8787 15.2128 15.2361 14.8998 15.6494 14.9269Z" fill="currentColor"/>
<path d="M22.6245 14.927C23.0376 14.9543 23.3507 15.3108 23.3237 15.7239C23.2529 16.802 22.7612 17.8096 21.9556 18.5295C21.2003 19.2043 20.2254 19.576 19.2173 19.5783L19.0151 19.5744C17.9703 19.5865 16.9587 19.2028 16.186 18.4973C15.4495 17.8247 14.9832 16.9096 14.8696 15.9231L14.8521 15.7248L14.8501 15.6477C14.8635 15.2679 15.163 14.9528 15.5503 14.927C15.9378 14.9012 16.2759 15.1742 16.3394 15.549L16.3481 15.6252L16.3774 15.8762C16.4726 16.4561 16.7602 16.9904 17.1978 17.3899C17.6978 17.8463 18.3549 18.0919 19.0317 18.0754H19.3413C19.9371 18.045 20.5079 17.8122 20.9565 17.4114C21.4691 16.9533 21.7815 16.3121 21.8267 15.6262C21.8538 15.2129 22.2112 14.8998 22.6245 14.927Z" fill="currentColor"/>
<path d="M11.3247 10.275V8.40002C11.3247 7.98581 11.6605 7.65002 12.0747 7.65002C12.4889 7.65002 12.8247 7.98581 12.8247 8.40002V10.275C12.8247 10.6892 12.4889 11.025 12.0747 11.025C11.6605 11.025 11.3247 10.6892 11.3247 10.275Z" fill="currentColor"/>
<path d="M12.075 0.75C12.3026 0.750084 12.5177 0.85362 12.66 1.03125L12.075 1.5L12.661 1.03223L12.662 1.0332C12.6627 1.03411 12.6638 1.0357 12.6649 1.03711C12.667 1.03984 12.6701 1.04333 12.6737 1.04785C12.6812 1.05742 12.6917 1.0717 12.7049 1.08887C12.7314 1.12318 12.7691 1.17206 12.8153 1.23438C12.9076 1.35908 13.0354 1.53767 13.1815 1.75684C13.4719 2.19245 13.8423 2.80247 14.1463 3.48145C14.4464 4.15158 14.7063 4.94114 14.7235 5.72363C14.7411 6.53039 14.4975 7.36418 13.7625 7.99414C13.7585 7.99757 13.7549 8.00154 13.7508 8.00488C13.3282 8.35188 12.8115 8.56053 12.2703 8.60742L12.037 8.61816C11.4123 8.61809 10.8069 8.40125 10.3241 8.00488C10.3165 7.99867 10.3089 7.99185 10.3016 7.98535C9.5854 7.34871 9.36456 6.51138 9.39535 5.71094C9.42532 4.93206 9.69051 4.14534 9.99496 3.47656C10.3033 2.79919 10.6763 2.19096 10.9676 1.75586C11.1141 1.53707 11.2424 1.35888 11.3348 1.23438C11.381 1.17206 11.4177 1.12213 11.4442 1.08789C11.4574 1.07078 11.4679 1.05738 11.4754 1.04785C11.4792 1.04309 11.483 1.0399 11.4852 1.03711C11.4863 1.03576 11.4864 1.03408 11.4871 1.0332L11.4881 1.03223H11.4891C11.4929 1.03503 11.5359 1.0685 12.0252 1.45996L11.4891 1.03125C11.6314 0.853421 11.8473 0.75 12.075 0.75ZM12.0731 2.80664C11.8399 3.17085 11.5782 3.61978 11.3602 4.09863C11.0929 4.68588 10.9137 5.26793 10.8944 5.76855C10.8762 6.24206 10.9992 6.59216 11.2879 6.85449C11.5005 7.02459 11.7644 7.11809 12.037 7.11816C12.3115 7.11816 12.5774 7.02305 12.7909 6.85059C13.1023 6.58113 13.2338 6.22626 13.2235 5.75586C13.2125 5.25884 13.0405 4.67964 12.7782 4.09375C12.5645 3.61652 12.3045 3.17012 12.0731 2.80664Z" fill="currentColor"/>
</svg>
