<svg viewBox="0 0 24 24" fill="none" xmlns="http://www.w3.org/2000/svg">
<path opacity="0.3" d="M21.675 12.9H3C2.58579 12.9 2.25 13.2358 2.25 13.65V16.3125C2.25 16.7267 2.58579 17.0625 3 17.0625H21.675C22.0892 17.0625 22.425 16.7267 22.425 16.3125V13.65C22.425 13.2358 22.0892 12.9 21.675 12.9Z" fill="currentColor"/>
<path opacity="0.3" d="M21.675 17.85H3C2.58579 17.85 2.25 18.1858 2.25 18.6V21.2625C2.25 21.6767 2.58579 22.0125 3 22.0125H21.675C22.0892 22.0125 22.425 21.6767 22.425 21.2625V18.6C22.425 18.1858 22.0892 17.85 21.675 17.85Z" fill="currentColor"/>
<path d="M3 13.65V16.3121H21.6748V13.65H3ZM23.1748 16.3121C23.1748 17.1406 22.5032 17.8121 21.6748 17.8121H3C2.17157 17.8121 1.5 17.1406 1.5 16.3121V13.65C1.5 12.8216 2.17157 12.15 3 12.15H21.6748C22.5032 12.15 23.1748 12.8216 23.1748 13.65V16.3121Z" fill="currentColor"/>
<path d="M3 18.6V21.2621H21.6748V18.6H3ZM23.1748 21.2621C23.1748 22.0905 22.5032 22.7621 21.6748 22.7621H3C2.17157 22.7621 1.5 22.0905 1.5 21.2621V18.6C1.5 17.7715 2.17157 17.1 3 17.1H21.6748C22.5032 17.1 23.1748 17.7715 23.1748 18.6V21.2621Z" fill="currentColor"/>
<path opacity="0.3" d="M13.5752 8.175C15.6002 6.375 12.3752 2.25 12.3752 2.25C12.3752 2.25 9.07521 6.375 11.1002 8.175C11.449 8.46143 11.8864 8.61798 12.3377 8.61798C12.7891 8.61798 13.2264 8.46143 13.5752 8.175Z" fill="currentColor"/>
<path d="M11.625 11.025V9.15002C11.625 8.73581 11.9608 8.40002 12.375 8.40002C12.7892 8.40002 13.125 8.73581 13.125 9.15002V11.025C13.125 11.4392 12.7892 11.775 12.375 11.775C11.9608 11.775 11.625 11.4392 11.625 11.025Z" fill="currentColor"/>
<path d="M12.3792 1.50001C12.6085 1.50129 12.8249 1.60745 12.9662 1.7881V1.78907L12.9671 1.79005C12.9678 1.79096 12.969 1.79255 12.9701 1.79396C12.9722 1.79671 12.9753 1.80014 12.9788 1.8047C12.9861 1.81419 12.9963 1.82777 13.0091 1.84474C13.035 1.87903 13.0723 1.92884 13.1175 1.99122C13.2077 2.11579 13.3322 2.29403 13.4749 2.51271C13.7591 2.94816 14.1227 3.55742 14.4212 4.23536C14.7159 4.90476 14.9702 5.69177 14.9915 6.46974C15.0134 7.2683 14.7865 8.10146 14.0736 8.73536C14.0663 8.74186 14.0587 8.74869 14.0511 8.75489C13.5682 9.15144 12.9622 9.36818 12.3372 9.36818C11.7126 9.3681 11.1072 9.15127 10.6244 8.75489C10.6168 8.74869 10.6092 8.74186 10.6019 8.73536C9.88569 8.09872 9.66486 7.2614 9.69564 6.46095C9.72562 5.68207 9.99081 4.89535 10.2953 4.22657C10.6036 3.5492 10.9766 2.94097 11.2679 2.50587C11.4144 2.28709 11.5427 2.10889 11.6351 1.98439C11.6813 1.92207 11.718 1.87214 11.7445 1.8379C11.7577 1.82079 11.7682 1.80739 11.7757 1.79786C11.7795 1.7931 11.7833 1.78992 11.7855 1.78712C11.7866 1.78577 11.7867 1.7841 11.7874 1.78321L11.7884 1.78224H11.7894C11.7933 1.78511 11.8389 1.82085 12.3753 2.25001L11.7894 1.78126C11.9326 1.60229 12.15 1.49874 12.3792 1.50001ZM12.3665 3.56739C12.1351 3.92968 11.8763 4.37448 11.6605 4.84864C11.3932 5.43589 11.2139 6.01794 11.1947 6.51857C11.1764 6.99319 11.3 7.34392 11.5902 7.60646C11.8024 7.77546 12.0656 7.8681 12.3372 7.86818C12.6086 7.86818 12.8712 7.77505 13.0833 7.60646C13.377 7.34129 13.5056 6.98738 13.4925 6.51075C13.4787 6.00916 13.3065 5.42661 13.0482 4.83986C12.8409 4.36909 12.5906 3.92811 12.3665 3.56739Z" fill="currentColor"/>
</svg>
