<svg viewBox="0 0 24 24" fill="none" xmlns="http://www.w3.org/2000/svg">
<path opacity="0.3" d="M21.6 7.61659C21.6 8.37246 21.2997 9.09737 20.7653 9.63185C20.2308 10.1663 19.5059 10.4666 18.75 10.4666C18.2515 10.4535 17.7642 10.3163 17.3321 10.0675C16.8999 9.8187 16.5366 9.46609 16.275 9.04159C15.8499 9.82444 15.2214 10.4781 14.4558 10.9335C13.6902 11.389 12.8158 11.6294 11.925 11.6294C11.0342 11.6294 10.1598 11.389 9.39423 10.9335C8.62862 10.4781 8.00012 9.82444 7.57501 9.04159C7.31339 9.46609 6.9501 9.8187 6.51796 10.0675C6.08582 10.3163 5.59848 10.4535 5.10001 10.4666C4.34415 10.4666 3.61923 10.1663 3.08476 9.63185C2.55028 9.09737 2.25 8.37246 2.25 7.61659C2.24986 7.24578 2.32405 6.87869 2.46817 6.53703C2.61229 6.19536 2.82345 5.88607 3.08913 5.62738C3.35481 5.36869 3.66964 5.16588 4.01502 5.03091C4.36041 4.89595 4.72933 4.83156 5.10001 4.84158C5.81888 4.84986 6.51086 5.11601 7.05 5.59158C7.25185 4.44526 7.8512 3.40674 8.74276 2.65846C9.63432 1.91018 10.761 1.5 11.925 1.5C13.089 1.5 14.2157 1.91018 15.1073 2.65846C15.9988 3.40674 16.5981 4.44526 16.8 5.59158C17.3391 5.11601 18.0311 4.84986 18.75 4.84158C19.1207 4.83156 19.4896 4.89595 19.835 5.03091C20.1804 5.16588 20.4952 5.36869 20.7609 5.62738C21.0266 5.88607 21.2377 6.19536 21.3818 6.53703C21.5259 6.87869 21.6001 7.24578 21.6 7.61659Z" fill="currentColor"/>
<path d="M19.6992 9.64357C20.1123 9.67064 20.4253 10.0273 20.3984 10.4404L19.6484 21.9903C19.6228 22.3847 19.2956 22.6913 18.9004 22.6914H4.9502C4.60429 22.6914 4.30987 22.4568 4.22461 22.1338L4.20215 21.9903L3.45215 10.4404L3.4502 10.3633C3.46408 9.98355 3.76402 9.66885 4.15137 9.64357C4.53881 9.61841 4.87654 9.8918 4.93945 10.2666L4.94824 10.3428L5.65234 21.1914H18.1973L18.9014 10.3428L18.9102 10.2666C18.973 9.89174 19.3117 9.61841 19.6992 9.64357Z" fill="currentColor"/>
<path d="M11.9248 0.75C13.2651 0.75 14.5632 1.22233 15.5898 2.08398C16.3388 2.71269 16.9073 3.51995 17.251 4.42285C17.7133 4.21546 18.2151 4.09935 18.7295 4.0918H18.9062C19.3174 4.10128 19.7246 4.18204 20.1084 4.33203C20.547 4.50346 20.9468 4.76133 21.2842 5.08984C21.6216 5.41839 21.8902 5.81119 22.0732 6.24512C22.2562 6.6789 22.3497 7.14537 22.3496 7.61621L22.3457 7.79492C22.3016 8.68469 21.9288 9.52915 21.2959 10.1621C20.6208 10.8372 19.7048 11.2168 18.75 11.2168C18.7435 11.2168 18.737 11.217 18.7305 11.2168C18.1075 11.2004 17.4981 11.0287 16.958 10.7178C16.7382 10.5912 16.5332 10.4422 16.3447 10.2754C15.9243 10.7921 15.4161 11.2347 14.8389 11.5781C13.9573 12.1025 12.9505 12.3799 11.9248 12.3799C10.8991 12.3798 9.89229 12.1026 9.01074 11.5781C8.43324 11.2346 7.92544 10.7915 7.50488 10.2744C7.31635 10.4413 7.11237 10.5912 6.89258 10.7178C6.3525 11.0287 5.74307 11.2003 5.12012 11.2168C5.11354 11.217 5.10619 11.2168 5.09961 11.2168C4.14503 11.2167 3.22972 10.8371 2.55469 10.1621C1.92172 9.52914 1.54899 8.68477 1.50488 7.79492L1.5 7.61621C1.49992 7.1454 1.59435 6.67892 1.77734 6.24512C1.9604 5.81132 2.22815 5.41829 2.56543 5.08984C2.90292 4.76124 3.30346 4.50347 3.74219 4.33203C4.12613 4.18203 4.5331 4.10122 4.94434 4.0918H5.11914C5.63388 4.09916 6.13599 4.21537 6.59863 4.42285C6.94234 3.51979 7.5116 2.71274 8.26074 2.08398C9.28732 1.22241 10.5846 0.750045 11.9248 0.75ZM11.9248 2.25C10.9373 2.25004 9.98104 2.59853 9.22461 3.2334C8.46837 3.86827 7.9603 4.74924 7.78906 5.72168C7.74202 5.98886 7.5539 6.21014 7.29785 6.2998C7.04186 6.3894 6.75712 6.3337 6.55371 6.1543C6.14946 5.79771 5.63079 5.5981 5.0918 5.5918H5.08008C4.80963 5.58449 4.54012 5.63102 4.28809 5.72949C4.03605 5.82798 3.80618 5.97627 3.6123 6.16504C3.41857 6.35371 3.2643 6.57904 3.15918 6.82812C3.05402 7.07741 2.99992 7.34565 3 7.61621L3.01074 7.82422C3.0585 8.30491 3.27066 8.75699 3.61523 9.10156C4.00642 9.49269 4.53597 9.71289 5.08887 9.71582C5.45961 9.70464 5.82204 9.60301 6.14355 9.41797C6.46756 9.23142 6.74032 8.96672 6.93652 8.64844L6.99414 8.56738C7.13992 8.38876 7.36155 8.28557 7.5957 8.29199C7.86315 8.29938 8.10669 8.44847 8.23438 8.68359C8.59505 9.34775 9.12785 9.90263 9.77734 10.2891C10.4269 10.6755 11.169 10.8798 11.9248 10.8799C12.6806 10.8799 13.4227 10.6755 14.0723 10.2891C14.7219 9.90261 15.2555 9.34783 15.6162 8.68359L15.6689 8.59961C15.8047 8.41337 16.0208 8.29841 16.2549 8.29199C16.5222 8.28481 16.7728 8.42075 16.9131 8.64844C17.1093 8.9668 17.382 9.23138 17.7061 9.41797C18.0273 9.6029 18.3894 9.70442 18.7598 9.71582C19.3132 9.71325 19.8438 9.49308 20.2354 9.10156C20.6291 8.70775 20.8496 8.17307 20.8496 7.61621L20.8398 7.41406C20.8197 7.21292 20.7693 7.0151 20.6904 6.82812C20.5853 6.57899 20.4311 6.3537 20.2373 6.16504C20.0435 5.97639 19.8144 5.82797 19.5625 5.72949C19.3105 5.63102 19.0409 5.58452 18.7705 5.5918H18.7588C18.2196 5.598 17.7003 5.79762 17.2959 6.1543C17.0925 6.33358 16.8077 6.38943 16.5518 6.2998C16.2958 6.2101 16.1086 5.98876 16.0615 5.72168C15.8903 4.74911 15.3814 3.86829 14.625 3.2334C13.8685 2.59849 12.9124 2.25 11.9248 2.25Z" fill="currentColor"/>
<path d="M9.42871 15.9416C9.81696 15.9305 10.1443 16.2169 10.1934 16.5939L10.2002 16.6701L10.3496 21.9201L10.3486 21.9973C10.3209 22.3761 10.0099 22.6803 9.62207 22.6916C9.23379 22.7027 8.9055 22.4163 8.85645 22.0393L8.85059 21.9631L8.7002 16.7131L8.70215 16.6359C8.72989 16.257 9.04068 15.9527 9.42871 15.9416Z" fill="currentColor"/>
<path d="M14.4222 15.9416C14.836 15.9537 15.1616 16.2992 15.1497 16.7131L15.0003 21.9631C14.9885 22.3771 14.6429 22.7034 14.2288 22.6916C13.8148 22.6797 13.4885 22.3341 13.5003 21.9201L13.6507 16.6701L13.6566 16.5939C13.7056 16.2168 14.0339 15.9305 14.4222 15.9416Z" fill="currentColor"/>
<path d="M5.01996 6.78632C5.31286 6.49343 5.78762 6.49343 6.08051 6.78632C6.3734 7.07921 6.3734 7.55397 6.08051 7.84687L5.33051 8.59687C5.03762 8.88976 4.56286 8.88976 4.26996 8.59687C3.97707 8.30397 3.97707 7.82921 4.26996 7.53632L5.01996 6.78632Z" fill="currentColor"/>
<path d="M18.52 6.78632C18.8129 6.49343 19.2876 6.49343 19.5805 6.78632C19.8734 7.07921 19.8734 7.55397 19.5805 7.84687L18.8305 8.59687C18.5376 8.88976 18.0629 8.88976 17.77 8.59687C17.4771 8.30397 17.4771 7.82921 17.77 7.53632L18.52 6.78632Z" fill="currentColor"/>
<path d="M12.7451 4.53632C13.038 4.24343 13.5127 4.24343 13.8056 4.53632C14.0985 4.82921 14.0985 5.30397 13.8056 5.59687L13.0556 6.34687C12.7627 6.63976 12.288 6.63976 11.9951 6.34687C11.7022 6.05397 11.7022 5.57921 11.9951 5.28632L12.7451 4.53632Z" fill="currentColor"/>
<path d="M9.67004 6.93627C9.94464 6.66167 10.3794 6.64421 10.6739 6.88452L10.7306 6.93627L11.4806 7.68627L11.5323 7.74291C11.7727 8.0375 11.7552 8.47222 11.4806 8.74682C11.206 9.02143 10.7713 9.03889 10.4767 8.79858L10.42 8.74682L9.67004 7.99682L9.61828 7.94018C9.37797 7.6456 9.39544 7.21088 9.67004 6.93627Z" fill="currentColor"/>
</svg>
