<svg viewBox="0 0 24 24" fill="none" xmlns="http://www.w3.org/2000/svg">
<path opacity="0.3" d="M8.9248 19.3499V10.95H15.0748V19.3499" fill="currentColor"/>
<path d="M11.996 1.50001C12.2252 1.49887 12.4427 1.60232 12.5859 1.78126L11.9999 2.25001L12.5859 1.78224L12.5869 1.78321C12.5876 1.78411 12.5887 1.78572 12.5898 1.78712C12.592 1.78984 12.595 1.79333 12.5986 1.79786C12.606 1.80734 12.6167 1.82091 12.6298 1.8379C12.6563 1.87213 12.694 1.92207 12.7402 1.98438C12.8325 2.10888 12.961 2.28721 13.1074 2.50587C13.3986 2.94091 13.7708 3.54939 14.0791 4.22657C14.3835 4.89535 14.6497 5.68206 14.6796 6.46095C14.7104 7.26129 14.4894 8.09874 13.7734 8.73536C13.7661 8.74186 13.7585 8.74868 13.7509 8.75489C13.268 9.15148 12.662 9.36817 12.0371 9.36817C11.4124 9.36813 10.807 9.15126 10.3242 8.75489C10.3166 8.74869 10.309 8.74185 10.3017 8.73536C9.58854 8.10143 9.36092 7.26839 9.38276 6.46974C9.40414 5.6917 9.6593 4.90479 9.95405 4.23536C10.2525 3.55742 10.6152 2.94816 10.8994 2.5127C11.0422 2.2938 11.1675 2.11584 11.2578 1.99122C11.3029 1.92884 11.3393 1.87903 11.3652 1.84474C11.378 1.8277 11.3881 1.81423 11.3955 1.8047C11.3989 1.8002 11.4021 1.79671 11.4042 1.79395C11.4053 1.79261 11.4065 1.79094 11.4072 1.79005L11.4082 1.78907V1.7881C11.4083 1.78791 11.4091 1.78807 11.9999 2.25001L11.4091 1.7881C11.5504 1.6075 11.7668 1.50129 11.996 1.50001ZM12.0068 3.56642C11.7827 3.92713 11.5344 4.36907 11.3271 4.83985C11.0687 5.42667 10.8965 6.00911 10.8828 6.51075C10.8697 6.98695 10.9969 7.34137 11.29 7.60645C11.5022 7.77545 11.7654 7.86813 12.0371 7.86817L12.1406 7.86329C12.3749 7.84304 12.5981 7.75356 12.7832 7.60645C13.0739 7.34384 13.1989 6.99363 13.1806 6.51856C13.1613 6.01788 12.9812 5.43596 12.7138 4.84864C12.4977 4.37388 12.2384 3.92895 12.0068 3.56642Z" fill="currentColor"/>
<path d="M14.3252 19.3503V11.7H9.6748V19.3503C9.67459 19.7644 9.33889 20.1003 8.9248 20.1003C8.51072 20.1003 8.17502 19.7644 8.1748 19.3503V10.95L8.17871 10.8728C8.21733 10.4948 8.53664 10.2 8.9248 10.2H15.0752C15.4892 10.2002 15.8252 10.5359 15.8252 10.95V19.3503C15.825 19.7642 15.4891 20.1001 15.0752 20.1003C14.6611 20.1003 14.3254 19.7644 14.3252 19.3503Z" fill="currentColor"/>
<path d="M18.8252 21.75L18.9014 21.7539C19.2797 21.7922 19.5752 22.1116 19.5752 22.5C19.5752 22.8884 19.2797 23.2078 18.9014 23.2461L18.8252 23.25H5.25C4.83579 23.25 4.5 22.9142 4.5 22.5C4.5 22.0858 4.83579 21.75 5.25 21.75H18.8252Z" fill="currentColor"/>
</svg>
