<svg viewBox="0 0 24 24" fill="none" xmlns="http://www.w3.org/2000/svg">
<path opacity="0.3" d="M2.94253 20.4856C2.48358 19.9645 2.23667 19.2903 2.25056 18.596C2.26444 17.9018 2.53811 17.238 3.01753 16.7356L12.9925 5.18562C13.3283 4.74955 13.7493 4.38646 14.23 4.11854C14.7108 3.85062 15.241 3.68349 15.7885 3.62734C16.3359 3.57119 16.8891 3.6272 17.4142 3.79196C17.9393 3.95672 18.4253 4.22677 18.8425 4.58562C19.2014 5.00286 19.4714 5.48887 19.6362 6.01396C19.8009 6.53905 19.857 7.09222 19.8008 7.63968C19.7447 8.18714 19.5775 8.71741 19.3096 9.19813C19.0417 9.67884 18.6786 10.0999 18.2425 10.4356L6.69253 20.4106C6.1902 20.89 5.52638 21.1637 4.83213 21.1776C4.13787 21.1915 3.46364 20.9446 2.94253 20.4856Z" fill="currentColor"/>
<path d="M15.7116 2.88149C16.3604 2.81495 17.0161 2.88059 17.6384 3.07582C18.1829 3.24668 18.6923 3.51314 19.1423 3.86196L19.3318 4.01723L19.4109 4.09633L19.5652 4.28578C19.914 4.73584 20.1804 5.24514 20.3513 5.78969C20.5465 6.41193 20.6131 7.06769 20.5466 7.71645C20.48 8.36514 20.282 8.99351 19.9646 9.56313C19.6538 10.1207 19.2344 10.6099 18.7322 11.0036L7.18235 20.9782L7.18137 20.9772C6.54661 21.5703 5.71582 21.91 4.84641 21.9274C4.01989 21.9438 3.21556 21.6695 2.57297 21.1549L2.44699 21.0485C2.42323 21.0275 2.40054 21.0049 2.37961 20.9811C1.79663 20.3192 1.48307 19.4626 1.50071 18.5807C1.5184 17.6989 1.86542 16.8555 2.47434 16.2174L12.4245 4.69496C12.8181 4.19301 13.3076 3.77417 13.865 3.46352C14.4346 3.14605 15.0629 2.94804 15.7116 2.88149ZM17.1892 4.50746C16.7615 4.37328 16.3109 4.32796 15.865 4.37367C15.4189 4.41943 14.9862 4.55478 14.5945 4.77309C14.2518 4.96409 13.9464 5.21475 13.6921 5.51235L13.5866 5.64321C13.5782 5.6542 13.5693 5.66492 13.5603 5.67543L3.58469 17.2262L3.56028 17.2536C3.21043 17.6201 3.00986 18.1044 2.99973 18.611C2.98996 19.1003 3.15908 19.5753 3.47239 19.9498C3.84786 20.2664 4.32512 20.4372 4.81711 20.4274C5.32364 20.4172 5.80803 20.2176 6.17453 19.8678L6.20188 19.8424L17.7517 9.86781L17.7849 9.84145L17.9148 9.735C18.2124 9.48072 18.463 9.1754 18.654 8.83266C18.8723 8.44102 19.0087 8.00914 19.0544 7.56313C19.1002 7.11706 19.0549 6.66579 18.9206 6.23793C18.7916 5.82696 18.5818 5.44661 18.3064 5.11586C17.9769 4.84286 17.5978 4.63567 17.1892 4.50746Z" fill="currentColor"/>
<path d="M3.62687 14.8407C3.90893 14.5738 4.34389 14.5689 4.63176 14.8173L4.68742 14.87L6.03703 16.2948C6.32185 16.5955 6.30932 17.0705 6.00871 17.3554C5.70801 17.6402 5.23304 17.6268 4.94816 17.3261L3.59758 15.9013L3.54777 15.8427C3.31592 15.5417 3.34511 15.1077 3.62687 14.8407Z" fill="currentColor"/>
<path d="M11.7872 6.75524C12.0618 6.48064 12.4966 6.46318 12.7911 6.70349L12.8478 6.75524L14.1974 8.10485L14.2491 8.16247C14.4893 8.45705 14.4719 8.89084 14.1974 9.1654C13.9228 9.43995 13.489 9.45734 13.1945 9.21716L13.1368 9.1654L11.7872 7.81579L11.7355 7.75915C11.4952 7.46457 11.5126 7.02985 11.7872 6.75524Z" fill="currentColor"/>
<path d="M10.587 13.5052C10.8616 13.2306 11.2964 13.2132 11.5909 13.4535L11.6476 13.5052L12.9972 14.8549L13.0489 14.9125C13.2891 15.207 13.2717 15.6408 12.9972 15.9154C12.7226 16.1899 12.2888 16.2073 11.9943 15.9672L11.9366 15.9154L10.587 14.5658L10.5353 14.5091C10.295 14.2146 10.3124 13.7798 10.587 13.5052Z" fill="currentColor"/>
<path d="M22.2034 1.51276L22.2796 1.5235C22.6531 1.59272 22.9214 1.93459 22.8899 2.32135C22.8561 2.73403 22.494 3.04142 22.0813 3.00787L21.8714 3.00006C21.3828 3.00282 20.9044 3.15522 20.5022 3.43854C20.0431 3.76222 19.712 4.23666 19.5667 4.77936L19.5432 4.8526C19.4084 5.20804 19.0229 5.41005 18.6477 5.30963C18.2479 5.20233 18.0104 4.79161 18.1175 4.39166L18.22 4.06647C18.4914 3.32046 18.9856 2.67232 19.6389 2.21198C20.3856 1.68597 21.2931 1.43821 22.2034 1.51276Z" fill="currentColor"/>
</svg>
