<svg viewBox="0 0 24 25" fill="none" xmlns="http://www.w3.org/2000/svg">
<path opacity="0.3" d="M18.0751 23.2889C20.4775 23.2889 22.4251 21.3413 22.4251 18.9389C22.4251 16.5364 20.4775 14.5889 18.0751 14.5889C15.6727 14.5889 13.7251 16.5364 13.7251 18.9389C13.7251 21.3413 15.6727 23.2889 18.0751 23.2889Z" fill="currentColor"/>
<path opacity="0.3" d="M6.6 23.2889C9.00244 23.2889 10.95 21.3413 10.95 18.9389C10.95 16.5364 9.00244 14.5889 6.6 14.5889C4.19756 14.5889 2.25 16.5364 2.25 18.9389C2.25 21.3413 4.19756 23.2889 6.6 23.2889Z" fill="currentColor"/>
<path d="M21.6753 18.9385C21.6751 16.9504 20.0628 15.3389 18.0747 15.3389C16.0868 15.3391 14.4753 16.9506 14.4751 18.9385C14.4751 20.9266 16.0867 22.5389 18.0747 22.5391C20.0629 22.5391 21.6753 20.9267 21.6753 18.9385ZM23.1753 18.9385C23.1753 21.7551 20.8914 24.0391 18.0747 24.0391C15.2582 24.0389 12.9751 21.755 12.9751 18.9385C12.9753 16.1221 15.2584 13.8391 18.0747 13.8389C20.8912 13.8389 23.1751 16.122 23.1753 18.9385Z" fill="currentColor"/>
<path d="M10.2002 18.9385C10.2 16.9504 8.5877 15.3389 6.59961 15.3389C4.6117 15.3391 3.00021 16.9506 3 18.9385C3 20.9266 4.61156 22.5389 6.59961 22.5391C8.58783 22.5391 10.2002 20.9267 10.2002 18.9385ZM11.7002 18.9385C11.7002 21.7551 9.41626 24.0391 6.59961 24.0391C3.78314 24.0389 1.5 21.755 1.5 18.9385C1.50021 16.1221 3.78327 13.8391 6.59961 13.8389C9.41613 13.8389 11.7 16.122 11.7002 18.9385Z" fill="currentColor"/>
<path d="M19.2853 3.63892C19.5736 3.64285 19.8386 3.81331 19.9592 4.08325C20.0969 4.39184 20.0114 4.75463 19.7502 4.96899C19.1997 5.42083 18.8146 6.17485 18.5832 7.16528C18.354 8.14679 18.2955 9.27642 18.3273 10.3674C18.359 11.4532 18.4799 12.4718 18.593 13.2209C18.6493 13.5944 18.7035 13.8988 18.7434 14.1086C18.7633 14.2134 18.7791 14.2948 18.7902 14.3489C18.7958 14.3758 18.8001 14.3963 18.8029 14.4094C18.8043 14.416 18.8062 14.4211 18.8068 14.4241V14.427L18.8195 14.5022C18.864 14.8799 18.6158 15.2376 18.2365 15.3215C17.8323 15.4108 17.4326 15.1553 17.343 14.7512L18.0744 14.5891L17.342 14.7502V14.7483C17.3417 14.7469 17.3415 14.7447 17.341 14.7424C17.34 14.7379 17.3378 14.7318 17.3361 14.7239C17.3326 14.7074 17.3278 14.6832 17.3215 14.6526C17.3088 14.5913 17.2912 14.502 17.2697 14.3889C17.2267 14.1629 17.1692 13.8394 17.1096 13.4446C16.9906 12.6564 16.8623 11.5745 16.8283 10.4104C16.7945 9.25152 16.8533 7.98033 17.1232 6.82446C17.2302 6.36631 17.3737 5.91235 17.5656 5.48462C13.0699 6.55215 10.56 8.69243 9.15449 10.6077C8.35498 11.6971 7.89989 12.7315 7.6457 13.4875C7.51877 13.8651 7.44278 14.1722 7.39863 14.3801C7.37656 14.4841 7.36184 14.5631 7.3537 14.6135C7.34965 14.6387 7.34734 14.6568 7.34589 14.6672C7.34521 14.6721 7.34511 14.6755 7.34492 14.677V14.676L7.34394 14.675C7.29618 15.0865 6.92434 15.382 6.51288 15.3342C6.10164 15.2863 5.80694 14.9135 5.85468 14.5022L6.35175 14.5598C5.85485 14.502 5.85462 14.5017 5.85468 14.5012V14.5002C5.85478 14.4994 5.85553 14.4984 5.85566 14.4973L5.85956 14.4622C5.86252 14.4407 5.86731 14.411 5.87324 14.3743C5.88509 14.3008 5.90346 14.1976 5.93085 14.0686C5.98571 13.8102 6.07663 13.4468 6.22382 13.009C6.51807 12.1339 7.03881 10.9555 7.9455 9.71997C9.77279 7.23019 13.1201 4.57707 19.1603 3.64771L19.2853 3.63892Z" fill="currentColor"/>
<path d="M13.977 6.42472C12.5564 7.84522 10.6295 8.6434 8.62055 8.6434C6.61163 8.64333 4.6846 7.84524 3.26407 6.42472C2.97141 6.1319 2.9715 5.65693 3.26407 5.36406L3.58241 5.04572C5.00297 3.62516 6.92992 2.82707 8.93888 2.82703C10.9479 2.82703 12.8748 3.62513 14.2954 5.04572C14.436 5.18637 14.5149 5.37714 14.5149 5.57605C14.5149 5.77496 14.436 5.96573 14.2954 6.10638L13.977 6.42472ZM12.6622 5.60298C11.6026 4.78085 10.2943 4.32687 8.93888 4.32687C7.44496 4.32691 6.00872 4.87844 4.89926 5.86676C5.9587 6.68847 7.26552 7.1435 8.62055 7.14356C10.1151 7.14356 11.5526 6.592 12.6622 5.60298Z" fill="currentColor"/>
</svg>
