<svg viewBox="0 0 24 24" fill="none" xmlns="http://www.w3.org/2000/svg">
<path opacity="0.3" d="M16.5752 22.8H6.8252L5.3252 10.425H18.0752L16.5752 22.8Z" fill="currentColor"/>
<path d="M18.0748 9.67505C18.2894 9.67505 18.4939 9.76734 18.6363 9.92798C18.7784 10.0885 18.8446 10.3021 18.8189 10.5149L17.3189 22.8899C17.2733 23.2664 16.9541 23.55 16.5748 23.55H6.82477C6.44546 23.55 6.12627 23.2664 6.08063 22.8899L4.58063 10.5149C4.55493 10.3021 4.62115 10.0885 4.76325 9.92798C4.90559 9.76734 5.11013 9.67505 5.32477 9.67505H18.0748ZM7.48883 22.05H15.9107L17.2291 11.175H6.17047L7.48883 22.05Z" fill="currentColor"/>
<path d="M20.4004 6.44995C20.8144 6.45016 21.1504 6.78586 21.1504 7.19995V10.3953C21.1502 10.8092 20.8143 11.1451 20.4004 11.1453H3C2.58589 11.1453 2.25017 10.8093 2.25 10.3953V7.19995L2.25391 7.1228C2.29253 6.74483 2.61183 6.44995 3 6.44995H20.4004ZM3.75 9.64526H19.6504V7.94995H3.75V9.64526Z" fill="currentColor"/>
<path d="M19.0498 0.75V2.25H15.9531L14.6006 7.39062L13.875 7.2002L13.1494 7.00879L14.6494 1.30957L14.6914 1.19043C14.8112 0.925703 15.0769 0.75 15.375 0.75H19.0498Z" fill="currentColor"/>
</svg>
