<svg viewBox="0 0 24 24" fill="none" xmlns="http://www.w3.org/2000/svg">
<path opacity="0.3" d="M17.9998 22.2H6.2998L5.5498 6.97498H18.7498L17.9998 22.2Z" fill="currentColor"/>
<path d="M18.7504 6.22498C18.9555 6.22503 19.1519 6.3089 19.2934 6.4574C19.435 6.60611 19.5095 6.80702 19.4994 7.01208L18.7494 22.2367C18.7298 22.636 18.4002 22.9495 18.0004 22.9496H6.30022C5.90035 22.9496 5.57087 22.6361 5.5512 22.2367L4.8012 7.01208C4.7911 6.80702 4.86569 6.60611 5.00726 6.4574C5.14879 6.30892 5.34508 6.22498 5.55022 6.22498H18.7504ZM7.01409 21.4496H17.2866L17.9623 7.72498H6.33831L7.01409 21.4496Z" fill="currentColor"/>
<path d="M14.4756 13.8002C14.4756 12.5162 13.4344 11.4751 12.1504 11.475C10.8663 11.475 9.8252 12.5161 9.8252 13.8002C9.8253 15.0841 10.8664 16.1254 12.1504 16.1254C13.4343 16.1253 14.4755 15.0841 14.4756 13.8002ZM15.9756 13.8002C15.9755 15.9125 14.2627 17.6253 12.1504 17.6254C10.038 17.6254 8.3253 15.9126 8.3252 13.8002C8.3252 11.6877 10.0379 9.97498 12.1504 9.97498C14.2628 9.97508 15.9756 11.6877 15.9756 13.8002Z" fill="currentColor"/>
<path d="M16.6504 1.5L16.7637 1.50879C17.0252 1.54883 17.2501 1.72491 17.3486 1.97656L17.8369 3.22461H21.2998C21.7139 3.22461 22.0496 3.56057 22.0498 3.97461V6.97461C22.0498 7.38882 21.714 7.72461 21.2998 7.72461H3C2.58579 7.72461 2.25 7.38882 2.25 6.97461V3.97461C2.25021 3.56057 2.58591 3.22461 3 3.22461H6.53809L7.02637 1.97656L7.07617 1.87402C7.20871 1.64515 7.45451 1.50014 7.72461 1.5H16.6504ZM7.74805 4.24805C7.63554 4.53556 7.35854 4.72461 7.0498 4.72461H3.75V6.22461H20.5498V4.72461H17.3252C17.0165 4.72461 16.7395 4.53556 16.627 4.24805L16.1377 3H8.2373L7.74805 4.24805Z" fill="currentColor"/>
</svg>
