<svg viewBox="0 0 24 24" fill="none" xmlns="http://www.w3.org/2000/svg">
<path opacity="0.3" d="M4.7251 7.80005H18.5251V16.575C18.5251 17.5099 18.1537 18.4065 17.4927 19.0676C16.8316 19.7287 15.935 20.1001 15.0001 20.1001H8.25011C7.31522 20.1001 6.41865 19.7287 5.75758 19.0676C5.09652 18.4065 4.7251 17.5099 4.7251 16.575V7.80005Z" fill="currentColor"/>
<path d="M17.7749 8.55005H5.4751V16.5754L5.48877 16.8489C5.55176 17.4842 5.83219 18.0819 6.2876 18.5374C6.80802 19.0578 7.51452 19.3499 8.25049 19.3499H15.0005C15.7363 19.3498 16.4421 19.0577 16.9624 18.5374C17.4827 18.017 17.7748 17.3113 17.7749 16.5754V8.55005ZM19.27 16.7874C19.2175 17.8439 18.7745 18.8464 18.023 19.5979C17.2213 20.3995 16.1341 20.8498 15.0005 20.8499H8.25049C7.11668 20.8499 6.02876 20.3996 5.22705 19.5979C4.4756 18.8464 4.03247 17.8438 3.97998 16.7874L3.9751 16.5754V7.80005L3.979 7.7229C4.01763 7.34493 4.33693 7.05005 4.7251 7.05005H18.5249L18.6021 7.05396C18.9801 7.09248 19.2749 7.41181 19.2749 7.80005V16.5754L19.27 16.7874Z" fill="currentColor"/>
<path d="M20.8496 19.35C21.0484 19.35 21.2392 19.4292 21.3799 19.5697C21.5205 19.7104 21.5996 19.9011 21.5996 20.1C21.5996 20.9354 21.2684 21.7368 20.6777 22.3275C20.124 22.8813 19.3849 23.2078 18.6064 23.2465L18.4502 23.2504H4.72461C3.88944 23.2503 3.08866 22.918 2.49805 22.3275C1.99316 21.8226 1.67878 21.1636 1.59766 20.4613C1.53789 20.3536 1.5 20.2318 1.5 20.1C1.5 19.6858 1.83579 19.35 2.25 19.35H20.8496ZM3.25684 20.85C3.33463 21.0023 3.43542 21.1438 3.55859 21.267C3.86792 21.5761 4.28728 21.7503 4.72461 21.7504H18.4502L18.6133 21.7416C18.9909 21.704 19.3465 21.5377 19.6172 21.267C19.7403 21.1438 19.8402 21.0022 19.918 20.85H3.25684Z" fill="currentColor"/>
<path d="M6.2251 5.17542V2.40002C6.2251 1.98581 6.56088 1.65002 6.9751 1.65002C7.38931 1.65002 7.7251 1.98581 7.7251 2.40002V5.17542C7.72489 5.58945 7.38918 5.92542 6.9751 5.92542C6.56102 5.92542 6.22531 5.58945 6.2251 5.17542Z" fill="currentColor"/>
<path d="M15.375 5.24963V2.40002C15.375 1.98581 15.7108 1.65002 16.125 1.65002C16.5392 1.65002 16.875 1.98581 16.875 2.40002V5.24963L16.8711 5.32678C16.8327 5.70494 16.5133 5.99963 16.125 5.99963C15.7367 5.99963 15.4173 5.70494 15.3789 5.32678L15.375 5.24963Z" fill="currentColor"/>
<path d="M10.8003 4.125V1.5C10.8003 1.08579 11.1361 0.75 11.5503 0.75C11.9645 0.75 12.3003 1.08579 12.3003 1.5V4.125C12.3003 4.53921 11.9645 4.875 11.5503 4.875C11.1361 4.875 10.8003 4.53921 10.8003 4.125Z" fill="currentColor"/>
<path d="M21.75 10.5H19.5V14.9111C20.0293 14.7891 20.5134 14.5435 20.8965 14.1943C21.4525 13.6874 21.75 13.0152 21.75 12.3311V10.5ZM23.25 12.3311C23.25 13.4601 22.7575 14.5275 21.9072 15.3027C21.0591 16.0759 19.9222 16.5 18.75 16.5C18.5511 16.5 18.3604 16.4209 18.2197 16.2803C18.0791 16.1396 18 15.9489 18 15.75V9.75L18.0039 9.67285C18.0425 9.29488 18.3618 9 18.75 9H22.5L22.5771 9.00391C22.9551 9.04253 23.25 9.36183 23.25 9.75V12.3311Z" fill="currentColor"/>
</svg>
