<svg viewBox="0 0 24 24" fill="none" xmlns="http://www.w3.org/2000/svg">
<path opacity="0.3" d="M17.7002 15.075H20.6252V21.3749C20.6252 21.7529 20.4751 22.1153 20.2078 22.3826C19.9406 22.6498 19.5781 22.7999 19.2002 22.7999H19.1252C18.7473 22.7999 18.3848 22.6498 18.1176 22.3826C17.8503 22.1153 17.7002 21.7529 17.7002 21.3749V15.075Z" fill="currentColor"/>
<path d="M20.6255 0.75C21.0395 0.750218 21.3755 1.08592 21.3755 1.5V15.1504C21.3753 15.5643 21.0394 15.9002 20.6255 15.9004H15.6001C15.186 15.9004 14.8503 15.5644 14.8501 15.1504V6.52539C14.8501 4.99377 15.4585 3.52443 16.5415 2.44141C17.6245 1.35838 19.0939 0.75 20.6255 0.75ZM16.3501 14.4004H19.8755V2.31738C19.0202 2.46976 18.2248 2.87923 17.6021 3.50195C16.8003 4.30367 16.3501 5.39158 16.3501 6.52539V14.4004Z" fill="currentColor"/>
<path d="M19.875 15.825H18.4502V21.3748C18.4502 21.5537 18.521 21.7257 18.6475 21.8523C18.774 21.9788 18.946 22.0495 19.125 22.0496H19.2002C19.3792 22.0496 19.5512 21.9789 19.6777 21.8523C19.8043 21.7257 19.875 21.5537 19.875 21.3748V15.825ZM21.375 21.3748C21.375 21.9515 21.1461 22.505 20.7383 22.9128C20.3304 23.3207 19.777 23.5496 19.2002 23.5496H19.125C18.5482 23.5495 17.9948 23.3207 17.5869 22.9128C17.1791 22.505 16.9502 21.9515 16.9502 21.3748V15.075L16.9541 14.9978C16.9927 14.6198 17.312 14.325 17.7002 14.325H20.625C21.0392 14.325 21.375 14.6607 21.375 15.075V21.3748Z" fill="currentColor"/>
<path opacity="0.3" d="M7.72501 22.7999C7.26752 22.7999 6.82876 22.6182 6.50526 22.2947C6.18176 21.9712 6 21.5324 6 21.075L6.75 11.7H8.77501L9.52501 21.075C9.52523 21.3079 9.47824 21.5385 9.3869 21.7529C9.29556 21.9672 9.16176 22.1608 8.99355 22.322C8.82534 22.4832 8.6262 22.6087 8.40818 22.6908C8.19016 22.773 7.95778 22.8101 7.72501 22.7999Z" fill="currentColor"/>
<path d="M8.77539 10.9501L8.91797 10.9637C9.2427 11.0265 9.49517 11.2994 9.52246 11.6405L10.2725 21.0155L10.2754 21.0741C10.2757 21.4083 10.2081 21.7394 10.0771 22.0468C9.94616 22.3541 9.75389 22.6319 9.5127 22.8632C9.27142 23.0944 8.98552 23.2746 8.67285 23.3925C8.37007 23.5065 8.04779 23.5586 7.72461 23.5487V23.5497C7.72298 23.5497 7.72135 23.5487 7.71973 23.5487C7.71064 23.5484 7.70147 23.5501 7.69238 23.5497V23.5477C7.04779 23.5392 6.43106 23.2815 5.97461 22.8251C5.5106 22.361 5.25 21.7314 5.25 21.0751C5.25 21.0552 5.25038 21.0353 5.25195 21.0155L6.00195 11.6405L6.02734 11.4989C6.11579 11.1802 6.40778 10.9501 6.75 10.9501H8.77539ZM6.75098 21.0966C6.7565 21.3472 6.85749 21.5868 7.03516 21.7645C7.19522 21.9246 7.40559 22.0237 7.62891 22.0458L7.72461 22.0497L7.75781 22.0507C7.88926 22.0564 8.02045 22.0355 8.14355 21.9891C8.2667 21.9427 8.3796 21.8721 8.47461 21.7811C8.56967 21.69 8.64563 21.58 8.69727 21.4589C8.74613 21.3441 8.7709 21.2211 8.77344 21.0966L8.08301 12.4501H7.44238L6.75098 21.0966Z" fill="currentColor"/>
<path d="M10.9502 6.75024C10.9502 4.2687 9.36051 2.55005 7.72461 2.55005C6.08885 2.55033 4.5 4.26891 4.5 6.75024C4.50008 9.23147 6.08889 10.9502 7.72461 10.9504C9.36047 10.9504 10.9501 9.23168 10.9502 6.75024ZM12.4502 6.75024C12.4501 9.73624 10.4793 12.4504 7.72461 12.4504C4.97012 12.4502 3.00008 9.7361 3 6.75024C3 3.76431 4.97006 1.05031 7.72461 1.05005C10.4794 1.05005 12.4502 3.76417 12.4502 6.75024Z" fill="currentColor"/>
</svg>
