<svg viewBox="0 0 24 24" fill="none" xmlns="http://www.w3.org/2000/svg">
<path d="M22.9897 21.6851L23.0669 21.689C23.4451 21.7274 23.7397 22.0468 23.7397 22.4351C23.7397 22.8234 23.4451 23.1427 23.0669 23.1812L22.9897 23.1851H1.01514C0.600923 23.1851 0.265137 22.8493 0.265137 22.4351C0.265137 22.0208 0.600923 21.6851 1.01514 21.6851H22.9897Z" fill="currentColor"/>
<path opacity="0.3" d="M2.29004 19.735C2.69353 17.4365 3.89009 15.3523 5.67153 13.8449C7.45297 12.3376 9.70651 11.5025 12.04 11.485C14.3688 11.4904 16.62 12.3229 18.392 13.8339C20.164 15.345 21.3417 17.4363 21.715 19.735" fill="currentColor"/>
<path d="M12.0422 10.735L12.5109 10.7467C14.8495 10.8559 17.091 11.7386 18.8791 13.2633C20.6672 14.7881 21.8931 16.862 22.3703 19.1539L22.4553 19.6149L22.4641 19.691C22.4868 20.0705 22.2185 20.413 21.8352 20.4752C21.452 20.5373 21.09 20.2973 20.9914 19.9303L20.9748 19.8551L20.9016 19.4596C20.492 17.4928 19.4399 15.7134 17.9055 14.4049C16.2697 13.01 14.1919 12.2409 12.0422 12.235C9.88547 12.252 7.803 13.0244 6.15645 14.4176C4.50896 15.8116 3.40167 17.7392 3.02852 19.8649C2.95678 20.2727 2.56824 20.5449 2.16036 20.4733C1.75253 20.4015 1.48036 20.013 1.55196 19.6051C1.98583 17.1339 3.27239 14.8927 5.1877 13.2721C7.10295 11.6517 9.52565 10.7538 12.0344 10.735H12.0422Z" fill="currentColor"/>
<path d="M13.2407 9.46021C13.2407 8.79752 12.7032 8.26011 12.0405 8.26001C11.3778 8.26001 10.8403 8.79746 10.8403 9.46021C10.8404 10.1229 11.3778 10.6604 12.0405 10.6604C12.7031 10.6603 13.2406 10.1228 13.2407 9.46021ZM14.7407 9.46021C14.7406 10.9512 13.5315 12.1603 12.0405 12.1604C10.5494 12.1604 9.34044 10.9513 9.34033 9.46021C9.34033 7.96904 10.5494 6.76001 12.0405 6.76001C13.5316 6.76011 14.7407 7.9691 14.7407 9.46021Z" fill="currentColor"/>
<path d="M11.25 4.35034V1.57495C11.25 1.16074 11.5858 0.824951 12 0.824951C12.4142 0.824951 12.75 1.16074 12.75 1.57495V4.35034C12.7498 4.76437 12.4141 5.10034 12 5.10034C11.5859 5.10034 11.2502 4.76437 11.25 4.35034Z" fill="currentColor"/>
<path d="M5.4751 6.15015V3.44995C5.4751 3.03574 5.81088 2.69995 6.2251 2.69995C6.63931 2.69995 6.9751 3.03574 6.9751 3.44995V6.15015C6.97499 6.56427 6.63925 6.90015 6.2251 6.90015C5.81095 6.90015 5.4752 6.56427 5.4751 6.15015Z" fill="currentColor"/>
<path d="M17.0249 6.15015V3.44995C17.0249 3.03574 17.3607 2.69995 17.7749 2.69995C18.1891 2.69995 18.5249 3.03574 18.5249 3.44995V6.15015C18.5248 6.56427 18.1891 6.90015 17.7749 6.90015C17.3608 6.90015 17.025 6.56427 17.0249 6.15015Z" fill="currentColor"/>
</svg>
