<svg viewBox="0 0 24 24" fill="none" xmlns="http://www.w3.org/2000/svg">
<path opacity="0.3" d="M1.5 12H22.05V13.95C22.05 15.8795 21.2835 17.7299 19.9192 19.0942C18.5549 20.4585 16.7045 21.225 14.775 21.225H8.77501C6.84556 21.225 4.99513 20.4585 3.6308 19.0942C2.26647 17.7299 1.5 15.8795 1.5 13.95V12Z" fill="currentColor"/>
<path d="M21.2998 12.75H2.25V13.9502C2.25005 15.6806 2.93763 17.3399 4.16113 18.5635C5.38481 19.7872 7.04485 20.4746 8.77539 20.4746H14.7754C16.5058 20.4745 18.1651 19.7871 19.3887 18.5635C20.6122 17.3399 21.2998 15.6806 21.2998 13.9502V12.75ZM22.7998 13.9502C22.7998 16.0785 21.9542 18.1201 20.4492 19.625C18.9444 21.1296 16.9034 21.9745 14.7754 21.9746H8.77539C6.64716 21.9746 4.60554 21.1298 3.10059 19.625C1.59565 18.1201 0.750051 16.0785 0.75 13.9502V12L0.753906 11.9229C0.792528 11.5449 1.11183 11.25 1.5 11.25H22.0498C22.464 11.25 22.7998 11.5858 22.7998 12V13.9502Z" fill="currentColor"/>
<path opacity="0.3" d="M2.1748 3.2251H2.47478C3.84727 3.2251 5.16355 3.77032 6.13405 4.74082C7.10455 5.71132 7.6498 7.0276 7.6498 8.40009H7.34978C5.97728 8.40009 4.66101 7.85487 3.69051 6.88437C2.72001 5.91387 2.1748 4.59759 2.1748 3.2251Z" fill="currentColor"/>
<path d="M2.47461 2.4751C4.04593 2.4751 5.55293 3.09941 6.66406 4.21045C7.77516 5.32155 8.39936 6.82855 8.39941 8.3999C8.39941 8.81412 8.06363 9.1499 7.64941 9.1499H7.34961C5.77826 9.14986 4.27127 8.52566 3.16016 7.41455C2.04905 6.3034 1.4248 4.79646 1.4248 3.2251L1.42871 3.14795C1.46733 2.76998 1.78664 2.4751 2.1748 2.4751H2.47461ZM2.99512 4.00635C3.15358 4.88961 3.57746 5.71073 4.2207 6.354C4.92683 7.06013 5.84737 7.50133 6.8291 7.61768C6.67045 6.73484 6.24652 5.914 5.60352 5.271C4.8973 4.56486 3.97694 4.1226 2.99512 4.00635Z" fill="currentColor"/>
<path d="M12.6177 1.5C13.5799 1.52377 14.4967 1.91707 15.1773 2.59766C15.8577 3.27817 16.2501 4.19422 16.274 5.15625C16.2741 5.16268 16.274 5.16935 16.274 5.17578C16.2803 5.17578 16.2871 5.17465 16.2935 5.1748C17.2556 5.19867 18.1716 5.59196 18.8521 6.27246C19.4901 6.91046 19.8757 7.75547 19.941 8.65137L19.9497 8.83105L19.9478 8.9082C19.9188 9.28718 19.6064 9.5899 19.2183 9.59961C18.8302 9.6092 18.5034 9.32233 18.4556 8.94531L18.4497 8.86816L18.4341 8.65332C18.3738 8.15583 18.1488 7.69026 17.7915 7.33301C17.3967 6.93813 16.8694 6.70659 16.313 6.67871L15.4976 6.81445C15.2428 6.85684 14.9842 6.7656 14.813 6.57227C14.6418 6.37874 14.5816 6.11014 14.6548 5.8623C14.7215 5.63625 14.7608 5.40326 14.773 5.16797C14.7525 4.60009 14.5189 4.0605 14.1167 3.6582C13.7108 3.25228 13.1649 3.0168 12.5913 3C12.0913 3.00821 11.609 3.18844 11.2261 3.51074C10.8395 3.83634 10.5786 4.28695 10.4878 4.78418L10.4702 4.85938C10.3646 5.22458 9.99683 5.45738 9.61478 5.3877C9.20749 5.31329 8.93712 4.92295 9.01126 4.51562L9.08255 4.2041C9.27868 3.48794 9.68851 2.84575 10.2603 2.36426C10.9137 1.814 11.7381 1.50808 12.5923 1.5H12.6177Z" fill="currentColor"/>
<path d="M11.4746 6.07495C11.4746 5.66074 11.8104 5.32495 12.2246 5.32495C12.6388 5.32495 12.9746 5.66074 12.9746 6.07495C12.9746 6.67169 13.2118 7.24382 13.6338 7.66577C14.0557 8.08773 14.6279 8.32495 15.2246 8.32495C15.6388 8.32495 15.9746 8.66074 15.9746 9.07495C15.9746 9.48916 15.6388 9.82495 15.2246 9.82495C14.23 9.82495 13.2765 9.42958 12.5732 8.72632C11.87 8.02306 11.4746 7.06951 11.4746 6.07495Z" fill="currentColor"/>
</svg>
