<svg viewBox="0 0 24 24" fill="none" xmlns="http://www.w3.org/2000/svg">
<path opacity="0.3" d="M21.825 13.05C21.5375 15.5995 20.2997 17.947 18.3584 19.6245C16.4172 21.3021 13.9149 22.1864 11.3507 22.1013C8.78642 22.0161 6.34845 20.9677 4.52275 19.1651C2.69705 17.3624 1.61774 14.938 1.5 12.375C1.51273 11.8471 1.56286 11.3208 1.65001 10.8C1.69704 11.5518 1.9999 12.265 2.50829 12.821C3.01668 13.3769 3.69997 13.7422 4.44466 13.856C5.18934 13.9699 5.95058 13.8256 6.60189 13.447C7.25321 13.0684 7.7554 12.4784 8.02501 11.775C8.10838 11.6113 8.1593 11.433 8.175 11.25C8.40725 10.4212 8.92305 9.70023 9.63242 9.21279C10.3418 8.72535 11.1997 8.50236 12.0567 8.5827C12.9136 8.66304 13.7152 9.04161 14.3216 9.6524C14.928 10.2632 15.3008 11.0675 15.375 11.925V12.6C15.4685 13.4018 15.8594 14.1395 16.4704 14.6672C17.0814 15.1949 17.8681 15.4742 18.675 15.45C19.3922 15.4571 20.0913 15.225 20.6618 14.7904C21.2322 14.3557 21.6415 13.7433 21.825 13.05Z" fill="currentColor"/>
<path d="M9.20815 8.595C10.0623 8.00812 11.0953 7.73948 12.1271 7.83621C13.1588 7.933 14.1235 8.38893 14.8537 9.1243C15.5838 9.85974 16.0329 10.8281 16.1222 11.8606C16.1241 11.882 16.1251 11.9036 16.1251 11.9251V12.5423C16.2029 13.1463 16.4996 13.7014 16.9611 14.0999C17.4299 14.5046 18.0334 14.719 18.6525 14.7005C18.6625 14.7002 18.6728 14.7004 18.6828 14.7005C19.2331 14.706 19.7694 14.5272 20.2072 14.1936C20.645 13.8601 20.959 13.3898 21.0997 12.8577C21.2004 12.4782 21.5771 12.2406 21.963 12.3128C22.3492 12.3852 22.6145 12.7436 22.5705 13.1341C22.2618 15.871 20.9327 18.3908 18.8488 20.1917C16.7648 21.9925 14.079 22.9422 11.3263 22.8509C8.5735 22.7594 5.95617 21.6337 3.99623 19.6985C2.0363 17.7633 0.877524 15.1609 0.751116 12.4095C0.750313 12.392 0.749718 12.3742 0.75014 12.3567C0.763728 11.7935 0.817312 11.2317 0.910296 10.6761L0.946429 10.5403C1.05793 10.2375 1.35575 10.034 1.68862 10.0511C2.06927 10.0707 2.37478 10.3728 2.39858 10.7532C2.43491 11.3341 2.66893 11.8852 3.06166 12.3147C3.45441 12.7442 3.98249 13.0264 4.55776 13.1145C5.13299 13.2025 5.72156 13.0914 6.22475 12.7991C6.72805 12.5066 7.11603 12.0497 7.32436 11.5061L7.35659 11.4348C7.39607 11.3573 7.42044 11.2725 7.42787 11.1858L7.45326 11.0471C7.73299 10.0495 8.35415 9.18182 9.20815 8.595ZM11.9865 9.32938C11.3046 9.26554 10.6222 9.4435 10.0578 9.83133C9.50242 10.2129 9.09646 10.7742 8.90737 11.4202C8.8781 11.636 8.8175 11.8456 8.72573 12.0432L8.58803 12.3606C8.23746 13.0838 7.67798 13.6885 6.97866 14.095C6.17933 14.5596 5.24514 14.7377 4.33119 14.5979C3.63021 14.4907 2.9744 14.2005 2.42494 13.7639C2.79323 15.6013 3.70119 17.2994 5.04994 18.6311C6.7414 20.3012 9.0004 21.2729 11.3761 21.3518C13.7517 21.4306 16.0699 20.611 17.8683 19.0569C18.8909 18.1732 19.7017 17.0884 20.2609 15.8831C19.769 16.092 19.2374 16.2 18.6964 16.1985L18.6974 16.1995C17.7029 16.2293 16.7336 15.8849 15.9806 15.2347C15.2275 14.5843 14.7453 13.6752 14.63 12.6868C14.6267 12.658 14.6251 12.6289 14.6251 12.5999V11.9671C14.5616 11.2931 14.2665 10.6617 13.7892 10.1809C13.3066 9.69486 12.6685 9.39331 11.9865 9.32938Z" fill="currentColor"/>
<path d="M14.625 11.9671C14.5614 11.2932 14.2672 10.6617 13.79 10.1809C13.3075 9.6949 12.6692 9.39341 11.9873 9.32938C11.3052 9.26544 10.6222 9.44337 10.0576 9.83133C9.50286 10.2125 9.09755 10.7731 8.9082 11.4182C8.88333 11.603 8.83553 11.7832 8.76465 11.9554C8.75327 12.0688 8.73479 12.1613 8.72266 12.222C8.70322 12.3191 8.7002 12.3461 8.7002 12.3753C8.70027 13.1708 9.01656 13.9338 9.5791 14.4964C10.1417 15.0589 10.9046 15.3753 11.7002 15.3753H11.7012L11.9824 15.3616C12.635 15.2991 13.2505 15.0183 13.7275 14.5608C14.2701 14.0404 14.5915 13.3312 14.625 12.5804V11.9671ZM16.125 12.6302C16.0783 13.7722 15.5914 14.8527 14.7666 15.6438C13.9419 16.4348 12.8429 16.8751 11.7002 16.8743V16.8753C10.5068 16.8753 9.36245 16.4007 8.51855 15.5569C7.6747 14.7131 7.20027 13.5686 7.2002 12.3753C7.2002 12.1796 7.23388 12.0184 7.25195 11.928C7.27139 11.8308 7.27539 11.8039 7.27539 11.7747C7.27544 11.6566 7.30292 11.5401 7.35645 11.4348C7.39593 11.3573 7.4203 11.2726 7.42773 11.1858L7.45312 11.0472C7.73284 10.0495 8.35403 9.18183 9.20801 8.595C10.0622 8.00809 11.0951 7.73948 12.127 7.83621C13.1588 7.93297 14.1243 8.38887 14.8545 9.1243C15.5844 9.8597 16.0328 10.8283 16.1221 11.8606C16.1239 11.882 16.125 11.9036 16.125 11.9251V12.6302Z" fill="currentColor"/>
<path d="M11.6991 1.5L12.1923 1.51074C14.6513 1.61855 17.0066 2.5583 18.868 4.18359C20.8535 5.91722 22.1425 8.31253 22.494 10.9248H22.493C22.5607 11.412 22.5885 11.9039 22.5751 12.3955V13.0498C22.5751 13.1146 22.5672 13.1796 22.5507 13.2422C22.3245 14.0967 21.8192 14.851 21.1161 15.3867C20.413 15.9224 19.5517 16.209 18.6678 16.2002V16.1992C17.6837 16.2213 16.7259 15.8783 15.9803 15.2344C15.2274 14.584 14.746 13.6748 14.6307 12.6865C14.6274 12.6578 14.6249 12.6285 14.6249 12.5996V11.9648C14.5609 11.2917 14.2667 10.6609 13.7899 10.1807C13.3073 9.69457 12.6692 9.39309 11.9872 9.3291C11.3051 9.26516 10.6221 9.44309 10.0575 9.83105C9.49295 10.219 9.08222 10.7926 8.89734 11.4521C8.88454 11.4978 8.86773 11.5425 8.84656 11.585C8.85946 11.559 8.86107 11.5474 8.85632 11.5654C8.85137 11.5843 8.84595 11.6085 8.83582 11.6592C8.8273 11.7018 8.81324 11.7717 8.7948 11.8418C8.78034 11.8967 8.75682 11.966 8.72449 12.042L8.72546 12.043C8.3946 12.9063 7.77863 13.6311 6.97937 14.0957C6.18016 14.5602 5.24573 14.7373 4.33191 14.5977C3.41797 14.4579 2.57888 14.0094 1.95496 13.3271C1.33105 12.6449 0.958958 11.7694 0.901245 10.8467C0.898037 10.7952 0.90068 10.7434 0.908081 10.6924C0.994829 10.094 1.12902 9.50292 1.30945 8.92578L1.31726 8.90332C2.06755 6.74609 3.46944 4.87501 5.32898 3.54883C7.18859 2.22268 9.4141 1.50665 11.6981 1.5H11.6991ZM11.701 3C9.72817 3.00603 7.80536 3.62496 6.1991 4.77051C4.59733 5.91301 3.38764 7.52297 2.73816 9.37988C2.59105 9.85156 2.48126 10.334 2.40613 10.8223C2.45608 11.3777 2.6852 11.902 3.06238 12.3145C3.45523 12.744 3.98303 13.0262 4.55847 13.1143C5.13387 13.2022 5.72219 13.0914 6.22546 12.7988C6.72868 12.5063 7.11674 12.0503 7.32507 11.5068L7.35437 11.4395C7.34122 11.4658 7.33982 11.4781 7.3446 11.46C7.34959 11.441 7.35488 11.4164 7.36511 11.3652C7.37362 11.3227 7.38678 11.2535 7.40515 11.1836C7.41787 11.1352 7.4376 11.0754 7.46375 11.0098C7.74837 10.0278 8.36458 9.17421 9.20789 8.59473C10.062 8.00783 11.095 7.73924 12.1268 7.83594C13.1587 7.93267 14.1242 8.38857 14.8544 9.12402C15.5845 9.85945 16.0336 10.8279 16.1229 11.8604C16.1248 11.8818 16.1249 11.9033 16.1249 11.9248V12.542C16.2026 13.1462 16.4993 13.701 16.9608 14.0996C17.4297 14.5046 18.0339 14.7188 18.6532 14.7002C18.663 14.6999 18.6727 14.7001 18.6825 14.7002C19.2329 14.7057 19.7701 14.5279 20.2079 14.1943C20.6233 13.8778 20.9248 13.4372 21.0751 12.9385V12.3545C21.0863 11.9446 21.0642 11.534 21.0077 11.1279L21.0067 11.125C20.7037 8.87307 19.5933 6.80799 17.8817 5.31348C16.17 3.81894 13.9734 2.99654 11.701 3Z" fill="currentColor"/>
<path d="M5.17529 10.6501L6.0753 9.6001" stroke="currentColor" stroke-width="1.5" stroke-linecap="round" stroke-linejoin="round"/>
<path d="M8.77512 7.4251L7.7251 6.6001" stroke="currentColor" stroke-width="1.5" stroke-linecap="round" stroke-linejoin="round"/>
<path d="M17.0251 7.64996L15.9751 6.82495" stroke="currentColor" stroke-width="1.5" stroke-linecap="round" stroke-linejoin="round"/>
<path d="M11.7754 6.07502L12.6004 5.02502" stroke="currentColor" stroke-width="1.5" stroke-linecap="round" stroke-linejoin="round"/>
<path d="M18.2251 11.4001L19.1251 10.3501" stroke="currentColor" stroke-width="1.5" stroke-linecap="round" stroke-linejoin="round"/>
</svg>
