<svg viewBox="0 0 24 24" fill="none" xmlns="http://www.w3.org/2000/svg">
<path opacity="0.3" d="M11.5859 7.80005C9.63088 10.1718 7.06266 11.9618 4.16087 12.9751C-0.0391291 14.4001 0.785861 21.4501 6.26086 21.5251C11.7359 21.6001 13.7609 19.6501 17.1359 13.9501" fill="currentColor"/>
<path d="M15.8591 2.10108C16.8226 2.08563 17.7774 2.28726 18.6511 2.69385L18.9265 2.82861C20.1936 3.48448 21.2267 4.51757 21.8826 5.78467L22.0164 6.06006L22.0261 6.08154L22.157 6.41162C22.4027 7.07726 22.5507 7.77488 22.5964 8.48291L22.6111 8.83838V8.84326L22.6081 9.09815C22.5703 10.3726 22.1599 11.6106 21.4246 12.6567C21.2086 12.9636 20.7987 13.0639 20.4656 12.8911C19.769 12.5296 19.1337 12.0611 18.5808 11.5044L18.3679 11.3003C17.4734 10.4008 16.8846 9.24541 16.6804 7.99854C15.4606 7.74873 14.3243 7.18683 13.3845 6.36475L13.1697 6.16943L13.1501 6.14893C12.5766 5.56208 12.1168 4.87384 11.7956 4.11865C11.6514 3.77948 11.7754 3.38583 12.0876 3.18994C13.2147 2.48276 14.517 2.10612 15.8474 2.10108V2.1001C15.8496 2.10006 15.8521 2.10111 15.8542 2.10108C15.8559 2.10107 15.8575 2.1001 15.8591 2.1001V2.10108ZM15.4685 3.61475C14.7793 3.6646 14.107 3.84306 13.4832 4.13623C13.6872 4.48039 13.9309 4.80023 14.2107 5.08838C15.044 5.87571 16.0938 6.39276 17.2224 6.57373L17.4499 6.60498L17.5808 6.63233C17.875 6.72222 18.0893 6.9871 18.1091 7.30322C18.1788 8.41335 18.6506 9.4575 19.4314 10.2427L19.5915 10.396L19.6208 10.4243C19.9054 10.7139 20.2181 10.974 20.5535 11.2007C20.9238 10.4802 21.118 9.67865 21.1111 8.86182L21.0994 8.57959C21.0574 7.92994 20.9077 7.29119 20.655 6.68994L20.5496 6.47412C19.9996 5.41184 19.111 4.56026 18.0212 4.05615L18.0193 4.05518C17.4322 3.78175 16.7974 3.62831 16.1521 3.60303L15.8748 3.6001H15.863L15.4685 3.61475Z" fill="currentColor"/>
<path d="M19.7607 4.27501C19.7607 4.27501 21.5608 4.5 22.3108 2.25" stroke="currentColor" stroke-width="1.5" stroke-linecap="round" stroke-linejoin="round"/>
<path d="M11.0069 7.32344C11.2703 7.00396 11.743 6.95784 12.0626 7.2209C12.3821 7.48423 12.4281 7.95695 12.1651 8.27656C10.2506 10.5992 7.77256 12.3881 4.97275 13.4748L4.40829 13.6828L4.40146 13.6857V13.6848C2.7379 14.2494 2.00615 15.9423 2.3204 17.6184C2.62672 19.2513 3.92473 20.7434 6.27158 20.7756C8.91196 20.8117 10.605 20.3596 12.0401 19.3C13.5177 18.209 14.802 16.4189 16.4903 13.5676C16.7014 13.2113 17.1613 13.094 17.5177 13.3049C17.8741 13.5159 17.9924 13.9758 17.7813 14.3322C16.0948 17.1806 14.6789 19.2158 12.9317 20.5061C11.1421 21.8275 9.0851 22.3134 6.25107 22.2746C3.1232 22.2318 1.27093 20.1616 0.845794 17.8947C0.429136 15.6725 1.38229 13.1292 3.91415 12.2668L4.42978 12.0764C6.99017 11.0826 9.25603 9.44741 11.0069 7.32344Z" fill="currentColor"/>
</svg>
