<svg viewBox="0 0 24 24" fill="none" xmlns="http://www.w3.org/2000/svg">
<path opacity="0.3" d="M8.84961 3.46997C12.8996 3.46997 16.2002 10.4454 16.2002 14.4954C16.2001 16.4446 15.4252 18.3143 14.0469 19.6926C12.6685 21.0708 10.7988 21.845 8.84961 21.845C6.90041 21.8449 5.03065 21.0709 3.65234 19.6926C2.27404 18.3143 1.5001 16.4446 1.5 14.4954C1.5 10.4455 4.79978 3.47041 8.84961 3.46997ZM8.84961 11.8704C6.94452 11.8706 5.40057 13.4145 5.40039 15.3196C5.40039 17.2248 6.94441 18.7696 8.84961 18.7698C10.755 18.7698 12.2998 17.225 12.2998 15.3196C12.2996 13.4144 10.7549 11.8704 8.84961 11.8704Z" fill="currentColor"/>
<path d="M15.4502 14.4954C15.4502 12.6329 14.677 10.007 13.3984 7.84595C12.763 6.77202 12.0237 5.84999 11.2324 5.20435C10.4418 4.55926 9.63833 4.21997 8.84961 4.21997C8.06095 4.22008 7.25733 4.55927 6.4668 5.20435C5.67567 5.84998 4.93709 6.77215 4.30176 7.84595C3.02316 10.0071 2.25 12.6328 2.25 14.4954C2.2501 16.2456 2.94496 17.9247 4.18262 19.1624C5.42027 20.4 7.09932 21.0949 8.84961 21.095C10.5998 21.095 12.2789 20.3998 13.5166 19.1624C14.7542 17.9247 15.4501 16.2457 15.4502 14.4954ZM16.9502 14.4954C16.9501 16.6435 16.0961 18.7039 14.5771 20.2229C13.0581 21.7417 10.9977 22.595 8.84961 22.595C6.70149 22.5949 4.64102 21.7419 3.12207 20.2229C1.60312 18.7039 0.750101 16.6435 0.75 14.4954C0.75 12.3081 1.62704 9.42107 3.01074 7.08228C3.70653 5.9063 4.55208 4.83095 5.51855 4.04224C6.4856 3.25312 7.61354 2.72008 8.84961 2.71997C10.0858 2.71997 11.2145 3.25304 12.1816 4.04224C13.1481 4.83094 13.9937 5.90635 14.6895 7.08228C16.0731 9.42106 16.9502 12.3081 16.9502 14.4954Z" fill="currentColor"/>
<path d="M11.5503 15.3202C11.5503 13.8291 10.3412 12.6201 8.8501 12.62C7.35893 12.62 6.1499 13.829 6.1499 15.3202C6.15002 16.8113 7.359 18.0204 8.8501 18.0204C10.3411 18.0203 11.5502 16.8112 11.5503 15.3202ZM13.0503 15.3202C13.0502 17.6396 11.1695 19.5203 8.8501 19.5204C6.53057 19.5204 4.65002 17.6397 4.6499 15.3202C4.6499 13.0006 6.5305 11.12 8.8501 11.12C11.1696 11.1201 13.0503 13.0007 13.0503 15.3202Z" fill="currentColor"/>
<path d="M15.8093 1.52547C16.8014 1.40448 17.7483 1.72571 18.5778 2.25301C19.4069 2.78012 20.1631 3.53921 20.8083 4.38289C22.0094 5.95357 22.9176 7.93992 23.197 9.58113L23.2448 9.90437L23.2468 9.92391C23.3738 11.2632 23.0832 12.6094 22.4157 13.7774C21.7483 14.9454 20.7365 15.8788 19.5183 16.4493C19.1432 16.625 18.6969 16.463 18.5212 16.088C18.3456 15.713 18.5067 15.2667 18.8815 15.0909C19.8198 14.6515 20.6 13.9328 21.114 13.0333C21.6263 12.1368 21.8489 11.1042 21.7536 10.0762C21.5831 8.69994 20.7706 6.80274 19.6169 5.29402C19.0434 4.54407 18.4112 3.92526 17.7731 3.51961C17.1357 3.11432 16.5361 2.94825 15.9909 3.01473C15.5798 3.06486 15.2061 2.77159 15.156 2.36043C15.106 1.94937 15.3982 1.57562 15.8093 1.52547Z" fill="currentColor"/>
</svg>
