<svg viewBox="0 0 24 24" fill="none" xmlns="http://www.w3.org/2000/svg">
<path opacity="0.3" fill-rule="evenodd" clip-rule="evenodd" d="M2.25 6.67623C8.82291 5.02524 15.7025 5.02524 22.2754 6.67623L17.25 14.6264L12.2246 22.5756L7.27539 14.6264L2.25 6.67623ZM9.97461 8.10103C9.10494 8.10124 8.40039 8.80651 8.40039 9.67623C8.40046 10.5459 9.10498 11.2512 9.97461 11.2514C10.8444 11.2514 11.5497 10.546 11.5498 9.67623C11.5498 8.80638 10.8445 8.10103 9.97461 8.10103Z" fill="currentColor"/>
<path d="M2.69512 5.79635C9.19723 4.26947 15.974 4.32008 22.4578 5.94869L22.5428 5.97604C22.7368 6.0503 22.8933 6.20251 22.9715 6.39791C23.0606 6.62104 23.0373 6.87347 22.909 7.07662L12.8592 22.977C12.7213 23.1952 12.4805 23.3274 12.2225 23.3266C11.9644 23.3258 11.7242 23.1922 11.5877 22.9731L6.64044 15.0268L1.61602 7.07662C1.48762 6.87339 1.46431 6.62114 1.55352 6.39791C1.64286 6.17459 1.83391 6.00729 2.0672 5.94869L2.69512 5.79635ZM21.0789 7.16354C15.2729 5.86344 9.25113 5.86337 3.44512 7.16354L7.90899 14.2251L7.91192 14.2299L12.2283 21.1645L21.0789 7.16354Z" fill="currentColor"/>
<path d="M10.8003 9.67639C10.8003 9.2208 10.4306 8.85129 9.9751 8.8512C9.51945 8.8512 9.1499 9.22077 9.1499 9.67639C9.15001 10.1319 9.51951 10.5016 9.9751 10.5016C10.4306 10.5015 10.8002 10.1319 10.8003 9.67639ZM12.3003 9.67639C12.3002 10.9603 11.259 12.0015 9.9751 12.0016C8.69111 12.0016 7.65001 10.9604 7.6499 9.67639C7.6499 8.39232 8.69105 7.3512 9.9751 7.3512C11.2591 7.35129 12.3003 8.3924 12.3003 9.67639Z" fill="currentColor"/>
<path d="M15.7496 11.5512C16.4538 11.5512 17.0246 10.9804 17.0246 10.2762C17.0246 9.57207 16.4538 9.00122 15.7496 9.00122C15.0455 9.00122 14.4746 9.57207 14.4746 10.2762C14.4746 10.9804 15.0455 11.5512 15.7496 11.5512Z" fill="currentColor"/>
<path d="M12.2247 16.2012C12.9289 16.2012 13.4997 15.6304 13.4997 14.9262C13.4997 14.2221 12.9289 13.6512 12.2247 13.6512C11.5206 13.6512 10.9497 14.2221 10.9497 14.9262C10.9497 15.6304 11.5206 16.2012 12.2247 16.2012Z" fill="currentColor"/>
<path d="M3.22461 5.70117C3.22461 4.64705 3.64332 3.63608 4.38867 2.89062C5.13127 2.14802 6.13763 1.72975 7.1875 1.72656H7.19922C7.75473 1.71914 8.30542 1.83004 8.81445 2.05273C8.90144 2.09079 8.9866 2.13261 9.07031 2.17676C9.23809 1.73549 9.49762 1.32953 9.83789 0.989258C10.4708 0.356369 11.3296 0.000976562 12.2246 0.000976562V0.00195312C12.6667 -0.00825274 13.1064 0.0693193 13.5176 0.232422C13.9358 0.398371 14.3156 0.64867 14.6338 0.966797C14.952 1.28496 15.2022 1.66478 15.3682 2.08301C15.3817 2.11711 15.3929 2.15204 15.4053 2.18652C15.7023 2.0344 16.0179 1.9171 16.3467 1.8418C17.1282 1.66283 17.9453 1.72009 18.6943 2.00586C19.4436 2.29174 20.091 2.79399 20.5547 3.44824C20.9604 4.02074 21.2099 4.68709 21.2803 5.38184L21.2998 5.68066L21.2979 5.75781C21.2696 6.13688 20.9575 6.44074 20.5693 6.45117C20.1813 6.46139 19.8542 6.17475 19.8057 5.79785L19.7998 5.72168L19.7881 5.5332C19.7438 5.09565 19.5866 4.67596 19.3311 4.31543C19.0391 3.90356 18.6318 3.58724 18.1602 3.40723C17.6885 3.22726 17.1737 3.19106 16.6816 3.30371C16.1895 3.41644 15.7419 3.67362 15.3955 4.04102C15.1848 4.26445 14.8587 4.33676 14.5732 4.22363C14.2876 4.11023 14.0997 3.83365 14.0996 3.52637V3.35352L14.0957 3.16992C14.0825 2.98715 14.0415 2.80674 13.9736 2.63574C13.8831 2.40776 13.7467 2.2008 13.5732 2.02734C13.3998 1.85388 13.1929 1.71747 12.9648 1.62695C12.7938 1.55907 12.6135 1.51812 12.4307 1.50488L12.2471 1.50098C12.2396 1.5012 12.2321 1.50098 12.2246 1.50098C11.7273 1.50098 11.2501 1.69916 10.8984 2.05078C10.5471 2.40232 10.3497 2.87892 10.3496 3.37598V3.52637C10.3495 3.83723 10.1576 4.11562 9.86719 4.22656C9.57666 4.3375 9.24732 4.2582 9.04004 4.02637C8.8105 3.76966 8.52839 3.56479 8.21289 3.42676C7.89748 3.28884 7.55609 3.21993 7.21191 3.22559L7.19922 3.22656C6.54295 3.22666 5.91328 3.48711 5.44922 3.95117C4.9852 4.41529 4.72461 5.04483 4.72461 5.70117C4.72459 6.11537 4.38881 6.45117 3.97461 6.45117C3.56041 6.45117 3.22463 6.11537 3.22461 5.70117Z" fill="currentColor"/>
</svg>
