<svg viewBox="0 0 24 24" fill="none" xmlns="http://www.w3.org/2000/svg">
<path opacity="0.3" d="M14.1574 10.35C14.1574 10.35 14.8324 4.35 11.3074 2.25C10.1843 5.08181 8.61435 7.71523 6.65744 10.05C3.88244 13.35 2.98244 19.05 8.90744 22.35C9.64649 21.2657 10.2747 20.1099 10.7824 18.9C11.1984 17.2766 11.4744 15.6205 11.6074 13.95C11.6074 13.95 15.5825 17.775 14.8325 22.35C14.8325 22.35 23.8324 18 17.3824 9" fill="currentColor"/>
<path d="M11.0655 1.54006C11.2736 1.46928 11.5027 1.49303 11.6915 1.60549C13.7498 2.83172 14.5141 5.1462 14.796 6.97365C14.9399 7.90682 14.9667 8.76569 14.9581 9.38967C14.9538 9.70271 14.9402 9.95956 14.9278 10.1397C14.9216 10.2297 14.9158 10.3008 14.9112 10.3506C14.909 10.3755 14.9068 10.3952 14.9054 10.4092C14.9047 10.4162 14.9039 10.4217 14.9034 10.4258V10.4326L14.9025 10.4336C14.8977 10.4333 14.8407 10.4265 14.1573 10.3496L13.4122 10.2666C13.4124 10.265 13.4127 10.2603 13.4132 10.2559C13.4141 10.247 13.4153 10.2329 13.4171 10.2139C13.4207 10.1748 13.4264 10.1142 13.4317 10.0362C13.4425 9.87995 13.4542 9.65115 13.4581 9.36916C13.4659 8.80277 13.4414 8.03088 13.3136 7.20217C13.0979 5.80395 12.6096 4.38075 11.6251 3.43362C10.5078 5.9958 9.03025 8.38742 7.23253 10.5322C5.94452 12.0639 5.11656 14.1269 5.26769 16.1436C5.40447 17.9674 6.34865 19.8438 8.67394 21.334C9.20934 20.4813 9.67588 19.5871 10.0685 18.6592C10.466 17.0948 10.7313 15.4998 10.8595 13.8906L10.8761 13.7842C10.9311 13.5413 11.1047 13.339 11.3419 13.249C11.6129 13.1463 11.9192 13.2082 12.128 13.4092L12.1837 13.4658C12.2168 13.4992 12.2642 13.5469 12.3224 13.6084C12.4385 13.7314 12.6005 13.9096 12.7911 14.1367C13.1721 14.5907 13.6718 15.246 14.1476 16.0537C14.8971 17.3263 15.6132 19.028 15.67 20.9424C15.6774 20.937 15.6851 20.9322 15.6925 20.9268C16.39 20.4119 17.2408 19.6477 17.8985 18.6397C18.5514 17.6391 19.0126 16.4024 18.9562 14.9112C18.8996 13.4164 18.32 11.5958 16.7726 9.43654L17.9923 8.5635C19.6697 10.9041 20.3842 13.0024 20.4542 14.8545C20.5244 16.7099 19.9452 18.2482 19.1544 19.46C18.3684 20.6644 17.3715 21.5509 16.5831 22.1328C16.1869 22.4253 15.8378 22.6452 15.5851 22.793C15.4588 22.8668 15.3562 22.9233 15.2833 22.9619C15.2468 22.9813 15.2173 22.9963 15.1964 23.0069L15.1612 23.0244H15.1593C14.9073 23.1462 14.6081 23.1185 14.3839 22.9512C14.1596 22.7837 14.0476 22.5048 14.0929 22.2285C14.4278 20.1854 13.7106 18.2689 12.8546 16.8155C12.6236 16.4233 12.385 16.0711 12.1612 15.7656C12.0058 16.8833 11.7892 17.992 11.5089 19.086C11.4998 19.1215 11.4879 19.1567 11.4737 19.1905C10.9465 20.4466 10.2947 21.6468 9.52745 22.7725C9.30893 23.0931 8.88206 23.1936 8.54308 23.0049C5.38351 21.2451 3.96207 18.7826 3.77257 16.2559C3.59802 13.9278 4.47505 11.6401 5.81066 9.90627L6.08312 9.5674C7.98825 7.29427 9.51697 4.73063 10.6105 1.97365L10.6446 1.89944C10.7336 1.73129 10.8836 1.60208 11.0655 1.54006ZM14.9025 10.4336C14.8561 10.8452 14.485 11.142 14.0734 11.0957C13.662 11.0493 13.3662 10.678 13.4122 10.2666L14.9025 10.4336ZM16.9454 8.39065C17.2821 8.14936 17.751 8.22682 17.9923 8.5635L16.7726 9.43654C16.5317 9.09998 16.6091 8.63189 16.9454 8.39065Z" fill="currentColor"/>
</svg>
