<svg viewBox="0 0 24 24" fill="none" xmlns="http://www.w3.org/2000/svg">
<path opacity="0.3" d="M20.475 3.75C20.4868 6.20977 20.3113 8.66689 19.95 11.1C17.2296 9.31893 14.9061 6.99545 13.125 4.27501C15.5618 3.94826 18.0165 3.77291 20.475 3.75Z" fill="currentColor"/>
<path opacity="0.3" d="M7.65 16.3501L7.35 18.6751L7.125 20.9251L5.025 18.9001L3 16.8751L5.32499 16.5751L7.65 16.3501Z" fill="currentColor"/>
<path d="M20.6151 3.01367C20.76 3.04127 20.8952 3.11071 21.0018 3.21582C21.1437 3.3558 21.2234 3.54677 21.2244 3.74609C21.2364 6.2439 21.0581 8.73923 20.6912 11.21C20.6537 11.4629 20.49 11.6795 20.2567 11.7842C20.0234 11.8888 19.7528 11.8676 19.5389 11.7275C16.7321 9.88992 14.3345 7.49232 12.4969 4.68555C12.356 4.47007 12.3361 4.19704 12.4432 3.96289C12.5504 3.72877 12.77 3.56547 13.0252 3.53125C15.4926 3.2004 17.9782 3.02321 20.4676 3L20.6151 3.01367ZM19.7205 4.5127C17.9588 4.55196 16.1999 4.67073 14.449 4.86816C15.8287 6.74814 17.488 8.4057 19.369 9.78418C19.5833 8.03488 19.7009 6.2752 19.7205 4.5127Z" fill="currentColor"/>
<path d="M15.5222 7.41682C15.8164 7.12563 16.2913 7.12776 16.5827 7.4217C16.8742 7.71595 16.8721 8.1917 16.5778 8.48323L8.47822 16.5076L8.4206 16.5594C8.12491 16.7982 7.68996 16.7786 7.4167 16.5028C7.12551 16.2086 7.12764 15.7337 7.42158 15.4422L15.5222 7.41682Z" fill="currentColor"/>
<path d="M7.57814 15.6039C7.80526 15.582 8.02972 15.6646 8.18849 15.8285C8.34723 15.9925 8.42269 16.2194 8.39357 16.4457L8.09571 18.7485L8.09669 18.7494L7.8711 20.9994C7.84252 21.2853 7.65345 21.5302 7.3838 21.6293C7.11418 21.7283 6.81133 21.6645 6.6045 21.4653L4.50489 19.4399L4.49415 19.4301V19.4291L2.46974 17.4057C2.26762 17.2036 2.19791 16.9038 2.29005 16.6332C2.3823 16.3626 2.62074 16.1679 2.90431 16.1313L5.2295 15.8315L5.25294 15.8285L7.57814 15.6039ZM5.39942 17.3207L4.60841 17.4233L5.54591 18.3598L6.53224 19.311L6.60353 18.6L6.60646 18.5795L6.78517 17.1869L5.39942 17.3207Z" fill="currentColor"/>
<path d="M13.2196 10.809C13.5044 11.1096 13.4918 11.5846 13.1913 11.8695C12.8907 12.1543 12.4157 12.1416 12.1308 11.8412L13.2196 10.809ZM9.58389 4.76503C9.95151 4.64042 10.3488 4.81693 10.5067 5.16249L10.5351 5.23378V5.23476L10.536 5.23671C10.5366 5.23845 10.5378 5.24101 10.539 5.24453C10.5416 5.25217 10.5454 5.26431 10.5507 5.27968C10.5615 5.31099 10.5783 5.35811 10.5995 5.41835C10.642 5.53892 10.7047 5.71368 10.7841 5.92812C10.943 6.35776 11.1683 6.9449 11.4345 7.57363C11.7012 8.2037 12.0057 8.86709 12.3212 9.45449C12.643 10.0535 12.9521 10.5265 13.2196 10.809L12.6747 11.3246L12.1308 11.8412C11.7233 11.4111 11.339 10.7958 10.9999 10.1644C10.6546 9.52154 10.3305 8.81173 10.0536 8.15761C9.77607 7.50204 9.54132 6.89317 9.37686 6.44863C9.29457 6.22623 9.22922 6.04426 9.18447 5.91738C9.16212 5.854 9.1455 5.80409 9.13369 5.76992C9.12786 5.75305 9.12313 5.73994 9.12002 5.73085C9.11848 5.72636 9.11695 5.72257 9.11611 5.72011C9.11571 5.71892 9.11537 5.71788 9.11514 5.71718V5.71621L9.09365 5.64199C9.00863 5.27164 9.21641 4.88988 9.58389 4.76503Z" fill="currentColor"/>
<path d="M12.1299 10.8094C12.3968 10.5276 12.8309 10.4984 13.1319 10.7303L13.1905 10.7801L13.3057 10.8836C13.594 11.1274 14.0186 11.3992 14.5362 11.6805C15.1169 11.996 15.7718 12.3004 16.3926 12.5672C17.012 12.8333 17.5892 13.0587 18.0117 13.2176C18.2228 13.2969 18.3951 13.3596 18.5137 13.4021C18.5728 13.4233 18.6187 13.4392 18.6494 13.45C18.6647 13.4554 18.6761 13.4601 18.6836 13.4627C18.6874 13.464 18.6906 13.465 18.6924 13.4656H18.6944L18.7657 13.4949C19.1105 13.6546 19.2858 14.0527 19.1592 14.4197C19.0326 14.7867 18.6493 14.9919 18.2793 14.9051L18.2051 14.8836H18.2041C18.2034 14.8834 18.2024 14.883 18.2012 14.8826C18.1988 14.8818 18.1949 14.8803 18.1905 14.8787C18.1815 14.8756 18.1689 14.8708 18.1524 14.865C18.1187 14.8532 18.0693 14.8366 18.0069 14.8143C17.882 14.7695 17.7025 14.7042 17.4834 14.6219C17.0459 14.4574 16.4469 14.2227 15.8008 13.9451C15.1561 13.6681 14.4559 13.3442 13.8203 12.9988C13.2738 12.7019 12.7401 12.3704 12.3282 12.0203L12.1592 11.8699L12.1065 11.8143C11.8581 11.5264 11.863 11.0914 12.1299 10.8094Z" fill="currentColor"/>
<path d="M7.70792 9.2651C8.07546 9.13972 8.47331 9.31597 8.63175 9.66158L8.66007 9.73287V9.73385C8.66046 9.73497 8.66114 9.73714 8.66202 9.73971C8.66379 9.74483 8.66716 9.75267 8.67081 9.76314C8.67821 9.78438 8.68935 9.81668 8.70402 9.85787C8.73342 9.94045 8.77682 10.0603 8.83195 10.2075C8.94264 10.5031 9.10002 10.9063 9.28605 11.3374C9.47272 11.7699 9.68392 12.2216 9.90323 12.6176C10.0726 12.9236 10.232 13.1695 10.372 13.3442L10.5058 13.4946L10.5566 13.5512C10.7971 13.8457 10.7802 14.2804 10.5058 14.5551C10.2312 14.8297 9.79645 14.8471 9.50187 14.6069L9.44523 14.5551L9.32609 14.4301C9.05357 14.1243 8.80625 13.7316 8.59171 13.3442C8.34005 12.8897 8.10575 12.39 7.90812 11.9321C7.70977 11.4725 7.54332 11.0453 7.42667 10.7338C7.36831 10.578 7.32274 10.4501 7.29093 10.3608C7.27502 10.3161 7.26228 10.2806 7.25382 10.2563C7.24963 10.2443 7.24631 10.2345 7.24405 10.228C7.24304 10.2251 7.24172 10.2229 7.24112 10.2212V10.2182H7.24015V10.2172L7.21964 10.144C7.13349 9.77354 7.34027 9.39064 7.70792 9.2651Z" fill="currentColor"/>
<path d="M9.42463 13.5163C9.68808 13.2311 10.1217 13.1962 10.4256 13.4245L10.4842 13.4743L10.6365 13.5993C10.8134 13.7315 11.0619 13.8836 11.3699 14.0466C11.7688 14.2575 12.223 14.4634 12.6571 14.6462C13.0896 14.8283 13.4944 14.9836 13.7908 15.0935C13.9385 15.1482 14.0585 15.192 14.1414 15.2214C14.1829 15.2361 14.2157 15.2472 14.2371 15.2546C14.2477 15.2583 14.2554 15.2616 14.2606 15.2634C14.2632 15.2643 14.2653 15.2649 14.2664 15.2653H14.2674L14.3387 15.2937C14.6844 15.4521 14.8607 15.8499 14.7352 16.2175C14.6097 16.5849 14.2275 16.7914 13.8572 16.7058L13.783 16.6853V16.6843H13.7821L13.7801 16.6833C13.7783 16.6827 13.7755 16.6825 13.7723 16.6814C13.7658 16.6791 13.756 16.6758 13.744 16.6716C13.7199 16.6632 13.6847 16.6511 13.6405 16.6355C13.5516 16.604 13.4245 16.5582 13.2694 16.5007C12.9588 16.3856 12.533 16.2219 12.075 16.029C11.6185 15.8368 11.1207 15.6118 10.6688 15.3728C10.284 15.1692 9.89528 14.9363 9.59162 14.6853L9.46662 14.5759L9.41291 14.5212C9.16117 14.2365 9.16128 13.8016 9.42463 13.5163Z" fill="currentColor"/>
</svg>
