<svg viewBox="0 0 24 24" fill="none" xmlns="http://www.w3.org/2000/svg">
<path opacity="0.3" d="M7.125 6.75L8.25 7.5L7.5 9.75L6.75 11.625L7.125 15L7.5 16.875L10.125 17.625L13.125 18L15.75 16.875L18.375 15.375L19.125 14.25V13.5H18.375L15.75 12.375L13.875 10.875L12.375 9L11.625 7.5V5.625L11.25 4.875H8.25L6 5.625L5.625 6.375L7.125 6.75Z" fill="currentColor"/>
<path d="M7.125 6.75L8.25 7.5L7.5 9.75L6.75 11.625L7.125 15L7.5 16.875L10.125 17.625L13.125 18L15.75 16.875L18.375 15.375L19.125 14.25V13.5H18.375L15.75 12.375L13.875 10.875L12.375 9L11.625 7.5V5.625L11.25 4.875H8.25L6 5.625L5.625 6.375L7.125 6.75Z" stroke="currentColor" stroke-width="0.75"/>
<path d="M15.755 3.00098C17.2647 2.99316 18.7542 3.33521 20.1066 4L20.3761 4.1377L20.4718 4.19824C20.5622 4.26534 20.637 4.35256 20.6896 4.45313C21.4354 5.87962 21.8245 7.46551 21.8244 9.0752C21.8523 9.68786 21.7959 10.3016 21.6545 10.8984C21.4001 12.2693 20.8486 13.5679 20.0373 14.7021C19.2181 15.8474 18.1551 16.7973 16.925 17.4824C15.6949 18.1675 14.3279 18.5715 12.923 18.665C11.5182 18.7586 10.11 18.5393 8.79997 18.0234V18.0225C8.38915 17.8768 7.99807 17.6814 7.63493 17.4404L7.12711 17.1514C6.94735 17.0485 6.82047 16.8776 6.77165 16.6816C6.76065 16.6582 6.74589 16.6276 6.73356 16.5947C6.72069 16.5604 6.70556 16.5128 6.69352 16.4551C6.52733 15.9677 6.41451 15.303 6.34391 14.7979C6.30508 14.52 6.27627 14.269 6.257 14.0879C6.24736 13.9973 6.23942 13.9235 6.23454 13.8721C6.23295 13.8553 6.23172 13.841 6.23063 13.8291C6.19084 13.6351 6.17032 13.3877 6.16032 13.208C6.14832 12.9923 6.14422 12.7574 6.14958 12.6016V12.6025C6.14406 10.8974 6.5936 9.22791 7.44254 7.76172C6.83595 7.54727 6.19707 7.43106 5.54997 7.4248V7.42578H5.02458C4.72499 7.42578 4.45455 7.24684 4.3361 6.97168C4.21774 6.69663 4.27397 6.37772 4.47965 6.16016C5.10952 5.49485 5.86879 4.9642 6.71012 4.60156C7.55004 4.23957 8.45472 4.05246 9.3693 4.05078H9.37321C9.91517 4.0472 10.4555 4.10487 10.9836 4.22363C12.4359 3.40999 14.0772 2.98899 15.7453 3.00098V3C15.7469 2.99999 15.7485 3.00099 15.7502 3.00098C15.752 3.00099 15.7541 2.99998 15.756 3L15.755 3.00098ZM15.4631 4.50293C14.061 4.53985 12.6907 4.94004 11.4875 5.66699C11.3117 5.77318 11.0996 5.80311 10.9015 5.74902C10.4058 5.61369 9.89392 5.54613 9.38004 5.5498L9.37516 5.55078C8.66274 5.55167 7.95813 5.6975 7.30387 5.97949C7.21898 6.01608 7.13456 6.05381 7.05192 6.09473C7.6916 6.23357 8.31248 6.45556 8.89665 6.76074C9.08902 6.86125 9.22904 7.03987 9.27946 7.25098C9.32987 7.4621 9.28556 7.68474 9.15934 7.86133C8.17202 9.24274 7.64409 10.8997 7.64958 12.5977C7.64962 12.6113 7.6493 12.6251 7.6486 12.6387C7.64476 12.7127 7.64637 12.9084 7.65836 13.124C7.66414 13.2278 7.67195 13.3259 7.68083 13.4062L7.69645 13.5234L7.72184 13.6611V13.665C7.72209 13.6678 7.72231 13.6721 7.72282 13.6777C7.72388 13.6895 7.72647 13.7073 7.72868 13.7305C7.7331 13.777 7.73922 13.8452 7.74821 13.9297C7.76623 14.0991 7.79327 14.3333 7.82926 14.5908C7.90258 15.1153 8.0045 15.6643 8.12028 15.9912L8.39665 16.1494L8.44352 16.1777C8.64779 16.3152 8.86452 16.4327 9.09098 16.5283L9.32145 16.6172L9.34977 16.6279C10.4534 17.0625 11.6399 17.2468 12.8234 17.168C14.0071 17.0891 15.1591 16.7491 16.1955 16.1719C17.2318 15.5947 18.1274 14.7948 18.8175 13.8301C19.5077 12.8653 19.9751 11.759 20.1867 10.5918L20.1945 10.5527C20.3061 10.082 20.3502 9.59738 20.3254 9.11426C20.3247 9.1014 20.3244 9.08807 20.3244 9.0752C20.3245 7.78491 20.0294 6.51302 19.464 5.35547C18.312 4.78552 17.0415 4.49199 15.7541 4.5H15.7433L15.4631 4.50293Z" fill="currentColor"/>
<path d="M7.32205 15.7571C7.55459 15.7251 7.78884 15.8041 7.95486 15.97C8.12088 16.1361 8.19983 16.3703 8.16775 16.6028L7.86795 18.7777L7.64627 21.0003C7.61732 21.2884 7.42476 21.5337 7.15212 21.6312C6.87924 21.7286 6.57481 21.6602 6.3699 21.4554L2.46951 17.556C2.26459 17.3511 2.1963 17.0457 2.29373 16.7728C2.39126 16.5001 2.63736 16.3074 2.92556 16.2786L5.14919 16.0569L7.32205 15.7571ZM5.35232 17.5433C5.34306 17.5446 5.3333 17.5453 5.324 17.5462L4.64822 17.6136L6.31033 19.2747L6.37869 18.6009L6.38162 18.5726L6.54568 17.3782L5.35232 17.5433Z" fill="currentColor"/>
<path d="M10.7998 5.32532C10.7998 4.91111 11.1356 4.57532 11.5498 4.57532C11.964 4.57533 12.2998 4.91112 12.2998 5.32532C12.2997 7.2828 13.0724 9.16136 14.4502 10.5519C15.7419 11.8555 17.4675 12.6318 19.291 12.7384L19.6562 12.7501L19.7334 12.755C20.1111 12.7969 20.4029 13.1188 20.3994 13.507C20.3959 13.8952 20.0982 14.2122 19.7197 14.2472L19.6426 14.2501L19.2031 14.2355C17.0113 14.1072 14.9374 13.1745 13.3848 11.6075C11.7287 9.93612 10.7997 7.67825 10.7998 5.32532Z" fill="currentColor"/>
<path d="M16.2 7.80028C16.6556 7.80028 17.025 7.43091 17.025 6.97527C17.025 6.51964 16.6556 6.15027 16.2 6.15027C15.7444 6.15027 15.375 6.51964 15.375 6.97527C15.375 7.43091 15.7444 7.80028 16.2 7.80028Z" fill="currentColor"/>
</svg>
