<svg viewBox="0 0 24 24" fill="none" xmlns="http://www.w3.org/2000/svg">
<path opacity="0.3" d="M7.125 8.84961C7.53419 9.45859 8.07199 9.97059 8.7002 10.3496L9.0752 10.5752C9.94795 11.0581 10.9274 11.316 11.9248 11.3252H12C13.0632 11.3034 14.1004 10.9919 15 10.4248C15.6763 10.0228 16.2629 9.48661 16.7246 8.84961H20.0996L18.5996 22.2002H5.25L3.75 8.84961H7.125ZM11.9248 13.7998C10.3509 13.7999 9.0752 15.0764 9.0752 16.6504C9.07538 18.2242 10.351 19.4999 11.9248 19.5C13.4987 19.5 14.7752 18.2242 14.7754 16.6504C14.7754 15.0764 13.4988 13.7998 11.9248 13.7998Z" fill="currentColor"/>
<path d="M7.12483 8.09998C7.37463 8.09998 7.60759 8.22467 7.7469 8.43201C8.09465 8.94954 8.55207 9.38407 9.08577 9.70642L9.43831 9.91833L9.72835 10.0677C10.416 10.3942 11.1677 10.5675 11.9315 10.5746H11.9998C12.9213 10.553 13.8196 10.282 14.5994 9.79041L14.617 9.78064C15.2054 9.43084 15.7163 8.96378 16.118 8.40955L16.1746 8.34021C16.3155 8.1881 16.5144 8.10009 16.7244 8.09998H20.0994C20.3129 8.09998 20.5167 8.19086 20.659 8.34998C20.8013 8.50914 20.8694 8.7218 20.8455 8.93396L19.3455 22.2836C19.3029 22.663 18.9813 22.9496 18.5994 22.9496H5.24983C4.86803 22.9496 4.54735 22.663 4.50472 22.2836L3.00472 8.93396C2.98089 8.72186 3.04805 8.50913 3.19026 8.34998C3.33255 8.19081 3.53634 8.09998 3.74983 8.09998H7.12483ZM5.91976 21.4496H17.9295L19.2606 9.59998H17.0916C16.6162 10.1792 16.0438 10.6722 15.3992 11.058L15.4002 11.059C14.3854 11.6987 13.2149 12.05 12.0155 12.0746H11.9178C10.7956 12.0642 9.6937 11.7742 8.71175 11.2308C8.70422 11.2267 8.69667 11.2226 8.68929 11.2181L8.31429 10.9935L8.31233 10.9926C7.70791 10.6279 7.17792 10.1546 6.74495 9.59998H4.5887L5.91976 21.4496Z" fill="currentColor"/>
<path d="M14.0249 16.6497C14.0247 15.49 13.084 14.55 11.9243 14.55C10.7648 14.5503 9.82492 15.4902 9.82471 16.6497C9.82471 17.8093 10.7647 18.75 11.9243 18.7502C13.0841 18.7502 14.0249 17.8095 14.0249 16.6497ZM15.5249 16.6497C15.5249 18.6379 13.9125 20.2502 11.9243 20.2502C9.93626 20.25 8.32471 18.6378 8.32471 16.6497C8.32492 14.6617 9.93639 13.0503 11.9243 13.05C13.9124 13.05 15.5247 14.6616 15.5249 16.6497Z" fill="currentColor"/>
<path d="M5.32471 8.84985V2.92505L5.32861 2.8479C5.36723 2.46993 5.68654 2.17505 6.07471 2.17505H9.07471C9.48892 2.17505 9.82471 2.51084 9.82471 2.92505V10.3499C9.82471 10.7641 9.48892 11.0999 9.07471 11.0999C8.66049 11.0999 8.32471 10.7641 8.32471 10.3499V3.67505H6.82471V8.84985C6.82471 9.26407 6.48892 9.59985 6.07471 9.59985C5.66049 9.59985 5.32471 9.26407 5.32471 8.84985Z" fill="currentColor"/>
<path d="M8.32471 10.5752V1.5L8.32861 1.42285C8.36723 1.04488 8.68654 0.75 9.07471 0.75H11.9995C12.4137 0.75 12.7495 1.08579 12.7495 1.5V11.3252C12.7494 11.7393 12.4137 12.0752 11.9995 12.0752C11.5855 12.0751 11.2496 11.7393 11.2495 11.3252V2.25H9.82471V10.5752C9.8246 10.9893 9.48885 11.3252 9.07471 11.3252C8.66056 11.3252 8.32482 10.9893 8.32471 10.5752Z" fill="currentColor"/>
<path d="M14.2495 10.4246V5.69995H12.7495V11.325C12.7495 11.7392 12.4137 12.075 11.9995 12.075C11.5853 12.075 11.2495 11.7392 11.2495 11.325V4.94995L11.2534 4.8728C11.292 4.49483 11.6113 4.19995 11.9995 4.19995H14.9995C15.4137 4.19995 15.7495 4.53574 15.7495 4.94995V10.4246C15.7495 10.8388 15.4137 11.1746 14.9995 11.1746C14.5853 11.1746 14.2495 10.8388 14.2495 10.4246Z" fill="currentColor"/>
<path d="M17.2495 8.85022V3.15002H15.7495V10.4254C15.7493 10.8394 15.4136 11.1754 14.9995 11.1754C14.5854 11.1754 14.2497 10.8394 14.2495 10.4254V2.40002L14.2534 2.32288C14.292 1.94491 14.6113 1.65002 14.9995 1.65002H17.9995C18.4137 1.65002 18.7495 1.98581 18.7495 2.40002V8.85022C18.7494 9.26435 18.4137 9.60022 17.9995 9.60022C17.5854 9.60022 17.2496 9.26435 17.2495 8.85022Z" fill="currentColor"/>
</svg>
