<svg viewBox="0 0 24 24" fill="none" xmlns="http://www.w3.org/2000/svg">
<path opacity="0.3" d="M20.85 1.5H3.75V22.41H20.85V1.5Z" fill="currentColor"/>
<path d="M20.8496 0.75C21.2638 0.75 21.5996 1.08579 21.5996 1.5V22.4102C21.5995 22.8243 21.2638 23.1602 20.8496 23.1602H3.75C3.33584 23.1602 3.00008 22.8243 3 22.4102V1.5L3.00391 1.42285C3.04253 1.04488 3.36183 0.75 3.75 0.75H20.8496ZM4.5 21.6602H20.0996V2.25H4.5V21.6602Z" fill="currentColor"/>
<path d="M20.8496 9.2251L20.9268 9.229C21.3049 9.26744 21.5996 9.58679 21.5996 9.9751C21.5996 10.3634 21.3049 10.6828 20.9268 10.7212L20.8496 10.7251H3.75C3.33579 10.7251 3 10.3893 3 9.9751C3 9.56088 3.33579 9.2251 3.75 9.2251H20.8496Z" fill="currentColor"/>
<path d="M6 7.19971V4.7251C6 4.31088 6.33579 3.9751 6.75 3.9751C7.16421 3.9751 7.5 4.31088 7.5 4.7251V7.19971C7.5 7.61392 7.16421 7.94971 6.75 7.94971C6.33579 7.94971 6 7.61392 6 7.19971Z" fill="currentColor"/>
<path d="M6 16.6504V12.375C6 11.9608 6.33579 11.625 6.75 11.625C7.16421 11.625 7.5 11.9608 7.5 12.375V16.6504C7.49979 17.0644 7.16409 17.4004 6.75 17.4004C6.33591 17.4004 6.00021 17.0644 6 16.6504Z" fill="currentColor"/>
</svg>
