<svg viewBox="0 0 24 24" fill="none" xmlns="http://www.w3.org/2000/svg">
<path opacity="0.3" d="M21.3 10.7251V22.2001H2.25V10.7251H3.375C4.42761 10.7196 5.44377 10.339 6.24104 9.65169C7.0383 8.96439 7.56444 8.0154 7.72499 6.9751H15.825C15.9996 8.00907 16.5298 8.94959 17.324 9.63427C18.1182 10.3189 19.1266 10.7048 20.175 10.7251H21.3Z" fill="currentColor"/>
<path d="M15.8252 6.2251L15.959 6.23682C16.265 6.29217 16.5111 6.53422 16.5645 6.8501C16.7099 7.71161 17.1518 8.49537 17.8135 9.06592C18.4753 9.63647 19.3158 9.95815 20.1895 9.9751H21.2998C21.714 9.9751 22.0498 10.3109 22.0498 10.7251V22.1997C22.0498 22.6139 21.714 22.9497 21.2998 22.9497H2.25C1.83579 22.9497 1.5 22.6139 1.5 22.1997V10.7251C1.5 10.3109 1.83579 9.9751 2.25 9.9751H3.37109C4.24522 9.9705 5.08887 9.65422 5.75098 9.0835C6.41306 8.51273 6.85002 7.72475 6.9834 6.86084L7.0166 6.72803C7.11976 6.43165 7.4011 6.22526 7.72461 6.2251H15.8252ZM8.32617 7.7251C8.04984 8.68978 7.4976 9.55889 6.73047 10.2202C5.79814 11.0238 4.60975 11.4686 3.37891 11.4751H3V21.4497H20.5498V11.4751H20.1602C18.9371 11.4513 17.7605 11.0014 16.834 10.2026C16.0704 9.54434 15.5168 8.68281 15.2314 7.7251H8.32617Z" fill="currentColor"/>
<path d="M15.0747 5.5498C15.0747 4.67479 14.7275 3.83559 14.1089 3.2168C13.49 2.59793 12.6501 2.25 11.7749 2.25C10.8998 2.25005 10.0607 2.59797 9.44189 3.2168C8.82306 3.83563 8.47515 4.67467 8.4751 5.5498V6.22461H15.0747V5.5498ZM16.5747 6.97461C16.5747 7.38882 16.2389 7.72461 15.8247 7.72461H7.7251C7.31088 7.72461 6.9751 7.38882 6.9751 6.97461V5.5498C6.97515 4.27683 7.48122 3.05638 8.38135 2.15625C9.28147 1.25612 10.5019 0.750051 11.7749 0.75C13.0479 0.75 14.2693 1.25608 15.1694 2.15625C16.0694 3.05636 16.5747 4.27697 16.5747 5.5498V6.97461Z" fill="currentColor"/>
<path d="M9.5249 15.15C9.5249 15.7468 9.76213 16.3189 10.1841 16.7408C10.606 17.1628 11.1782 17.4 11.7749 17.4C12.3716 17.4 12.9438 17.1628 13.3657 16.7408C13.7877 16.3189 14.0249 15.7468 14.0249 15.15V14.8502H9.5249V15.15ZM8.0249 14.1002C8.0249 13.686 8.36069 13.3502 8.7749 13.3502H14.7749C15.1891 13.3502 15.5249 13.686 15.5249 14.1002V15.15C15.5249 16.1446 15.1295 17.0981 14.4263 17.8014C13.723 18.5047 12.7695 18.9 11.7749 18.9C10.7803 18.9 9.8268 18.5047 9.12354 17.8014C8.42027 17.0981 8.0249 16.1446 8.0249 15.15V14.1002Z" fill="currentColor"/>
</svg>
