<svg viewBox="0 0 24 24" fill="none" xmlns="http://www.w3.org/2000/svg">
<path d="M17.25 1.7998C17.25 3.17221 16.7048 4.4885 15.7344 5.45898C14.7639 6.42944 13.4476 6.97456 12.0752 6.97461C11.661 6.97461 11.3252 6.63882 11.3252 6.22461V5.9248C11.3252 4.55237 11.8704 3.23609 12.8408 2.26562C13.8113 1.29516 15.1276 0.75 16.5 0.75L16.5771 0.753906C16.9551 0.792528 17.25 1.11183 17.25 1.5V1.7998ZM15.7109 2.33594C15.0309 2.48545 14.4014 2.82615 13.9014 3.32617C13.3401 3.88742 12.9799 4.61181 12.8652 5.3877C13.5448 5.238 14.1741 4.89817 14.6738 4.39844C15.2353 3.83686 15.5965 3.11229 15.7109 2.33594Z" fill="currentColor"/>
<path d="M22.3496 18.975C22.5484 18.975 22.7392 19.0542 22.8799 19.1947C23.0205 19.3354 23.0996 19.5261 23.0996 19.725C23.0996 20.6598 22.7284 21.5561 22.0674 22.2172C21.4064 22.8782 20.51 23.2503 19.5752 23.2504H5.02539C4.09052 23.2504 3.1933 22.8782 2.53223 22.2172C1.87133 21.5561 1.5 20.6597 1.5 19.725C1.5 19.5261 1.57907 19.3354 1.71973 19.1947C1.86038 19.054 2.05109 18.975 2.25 18.975H22.3496ZM3.14551 20.475C3.24635 20.7277 3.3967 20.9605 3.59277 21.1566C3.97253 21.5364 4.48831 21.7504 5.02539 21.7504H19.5752C20.1122 21.7503 20.6271 21.5363 21.0068 21.1566C21.2031 20.9604 21.3542 20.7278 21.4551 20.475H3.14551Z" fill="currentColor"/>
<path opacity="0.3" fill-rule="evenodd" clip-rule="evenodd" d="M12.2998 8.92486C12.934 8.93885 13.542 9.18206 14.0107 9.60943C14.4795 10.0368 14.7773 10.6198 14.8496 11.2501H15.5967L14.8467 10.4151C15.0273 10.048 15.2993 9.73245 15.6377 9.49908C16.0243 9.23245 16.4807 9.08505 16.9502 9.07525C17.5365 9.09108 18.0971 9.32105 18.5254 9.72173C18.9536 10.1224 19.2206 10.6662 19.2754 11.2501H19.5V12.5235L20.1748 16.3497L19.5 15.5977V15.7501H10.29L9.15039 16.8751L9.25488 15.7501H5.25V15.4307L4.4248 16.3497L5.25 11.6758V11.2501H5.3252C5.37998 10.666 5.64682 10.1225 6.0752 9.72173C6.50346 9.32116 7.06323 9.09111 7.64941 9.07525C8.12368 9.06398 8.58989 9.20247 8.98047 9.47173C9.32224 9.70744 9.59102 10.0329 9.75879 10.4102L9.00488 11.2501H9.6748C9.74875 10.6072 10.0576 10.0141 10.542 9.58502C11.0264 9.15594 11.6527 8.92068 12.2998 8.92486Z" fill="currentColor"/>
<path d="M5.16287 16.4805C5.09077 16.888 4.70233 17.1605 4.29471 17.0889C3.88685 17.0169 3.61442 16.6276 3.68631 16.2197L5.16287 16.4805ZM7.63162 8.3252L7.86795 8.3291C8.41773 8.35937 8.95025 8.5402 9.40604 8.85449C9.86182 9.16883 10.2204 9.60236 10.4441 10.1055L10.532 10.3252L10.5535 10.3984C10.6434 10.7679 10.4402 11.1529 10.074 11.2822C9.70787 11.4113 9.30832 11.2394 9.14627 10.8955L9.11698 10.8242L9.07401 10.7148C8.96218 10.4632 8.78234 10.247 8.55448 10.0898C8.29442 9.9105 7.98454 9.817 7.66873 9.82422C7.26602 9.83529 6.88094 9.99336 6.5867 10.2686C6.29218 10.5441 6.10874 10.9188 6.07108 11.3203C6.06919 11.3403 6.06674 11.3602 6.06326 11.3799L5.16287 16.4805L4.42459 16.3496L3.68631 16.2197L4.58573 11.1191C4.67004 10.3757 5.01498 9.68584 5.56229 9.17383C6.12453 8.64786 6.86005 8.34589 7.62967 8.3252H7.63162Z" fill="currentColor"/>
<path d="M16.9699 8.32495C17.7395 8.34569 18.4751 8.64765 19.0373 9.17358C19.5847 9.68572 19.9287 10.3763 20.0129 11.1199L20.9133 16.2195L20.923 16.2957C20.951 16.6748 20.6873 17.0211 20.3049 17.0886C19.9226 17.156 19.557 16.921 19.4533 16.5554L19.4357 16.4802L18.5363 11.3806C18.5328 11.3606 18.5294 11.3403 18.5275 11.3201C18.4899 10.9186 18.3064 10.5448 18.0119 10.2693C17.7211 9.9973 17.3421 9.84027 16.9445 9.82593C16.629 9.83648 16.3228 9.93658 16.0627 10.116C15.7969 10.2993 15.5909 10.5569 15.4699 10.8562C15.3146 11.2401 14.8773 11.4255 14.4933 11.2703C14.1094 11.115 13.9241 10.6777 14.0793 10.2937C14.3103 9.72239 14.7039 9.2315 15.2111 8.88159C15.7185 8.53167 16.3176 8.33784 16.9338 8.32495H16.9699Z" fill="currentColor"/>
<path d="M12.3168 8.17488L12.6205 8.19538C13.3245 8.27483 13.9887 8.57494 14.516 9.05574C15.0431 9.53647 15.4023 10.1699 15.5463 10.8634L15.5951 11.1641L15.5961 11.1798L16.1215 16.8048L16.1244 16.8819C16.1213 17.262 15.8313 17.586 15.4447 17.6221C15.058 17.6582 14.7124 17.3936 14.639 17.0206L14.6283 16.9444L14.1029 11.3272C14.0496 10.8803 13.8379 10.4675 13.5052 10.1641C13.1714 9.85978 12.739 9.68585 12.2875 9.67488C11.8278 9.67368 11.3836 9.84167 11.0394 10.1466C10.6934 10.4531 10.4731 10.8768 10.4203 11.336L10.4193 11.335L9.89684 16.9444L9.88513 17.0206C9.81174 17.3934 9.4669 17.658 9.08044 17.6221C8.66802 17.5836 8.36421 17.2172 8.4027 16.8048L8.92809 11.1798L8.93005 11.1641C9.02516 10.3375 9.42238 9.57522 10.0453 9.02351C10.6682 8.47188 11.473 8.16943 12.305 8.17488H12.3168Z" fill="currentColor"/>
</svg>
