<svg viewBox="0 0 24 24" fill="none" xmlns="http://www.w3.org/2000/svg">
<path opacity="0.3" d="M15 22.8H4.5L4.125 15H15.375L15 22.8Z" fill="currentColor"/>
<path opacity="0.3" d="M12.1499 7.27502C12.1497 6.19388 12.574 5.15587 13.3315 4.38441C14.0889 3.61294 15.1189 3.16968 16.1999 3.15002C17.2939 3.15002 18.3431 3.58462 19.1167 4.35821C19.8903 5.1318 20.3249 6.18101 20.3249 7.27502C20.3052 8.35599 19.862 9.38603 19.0905 10.1435C18.319 10.9009 17.281 11.3252 16.1999 11.325H15.7499" fill="currentColor"/>
<path d="M16.1997 2.40002L16.4419 2.40588C17.6467 2.46572 18.7899 2.97078 19.647 3.82776C20.5612 4.742 21.0747 5.9821 21.0747 7.27502V7.2887C21.0515 8.56617 20.5274 9.7832 19.6157 10.6783C18.761 11.5175 17.6298 12.0107 16.439 12.069L16.1997 12.0748H15.7495C15.3355 12.0746 14.9995 11.7389 14.9995 11.3248V8.02502H12.1499C11.7357 8.02502 11.4 7.68919 11.3999 7.27502C11.3997 5.99735 11.9013 4.77071 12.7964 3.85901C13.6915 2.94735 14.9086 2.42331 16.186 2.40002H16.1997ZM16.2075 3.90002C15.3253 3.91764 14.485 4.28006 13.8667 4.90979C13.4252 5.35948 13.1227 5.92006 12.9849 6.52502H15.7495C16.1637 6.52502 16.4995 6.86081 16.4995 7.27502V10.5612C17.2745 10.4923 18.0054 10.1574 18.5649 9.60803C19.1961 8.98831 19.5586 8.14575 19.5747 7.26135C19.5711 6.37118 19.2161 5.51802 18.5864 4.88831C17.9553 4.25723 17.0998 3.90204 16.2075 3.90002Z" fill="currentColor"/>
<path d="M15.7499 6.52502C15.955 6.52502 16.1513 6.60896 16.2929 6.75745C16.4344 6.90599 16.5088 7.10622 16.4989 7.31116L15.7489 22.8365C15.7294 23.2361 15.3999 23.5504 14.9999 23.5504H4.4999C4.09987 23.5504 3.77035 23.2361 3.75087 22.8365L3.00087 7.31116C2.99099 7.10622 3.06539 6.90599 3.20693 6.75745C3.34847 6.60896 3.54475 6.52502 3.7499 6.52502H15.7499ZM5.21474 22.0504H14.2851L14.9628 8.02502H4.53701L5.21474 22.0504Z" fill="currentColor"/>
<path d="M7.7998 0.75L7.93555 0.762695C8.24415 0.819232 8.49121 1.0652 8.54102 1.38477L11.2412 18.71L11.249 18.7861C11.2692 19.1656 10.9988 19.5066 10.6152 19.5664C10.2316 19.626 9.87054 19.3833 9.77441 19.0156L9.75879 18.9404L7.15723 2.25H3.75C3.33579 2.25 3 1.91421 3 1.5C3 1.08579 3.33579 0.75 3.75 0.75H7.7998Z" fill="currentColor"/>
<path d="M15.375 14.25C15.7892 14.25 16.125 14.5858 16.125 15C16.125 15.4142 15.7892 15.75 15.375 15.75H4.125C3.71079 15.75 3.375 15.4142 3.375 15C3.375 14.5858 3.71079 14.25 4.125 14.25H15.375Z" fill="currentColor"/>
</svg>
