<svg viewBox="0 0 24 24" fill="none" xmlns="http://www.w3.org/2000/svg">
<path opacity="0.3" d="M21.5423 5.70966C21.196 6.56852 21.1432 7.51774 21.3923 8.40967C21.9923 11.4847 20.7922 15.2347 17.9422 18.0847C15.0922 20.9347 11.4173 22.1347 8.41726 21.5347C7.42599 21.3479 6.40854 21.3479 5.41726 21.5347C4.96398 21.5993 4.50215 21.5085 4.10714 21.2769C3.71213 21.0454 3.40724 20.6868 3.24225 20.2597C3.10701 19.9002 3.08094 19.5089 3.16726 19.1347C3.29157 18.0363 3.26631 16.9262 3.09224 15.8347C2.64224 12.9097 3.84225 9.38468 6.61724 6.68468C9.39224 3.98468 13.2172 2.63468 16.2172 3.30968C17.1156 3.48622 18.044 3.43464 18.9173 3.15967C19.1442 3.0292 19.4076 2.97651 19.6673 3.00966C20.2043 3.00966 20.7194 3.22302 21.0991 3.60278C21.4789 3.98254 21.6922 4.4976 21.6922 5.03467C21.6785 5.26623 21.6279 5.4941 21.5423 5.70966Z" fill="currentColor"/>
<path d="M18.6396 2.45999C18.977 2.29021 19.3559 2.22149 19.7324 2.2637C20.4448 2.28044 21.1249 2.56729 21.6299 3.0723C22.1501 3.5926 22.4422 4.29849 22.4424 5.03421C22.4424 5.04897 22.4423 5.0644 22.4414 5.07913C22.423 5.3903 22.3544 5.69653 22.2392 5.98636L22.2383 5.99026C21.9893 6.6077 21.9248 7.28184 22.0498 7.93167L22.1142 8.20804L22.1279 8.26566C22.7835 11.6253 21.4683 15.6196 18.4726 18.6153C15.4828 21.6051 11.5639 22.9291 8.27049 22.2705V22.2696C7.37352 22.1016 6.45247 22.1025 5.55564 22.2715C5.54491 22.2735 5.53423 22.2758 5.52342 22.2774C4.90226 22.366 4.26884 22.2412 3.72752 21.9239C3.18649 21.6066 2.76905 21.1153 2.54295 20.5303L2.54002 20.5235C2.36068 20.0466 2.32171 19.5295 2.42381 19.0313C2.53804 18.0067 2.51389 16.9713 2.35154 15.9532L2.35057 15.9483C1.85838 12.7477 3.17332 8.9892 6.09373 6.14749C8.99023 3.32928 13.0525 1.83893 16.3623 2.57425L16.6533 2.6221C17.3184 2.71008 17.9956 2.65461 18.6396 2.45999ZM19.5722 3.75394C19.4749 3.74152 19.3761 3.76071 19.291 3.8096C19.244 3.83661 19.1943 3.85875 19.1426 3.87503C18.1496 4.18767 17.0937 4.24666 16.0722 4.04593C16.0657 4.04463 16.0593 4.04252 16.0527 4.04105C13.366 3.43654 9.78844 4.64642 7.1406 7.22269C4.51275 9.77953 3.42706 13.0683 3.83299 15.7168L3.89451 16.1524C4.02155 17.1697 4.02749 18.199 3.91209 19.2188C3.90888 19.2471 3.90483 19.276 3.89842 19.3037C3.84542 19.5338 3.86126 19.7742 3.94432 19.9951C4.0487 20.2615 4.23943 20.4852 4.48631 20.6299C4.70391 20.7575 4.95383 20.8171 5.20408 20.8028L5.3115 20.792C6.24855 20.6191 7.20646 20.5982 8.14842 20.7305L8.55564 20.7979L8.56443 20.7989L8.82029 20.8457C11.4846 21.2721 14.7868 20.1799 17.4121 17.5547C20.1122 14.8546 21.1967 11.3546 20.6582 8.56644C20.3788 7.52844 20.4445 6.42746 20.8467 5.42972C20.8993 5.29641 20.9297 5.15571 20.9404 5.01273C20.9347 4.68251 20.8022 4.36674 20.5683 4.13284C20.3293 3.89396 20.0049 3.7598 19.667 3.7598C19.6353 3.75978 19.6036 3.75794 19.5722 3.75394Z" fill="currentColor"/>
<path d="M10.2174 18.7597C10.7144 18.7597 11.1174 18.3567 11.1174 17.8597C11.1174 17.3626 10.7144 16.9597 10.2174 16.9597C9.72034 16.9597 9.31738 17.3626 9.31738 17.8597C9.31738 18.3567 9.72034 18.7597 10.2174 18.7597Z" fill="currentColor"/>
<path d="M14.1924 17.8597C14.6895 17.8597 15.0925 17.4568 15.0925 16.9597C15.0925 16.4626 14.6895 16.0597 14.1924 16.0597C13.6954 16.0597 13.2925 16.4626 13.2925 16.9597C13.2925 17.4568 13.6954 17.8597 14.1924 17.8597Z" fill="currentColor"/>
<path d="M16.5172 14.9347C17.0143 14.9347 17.4172 14.5317 17.4172 14.0347C17.4172 13.5376 17.0143 13.1346 16.5172 13.1346C16.0201 13.1346 15.6172 13.5376 15.6172 14.0347C15.6172 14.5317 16.0201 14.9347 16.5172 14.9347Z" fill="currentColor"/>
</svg>
