<svg viewBox="0 0 24 24" fill="none" xmlns="http://www.w3.org/2000/svg">
<path opacity="0.3" fill-rule="evenodd" clip-rule="evenodd" d="M16.6093 4.19729C17.4678 3.74754 18.4654 3.6311 19.4082 3.87502C20.4135 4.13528 21.2747 4.78389 21.8017 5.67873C22.3288 6.57377 22.4788 7.64189 22.2187 8.64748C21.9585 9.65315 21.3091 10.5149 20.414 11.042C19.7996 11.398 19.0995 11.579 18.3896 11.5664H5.48921C4.56886 11.5988 3.66756 11.2984 2.95112 10.7197C2.23477 10.1412 1.75083 9.32347 1.58882 8.41701C1.47939 7.91935 1.47126 7.40449 1.56343 6.90334C1.65564 6.40225 1.84659 5.92417 2.12593 5.49807C2.40539 5.07189 2.76747 4.70531 3.19038 4.42092C3.61322 4.13659 4.08881 3.93988 4.58882 3.84182C5.61232 3.64195 6.67405 3.85253 7.5439 4.42775C7.57906 4.45101 7.61311 4.47573 7.64741 4.50002H15.789L16.6093 4.19729Z" fill="currentColor"/>
<path d="M16.0587 3.64551C17.1252 3.01747 18.3976 2.83844 19.5958 3.14844C20.794 3.45847 21.8203 4.23232 22.4483 5.29883C23.0763 6.3653 23.2544 7.63779 22.9444 8.83594C22.6344 10.034 21.8614 11.0605 20.795 11.6885L20.7901 11.6904C20.0614 12.1127 19.2318 12.328 18.3897 12.3154V12.3164H5.51573L5.30967 12.3193C4.28107 12.3092 3.28392 11.9516 2.48057 11.3027C1.62367 10.6106 1.04441 9.63313 0.850686 8.54883L0.851663 8.54785C0.726877 7.96182 0.716858 7.35708 0.825296 6.76758C0.935597 6.16817 1.16494 5.59663 1.49912 5.08692C1.83341 4.57713 2.2667 4.13899 2.77256 3.79883C3.27838 3.45874 3.84727 3.22271 4.44541 3.10547L4.67393 3.06641C5.8187 2.90058 6.98779 3.16083 7.95713 3.80176C8.92642 4.44274 9.62338 5.41689 9.91905 6.53516L9.97276 6.76074L9.98545 6.83692C10.0263 7.21461 9.77517 7.56956 9.39561 7.65039C9.01565 7.73114 8.64156 7.50863 8.52549 7.14649L8.50596 7.07227L8.46885 6.91895C8.26709 6.15557 7.79165 5.49029 7.12998 5.05274C6.4683 4.61524 5.6702 4.4385 4.88877 4.55176L4.7335 4.57813C4.33148 4.65695 3.94944 4.81535 3.60948 5.04395C3.26951 5.27255 2.97866 5.56662 2.75401 5.90918C2.52933 6.25181 2.37504 6.63608 2.30088 7.03906C2.23601 7.39174 2.23369 7.7526 2.29307 8.10547L2.32139 8.25586L2.32725 8.28516C2.45748 9.01391 2.84705 9.67157 3.42295 10.1367C3.99885 10.6017 4.72327 10.8434 5.46299 10.8174C5.47178 10.8171 5.48057 10.8164 5.48936 10.8164H18.4024L18.6173 10.8135C19.1166 10.7883 19.6038 10.6443 20.0382 10.3926C20.7595 9.96617 21.2823 9.27132 21.4923 8.45996C21.7027 7.64686 21.5816 6.78327 21.1554 6.05957C20.7292 5.33602 20.0328 4.81094 19.2198 4.60059C18.4068 4.39032 17.543 4.51235 16.8194 4.93848L16.4396 4.29199L16.0587 3.64551ZM16.8194 4.93848C16.4626 5.14821 16.0031 5.02861 15.7931 4.67188C15.5832 4.31502 15.7019 3.85565 16.0587 3.64551L16.8194 4.93848Z" fill="currentColor"/>
<path d="M12.1343 3.0143C12.7475 3.04511 13.3485 3.19859 13.9009 3.46645C14.4533 3.73426 14.9462 4.11062 15.3502 4.57289C15.7541 5.03526 16.0612 5.57448 16.2525 6.15786C16.3815 6.55145 16.1666 6.97508 15.773 7.10414C15.3795 7.23317 14.9559 7.01909 14.8267 6.62563C14.6981 6.23348 14.4918 5.87095 14.2203 5.5602C13.9488 5.24952 13.6179 4.99608 13.2466 4.81606C12.8753 4.63604 12.4713 4.53306 12.0591 4.51235C11.647 4.49164 11.2347 4.55403 10.8472 4.69594C10.4583 4.83832 10.0278 4.63854 9.88531 4.24965C9.74286 3.8607 9.94265 3.43018 10.3316 3.28774C10.9081 3.0766 11.5211 2.98349 12.1343 3.0143Z" fill="currentColor"/>
<path d="M1.43945 19.0668V10.0668C1.43945 9.65256 1.77524 9.31677 2.18945 9.31677C2.60367 9.31677 2.93945 9.65256 2.93945 10.0668V19.0668C2.93945 19.2657 3.01852 19.4564 3.15918 19.597C3.29984 19.7377 3.49055 19.8168 3.68945 19.8168H20.1143C20.3131 19.8168 20.5039 19.7376 20.6445 19.597C20.7852 19.4564 20.8643 19.2657 20.8643 19.0668V10.0668C20.8643 9.65263 21.2001 9.31689 21.6143 9.31677C22.0285 9.31677 22.3643 9.65256 22.3643 10.0668V19.0668C22.3643 19.6635 22.127 20.2357 21.7051 20.6576C21.2831 21.0795 20.711 21.3168 20.1143 21.3168H3.68945C3.09271 21.3168 2.52058 21.0795 2.09863 20.6576C1.6767 20.2357 1.43945 19.6635 1.43945 19.0668Z" fill="currentColor"/>
</svg>
