<svg viewBox="0 0 24 24" fill="none" xmlns="http://www.w3.org/2000/svg">
<path opacity="0.3" d="M7.72499 21.675C10.7487 21.675 13.2 19.2237 13.2 16.2C13.2 13.1762 10.7487 10.725 7.72499 10.725C4.70123 10.725 2.25 13.1762 2.25 16.2C2.25 19.2237 4.70123 21.675 7.72499 21.675Z" fill="currentColor"/>
<path opacity="0.3" d="M15 11.1C15.6226 10.8603 16.2829 10.7333 16.95 10.725C18.402 10.725 19.7946 11.3018 20.8214 12.3286C21.8481 13.3553 22.425 14.7479 22.425 16.2C22.425 17.652 21.8481 19.0446 20.8214 20.0714C19.7946 21.0981 18.402 21.675 16.95 21.675C16.3149 21.654 15.6849 21.5532 15.075 21.375" fill="currentColor"/>
<path d="M12.4502 16.1996C12.45 13.5902 10.334 11.475 7.72461 11.475C5.11537 11.4752 3.00021 13.5903 3 16.1996C3 18.809 5.11524 20.925 7.72461 20.9252C10.3342 20.9252 12.4502 18.8091 12.4502 16.1996ZM13.9502 16.1996C13.9502 19.6376 11.1626 22.4252 7.72461 22.4252C4.28681 22.425 1.5 19.6374 1.5 16.1996C1.50021 12.7619 4.28694 9.97518 7.72461 9.97498C11.1625 9.97498 13.95 12.7618 13.9502 16.1996Z" fill="currentColor"/>
<path d="M21.6748 16.1996C21.6747 14.9466 21.177 13.7448 20.291 12.8588C19.4061 11.9739 18.2063 11.4763 16.955 11.475C16.3784 11.4827 15.8077 11.593 15.2695 11.8002C14.8829 11.949 14.4486 11.7561 14.2998 11.3695C14.151 10.9829 14.3439 10.5486 14.7304 10.3998C15.436 10.1282 16.1844 9.98448 16.9404 9.97498H16.9501L17.2587 9.98279C18.7972 10.0591 20.2571 10.7039 21.3515 11.7982C22.5188 12.9655 23.1747 14.5487 23.1748 16.1996C23.1748 17.8506 22.5189 19.4345 21.3515 20.6019C20.1842 21.7692 18.601 22.4251 16.9501 22.4252C16.9419 22.4252 16.933 22.4245 16.9248 22.4242C16.2269 22.4011 15.5344 22.291 14.8642 22.0951L15.0751 21.3754L15.2851 20.6547C15.8321 20.8145 16.3972 20.9047 16.9667 20.9242C18.2137 20.9198 19.4088 20.4234 20.291 19.5414C21.1771 18.6553 21.6748 17.4527 21.6748 16.1996ZM14.3554 21.1644C14.4717 20.7671 14.8877 20.5387 15.2851 20.6547L14.8642 22.0951C14.4668 21.9788 14.2393 21.5619 14.3554 21.1644Z" fill="currentColor"/>
<path d="M17.025 7.65039C17.025 6.41713 16.5347 5.23435 15.6627 4.3623C14.8452 3.54487 13.7552 3.06298 12.606 3.00586L12.3746 3C11.1327 2.99998 9.9404 3.48926 9.05622 4.36133C8.17218 5.23343 7.66701 6.41845 7.64997 7.66016L7.64509 7.7373C7.60132 8.11474 7.27738 8.40571 6.88923 8.40039C6.47527 8.39447 6.1443 8.05367 6.14997 7.63965L6.16169 7.33398C6.25755 5.81004 6.91129 4.37021 8.00349 3.29297C9.16835 2.14415 10.7385 1.50095 12.3746 1.50098C14.0057 1.50098 15.5699 2.14841 16.7232 3.30176C17.8766 4.45511 18.525 6.01931 18.525 7.65039C18.5248 8.06442 18.1891 8.40039 17.775 8.40039C17.3609 8.40039 17.0252 8.06442 17.025 7.65039Z" fill="currentColor"/>
<path d="M7.57471 14.9998C7.57459 14.6271 7.27262 14.325 6.8999 14.325C6.52729 14.325 6.22521 14.6271 6.2251 14.9998C6.2251 15.3725 6.52719 15.6745 6.8999 15.6746C7.27273 15.6746 7.57471 15.3725 7.57471 14.9998ZM9.07471 14.9998C9.07471 16.201 8.10109 17.1746 6.8999 17.1746C5.69876 17.1745 4.7251 16.2009 4.7251 14.9998C4.72521 13.7987 5.6988 12.825 6.8999 12.825C8.10105 12.825 9.07459 13.7986 9.07471 14.9998Z" fill="currentColor"/>
<path d="M18.7495 16.4248C18.7494 16.0521 18.4475 15.75 18.0747 15.75C17.702 15.7501 17.4 16.0522 17.3999 16.4248C17.3999 16.7975 17.702 17.0995 18.0747 17.0996C18.4475 17.0996 18.7495 16.7976 18.7495 16.4248ZM20.2495 16.4248C20.2495 17.626 19.2759 18.5996 18.0747 18.5996C16.8736 18.5995 15.8999 17.626 15.8999 16.4248C15.9 15.2237 16.8737 14.2501 18.0747 14.25C19.2758 14.25 20.2494 15.2236 20.2495 16.4248Z" fill="currentColor"/>
<path d="M13.0498 6.07471C13.0497 5.70199 12.7477 5.3999 12.375 5.3999C12.0024 5.40002 11.7003 5.70209 11.7002 6.07471C11.7002 6.44743 12.0023 6.7494 12.375 6.74951C12.7478 6.74951 13.0498 6.44753 13.0498 6.07471ZM14.5498 6.07471C14.5498 7.2759 13.5763 8.24951 12.375 8.24951C11.1739 8.2494 10.2002 7.27586 10.2002 6.07471C10.2003 4.87363 11.174 3.90002 12.375 3.8999C13.5762 3.8999 14.5497 4.87359 14.5498 6.07471Z" fill="currentColor"/>
</svg>
