<svg viewBox="0 0 24 24" fill="none" xmlns="http://www.w3.org/2000/svg">
<path opacity="0.3" d="M19.7759 12.675C19.7306 14.6937 18.9261 16.6211 17.5227 18.0728C16.1193 19.5245 14.2202 20.3939 12.2043 20.5074C10.1883 20.621 8.20363 19.9705 6.64607 18.6855C5.08851 17.4006 4.07254 15.5758 3.80084 13.575C3.62342 11.9989 3.91264 10.4054 4.6326 8.99213C5.35256 7.57888 6.47159 6.40808 7.85086 5.625C8.35658 5.34202 8.77669 4.928 9.06705 4.42648C9.3574 3.92496 9.50727 3.35448 9.50087 2.77501V1.5H14.0009V2.69998C14.0109 3.2863 14.167 3.8609 14.4552 4.37164C14.7433 4.88239 15.1543 5.31317 15.6509 5.625C16.9066 6.32324 17.9518 7.34579 18.6774 8.58591C19.403 9.82602 19.7824 11.2382 19.7759 12.675Z" fill="currentColor"/>
<path d="M14.0009 0.75C14.4151 0.750058 14.7509 1.08582 14.7509 1.5V2.6875L14.7587 2.85938C14.7906 3.26075 14.9099 3.65105 15.1083 4.00293C15.3336 4.40225 15.6545 4.73929 16.0419 4.98438C17.4032 5.74749 18.5369 6.85979 19.3251 8.20703C20.1185 9.56302 20.5324 11.1077 20.5253 12.6787V12.6914C20.4759 14.8987 19.596 17.0063 18.0615 18.5938C16.5269 20.1811 14.4504 21.1317 12.246 21.2559C10.0418 21.38 7.87192 20.6686 6.16889 19.2637C4.46583 17.8587 3.35464 15.8635 3.05756 13.6758C3.05681 13.6703 3.05623 13.6647 3.0556 13.6592C2.86175 11.9371 3.17719 10.1955 3.96381 8.65137C4.75042 7.1073 5.97345 5.82823 7.48041 4.97266L7.48432 4.9707L7.62689 4.88477C7.95173 4.6732 8.22289 4.38761 8.41791 4.05078C8.64075 3.66588 8.75583 3.22789 8.75092 2.7832V1.5L8.75482 1.42285C8.79345 1.04489 9.11275 0.75 9.50092 0.75H14.0009ZM10.2509 2.7666L10.2451 3.03418C10.2101 3.65562 10.0289 4.26194 9.71576 4.80273C9.35854 5.41956 8.84135 5.92771 8.21967 6.27637L8.22064 6.27734C6.96926 6.98791 5.95395 8.05075 5.30072 9.33301C4.65023 10.6101 4.387 12.0493 4.54389 13.4736L4.5976 13.8125C4.90694 15.493 5.7993 17.0154 7.12299 18.1074C8.53498 19.2722 10.3345 19.8617 12.1621 19.7588C13.9895 19.6558 15.7111 18.8677 16.9833 17.5518C18.2556 16.2357 18.9853 14.4882 19.0263 12.6582C19.0298 11.3604 18.6857 10.0851 18.0302 8.96484C17.3724 7.84063 16.4244 6.91326 15.2861 6.28027C15.2745 6.27386 15.2631 6.26678 15.2519 6.25977C14.6497 5.88161 14.1511 5.35958 13.8017 4.74023C13.4523 4.12083 13.2631 3.42392 13.2509 2.71289V2.25H10.2509V2.7666Z" fill="currentColor"/>
<path d="M11.001 15.8999V9.5249C11.001 9.11069 11.3368 8.7749 11.751 8.7749C12.1652 8.7749 12.501 9.11069 12.501 9.5249V15.8999C12.501 16.3141 12.1652 16.6499 11.751 16.6499C11.3368 16.6499 11.001 16.3141 11.001 15.8999Z" fill="currentColor"/>
<path d="M7.08056 9.24564C7.23491 8.86146 7.67095 8.67461 8.05517 8.82865C8.43941 8.98302 8.62634 9.41996 8.47216 9.80423C7.72241 11.6703 7.72241 13.7545 8.47216 15.6206C8.62634 16.0049 8.43941 16.4418 8.05517 16.5962C7.67095 16.7503 7.23491 16.5634 7.08056 16.1792C6.18669 13.9543 6.18669 11.4705 7.08056 9.24564Z" fill="currentColor"/>
<path d="M15.4466 8.82865C15.8068 8.68416 16.2134 8.83891 16.39 9.17533L16.4222 9.24564L16.5794 9.66556C17.3126 11.7798 17.2601 14.0935 16.4222 16.1792C16.2678 16.5635 15.8309 16.7504 15.4466 16.5962C15.0624 16.4419 14.8755 16.0049 15.0296 15.6206C15.7325 13.8711 15.7766 11.9302 15.1615 10.1568L15.0296 9.80423L15.0052 9.73197C14.8998 9.3667 15.0863 8.97343 15.4466 8.82865Z" fill="currentColor"/>
<path d="M11.0005 22.4246V20.7C11.0005 20.2857 11.3363 19.95 11.7505 19.95C12.1647 19.95 12.5005 20.2857 12.5005 20.7V22.4246C12.5005 22.8388 12.1647 23.1746 11.7505 23.1746C11.3363 23.1746 11.0005 22.8388 11.0005 22.4246Z" fill="currentColor"/>
<path d="M11.1441 20.2586C11.3726 19.9447 11.7991 19.8601 12.1275 20.0516L12.192 20.0936L13.8414 21.2938L13.9019 21.3416C14.185 21.5951 14.2357 22.0276 14.0074 22.3416C13.779 22.6555 13.3523 22.7398 13.024 22.5486L12.9595 22.5066L11.3091 21.3065L11.2496 21.2586C10.9662 21.0051 10.9157 20.5727 11.1441 20.2586Z" fill="currentColor"/>
<path d="M11.3592 20.0602C11.6834 19.8613 12.1121 19.9368 12.3475 20.2458C12.5982 20.5753 12.5343 21.0456 12.2049 21.2966L10.6297 22.4968C10.3003 22.7474 9.82987 22.6835 9.57894 22.3542C9.32811 22.0247 9.39212 21.5544 9.72152 21.3034L11.2957 20.1032L11.3592 20.0602Z" fill="currentColor"/>
</svg>
