<svg viewBox="0 0 24 24" fill="none" xmlns="http://www.w3.org/2000/svg">
<path opacity="0.3" d="M16.875 7.5L17.625 10.125L11.25 10.5V16.5L10.5 16.875L9 16.125L6.75 15L5.625 13.875L4.875 11.625L4.5 9.375L6 6.75L6.75 5.25L9.75 4.125H12L14.25 4.875L16.875 7.5Z" fill="currentColor"/>
<path opacity="0.3" d="M13.875 13.2H22.5C21.975 17.925 18.975 20.925 13.95 21.825L13.875 13.2Z" fill="currentColor"/>
<path d="M16.875 7.5L17.625 10.125L11.25 10.5V16.5L10.5 16.875L9 16.125L6.75 15L5.625 13.875L4.875 11.625L4.5 9.375L6 6.75L6.75 5.25L9.75 4.125H12L14.25 4.875L16.875 7.5Z" stroke="currentColor" stroke-width="0.75"/>
<path d="M13.875 19.5V13.5L19.875 13.125V13.875L19.125 16.125L16.5 18.375L13.875 19.5Z" stroke="currentColor" stroke-width="0.75"/>
<path d="M19.4246 10.425C19.4245 8.81119 18.9468 7.23367 18.0516 5.89087C17.1563 4.54809 15.884 3.49987 14.3943 2.87915C12.9046 2.25846 11.2643 2.09273 9.68047 2.40259C8.09668 2.71247 6.63989 3.48405 5.49394 4.62036C4.348 5.75675 3.56418 7.20715 3.24101 8.78833C2.91787 10.3696 3.06933 12.0112 3.67754 13.5061C4.28571 15.0009 5.32289 16.2823 6.658 17.1887C7.99331 18.0952 9.56758 18.5863 11.1814 18.5999C11.5956 18.6034 11.9281 18.9425 11.9246 19.3567C11.9209 19.7707 11.5828 20.1033 11.1687 20.0999C9.25883 20.0838 7.39648 19.5027 5.81621 18.4299C4.23589 17.3571 3.00771 15.8408 2.28789 14.0715C1.56811 12.3024 1.38894 10.3598 1.77129 8.48852C2.1537 6.61728 3.08121 4.90081 4.4373 3.55591C5.79356 2.21095 7.51787 1.2967 9.39238 0.929929C11.2668 0.563222 13.2084 0.759806 14.9715 1.49438C16.7343 2.22894 18.2402 3.46897 19.2996 5.05786C20.3592 6.64709 20.9245 8.51499 20.9246 10.425C20.9245 10.8392 20.5888 11.175 20.1746 11.175C19.7606 11.1748 19.4247 10.8391 19.4246 10.425Z" fill="currentColor"/>
<path d="M16.8 10.425C16.8 9.31244 16.4698 8.22499 15.8517 7.29996C15.2336 6.37497 14.3551 5.65343 13.3273 5.2277C12.2996 4.80208 11.1683 4.69135 10.0773 4.90836C8.98629 5.12544 7.98402 5.66083 7.19742 6.44742C6.41083 7.23402 5.87545 8.23629 5.65836 9.32731C5.44135 10.4183 5.55208 11.5496 5.9777 12.5773C6.40343 13.6051 7.12497 14.4836 8.04996 15.1017C8.91724 15.6812 9.92731 16.0076 10.967 16.0461L11.175 16.05L11.2521 16.0539C11.6301 16.0925 11.925 16.4118 11.925 16.8C11.925 17.1881 11.6301 17.5074 11.2521 17.5461L11.175 17.55L10.9113 17.5451C9.59452 17.4963 8.31544 17.0827 7.21696 16.3488C6.04525 15.5659 5.13123 14.4534 4.59196 13.1515C4.05279 11.8498 3.91188 10.4172 4.18668 9.03531C4.4616 7.6532 5.14043 6.38332 6.13688 5.38688C7.13333 4.39043 8.4032 3.7116 9.78532 3.43668C11.1672 3.16188 12.5998 3.3028 13.9015 3.84195C15.2034 4.38123 16.3159 5.29525 17.0988 6.46695C17.8816 7.63863 18.3 9.01582 18.3 10.425C18.3 10.8392 17.9642 11.175 17.55 11.175C17.1358 11.175 16.8 10.8392 16.8 10.425Z" fill="currentColor"/>
<path d="M10.4248 19.3496V1.5C10.4248 1.08579 10.7606 0.75 11.1748 0.75C11.589 0.75 11.9248 1.08579 11.9248 1.5V19.3496C11.9248 19.7638 11.589 20.0996 11.1748 20.0996C10.7606 20.0996 10.4248 19.7638 10.4248 19.3496Z" fill="currentColor"/>
<path d="M20.1748 9.67505L20.252 9.67896C20.63 9.71748 20.9248 10.0368 20.9248 10.425C20.9248 10.8133 20.63 11.1326 20.252 11.1711L20.1748 11.175H2.25C1.83579 11.175 1.5 10.8393 1.5 10.425C1.5 10.0108 1.83579 9.67505 2.25 9.67505H20.1748Z" fill="currentColor"/>
<path d="M22.5 12.45C22.7134 12.45 22.9163 12.541 23.0586 12.7C23.2009 12.8589 23.2687 13.0709 23.2451 13.283C22.9666 15.7898 22.0235 17.886 20.4444 19.4753C18.8692 21.0607 16.7108 22.0924 14.0821 22.5632C13.8648 22.6021 13.6417 22.543 13.4717 22.4021C13.3018 22.2611 13.2022 22.0526 13.2002 21.8318L13.125 13.2068C13.1233 13.0068 13.202 12.8137 13.3428 12.6716C13.4836 12.5298 13.6752 12.45 13.875 12.45H22.5ZM14.6914 20.9021C16.6692 20.4207 18.2327 19.5743 19.3809 18.4187C20.5211 17.2711 21.289 15.7817 21.6309 13.95H14.6319L14.6914 20.9021Z" fill="currentColor"/>
<path d="M16.4248 16.425C16.839 16.425 17.1748 16.0893 17.1748 15.675C17.1748 15.2608 16.839 14.925 16.4248 14.925C16.0106 14.925 15.6748 15.2608 15.6748 15.675C15.6748 16.0893 16.0106 16.425 16.4248 16.425Z" fill="currentColor"/>
<path d="M8.625 13.7251C9.03921 13.7251 9.375 13.3893 9.375 12.9751C9.375 12.5609 9.03921 12.2251 8.625 12.2251C8.21079 12.2251 7.875 12.5609 7.875 12.9751C7.875 13.3893 8.21079 13.7251 8.625 13.7251Z" fill="currentColor"/>
<path d="M8.625 8.69995C9.03921 8.69995 9.375 8.36416 9.375 7.94995C9.375 7.53574 9.03921 7.19995 8.625 7.19995C8.21079 7.19995 7.875 7.53574 7.875 7.94995C7.875 8.36416 8.21079 8.69995 8.625 8.69995Z" fill="currentColor"/>
<path d="M13.875 8.69995C14.2892 8.69995 14.625 8.36416 14.625 7.94995C14.625 7.53574 14.2892 7.19995 13.875 7.19995C13.4608 7.19995 13.125 7.53574 13.125 7.94995C13.125 8.36416 13.4608 8.69995 13.875 8.69995Z" fill="currentColor"/>
<path d="M23.2451 13.283C22.9665 15.7898 22.0234 17.886 20.4443 19.4753C18.8692 21.0606 16.7108 22.0924 14.082 22.5632L13.8184 21.0867C16.2143 20.6575 18.0686 19.7394 19.3809 18.4187C20.6892 17.1019 21.5084 15.335 21.7549 13.1169L23.2451 13.283Z" fill="currentColor"/>
<path d="M20.7637 13.7808C20.4379 15.6131 19.6321 17.125 18.3711 18.2271C17.1144 19.3253 15.4577 19.9717 13.501 20.1714L13.3486 18.6792C15.0668 18.5039 16.4103 17.9498 17.3848 17.0981C18.3549 16.2503 19.0118 15.0615 19.2861 13.519L20.7637 13.7808Z" fill="currentColor"/>
</svg>
