<svg viewBox="0 0 24 24" fill="none" xmlns="http://www.w3.org/2000/svg">
<path opacity="0.3" d="M18.75 15.375L19.125 16.5L15 17.625L10.5 18L6.75 17.25L4.5 16.125L7.45703 11.0967C7.87225 11.3689 8.35311 11.5268 8.85059 11.5498C9.50682 11.5497 10.1365 11.2892 10.6006 10.8252C11.0646 10.3611 11.3251 9.73146 11.3252 9.0752C11.3047 8.58896 11.1453 8.11842 10.8662 7.71973C10.6236 7.37315 10.2991 7.09345 9.92285 6.9043L12 3.375L18.75 15.375ZM13.4248 12.5254C12.6379 12.5255 12 13.1633 12 13.9502C12.0001 14.737 12.638 15.3749 13.4248 15.375C14.2117 15.375 14.8495 14.7371 14.8496 13.9502C14.8496 13.1632 14.2118 12.5254 13.4248 12.5254Z" fill="currentColor"/>
<path d="M12.0039 2.25001C12.2709 2.2514 12.5173 2.39452 12.6504 2.62599L21.5752 18.1514C21.6748 18.3248 21.7014 18.5308 21.6484 18.7236C21.5954 18.9165 21.4673 19.0806 21.2929 19.1787C15.2592 22.5727 9.24809 22.679 3.2158 19.4971L2.63182 19.1787C2.45718 19.0804 2.32916 18.916 2.27635 18.7227C2.22353 18.5291 2.25089 18.322 2.35154 18.1484L6.70115 10.6484L9.09861 6.45313L9.1035 6.44435L11.3535 2.62013L11.4092 2.5381C11.5509 2.35671 11.77 2.24884 12.0039 2.25001ZM10.4004 7.1963L10.4013 7.19728L8.00096 11.3975L7.99901 11.4014L4.03611 18.2315C9.354 20.9963 14.5717 20.9957 19.8896 18.2305L11.9922 4.49122L10.4004 7.1963Z" fill="currentColor"/>
<path d="M4.2749 15.8999C6.582 17.3356 9.24505 18.0966 11.9624 18.0966C14.6798 18.0966 17.3428 17.3356 19.6499 15.8999" stroke="currentColor" stroke-width="1.5" stroke-linejoin="round"/>
<path d="M14.0996 13.9497C14.0995 13.577 13.7975 13.2749 13.4248 13.2749C13.0522 13.275 12.7501 13.5771 12.75 13.9497C12.75 14.3224 13.0521 14.6244 13.4248 14.6245C13.7976 14.6245 14.0996 14.3225 14.0996 13.9497ZM15.5996 13.9497C15.5996 15.1509 14.626 16.1245 13.4248 16.1245C12.2237 16.1244 11.25 15.1509 11.25 13.9497C11.2501 12.7487 12.2237 11.775 13.4248 11.7749C14.626 11.7749 15.5995 12.7486 15.5996 13.9497Z" fill="currentColor"/>
<path d="M9.17839 6.33863C9.38538 6.09489 9.73167 6.00569 10.0368 6.1316C10.6188 6.37187 11.12 6.77394 11.4811 7.28981C11.8422 7.80573 12.0484 8.41452 12.0749 9.04371V9.07496C12.0749 9.93029 11.7353 10.7504 11.1305 11.3552C10.5636 11.9222 9.80743 12.2561 9.01042 12.2957L8.85026 12.2996H8.81511C8.21448 12.2717 7.63258 12.0901 7.1237 11.7752L6.90983 11.6326C6.59989 11.4079 6.50912 10.9855 6.6989 10.6531L9.09929 6.45289L9.17839 6.33863ZM8.39128 10.7136C8.5444 10.7601 8.70265 10.7894 8.86394 10.7986C9.31649 10.795 9.74972 10.615 10.07 10.2947C10.391 9.97372 10.5711 9.53931 10.5739 9.0857C10.5559 8.75005 10.4454 8.4258 10.2526 8.15016C10.1824 8.04993 10.1014 7.95804 10.0134 7.87477L8.39128 10.7136Z" fill="currentColor"/>
</svg>
