<svg viewBox="0 0 24 24" fill="none" xmlns="http://www.w3.org/2000/svg">
<path opacity="0.3" d="M19.245 7.42395L16.063 4.24197C15.9166 4.09553 15.6791 4.09553 15.5327 4.24197L4.26848 15.5062C4.12203 15.6526 4.12203 15.8901 4.26848 16.0365L7.45046 19.2185C7.59691 19.3649 7.83434 19.3649 7.98079 19.2185L19.245 7.95428C19.3914 7.80784 19.3914 7.5704 19.245 7.42395Z" fill="currentColor"/>
<path d="M5.06419 15.7711L7.71584 18.4228L18.4495 7.68911L15.7979 5.03746L5.06419 15.7711ZM8.51134 19.7486C8.072 20.1879 7.35969 20.1879 6.92035 19.7486L3.73837 16.5666C3.29903 16.1273 3.29903 15.415 3.73837 14.9756L15.0024 3.71163C15.4417 3.27229 16.154 3.27229 16.5933 3.71163L19.7753 6.89361C20.2147 7.33295 20.2147 8.04526 19.7753 8.4846L8.51134 19.7486Z" fill="currentColor"/>
<path d="M6.00795 18.7203L4.68213 17.3945L3.14431 18.9323C3.0677 19.0089 3.00623 19.1002 2.96477 19.2003C2.9234 19.3002 2.90193 19.4076 2.90193 19.5158C2.90193 19.6242 2.92399 19.732 2.96546 19.8321C3.00691 19.932 3.06783 20.0229 3.14431 20.0993L3.30313 20.2582C3.37961 20.3346 3.47049 20.3956 3.57037 20.437C3.67048 20.4785 3.77831 20.5005 3.88663 20.5005C3.99489 20.5005 4.10223 20.4791 4.20221 20.4377C4.30229 20.3962 4.39352 20.3348 4.47013 20.2582L6.00795 18.7203ZM5.5308 21.3188C5.31499 21.5346 5.05869 21.7061 4.77673 21.8229C4.49463 21.9398 4.19192 22.0004 3.88663 22.0004C3.58129 22.0004 3.2786 21.9397 2.99654 21.8229C2.71457 21.7061 2.45828 21.5346 2.24247 21.3188L2.08365 21.16C1.86784 20.9442 1.6964 20.6879 1.57956 20.4059C1.46273 20.1239 1.40209 19.8212 1.40209 19.5158C1.40209 19.2105 1.46271 18.9078 1.57956 18.6257C1.6964 18.3438 1.86785 18.0875 2.08365 17.8717L4.1518 15.8035L4.20911 15.7517C4.50369 15.5118 4.93798 15.529 5.21246 15.8035L7.59894 18.19C7.89184 18.4829 7.89184 18.9578 7.59894 19.2507L5.5308 21.3188Z" fill="currentColor"/>
<path d="M17.5941 4.68188L18.9199 6.00771L20.4577 4.46989C20.5342 4.39341 20.5951 4.30253 20.6366 4.20265C20.6781 4.10254 20.7001 3.99471 20.7001 3.88639C20.7001 3.77809 20.6781 3.67024 20.6366 3.57012C20.5951 3.47021 20.5342 3.37936 20.4577 3.30289L20.2989 3.14406C20.2224 3.06759 20.1316 3.00668 20.0317 2.96522C19.9316 2.92374 19.8237 2.90169 19.7154 2.90169C19.6071 2.90169 19.4993 2.92375 19.3992 2.96522C19.2993 3.00667 19.2084 3.06758 19.1319 3.14406L17.5941 4.68188ZM18.0713 2.0834C18.2871 1.8676 18.5434 1.69616 18.8253 1.57931C19.1074 1.46248 19.4101 1.40185 19.7154 1.40185C20.0208 1.40185 20.3235 1.46249 20.6055 1.57931C20.8875 1.69615 21.1438 1.86758 21.3596 2.0834L21.5184 2.24223C21.7342 2.45805 21.9057 2.71434 22.0225 2.99629C22.1393 3.27833 22.2 3.58103 22.2 3.88639C22.2 4.19173 22.1393 4.49442 22.0225 4.77649C21.9056 5.05845 21.7342 5.31474 21.5184 5.53055L19.4503 7.5987L19.3929 7.65049C19.0984 7.89044 18.6641 7.87317 18.3896 7.5987L16.0031 5.21221C15.7102 4.91932 15.7102 4.44445 16.0031 4.15155L18.0713 2.0834Z" fill="currentColor"/>
</svg>
