<svg viewBox="0 0 24 24" fill="none" xmlns="http://www.w3.org/2000/svg">
<path opacity="0.3" d="M13.725 10.5H22.875V13.8H21.6L20.85 22.2H3.52501L2.77501 13.8H1.5V10.5H10.65H13.725Z" fill="currentColor"/>
<path d="M22.875 9.75L22.9521 9.75391C23.3301 9.79253 23.625 10.1118 23.625 10.5V13.7998C23.625 14.188 23.3301 14.5073 22.9521 14.5459L22.875 14.5498H22.2861L21.5967 22.2666C21.5621 22.6534 21.238 22.9502 20.8496 22.9502H3.52539C3.18557 22.9502 2.8942 22.7231 2.80371 22.4072L2.77832 22.2666L2.08887 14.5498H1.5C1.08579 14.5498 0.75 14.214 0.75 13.7998V10.5L0.753906 10.4229C0.792528 10.0449 1.11183 9.75 1.5 9.75H22.875ZM2.25 13.0498H7.5L7.57715 13.0537C7.95507 13.0923 8.2499 13.4117 8.25 13.7998C8.25 14.188 7.95511 14.5073 7.57715 14.5459L7.5 14.5498H3.5957L4.21191 21.4502H20.1631L20.7793 14.5498H16.875C16.4608 14.5498 16.125 14.214 16.125 13.7998C16.1251 13.3857 16.4608 13.0498 16.875 13.0498H22.125V11.25H2.25V13.0498Z" fill="currentColor"/>
<path d="M12.9751 3.75C12.9751 3.55116 12.896 3.36039 12.7554 3.21973C12.6148 3.07911 12.4239 3.00004 12.2251 3H12.1499C11.951 3 11.7603 3.07907 11.6196 3.21973C11.479 3.3604 11.3999 3.55112 11.3999 3.75V13.9502H12.9751V3.75ZM14.4751 14.7002C14.475 15.1143 14.1392 15.4501 13.7251 15.4502H10.6499C10.2358 15.4502 9.90001 15.1143 9.8999 14.7002V3.75C9.8999 3.15324 10.1372 2.58112 10.5591 2.15918C10.981 1.73723 11.5532 1.5 12.1499 1.5H12.2251C12.8218 1.50004 13.394 1.73727 13.8159 2.15918C14.2378 2.58111 14.4751 3.15328 14.4751 3.75V14.7002Z" fill="currentColor"/>
<path d="M2.65728 5.68822C2.8576 5.35547 3.27534 5.23393 3.61919 5.39622L3.68657 5.43236L11.0372 9.85716L11.1006 9.90013C11.4047 10.1281 11.4923 10.5538 11.292 10.8865C11.0784 11.2413 10.6176 11.356 10.2627 11.1423L2.91314 6.71751L2.84966 6.67454C2.54534 6.44663 2.45702 6.02096 2.65728 5.68822Z" fill="currentColor"/>
<path d="M20.7559 5.39627C21.0996 5.23434 21.5166 5.35573 21.7168 5.68826C21.9304 6.04302 21.8165 6.50383 21.4619 6.71756L14.1113 11.1424C13.7565 11.356 13.2957 11.2414 13.082 10.8865C12.8686 10.5317 12.9831 10.0708 13.3379 9.85721L20.6875 5.43241L20.7559 5.39627Z" fill="currentColor"/>
</svg>
