<svg viewBox="0 0 24 24" fill="none" xmlns="http://www.w3.org/2000/svg">
<path opacity="0.3" d="M9.44999 1.5H18.15C19.1645 1.5 20.1373 1.903 20.8547 2.62033C21.572 3.33766 21.975 4.31057 21.975 5.32503H9.74999C7.56195 5.32503 5.46354 6.1942 3.91636 7.74138C2.36919 9.28855 1.5 11.387 1.5 13.575C1.5 15.7631 2.36919 17.8615 3.91636 19.4086C5.46354 20.9558 7.56195 21.825 9.74999 21.825H20.85V17.1L14.325 19.2C13.5286 19.4701 12.6907 19.5971 11.85 19.575C10.8882 19.5752 9.96462 19.1983 9.27754 18.5253C8.59046 17.8522 8.19462 16.9366 8.175 15.975C8.175 15.0003 8.56218 14.0656 9.25138 13.3764C9.94058 12.6872 10.8753 12.3 11.85 12.3H15C16.8499 12.3 18.624 11.5651 19.9321 10.2571C21.2401 8.949 21.975 7.17491 21.975 5.32503" fill="currentColor"/>
<path d="M18.1504 0.75C19.3635 0.750104 20.5269 1.23209 21.3848 2.08984C22.2427 2.94782 22.7246 4.11183 22.7246 5.3252C22.7246 7.37375 21.9113 9.33847 20.4629 10.7871C19.0142 12.2358 17.0488 13.0498 15 13.0498H11.8496C11.074 13.0499 10.3297 13.3578 9.78125 13.9062C9.23486 14.4526 8.92722 15.1934 8.9248 15.9658C8.94198 16.729 9.25734 17.455 9.80273 17.9893C10.3495 18.5249 11.0842 18.8253 11.8496 18.8252C11.8562 18.8252 11.8635 18.825 11.8701 18.8252C12.622 18.8449 13.3716 18.7318 14.084 18.4902L14.0947 18.4863L14.3252 19.2002L14.0957 18.4863L20.6201 16.3857C20.8483 16.3123 21.0983 16.353 21.292 16.4941C21.4854 16.6353 21.5995 16.8602 21.5996 17.0996V21.8252C21.5995 22.2393 21.2638 22.5752 20.8496 22.5752H9.75C7.36304 22.5752 5.07356 21.6263 3.38574 19.9385C1.6982 18.2507 0.750044 15.9619 0.75 13.5752C0.75 11.1883 1.69797 8.89876 3.38574 7.21094C5.07357 5.52311 7.36306 4.5752 9.75 4.5752H21.1279C20.9934 4.04092 20.7204 3.54653 20.3242 3.15039C19.7476 2.57393 18.9657 2.2501 18.1504 2.25H9.4502C9.03598 2.25 8.7002 1.91421 8.7002 1.5C8.7002 1.08579 9.03598 0.75 9.4502 0.75H18.1504ZM2.25 13.5752C2.25004 15.5641 3.04005 17.4715 4.44629 18.8779C5.85282 20.2845 7.76088 21.0752 9.75 21.0752H20.0996V18.1289L14.5547 19.9141L14.5537 19.9131C13.677 20.2089 12.7551 20.3494 11.8301 20.3252V20.3242C10.6794 20.3192 9.57541 19.867 8.75293 19.0615C7.92563 18.2511 7.44844 17.1481 7.4248 15.9902C7.4247 15.9852 7.4248 15.9797 7.4248 15.9746C7.42491 14.8012 7.89095 13.6755 8.7207 12.8457C9.55046 12.016 10.6762 11.5499 11.8496 11.5498H15C16.6509 11.5498 18.234 10.8939 19.4014 9.72656C20.3905 8.73742 21.0109 7.44965 21.1777 6.0752H9.75C7.76087 6.0752 5.85281 6.86496 4.44629 8.27148C3.03982 9.678 2.25 11.5861 2.25 13.5752Z" fill="currentColor"/>
<path d="M11.0249 5.32507V12.375" stroke="currentColor" stroke-width="1.5" stroke-linecap="round" stroke-linejoin="round"/>
<path d="M3.375 8.32507L8.85 13.8001" stroke="currentColor" stroke-width="1.5" stroke-linecap="round" stroke-linejoin="round"/>
<path d="M2.25 17.025H8.32499" stroke="currentColor" stroke-width="1.5" stroke-linecap="round" stroke-linejoin="round"/>
<path d="M12.2998 19.725V21.825" stroke="currentColor" stroke-width="1.5" stroke-linecap="round" stroke-linejoin="round"/>
<path d="M15.15 8.77499C15.6471 8.77499 16.05 8.37204 16.05 7.87498C16.05 7.37793 15.6471 6.97498 15.15 6.97498C14.653 6.97498 14.25 7.37793 14.25 7.87498C14.25 8.37204 14.653 8.77499 15.15 8.77499Z" fill="currentColor"/>
</svg>
