<svg viewBox="0 0 24 24" fill="none" xmlns="http://www.w3.org/2000/svg">
<path opacity="0.3" d="M21.4744 10.1991L16.9088 14.1366L18.3038 20.0232C18.3407 20.1745 18.3319 20.3333 18.2785 20.4795C18.2252 20.6258 18.1297 20.753 18.004 20.845C17.8784 20.937 17.7283 20.9897 17.5728 20.9965C17.4172 21.0032 17.2632 20.9637 17.1301 20.8829L12.0001 17.7272L6.87005 20.8819C6.73695 20.9627 6.58288 21.0023 6.42732 20.9955C6.27176 20.9888 6.12169 20.9361 5.99607 20.8441C5.87045 20.7521 5.77493 20.6249 5.72157 20.4786C5.66822 20.3323 5.65942 20.1735 5.6963 20.0222L7.0913 14.1357L2.52568 10.1982C2.40927 10.096 2.32534 9.9619 2.28426 9.81254C2.24318 9.66317 2.24673 9.50504 2.29449 9.35768C2.34225 9.21031 2.43212 9.08015 2.55301 8.98328C2.6739 8.88641 2.82051 8.82706 2.97474 8.81255L8.9663 8.32505L11.2744 2.73755C11.3333 2.5934 11.4337 2.47004 11.5629 2.38321C11.6922 2.29637 11.8444 2.25 12.0001 2.25C12.1557 2.25 12.3079 2.29637 12.4372 2.38321C12.5664 2.47004 12.6668 2.5934 12.7257 2.73755L15.0338 8.32505L21.0254 8.81255C21.1798 8.82688 21.3267 8.88618 21.4477 8.98312C21.5688 9.08005 21.6588 9.21036 21.7066 9.35792C21.7544 9.50547 21.7579 9.66381 21.7166 9.81332C21.6753 9.96283 21.5911 10.097 21.4744 10.1991Z" fill="currentColor"/>
<path d="M22.4229 9.11812C22.3292 8.82986 22.1522 8.5758 21.9143 8.38795C21.6764 8.2001 21.3882 8.08686 21.0861 8.06249L15.5548 7.61624L13.4192 2.45155C13.3037 2.17013 13.1071 1.92941 12.8545 1.76C12.6018 1.59058 12.3045 1.50012 12.0003 1.50012C11.6961 1.50012 11.3988 1.59058 11.1461 1.76C10.8934 1.92941 10.6969 2.17013 10.5814 2.45155L8.44763 7.61531L2.91357 8.06249C2.61092 8.08809 2.32256 8.20243 2.08461 8.39119C1.84666 8.57994 1.6697 8.83472 1.57591 9.12361C1.48212 9.41249 1.47566 9.72263 1.55735 10.0152C1.63904 10.3077 1.80524 10.5696 2.03513 10.7681L6.25388 14.4084L4.96857 19.8516C4.89669 20.1473 4.91429 20.4577 5.01914 20.7434C5.12399 21.0291 5.31136 21.2771 5.55747 21.4562C5.80358 21.6352 6.09732 21.737 6.40142 21.7488C6.70552 21.7605 7.00625 21.6817 7.26544 21.5222L11.9998 18.6084L16.737 21.5222C16.9963 21.6798 17.2964 21.7571 17.5996 21.7445C17.9027 21.7318 18.1954 21.6298 18.4406 21.4512C18.6859 21.2726 18.8728 21.0254 18.9779 20.7407C19.083 20.4561 19.1015 20.1467 19.0311 19.8516L17.7411 14.4075L21.9598 10.7672C22.1916 10.569 22.3593 10.3065 22.4417 10.013C22.5242 9.71939 22.5176 9.40796 22.4229 9.11812ZM20.9848 9.63093L16.4192 13.5684C16.3151 13.6582 16.2376 13.7748 16.1953 13.9056C16.153 14.0364 16.1474 14.1763 16.1792 14.31L17.5742 20.1975C17.5778 20.2056 17.5782 20.2148 17.5752 20.2232C17.5722 20.2315 17.5662 20.2385 17.5583 20.2425C17.5414 20.2556 17.5367 20.2528 17.5226 20.2425L12.3926 17.0878C12.2745 17.0152 12.1385 16.9767 11.9998 16.9767C11.8611 16.9767 11.7252 17.0152 11.607 17.0878L6.47701 20.2444C6.46294 20.2528 6.45919 20.2556 6.44138 20.2444C6.43347 20.2403 6.42741 20.2334 6.42444 20.225C6.42147 20.2167 6.42183 20.2075 6.42544 20.1994L7.82044 14.3119C7.85224 14.1781 7.84667 14.0382 7.80434 13.9075C7.76201 13.7767 7.68456 13.66 7.58044 13.5703L3.01482 9.6328C3.00357 9.62343 2.99326 9.61499 3.00263 9.58593C3.01201 9.55687 3.01951 9.56062 3.03357 9.55874L9.02607 9.07499C9.16352 9.0632 9.29505 9.01373 9.4062 8.93203C9.51735 8.85032 9.60381 8.73954 9.65607 8.61187L11.9642 3.02343C11.9717 3.00749 11.9745 2.99999 11.997 2.99999C12.0195 2.99999 12.0223 3.00749 12.0298 3.02343L14.3436 8.61187C14.3963 8.73958 14.4833 8.85025 14.595 8.93164C14.7067 9.01303 14.8386 9.06199 14.9764 9.07312L20.9689 9.55687C20.9829 9.55687 20.9914 9.55687 20.9998 9.58405C21.0083 9.61124 20.9998 9.62156 20.9848 9.63093Z" fill="currentColor"/>
</svg>
