<svg viewBox="0 0 24 24" fill="none" xmlns="http://www.w3.org/2000/svg">
<path opacity="0.3" d="M10.4261 21.3C10.6442 21.5667 10.9188 21.7817 11.2301 21.9293C11.5414 22.0769 11.8816 22.1534 12.2261 22.1534C12.5706 22.1534 12.9109 22.0769 13.2222 21.9293C13.5335 21.7817 13.8081 21.5667 14.0261 21.3L18.3761 16.35C19.3867 15.1835 19.9455 13.6934 19.9511 12.15C19.9611 11.5492 19.8526 10.9523 19.6318 10.3934C19.411 9.83456 19.0823 9.32465 18.6644 8.89284C18.2465 8.46103 17.7476 8.11577 17.1963 7.87679C16.645 7.6378 16.052 7.50977 15.4511 7.5H9.00114C8.40032 7.50977 7.80729 7.6378 7.25596 7.87679C6.70463 8.11577 6.20579 8.46103 5.78791 8.89284C5.37003 9.32465 5.04131 9.83456 4.82052 10.3934C4.59973 10.9523 4.49121 11.5492 4.50114 12.15C4.47113 13.6997 5.03458 15.2022 6.07614 16.35L10.4261 21.3Z" fill="currentColor"/>
<path d="M15.4627 6.75L15.7244 6.76074C16.3338 6.80063 16.9324 6.94513 17.4939 7.18848C18.1356 7.4666 18.7166 7.86858 19.2029 8.37109C19.6893 8.87369 20.0719 9.46768 20.3289 10.1182C20.5845 10.7652 20.7101 11.4558 20.7 12.1514L20.701 12.1523C20.6947 13.875 20.0711 15.5388 18.9432 16.8408L18.9393 16.8447L14.5897 21.7949L14.5887 21.7939C14.303 22.1373 13.9466 22.416 13.5428 22.6074C13.1313 22.8024 12.6816 22.9033 12.2264 22.9033C11.7709 22.9033 11.3206 22.8025 10.909 22.6074C10.505 22.4159 10.1479 22.1376 9.86211 21.7939V21.7949L5.5125 16.8447V16.8438C4.34799 15.5555 3.71722 13.8723 3.75079 12.1357C3.74283 11.4455 3.8692 10.7603 4.12286 10.1182C4.37984 9.46768 4.76245 8.87369 5.24883 8.37109C5.73519 7.86856 6.31615 7.46662 6.95782 7.18848C7.59944 6.91041 8.28988 6.76137 8.98907 6.75H15.4627ZM8.825 8.25781C8.38752 8.2865 7.95762 8.38978 7.5545 8.56445C7.09369 8.7642 6.67627 9.05319 6.32696 9.41406C5.97759 9.77508 5.70198 10.2017 5.51739 10.6689C5.33283 11.1362 5.24248 11.6354 5.25079 12.1377C5.25093 12.1465 5.25095 12.1553 5.25079 12.1641C5.22613 13.4373 5.65848 14.6747 6.46465 15.6533L6.63164 15.8457L6.63946 15.8545L10.9891 20.8047L11.0066 20.8252C11.1544 21.0059 11.3407 21.152 11.5516 21.252C11.7623 21.3518 11.9931 21.4033 12.2264 21.4033C12.4595 21.4033 12.6896 21.3517 12.9002 21.252C13.1111 21.152 13.2974 21.0059 13.4451 20.8252L13.4627 20.8047L17.8123 15.8545C18.7031 14.8243 19.196 13.5095 19.201 12.1475V12.1377L19.2 11.9492C19.1857 11.5109 19.0959 11.0777 18.9344 10.6689C18.7498 10.2017 18.4742 9.77508 18.1248 9.41406C17.7756 9.05327 17.359 8.76419 16.8982 8.56445C16.4949 8.38962 16.0645 8.2865 15.6268 8.25781L15.4383 8.25H9.01348L8.825 8.25781Z" fill="currentColor"/>
<path d="M12.2316 1.50002C12.4791 1.50189 12.7096 1.62589 12.8478 1.83108L14.8469 4.7969L18.2726 3.56936C18.555 3.46815 18.8711 3.54415 19.0754 3.76369C19.2797 3.98324 19.3333 4.30382 19.2121 4.57815L17.7873 7.80275L17.7521 7.87209C17.5641 8.2022 17.1531 8.34245 16.798 8.18557C16.4192 8.01819 16.248 7.57611 16.4152 7.19729L17.133 5.57131L14.8039 6.40627C14.481 6.52191 14.1206 6.4036 13.9289 6.11916L12.216 3.57717L10.4416 6.12795C10.2471 6.4076 9.88851 6.52123 9.56855 6.40432L7.32441 5.584L8.0373 7.19729C8.2043 7.5759 8.03286 8.01805 7.65448 8.18557C7.27561 8.35298 6.83264 8.18163 6.66523 7.80275L5.24042 4.57815C5.11893 4.3032 5.17282 3.98225 5.37812 3.76272C5.58367 3.54318 5.90129 3.46712 6.18378 3.57033L9.54023 4.79592L11.6105 1.82131L11.6672 1.74904C11.8097 1.59002 12.0152 1.49842 12.2316 1.50002Z" fill="currentColor"/>
<path d="M11.4014 13.3499V12.3C11.4014 11.8858 11.7372 11.55 12.1514 11.55C12.5656 11.55 12.9014 11.8858 12.9014 12.3V13.3499C12.9014 13.7641 12.5656 14.0999 12.1514 14.0999C11.7372 14.0999 11.4014 13.7641 11.4014 13.3499Z" fill="currentColor"/>
<path d="M7.57617 12.525V11.4C7.57617 10.9858 7.91196 10.65 8.32617 10.65C8.74039 10.65 9.07617 10.9858 9.07617 11.4V12.525C9.07617 12.9392 8.74039 13.275 8.32617 13.275C7.91196 13.275 7.57617 12.9392 7.57617 12.525Z" fill="currentColor"/>
<path d="M15.2261 12.525V11.4C15.2261 10.9858 15.5619 10.65 15.9761 10.65C16.3903 10.65 16.7261 10.9858 16.7261 11.4V12.525C16.7261 12.9392 16.3903 13.275 15.9761 13.275C15.5619 13.275 15.2261 12.9392 15.2261 12.525Z" fill="currentColor"/>
<path d="M13.3511 16.425V15.3C13.3511 14.8858 13.6869 14.55 14.1011 14.55C14.5153 14.55 14.8511 14.8858 14.8511 15.3V16.425C14.8511 16.8393 14.5153 17.175 14.1011 17.175C13.6869 17.175 13.3511 16.8393 13.3511 16.425Z" fill="currentColor"/>
<path d="M9.37598 16.425V15.3C9.37598 14.8858 9.71176 14.55 10.126 14.55C10.5402 14.55 10.876 14.8858 10.876 15.3V16.425C10.876 16.8393 10.5402 17.175 10.126 17.175C9.71176 17.175 9.37598 16.8393 9.37598 16.425Z" fill="currentColor"/>
</svg>
