<svg viewBox="0 0 24 24" fill="none" xmlns="http://www.w3.org/2000/svg">
<path opacity="0.3" d="M16.2754 3.8252C19.009 3.82544 21.2246 6.04173 21.2246 8.77539C21.2244 11.5089 19.0089 13.7244 16.2754 13.7246C13.5417 13.7246 11.3254 11.509 11.3252 8.77539C11.3252 6.04158 13.5416 3.8252 16.2754 3.8252ZM16.2754 6.97461C15.2813 6.97461 14.4756 7.78128 14.4756 8.77539C14.4758 9.76932 15.2814 10.5752 16.2754 10.5752C17.2692 10.575 18.075 9.76921 18.0752 8.77539C18.0752 7.78138 17.2694 6.97478 16.2754 6.97461Z" fill="currentColor"/>
<path d="M12.5196 1.93455C12.6791 1.58947 13.0773 1.41449 13.4444 1.541C13.8115 1.6676 14.0178 2.05081 13.9308 2.42088L13.9093 2.49412L7.00888 22.5195L6.98056 22.5908C6.82105 22.9357 6.42279 23.1107 6.05576 22.9844C5.66414 22.8494 5.45597 22.4219 5.59091 22.0303L12.4913 2.00584L12.5196 1.93455Z" fill="currentColor"/>
<path d="M22.1046 11.4945C22.4746 11.4077 22.858 11.6137 22.9845 11.9808C23.1192 12.3723 22.911 12.7989 22.5196 12.9339L2.49423 19.8343C2.10275 19.9691 1.6761 19.7609 1.54111 19.3695C1.40617 18.9779 1.61434 18.5513 2.00595 18.4164L22.0304 11.516L22.1046 11.4945Z" fill="currentColor"/>
<path d="M20.4756 8.77527C20.4756 6.45575 18.5949 4.57519 16.2754 4.57507C13.9558 4.57507 12.0752 6.45567 12.0752 8.77527C12.0753 11.0948 13.9559 12.9755 16.2754 12.9755C18.5948 12.9753 20.4755 11.0947 20.4756 8.77527ZM21.9756 8.77527C21.9755 11.9231 19.4232 14.4753 16.2754 14.4755C13.1274 14.4755 10.5753 11.9232 10.5752 8.77527C10.5752 5.62725 13.1274 3.07507 16.2754 3.07507C19.4233 3.07519 21.9756 5.62731 21.9756 8.77527Z" fill="currentColor"/>
<path d="M17.3247 8.77478C17.3246 8.19498 16.8547 7.72498 16.2749 7.72498C15.6952 7.72507 15.2252 8.19501 15.2251 8.77478C15.2251 9.35465 15.6951 9.82449 16.2749 9.82458C16.8548 9.82458 17.3247 9.35468 17.3247 8.77478ZM18.8247 8.77478C18.8247 10.1831 17.6832 11.3246 16.2749 11.3246C14.8666 11.3245 13.7251 10.183 13.7251 8.77478C13.7252 7.36663 14.8667 6.22507 16.2749 6.22498C17.6832 6.22498 18.8246 7.36655 18.8247 8.77478Z" fill="currentColor"/>
</svg>
