<svg viewBox="0 0 24 24" fill="none" xmlns="http://www.w3.org/2000/svg">
<path opacity="0.3" d="M21.9753 6.60003C21.9642 7.37096 21.7676 8.12788 21.4021 8.80674C21.0365 9.4856 20.5128 10.0664 19.8753 10.5V21.45H4.35029V10.5C3.69867 10.0809 3.16415 9.50326 2.79684 8.82112C2.42954 8.13898 2.24148 7.37472 2.2503 6.60003C2.24926 5.81637 2.4401 5.04438 2.80616 4.35147C3.17222 3.65857 3.70236 3.06583 4.35029 2.62502C4.7842 2.37727 5.27562 2.24795 5.77528 2.25002H18.3753C18.875 2.24795 19.3664 2.37727 19.8003 2.62502H19.8753C20.5099 3.07905 21.0301 3.67463 21.3946 4.36458C21.7591 5.05454 21.9579 5.8199 21.9753 6.60003Z" fill="currentColor"/>
<path d="M18.3749 1.5V1.50098C18.9438 1.49906 19.5033 1.63285 20.0096 1.88867C20.1177 1.90841 20.2211 1.95013 20.3114 2.01465C21.0407 2.53644 21.6386 3.22172 22.0575 4.01465C22.4762 4.80743 22.7054 5.68666 22.7254 6.58301C22.7256 6.59201 22.7256 6.60135 22.7254 6.61035C22.7126 7.50167 22.4849 8.37723 22.0624 9.16211C21.7045 9.82675 21.2139 10.4084 20.6249 10.876V21.4502C20.6248 21.8643 20.289 22.2002 19.8749 22.2002H4.35044C3.93628 22.2002 3.60053 21.8643 3.60044 21.4502V10.8867C2.99779 10.4278 2.49724 9.84652 2.13657 9.17676C1.7091 8.38288 1.48964 7.49339 1.49985 6.5918C1.50015 5.68889 1.72063 4.79942 2.14243 4.00098C2.56569 3.19981 3.1794 2.51457 3.92856 2.00488L3.97837 1.97363C4.52557 1.66122 5.14517 1.49888 5.77524 1.50098V1.5H18.3749ZM5.63462 3.00391C5.32388 3.02298 5.02117 3.11167 4.7479 3.2627C4.21239 3.63282 3.7738 4.1263 3.46958 4.70215C3.16081 5.28664 2.99904 5.93759 2.99985 6.59863V6.6084C2.99248 7.2561 3.14979 7.89551 3.45688 8.46582C3.76395 9.03603 4.21102 9.5188 4.75571 9.86914C4.9703 10.0071 5.10043 10.2449 5.10044 10.5V20.7002H19.1249V10.5C19.1249 10.2518 19.2478 10.0195 19.453 9.87988C19.9909 9.51402 20.4336 9.02396 20.742 8.45117C21.0486 7.88177 21.2134 7.24707 21.2245 6.60059C21.2073 5.94248 21.0389 5.29705 20.7313 4.71484C20.4477 4.17806 20.0524 3.70968 19.5741 3.33789C19.5239 3.32197 19.4747 3.30268 19.4286 3.27637C19.1088 3.09381 18.746 2.99847 18.3778 3H5.77231L5.63462 3.00391Z" fill="currentColor"/>
<path d="M8.13869 7.29322C7.92157 7.64591 7.4592 7.7554 7.10646 7.53833C6.75415 7.32111 6.6444 6.85966 6.86134 6.50708L8.13869 7.29322ZM7.46095 5.5315C7.67809 5.1789 8.14048 5.06934 8.49318 5.28638C8.84586 5.5035 8.95536 5.96587 8.7383 6.31861L8.13869 7.29322L7.50001 6.89966L6.86134 6.50708L7.46095 5.5315Z" fill="currentColor"/>
<path d="M13.3672 10.2979C13.6029 10.6384 13.5173 11.106 13.1767 11.3418C12.8363 11.5772 12.3695 11.4925 12.1338 11.1524L13.3672 10.2979ZM11.6484 9.1338C11.9677 8.91275 12.3976 8.9736 12.6445 9.2627L12.6914 9.32325L13.3672 10.2979L12.75 10.7246L12.1338 11.1524L11.4589 10.1768L11.4179 10.1113C11.2345 9.77861 11.3293 9.35479 11.6484 9.1338Z" fill="currentColor"/>
<path d="M15.3253 5.65673C15.4321 5.25656 15.8431 5.01879 16.2433 5.12548C16.6435 5.2322 16.8813 5.64322 16.7745 6.04345L16.4747 7.16845C16.368 7.5686 15.9569 7.80641 15.5568 7.6997C15.1566 7.59292 14.9188 7.18191 15.0255 6.78173L15.3253 5.65673Z" fill="currentColor"/>
<path d="M14.4572 15.1113C14.8097 14.8944 15.2712 15.0041 15.4884 15.3565C15.7055 15.7092 15.596 16.1716 15.2433 16.3887L14.2687 16.9883C13.916 17.2054 13.4536 17.0959 13.2365 16.7432C13.0194 16.3905 13.129 15.9281 13.4816 15.7109L14.4572 15.1113Z" fill="currentColor"/>
<path d="M8.55029 15.7502V14.55C8.55029 14.1358 8.88608 13.8 9.30029 13.8C9.71451 13.8 10.0503 14.1358 10.0503 14.55V15.7502C10.0502 16.1644 9.71444 16.5002 9.30029 16.5002C8.88614 16.5002 8.5504 16.1644 8.55029 15.7502Z" fill="currentColor"/>
</svg>
