<svg viewBox="0 0 24 24" fill="none" xmlns="http://www.w3.org/2000/svg">
<path opacity="0.3" d="M18.375 2.25C19.5007 3.30699 20.3953 4.58592 21.002 6.00586C21.6086 7.42575 21.9147 8.95601 21.9004 10.5C21.9019 12.7784 21.2204 15.0051 19.9443 16.8926C18.6683 18.78 16.856 20.2423 14.7412 21.0898C12.6263 21.9374 10.3055 22.1313 8.0791 21.6475C5.85271 21.1636 3.82236 20.0238 2.25 18.375L3.89453 16.7295C4.7354 17.6331 5.75448 18.3531 6.8877 18.8428C8.02777 19.3354 9.25813 19.5843 10.5 19.5742V19.5752L10.502 19.5742C10.5032 19.5742 10.5046 19.5742 10.5059 19.5742C12.9163 19.5727 15.2292 18.6207 16.9414 16.9238C18.6549 15.2256 19.6278 12.9192 19.6494 10.5068V10.498C19.6457 9.25901 19.3909 8.03293 18.8994 6.89551C18.4088 5.7602 17.6924 4.73569 16.7949 3.88477L18.375 2.25Z" fill="currentColor"/>
<path d="M17.8906 1.67675C18.178 1.43336 18.6084 1.4399 18.8887 1.70312C20.0898 2.831 21.044 4.19576 21.6914 5.71093C22.3378 7.22373 22.6646 8.85401 22.6504 10.499L22.6416 10.9541C22.5582 13.223 21.8405 15.4266 20.5655 17.3125C19.2054 19.3242 17.2736 20.8818 15.0196 21.7851C12.7656 22.6884 10.2928 22.8965 7.91994 22.3808C5.54704 21.8652 3.38289 20.6499 1.70705 18.8926C1.42609 18.5978 1.4318 18.1327 1.71975 17.8447L3.89651 15.668L15.7461 3.89257L17.836 1.72948L17.8906 1.67675ZM16.8145 4.94628C16.811 4.94992 16.8073 4.95345 16.8037 4.95702L4.95412 16.7324L4.95315 16.7314L3.31643 18.3682C4.70076 19.6333 6.39729 20.5149 8.2383 20.915C10.3182 21.367 12.4862 21.1853 14.4619 20.3935C16.4377 19.6017 18.1311 18.236 19.3233 16.4726C20.5153 14.7095 21.1517 12.6293 21.1504 10.501V10.4932L21.1406 9.95409C21.0873 8.6978 20.8077 7.45983 20.3125 6.30077C19.8435 5.20303 19.1876 4.19729 18.3799 3.32323L16.8145 4.94628Z" fill="currentColor"/>
<path d="M15.8617 3.79897C16.1467 3.61031 16.5328 3.63648 16.7904 3.88002C17.6903 4.73194 18.4083 5.75814 18.8998 6.89565C19.3913 8.03313 19.6461 9.25908 19.6498 10.4982V10.507C19.6282 12.9194 18.6552 15.2257 16.9418 16.924C15.2296 18.6209 12.9167 19.5729 10.5062 19.5744L10.5072 19.5753C10.5057 19.5754 10.5038 19.5743 10.5023 19.5744L10.5004 19.5753V19.5744C9.25843 19.5845 8.02819 19.3355 6.88806 18.8429C5.74589 18.3494 4.71906 17.6227 3.87439 16.7091C3.60035 16.4127 3.61049 15.9527 3.89685 15.6681L15.7465 3.89272L15.8617 3.79897ZM5.49157 16.1955C6.08232 16.7213 6.75393 17.151 7.48279 17.466C8.433 17.8765 9.45846 18.0845 10.4935 18.0753H10.5004L10.8773 18.0656C12.7572 17.9729 14.542 17.1896 15.8851 15.8585C17.3157 14.4407 18.1295 12.5159 18.1498 10.5021L18.139 10.1144C18.0905 9.21121 17.8824 8.32254 17.5228 7.49038C17.2083 6.76246 16.7816 6.09044 16.2621 5.49526L5.49157 16.1955Z" fill="currentColor"/>
<path d="M9.66987 14.3198C9.96276 14.0269 10.4375 14.0269 10.7304 14.3198C11.0233 14.6127 11.0233 15.0874 10.7304 15.3803L9.98041 16.1303C9.68752 16.4232 9.21276 16.4232 8.91987 16.1303C8.62697 15.8374 8.62697 15.3627 8.91987 15.0698L9.66987 14.3198Z" fill="currentColor"/>
<path d="M15.0698 8.91974C15.3627 8.62685 15.8374 8.62685 16.1303 8.91974C16.4232 9.21264 16.4232 9.6874 16.1303 9.98029L15.3803 10.7303C15.0874 11.0232 14.6127 11.0232 14.3198 10.7303C14.0269 10.4374 14.0269 9.96264 14.3198 9.66974L15.0698 8.91974Z" fill="currentColor"/>
<path d="M12.9698 12.8948C13.2444 12.6202 13.6792 12.6027 13.9737 12.843L14.0304 12.8948L14.7804 13.6448L14.8321 13.7014C15.0725 13.996 15.055 14.4307 14.7804 14.7053C14.5058 14.9799 14.0711 14.9974 13.7765 14.7571L13.7198 14.7053L12.9698 13.9553L12.9181 13.8987C12.6778 13.6041 12.6952 13.1694 12.9698 12.8948Z" fill="currentColor"/>
</svg>
