<svg viewBox="0 0 24 24" fill="none" xmlns="http://www.w3.org/2000/svg">
<path opacity="0.3" d="M9.10303 12.7678L11.4023 14.9952L4.99725 21.2001C4.84628 21.3463 4.66704 21.4624 4.46979 21.5415C4.27254 21.6207 4.06113 21.6614 3.84762 21.6614C3.63412 21.6614 3.42273 21.6206 3.22548 21.5415C3.02822 21.4623 2.84899 21.3463 2.69802 21.2001C2.39312 20.9047 2.22182 20.5041 2.22182 20.0864C2.22182 19.6687 2.3931 19.2681 2.698 18.9727L9.10303 12.7678Z" fill="currentColor"/>
<path d="M10.3249 14.9952L9.10303 13.8115L3.23646 19.4947C3.07457 19.6517 2.98326 19.8647 2.98326 20.0866C2.98331 20.3085 3.07448 20.5215 3.23646 20.6784C3.31666 20.7561 3.41228 20.8171 3.51703 20.8592C3.6218 20.9012 3.73403 20.9237 3.84739 20.9237C3.96088 20.9237 4.07365 20.9019 4.17845 20.8598C4.28313 20.8178 4.37815 20.756 4.45831 20.6784L10.3249 14.9952ZM5.53567 21.7221C5.31401 21.9368 5.05091 22.1074 4.76132 22.2236C4.47164 22.3398 4.16088 22.3995 3.84739 22.3995C3.53391 22.3995 3.22374 22.3391 2.93416 22.2229C2.64447 22.1066 2.38081 21.9369 2.1591 21.7221C1.71141 21.2884 1.45985 20.7 1.4598 20.0866C1.4598 19.4732 1.71147 18.8848 2.1591 18.451L8.56435 12.246L8.62256 12.195C8.92178 11.9589 9.36291 11.9759 9.64171 12.246L11.9409 14.4733C12.2384 14.7615 12.2384 15.2288 11.9409 15.517L5.53567 21.7221Z" fill="currentColor"/>
<path d="M17.6843 1.50284V1.50186C19.1073 1.50199 20.4766 2.04964 21.49 3.03116C22.4983 4.008 23.0712 5.33618 23.0778 6.72745H23.0788C23.1254 8.17018 22.552 9.81961 20.8093 11.3954C19.0893 12.9506 16.2329 14.4356 11.6843 15.6513L11.6091 15.6679C11.2338 15.7285 10.8657 15.4961 10.7653 15.121C10.6584 14.7208 10.8964 14.309 11.2966 14.2021L12.1062 13.9775C16.049 12.8426 18.4221 11.5321 19.8034 10.2831C21.254 8.97152 21.6107 7.73347 21.5798 6.77628C21.5795 6.76822 21.5788 6.75993 21.5788 6.75186C21.5788 5.76519 21.1749 4.8135 20.447 4.10831C19.7183 3.40241 18.7247 3.00199 17.6843 3.00186C17.677 3.00186 17.6692 3.00208 17.6618 3.00186C16.6061 2.97087 15.3165 3.32916 13.9655 4.73136C12.592 6.15705 11.1473 8.67362 9.88742 12.9638L9.16769 12.7519L8.44796 12.5409C9.7429 8.13129 11.2785 5.35939 12.8855 3.69132C14.5073 2.00789 16.1906 1.46462 17.6843 1.50284ZM9.88742 12.9638C9.7706 13.3609 9.35396 13.588 8.95675 13.4716C8.55939 13.3549 8.3314 12.9383 8.44796 12.5409L9.88742 12.9638Z" fill="currentColor"/>
<path d="M18.4405 2.36943C18.9617 2.18602 19.5265 2.15579 20.0646 2.28154C20.5898 2.40435 21.0698 2.67244 21.4474 3.05498C21.8602 3.41679 22.1556 3.89293 22.2882 4.42509C22.4203 4.95522 22.3828 5.51097 22.1857 6.01982L22.1866 6.0208C21.729 7.35087 20.605 8.68134 18.7804 10.0433C16.9457 11.4127 14.3336 12.8647 10.7833 14.4144C10.4978 14.5389 10.1652 14.474 9.94738 14.2513C9.72957 14.0282 9.67236 13.6931 9.80383 13.4104C11.4043 9.96916 12.9044 7.4367 14.3195 5.65752C15.7221 3.89389 17.0871 2.81347 18.4405 2.37041V2.36943ZM19.7237 3.74248C19.4634 3.68159 19.1895 3.69617 18.9386 3.78447C18.9325 3.78659 18.9261 3.78836 18.92 3.79033C17.9573 4.10129 16.8129 4.93197 15.4933 6.59111C14.4349 7.92184 13.2959 9.7502 12.0695 12.179C14.598 10.983 16.5005 9.87389 17.8829 8.84209C19.5999 7.5605 20.4511 6.4533 20.7677 5.53349L20.7823 5.49541C20.8739 5.2695 20.8906 5.02303 20.8321 4.78838C20.7736 4.55339 20.6407 4.33736 20.4474 4.17216C20.4287 4.15614 20.4107 4.13917 20.3937 4.12138C20.2163 3.9364 19.9839 3.80338 19.7237 3.74248Z" fill="currentColor"/>
</svg>
