<svg viewBox="0 0 24 24" fill="none" xmlns="http://www.w3.org/2000/svg">
<path opacity="0.3" d="M9.75 14.775L17.25 6.07495H2.25L9.75 14.775L17.25 6.07495H2.25L9.75 14.775Z" fill="currentColor"/>
<path d="M17.2499 5.32495C17.5431 5.32495 17.8093 5.4959 17.9315 5.76245C18.0536 6.02891 18.0094 6.3421 17.8182 6.56421L10.3182 15.2644C10.1758 15.4297 9.96807 15.5251 9.74987 15.5251C9.55887 15.5251 9.37629 15.452 9.23815 15.323L9.18151 15.2644L1.68151 6.56421C1.49031 6.3421 1.44613 6.02891 1.56823 5.76245C1.69043 5.4959 1.95663 5.32495 2.24987 5.32495H17.2499ZM9.74987 13.6248L15.6131 6.82495H3.88659L9.74987 13.6248Z" fill="currentColor"/>
<path d="M9 21.5249V14.7749C9 14.3607 9.33579 14.0249 9.75 14.0249C10.1642 14.0249 10.5 14.3607 10.5 14.7749V21.5249C10.5 21.9391 10.1642 22.2749 9.75 22.2749C9.33579 22.2749 9 21.9391 9 21.5249Z" fill="currentColor"/>
<path d="M14.7002 20.7749L14.7764 20.7788C15.1546 20.8172 15.4502 21.1365 15.4502 21.5249C15.4502 21.9133 15.1546 22.2326 14.7764 22.271L14.7002 22.2749H4.7998C4.38559 22.2749 4.0498 21.9391 4.0498 21.5249C4.0498 21.1107 4.38559 20.7749 4.7998 20.7749H14.7002Z" fill="currentColor"/>
<path d="M12.6743 10.35L12.7515 10.3539C13.1296 10.3923 13.4243 10.7117 13.4243 11.1C13.4243 11.4883 13.1296 11.8076 12.7515 11.8461L12.6743 11.85H6.82471C6.41049 11.85 6.07471 11.5142 6.07471 11.1C6.07471 10.6858 6.41049 10.35 6.82471 10.35H12.6743Z" fill="currentColor"/>
<path d="M12.6748 6.07511C12.6748 5.17027 12.9436 4.28548 13.4463 3.53312C13.949 2.78093 14.6632 2.19479 15.499 1.84855C16.335 1.50228 17.2551 1.41128 18.1426 1.58781C19.0298 1.76434 19.8447 2.20016 20.4844 2.83976C21.1242 3.47958 21.5608 4.29507 21.7373 5.18253C21.9138 6.06993 21.8228 6.99019 21.4766 7.82609C21.1303 8.66178 20.5441 9.37618 19.792 9.87882C19.0397 10.3815 18.1548 10.6503 17.25 10.6503H17.2461C16.2099 10.6452 15.2108 10.2762 14.4209 9.61222L14.2656 9.4755L14.2119 9.42081C13.9604 9.13602 13.9603 8.70112 14.2236 8.41593C14.4871 8.1306 14.9207 8.09663 15.2246 8.32511L15.2832 8.37394L15.4922 8.54972C15.9958 8.93444 16.6133 9.14584 17.252 9.14933C17.8593 9.1489 18.453 8.96917 18.958 8.63175C19.4636 8.2939 19.8581 7.81371 20.0908 7.25187C20.3235 6.69013 20.3842 6.07185 20.2656 5.4755C20.147 4.87901 19.8539 4.33035 19.4238 3.90031C18.9938 3.47041 18.4459 3.17811 17.8496 3.05949C17.2531 2.94084 16.6351 3.00157 16.0732 3.23429C15.5115 3.46696 15.0312 3.86066 14.6934 4.36613C14.3555 4.8718 14.1748 5.46693 14.1748 6.07511C14.1747 6.48924 13.839 6.82511 13.4248 6.82511C13.0107 6.82511 12.6749 6.48924 12.6748 6.07511Z" fill="currentColor"/>
</svg>
