<svg viewBox="0 0 24 24" fill="none" xmlns="http://www.w3.org/2000/svg">
<path opacity="0.3" d="M11.7002 1.5C12.814 1.50005 13.8823 1.94286 14.6699 2.73047C15.4574 3.5181 15.9004 4.58638 15.9004 5.7002C15.8806 7.75483 16.4816 9.76743 17.625 11.4746C18.4127 12.6781 18.8301 14.0871 18.8252 15.5254C18.6434 17.2985 17.8103 18.9414 16.4873 20.1357C15.1642 21.3301 13.4446 21.9912 11.6621 21.9912C9.87985 21.9911 8.16086 21.33 6.83789 20.1357C5.51489 18.9414 4.68177 17.2985 4.5 15.5254C4.52171 14.0801 4.96523 12.6717 5.77539 11.4746C6.91875 9.76747 7.5198 7.75475 7.5 5.7002C7.5 4.58629 7.94282 3.51812 8.73047 2.73047C9.51812 1.94282 10.5863 1.5 11.7002 1.5ZM11.7002 12.2246C9.67084 12.2247 8.0257 13.8701 8.02539 15.8994C8.02539 17.929 9.67066 19.5741 11.7002 19.5742C13.7297 19.574 15.375 17.9289 15.375 15.8994C15.3747 13.8702 13.7295 12.2248 11.7002 12.2246Z" fill="currentColor"/>
<path d="M11.7002 0.75C13.0129 0.750051 14.2719 1.27194 15.2002 2.2002C16.1284 3.12848 16.6504 4.38747 16.6504 5.7002V5.70703C16.6332 7.49184 17.1215 9.24259 18.0557 10.7578L18.248 11.0576L18.2529 11.0645L18.4102 11.3154C19.1759 12.5846 19.5802 14.0413 19.5752 15.5273V15.5645L19.5713 15.6016C19.3707 17.5594 18.4511 19.3735 16.9902 20.6924C15.5293 22.0113 13.6303 22.7412 11.6621 22.7412C9.69406 22.7411 7.79578 22.0112 6.33496 20.6924C4.87408 19.3735 3.95454 17.5595 3.75391 15.6016L3.74902 15.5576L3.75 15.5137C3.77392 13.9224 4.26231 12.3727 5.1543 11.0547C6.21244 9.4736 6.76838 7.60949 6.75 5.70703V5.7002L6.75586 5.4541C6.81665 4.2308 7.33001 3.07038 8.2002 2.2002C9.1285 1.27189 10.3874 0.75 11.7002 0.75ZM11.7002 2.25C10.7852 2.25 9.90774 2.61374 9.26074 3.26074C8.61374 3.90774 8.25 4.7852 8.25 5.7002C8.26978 7.90351 7.62473 10.0618 6.39844 11.8926L6.39648 11.8955C5.67676 12.959 5.27911 14.2071 5.25098 15.4902C5.42244 17.0628 6.16593 18.5184 7.34082 19.5791C8.52594 20.6488 10.0656 21.2411 11.6621 21.2412C13.2588 21.2412 14.7991 20.6489 15.9844 19.5791C17.1607 18.5171 17.904 17.0591 18.0742 15.4844C18.0712 14.2061 17.6974 12.9558 16.9971 11.8857V11.8848C15.774 10.0556 15.1306 7.90051 15.1504 5.7002L15.1455 5.5293C15.1033 4.67654 14.7462 3.86737 14.1396 3.26074C13.4927 2.61379 12.6151 2.25005 11.7002 2.25Z" fill="currentColor"/>
<path d="M13.8745 15.8998C13.8744 14.6987 12.9008 13.725 11.6997 13.725C10.4987 13.7251 9.52502 14.6987 9.5249 15.8998C9.5249 17.1009 10.4986 18.0745 11.6997 18.0746C12.9009 18.0746 13.8745 17.101 13.8745 15.8998ZM15.3745 15.8998C15.3745 17.9294 13.7293 19.5746 11.6997 19.5746C9.67017 19.5745 8.0249 17.9294 8.0249 15.8998C8.02502 13.8703 9.67023 12.2251 11.6997 12.225C13.7293 12.225 15.3744 13.8702 15.3745 15.8998Z" fill="currentColor"/>
</svg>
