<svg viewBox="0 0 24 24" fill="none" xmlns="http://www.w3.org/2000/svg">
<path opacity="0.3" d="M19.2518 4.19715L21.6914 6.63667L10.2893 18.0388L4.40259 12.1521L12.3575 4.19715C13.2718 3.28291 14.5118 2.76929 15.8047 2.76929C17.0976 2.76929 18.3376 3.28291 19.2518 4.19715Z" fill="currentColor"/>
<path d="M9.19702 18.1177L8.03071 16.9513L3.89441 21.0876C3.75379 21.2283 3.67486 21.4191 3.67482 21.618C3.67482 21.8169 3.75376 22.0077 3.89441 22.1483L4.00006 22.254C4.14071 22.3946 4.33149 22.4735 4.53039 22.4735C4.7293 22.4735 4.92007 22.3946 5.06072 22.254L9.19702 18.1177ZM6.12138 23.3146C5.69943 23.7366 5.12713 23.9748 4.53039 23.9748C3.93366 23.9748 3.36135 23.7366 2.9394 23.3146L2.83375 23.209C2.41193 22.7871 2.17444 22.2152 2.17429 21.6187C2.17429 21.0219 2.4118 20.4489 2.83375 20.027L7.2725 15.5882C7.30861 15.4859 7.36535 15.389 7.44721 15.3072C7.7401 15.0143 8.21498 15.0143 8.50787 15.3072L10.788 17.5873C11.0809 17.8802 11.0809 18.3551 10.788 18.648L6.12138 23.3146Z" fill="currentColor"/>
<path d="M22.2218 6.10646C22.5146 6.39937 22.5147 6.87427 22.2218 7.16712L10.8197 18.5692C10.5269 18.8621 10.052 18.862 9.75906 18.5692L3.87226 12.6824C3.57937 12.3895 3.57937 11.9147 3.87226 11.6218L11.8272 3.66681C12.8821 2.61191 14.3128 2.01919 15.8047 2.01919C17.2965 2.01919 18.7273 2.61191 19.7822 3.66681L22.2218 6.10646ZM5.46325 12.1521L10.2894 16.9782L20.6308 6.63679L18.7215 4.72747C17.9479 3.95388 16.8987 3.51903 15.8047 3.51903C14.7107 3.51903 13.6615 3.95388 12.8879 4.72747L5.46325 12.1521Z" fill="currentColor"/>
<path d="M13.7766 8.87982C14.0735 8.64274 14.5078 8.66438 14.7796 8.94134C15.0695 9.23712 15.0646 9.71191 14.7688 10.0019L10.9446 13.7519C10.6489 14.0417 10.1741 14.0375 9.88406 13.7421C9.5942 13.4465 9.59841 12.9716 9.89382 12.6816L13.719 8.93157L13.7766 8.87982Z" fill="currentColor"/>
</svg>
