<svg viewBox="0 0 24 24" fill="none" xmlns="http://www.w3.org/2000/svg">
<path d="M18.6777 6.77735C19.0659 6.77883 19.3848 7.07495 19.4219 7.45313L19.4248 7.53028C19.4135 10.4943 19.0804 13.4485 18.4326 16.3438L18.4336 16.3447C18.0013 18.3701 17.7809 20.4331 17.7754 22.502C17.7743 22.9153 17.4386 23.2498 17.0254 23.25H6.90039C6.51268 23.25 6.19342 22.9557 6.1543 22.5781L6.15039 22.502C6.14488 20.433 5.92355 18.3701 5.49121 16.3447V16.3438C4.88398 13.6295 4.55404 10.8633 4.50586 8.08594L4.5 7.53028L4.50391 7.45313C4.54106 7.07501 4.85892 6.77886 5.24707 6.77735C5.63554 6.77587 5.95645 7.06999 5.99609 7.44825L6 7.52442L6.01855 8.59571C6.08474 10.7372 6.32452 12.8703 6.73633 14.9746L6.95703 16.0244L6.95898 16.0313H6.95801C7.35992 17.914 7.58768 19.8281 7.63867 21.75H16.2871C16.3381 19.8281 16.5649 17.914 16.9668 16.0313L16.9678 16.0244L17.1885 14.9746C17.6689 12.5196 17.9153 10.0254 17.9248 7.52442L17.9287 7.44825C17.9683 7.07002 18.2893 6.77593 18.6777 6.77735Z" fill="currentColor"/>
<path opacity="0.3" d="M18.675 7.38059C18.6892 7.89547 18.6642 8.41067 18.6 8.92189H14.925V13.6192C14.925 14.0085 14.767 14.3819 14.4857 14.6572C14.2044 14.9324 13.8228 15.0871 13.425 15.0871C13.0272 15.0871 12.6456 14.9324 12.3643 14.6572C12.083 14.3819 11.925 14.0085 11.925 13.6192V8.8485H5.325C5.325 8.40813 5.25 7.82097 5.25 7.3072C5.25 6.60644 5.53446 5.93438 6.04081 5.43886C6.54716 4.94335 7.23392 4.66497 7.95 4.66497H8.325C8.64862 3.71254 9.28012 2.889 10.1242 2.31875C10.9682 1.74851 11.9789 1.4625 13.0037 1.50394C14.0285 1.54538 15.0117 1.91202 15.8048 2.54847C16.5979 3.18492 17.1578 4.05663 17.4 5.03195C17.8113 5.27232 18.1475 5.61824 18.3723 6.03224C18.597 6.44624 18.7017 6.91253 18.675 7.38059Z" fill="currentColor"/>
<path d="M18.675 7.38059C18.6892 7.89547 18.6642 8.41067 18.6 8.92189H14.925V13.6192C14.925 14.0085 14.767 14.3819 14.4857 14.6572C14.2044 14.9324 13.8228 15.0871 13.425 15.0871C13.0272 15.0871 12.6456 14.9324 12.3643 14.6572C12.083 14.3819 11.925 14.0085 11.925 13.6192V8.8485H5.325C5.325 8.40813 5.25 7.82097 5.25 7.3072C5.25 6.60644 5.53446 5.93438 6.04081 5.43886C6.54716 4.94335 7.23392 4.66497 7.95 4.66497H8.325C8.64862 3.71254 9.28012 2.889 10.1242 2.31875C10.9682 1.74851 11.9789 1.4625 13.0037 1.50394C14.0285 1.54538 15.0117 1.91202 15.8048 2.54847C16.5979 3.18492 17.1578 4.05663 17.4 5.03195C17.8113 5.27232 18.1475 5.61824 18.3723 6.03224C18.597 6.44624 18.7017 6.91253 18.675 7.38059Z" stroke="currentColor" stroke-width="1.5" stroke-linecap="round" stroke-linejoin="round"/>
</svg>
