<svg viewBox="0 0 24 24" fill="none" xmlns="http://www.w3.org/2000/svg">
<path opacity="0.3" fill-rule="evenodd" clip-rule="evenodd" d="M6.00007 18H17.6251V22.7998H6.00007V18ZM13.7999 7.5H13.8751C14.9093 7.61143 15.8659 8.103 16.5587 8.87891C17.2512 9.65476 17.6311 10.6602 17.6251 11.7002V13.7998H6.00007V11.625C5.99399 10.6047 6.36633 9.61828 7.045 8.85645C7.72365 8.09469 8.66077 7.61138 9.67488 7.5V1.5H13.7999V7.5Z" fill="currentColor"/>
<path d="M13.7999 0.75C14.2141 0.75 14.5499 1.08579 14.5499 1.5V6.85645C15.5372 7.08685 16.4355 7.61542 17.1172 8.37891C17.9328 9.29234 18.3811 10.4758 18.3751 11.7002V22.7998C18.3751 23.214 18.0393 23.5498 17.6251 23.5498H6.00006C5.58588 23.5498 5.25006 23.214 5.25006 22.7998V11.625C5.24398 10.4207 5.68425 9.25669 6.48541 8.35742C7.13595 7.62731 7.98698 7.11321 8.92487 6.875V1.5L8.92877 1.42285C8.96737 1.04496 9.28681 0.750134 9.67487 0.75H13.7999ZM10.4249 7.5C10.4249 7.88255 10.1372 8.20339 9.7569 8.24512C8.92711 8.33617 8.16086 8.7322 7.60553 9.35547C7.05028 9.97871 6.74518 10.7854 6.75006 11.6201V22.0498H16.8751V11.6953L16.8624 11.377C16.7981 10.6378 16.497 9.9356 15.9991 9.37793C15.4358 8.74702 14.66 8.34684 13.8204 8.25H13.7999C13.3858 8.24986 13.0499 7.91413 13.0499 7.5V2.25H10.4249V7.5Z" fill="currentColor"/>
<path d="M13.8003 3.52502C14.2145 3.52502 14.5503 3.86081 14.5503 4.27502C14.5503 4.68924 14.2145 5.02502 13.8003 5.02502H9.67529C9.26108 5.02502 8.92529 4.68924 8.92529 4.27502C8.92529 3.86081 9.26108 3.52502 9.67529 3.52502H13.8003Z" fill="currentColor"/>
<path d="M17.625 13.05L17.7021 13.054C18.0801 13.0926 18.375 13.4119 18.375 13.8V18.0002C18.3749 18.4144 18.0391 18.7502 17.625 18.7502H6C5.58585 18.7502 5.25011 18.4144 5.25 18.0002V13.8L5.25391 13.7229C5.29253 13.3449 5.61183 13.05 6 13.05H17.625ZM6.75 17.2502H16.875V14.55H6.75V17.2502Z" fill="currentColor"/>
<path d="M6 17.775H17.625" stroke="currentColor" stroke-width="1.5" stroke-linecap="round" stroke-linejoin="round"/>
</svg>
