<svg viewBox="0 0 24 24" fill="none" xmlns="http://www.w3.org/2000/svg">
<path opacity="0.3" fill-rule="evenodd" clip-rule="evenodd" d="M6.00006 19.8754H17.7755V22.8002H6.00006V19.8754ZM14.0255 4.34998V10.4252C15.0531 10.5523 15.9999 11.0483 16.6895 11.8207C17.3791 12.5931 17.7651 13.5899 17.7755 14.6254V15.7504H6.00006V14.6996C5.99428 13.6398 6.38228 12.6154 7.08893 11.8256C7.79572 11.0356 8.77116 10.5367 9.82526 10.4252H10.2003V4.34998H14.0255Z" fill="currentColor"/>
<path d="M9.45025 4.34998C9.45025 3.93576 9.78604 3.59998 10.2002 3.59998C10.6144 3.60005 10.9502 3.93581 10.9502 4.34998V10.4252C10.9501 10.8392 10.6143 11.1751 10.2002 11.1752H9.8731C9.01599 11.2736 8.22432 11.6822 7.64849 12.3256C7.06573 12.9769 6.74523 13.8217 6.75005 14.6957V22.0502H17.0254V14.6322L17.0079 14.3138C16.9334 13.5759 16.6275 12.877 16.1299 12.3197C15.5612 11.6828 14.7801 11.2741 13.9327 11.1693C13.5572 11.1227 13.2755 10.8036 13.2754 10.4252V4.34998C13.2754 3.93576 13.6112 3.59998 14.0254 3.59998C14.4395 3.60015 14.7754 3.93587 14.7754 4.34998V9.80701C15.7259 10.0563 16.5881 10.5804 17.2491 11.3207C18.0597 12.2287 18.5133 13.4004 18.5254 14.6176V22.8002C18.5253 23.2142 18.1894 23.55 17.7754 23.5502H6.00005C5.58594 23.5501 5.25016 23.2143 5.25005 22.8002V14.6996C5.24427 13.4553 5.70054 12.253 6.53033 11.3256C7.29452 10.4715 8.32558 9.90723 9.45025 9.72009V4.34998Z" fill="currentColor"/>
<path d="M17.7754 15C18.1894 15.0002 18.5254 15.3359 18.5254 15.75V19.875C18.5254 20.2891 18.1894 20.6248 17.7754 20.625H6C5.58579 20.625 5.25 20.2892 5.25 19.875V15.75L5.25391 15.6729C5.29253 15.2949 5.61183 15 6 15H17.7754ZM6.75 19.125H17.0254V16.5H6.75V19.125Z" fill="currentColor"/>
<path d="M6 19.7999H17.775" stroke="currentColor" stroke-width="1.5" stroke-linecap="round" stroke-linejoin="round"/>
<path d="M15.2251 0.75C15.6393 0.75 15.9751 1.08579 15.9751 1.5V4.40234C15.9751 4.81656 15.6393 5.15234 15.2251 5.15234H8.55029C8.13608 5.15234 7.80029 4.81656 7.80029 4.40234V1.5L7.8042 1.42285C7.84282 1.04488 8.16213 0.75 8.55029 0.75H15.2251ZM9.30029 3.65234H14.4751V2.25H9.30029V3.65234Z" fill="currentColor"/>
</svg>
