<svg viewBox="0 0 24 24" fill="none" xmlns="http://www.w3.org/2000/svg">
<path opacity="0.3" d="M22.65 10.4055V19.7805H1.5V10.4055H6.75V15.4305C6.75 15.8482 6.91594 16.2489 7.21131 16.5442C7.50668 16.8396 7.90728 17.0055 8.325 17.0055H8.4C8.61305 17.0157 8.82595 16.9825 9.02578 16.9079C9.22561 16.8333 9.40821 16.7189 9.5625 16.5716C9.71679 16.4243 9.83956 16.2472 9.92336 16.0511C10.0072 15.8549 10.0502 15.6438 10.05 15.4305V10.4055H22.65Z" fill="currentColor"/>
<path d="M6 11.1555H2.25V19.0305H21.9004V11.1555H10.7998V15.4299L10.7881 15.6653C10.7645 15.8992 10.706 16.1289 10.6133 16.3459C10.4896 16.6355 10.3078 16.8971 10.0801 17.1145C9.85239 17.3317 9.58293 17.5005 9.28809 17.6106C9.00436 17.7165 8.70283 17.7639 8.40039 17.7542V17.7551H8.3252C7.70858 17.7551 7.11669 17.5105 6.68066 17.0745C6.24486 16.6385 6.0001 16.0473 6 15.4309V11.1555ZM7.5 15.4309C7.5001 15.6495 7.58671 15.8593 7.74121 16.0139C7.89592 16.1686 8.10638 16.2551 8.3252 16.2551H8.40039L8.43555 16.2561C8.54716 16.2614 8.65901 16.2444 8.76367 16.2053C8.86826 16.1663 8.96415 16.1066 9.04492 16.0295C9.12574 15.9524 9.1895 15.8588 9.2334 15.7561C9.27724 15.6534 9.29993 15.5426 9.2998 15.4309V10.4055L9.30371 10.3284C9.34232 9.95045 9.66172 9.65562 10.0498 9.65552H22.6504C23.0644 9.65573 23.4004 9.99143 23.4004 10.4055V19.7805C23.4004 20.1946 23.0644 20.5303 22.6504 20.5305H1.5C1.08579 20.5305 0.75 20.1947 0.75 19.7805V10.4055L0.753906 10.3284C0.792528 9.9504 1.11183 9.65552 1.5 9.65552H6.75C7.16421 9.65552 7.5 9.9913 7.5 10.4055V15.4309Z" fill="currentColor"/>
<path d="M2.24809 10.4531C2.22182 10.8662 1.86627 11.1802 1.45317 11.1543C1.03983 11.1282 0.725945 10.7718 0.752 10.3584L2.24809 10.4531ZM6.83208 3.91897C8.64008 3.54542 10.5212 3.7955 12.169 4.62698H12.17L22.9707 9.72756C23.3449 9.90455 23.5049 10.3512 23.3282 10.7256C23.1514 11.1 22.7046 11.2606 22.3301 11.084L11.5293 5.98342C11.523 5.98041 11.5161 5.97783 11.5098 5.97463C10.1604 5.289 8.61812 5.08145 7.13579 5.38772C5.65417 5.69385 4.3197 6.49386 3.35259 7.65725L3.35356 7.65823C2.70016 8.45024 2.31287 9.42844 2.24809 10.4531L1.50005 10.4053L0.752 10.3584C0.836713 9.01832 1.34177 7.73889 2.19634 6.70315L2.19829 6.7012L2.42583 6.43948C3.58802 5.15539 5.13014 4.27067 6.83208 3.91897Z" fill="currentColor"/>
<path d="M3.6748 14.3806L3.75195 14.3845C4.13002 14.4231 4.4248 14.7424 4.4248 15.1306C4.4248 15.5188 4.13002 15.8382 3.75195 15.8767L3.6748 15.8806H1.5C1.08579 15.8806 0.75 15.5448 0.75 15.1306C0.75 14.7164 1.08579 14.3806 1.5 14.3806H3.6748Z" fill="currentColor"/>
<path d="M22.6499 14.3806L22.7271 14.3845C23.1051 14.4231 23.3999 14.7424 23.3999 15.1306C23.3999 15.5188 23.1051 15.8382 22.7271 15.8767L22.6499 15.8806H12.9751C12.5609 15.8806 12.2251 15.5448 12.2251 15.1306C12.2251 14.7164 12.5609 14.3806 12.9751 14.3806H22.6499Z" fill="currentColor"/>
</svg>
