<svg viewBox="0 0 24 24" fill="none" xmlns="http://www.w3.org/2000/svg">
<path opacity="0.3" d="M18.3 3C17.8078 3.47082 17.4251 4.04401 17.1789 4.67904C16.9326 5.31408 16.8289 5.99546 16.875 6.67501C16.8591 7.26425 16.9611 7.85072 17.175 8.4L17.325 8.7C17.6504 9.51199 17.8281 10.3755 17.85 11.25C17.841 12.997 17.1398 14.6692 15.9 15.9C15.2868 16.5037 14.5603 16.9802 13.7623 17.302C12.9642 17.6237 12.1104 17.7845 11.25 17.775C10.4038 17.7851 9.56353 17.6323 8.77501 17.325L8.40001 17.175C7.88255 16.9352 7.32027 16.8074 6.75 16.8C6.04775 16.772 5.34792 16.8985 4.69994 17.1707C4.05196 17.4428 3.47164 17.8539 3 18.375L6.45 21.75C7.5 20.925 7.80001 19.275 7.80001 17.925C7.8233 17.3596 7.72083 16.796 7.5 16.275L7.35 15.9C6.98319 15.101 6.80363 14.2289 6.825 13.35C6.83396 11.603 7.5352 9.93083 8.77501 8.7C10.0225 7.49451 11.6902 6.82202 13.425 6.825C14.2799 6.80154 15.1282 6.98148 15.9 7.35L16.275 7.5C16.8077 7.67873 17.3635 7.77977 17.925 7.80001C18.6247 7.80878 19.3187 7.67347 19.9638 7.40251C20.6089 7.13155 21.1914 6.73074 21.675 6.225L18.3 3Z" fill="currentColor"/>
<path d="M17.8972 2.36715C18.1828 2.18513 18.5644 2.21547 18.8181 2.45797L22.1931 5.68257C22.3369 5.82 22.4201 6.00911 22.4246 6.20797C22.4291 6.40687 22.3541 6.59933 22.2166 6.74312C21.6619 7.32321 20.9937 7.78292 20.2537 8.09371C19.5607 8.38472 18.8187 8.53664 18.0681 8.54683C18.3956 9.40503 18.5764 10.3125 18.5994 11.2314C18.5996 11.2389 18.5994 11.2464 18.5994 11.2539C18.5894 13.1994 17.8092 15.0619 16.4285 16.4326L16.4255 16.4345C15.7421 17.1074 14.9323 17.6383 14.0427 17.997C13.1579 18.3538 12.2115 18.5328 11.2576 18.5244L11.2586 18.5253C11.2556 18.5254 11.2527 18.5243 11.2498 18.5244C11.2472 18.5243 11.2446 18.5254 11.242 18.5253V18.5244C10.3211 18.5332 9.40763 18.3678 8.54762 18.039C8.53955 18.735 8.45834 19.5167 8.23707 20.2509C8.00496 21.0211 7.60157 21.7987 6.91285 22.3398C6.61685 22.5722 6.19463 22.5492 5.92555 22.2861L2.47535 18.9111C2.18734 18.6293 2.17374 18.1707 2.4441 17.872C2.98934 17.2697 3.65988 16.7941 4.40895 16.4795C5.1021 16.1883 5.8469 16.0425 6.59742 16.0478C6.23204 15.1905 6.0523 14.265 6.07496 13.332C6.08863 11.3916 6.86948 9.5353 8.24684 8.16793L8.25367 8.16011C9.63599 6.82445 11.4824 6.07753 13.4041 6.07515H13.4255C14.3554 6.05286 15.2772 6.2425 16.1228 6.62789C16.0852 5.87135 16.2052 5.11509 16.4793 4.40816C16.7652 3.67076 17.2095 3.00469 17.781 2.45797L17.8972 2.36715ZM6.71949 17.5498C6.12708 17.5262 5.53662 17.6327 4.99 17.8623C4.66639 17.9982 4.36311 18.1756 4.08668 18.3886L6.41871 20.6709C6.57261 20.4321 6.70153 20.1468 6.80055 19.8183C6.97961 19.2242 7.04957 18.5508 7.04957 17.9248C7.04957 17.9147 7.05014 17.9046 7.05055 17.8945C7.05502 17.786 7.05264 17.6772 7.04566 17.5693C6.94426 17.5585 6.84235 17.5511 6.74 17.5498C6.73329 17.5497 6.7262 17.55 6.71949 17.5498ZM13.4236 7.57515C11.8871 7.57251 10.409 8.1658 9.3025 9.2314L9.30348 9.23238C8.20463 10.3233 7.58299 11.8051 7.57496 13.3535C7.57494 13.3582 7.57508 13.3634 7.57496 13.3681C7.55869 14.0372 7.67624 14.7018 7.91969 15.3232L8.03102 15.5869L8.04566 15.6211L8.19605 15.9961H8.19508C8.24175 16.1071 8.28342 16.2199 8.32105 16.3339C8.44515 16.3786 8.56785 16.4275 8.68824 16.4824L9.04664 16.6259L9.31129 16.7216C9.93233 16.9299 10.5847 17.0332 11.241 17.0253C11.2465 17.0253 11.252 17.0253 11.2576 17.0253C12.019 17.0338 12.775 16.8911 13.4812 16.6064C14.0993 16.3572 14.6694 16.0032 15.1658 15.5605L15.3738 15.3652C16.4712 14.2745 17.0914 12.7934 17.0994 11.2461C17.0775 10.4768 16.921 9.71735 16.6375 9.00191L16.5037 8.73531C16.4934 8.71472 16.4847 8.69328 16.4763 8.67183C16.4295 8.55158 16.388 8.42963 16.3504 8.3066C16.245 8.27701 16.1398 8.24574 16.0359 8.2109C16.0225 8.20641 16.0089 8.20148 15.9959 8.19625L15.6209 8.04586C15.606 8.03989 15.5914 8.03324 15.5769 8.02633C14.9955 7.74871 14.3634 7.59566 13.7214 7.57515H13.4236ZM18.3484 4.08297C18.1561 4.35025 17.9974 4.64138 17.8777 4.95015C17.6712 5.48268 17.5842 6.05414 17.6228 6.62398C17.6244 6.64761 17.6254 6.67159 17.6248 6.69527C17.6218 6.80618 17.6236 6.91696 17.6306 7.0273C17.7325 7.03744 17.8347 7.0448 17.9373 7.04879C18.533 7.05583 19.1243 6.94161 19.6736 6.7109C19.9913 6.57741 20.29 6.40535 20.5662 6.20211L18.3484 4.08297Z" fill="currentColor"/>
</svg>
