<svg viewBox="0 0 24 24" fill="none" xmlns="http://www.w3.org/2000/svg">
<path opacity="0.3" d="M7.4248 2.25C7.56944 3.39112 8.12531 4.44067 8.98828 5.20117C9.8512 5.9616 10.9621 6.38081 12.1123 6.38086C13.2624 6.38086 14.3734 5.96153 15.2363 5.20117C16.0993 4.44068 16.6552 3.39111 16.7998 2.25H21.9746V7.34961C20.7216 7.34971 19.5198 7.84836 18.6338 8.73438C17.7479 9.62046 17.25 10.8222 17.25 12.0752C17.2697 13.3152 17.7762 14.4983 18.6602 15.3682C19.544 16.2379 20.7346 16.7247 21.9746 16.7246V21.9004H2.25V2.25H7.4248ZM9.52539 11.0996C7.82717 11.0996 6.45029 12.4766 6.4502 14.1748C6.4502 15.8731 7.82712 17.25 9.52539 17.25C11.2235 17.2498 12.5996 15.8729 12.5996 14.1748C12.5995 12.4768 11.2234 11.0998 9.52539 11.0996Z" fill="currentColor"/>
<path d="M7.4248 1.5L7.56348 1.5127C7.87808 1.57156 8.12722 1.82756 8.16895 2.15527C8.29061 3.11518 8.7585 3.99793 9.48438 4.6377C10.2103 5.27744 11.1447 5.63081 12.1123 5.63086C13.08 5.63086 14.0142 5.27748 14.7402 4.6377C15.4662 3.99791 15.934 3.11526 16.0557 2.15527L16.0859 2.01953C16.184 1.71493 16.4695 1.50008 16.7998 1.5H21.9746C22.3888 1.5 22.7246 1.83579 22.7246 2.25V7.34961C22.7246 7.76382 22.3888 8.09961 21.9746 8.09961C20.9205 8.09971 19.9094 8.51928 19.1641 9.26465C18.4188 10.0101 18 11.0211 18 12.0752C18.0197 13.1141 18.4457 14.104 19.1865 14.833C19.9301 15.5647 20.9314 15.9747 21.9746 15.9746C22.1734 15.9746 22.3642 16.0539 22.5049 16.1943C22.6455 16.3349 22.7245 16.5258 22.7246 16.7246V21.9004C22.7244 22.3144 22.3887 22.6504 21.9746 22.6504H2.25C1.83592 22.6504 1.50021 22.3144 1.5 21.9004V2.25L1.50391 2.17285C1.54253 1.79488 1.86183 1.5 2.25 1.5H7.4248ZM3 21.1504H21.2246V17.4219C20.0643 17.2614 18.9781 16.7332 18.1338 15.9023C17.1095 14.8943 16.5228 13.5238 16.5 12.0869V12.0752L16.5068 11.8037C16.5739 10.4504 17.1409 9.16576 18.1035 8.20312C18.9517 7.35502 20.0499 6.81489 21.2246 6.65234V3H17.4189C17.1492 4.06513 16.5645 5.03042 15.7324 5.76367C14.7325 6.64486 13.4451 7.13086 12.1123 7.13086C10.7795 7.13081 9.49209 6.64484 8.49219 5.76367C7.66019 5.03041 7.07542 4.06509 6.80566 3H3V21.1504Z" fill="currentColor"/>
<path d="M16.7998 2.25C16.6552 3.39112 16.0992 4.44029 15.2363 5.20079C14.3733 5.96129 13.2626 6.38088 12.1123 6.38088C10.9621 6.38088 9.85129 5.96129 8.98832 5.20079C8.12535 4.44029 7.56944 3.39112 7.4248 2.25" stroke="currentColor" stroke-width="1.5" stroke-linecap="round" stroke-linejoin="round"/>
<path d="M21.9749 16.725C21.3095 16.8093 20.6339 16.7511 19.9928 16.554C19.3517 16.357 18.7599 16.0258 18.2568 15.5824C17.7536 15.139 17.3506 14.5936 17.0746 13.9824C16.7985 13.3711 16.6558 12.7082 16.6558 12.0375C16.6558 11.3668 16.7985 10.7039 17.0746 10.0927C17.3506 9.48144 17.7536 8.936 18.2568 8.49259C18.7599 8.04918 19.3517 7.71797 19.9928 7.52096C20.6339 7.32396 21.3095 7.26567 21.9749 7.35" stroke="currentColor" stroke-width="1.5" stroke-linecap="round" stroke-linejoin="round"/>
<path d="M11.8506 14.1752C11.8506 12.8912 10.8094 11.8501 9.52539 11.85C8.24133 11.85 7.2002 12.8911 7.2002 14.1752C7.2003 15.4591 8.24139 16.5004 9.52539 16.5004C10.8093 16.5003 11.8505 15.4591 11.8506 14.1752ZM13.3506 14.1752C13.3505 16.2875 11.6377 18.0003 9.52539 18.0004C7.41296 18.0004 5.7003 16.2876 5.7002 14.1752C5.7002 12.0627 7.4129 10.35 9.52539 10.35C11.6378 10.3501 13.3506 12.0627 13.3506 14.1752Z" fill="currentColor"/>
</svg>
