<svg viewBox="0 0 24 24" fill="none" xmlns="http://www.w3.org/2000/svg">
<path opacity="0.3" d="M22.5 12L21.75 12.75L19.875 13.5L19.125 15.375L20.25 17.625L22.5 18.375V20.25H1.5V10.5H22.5V12ZM7.5752 13.1729C6.24971 13.1729 5.1748 14.2478 5.1748 15.5732C5.17505 16.8985 6.24986 17.9727 7.5752 17.9727C8.90046 17.9726 9.97436 16.8985 9.97461 15.5732C9.97461 14.2478 8.90062 13.1729 7.5752 13.1729ZM15 13.998C14.1302 13.9981 13.4248 14.7034 13.4248 15.5732C13.425 16.4429 14.1303 17.1474 15 17.1475C15.8697 17.1475 16.575 16.4429 16.5752 15.5732C16.5752 14.7034 15.8698 13.998 15 13.998Z" fill="currentColor"/>
<path d="M1.5 10.5H22.5V12L21.75 12.75L19.875 13.5L19.125 15.375L20.25 17.625L22.5 18.375V20.25H1.5V10.5Z" stroke="currentColor" stroke-width="0.75"/>
<path d="M6.6748 9.72266L6.75195 9.72656C7.13001 9.7651 7.4248 10.0844 7.4248 10.4727C7.4248 10.8609 7.13001 11.1802 6.75195 11.2188L6.6748 11.2227H2.25V19.4727H21.9004V18.3477C21.9004 17.9334 22.2362 17.5977 22.6504 17.5977C23.0644 17.5979 23.4004 17.9336 23.4004 18.3477V20.2227C23.4004 20.6367 23.0644 20.9725 22.6504 20.9727H1.5C1.08579 20.9727 0.75 20.6369 0.75 20.2227V10.4727L0.753906 10.3955C0.792528 10.0175 1.11183 9.72266 1.5 9.72266H6.6748Z" fill="currentColor"/>
<path d="M21.9004 12.7227V11.2227H6.4502C6.03598 11.2227 5.7002 10.8869 5.7002 10.4727C5.7002 10.0584 6.03598 9.72266 6.4502 9.72266H22.6504L22.7266 9.72656C23.1049 9.76483 23.4004 10.0842 23.4004 10.4727V12.7227C23.4004 13.1368 23.0645 13.4726 22.6504 13.4727C22.2362 13.4727 21.9004 13.1369 21.9004 12.7227Z" fill="currentColor"/>
<path d="M6.79321 3.91987C8.58953 3.54571 10.4595 3.79296 12.0969 4.62007H12.0979L22.9729 9.79585C23.3466 9.97397 23.5053 10.421 23.3274 10.7949C23.1495 11.1687 22.7023 11.328 22.3284 11.1503L11.4534 5.97456C11.4476 5.97183 11.4414 5.96962 11.4358 5.96675C10.098 5.28679 8.56801 5.08255 7.09887 5.38862C5.62973 5.69469 4.30873 6.49272 3.35375 7.65034C3.35022 7.65461 3.34663 7.65884 3.34301 7.66304C2.66252 8.45098 2.27638 9.45039 2.25024 10.4912C2.23987 10.9052 1.89566 11.2329 1.48168 11.2226C1.06764 11.2122 0.739934 10.8681 0.750236 10.4541C0.784999 9.06628 1.29997 7.73324 2.20727 6.68257C3.37845 5.26879 4.9956 4.29437 6.79321 3.91987Z" fill="currentColor"/>
<path d="M9.2251 15.5731C9.2251 14.662 8.48678 13.9229 7.57568 13.9227C6.66441 13.9227 5.92529 14.6619 5.92529 15.5731C5.92551 16.4842 6.66454 17.2225 7.57568 17.2225C8.48665 17.2223 9.22489 16.4841 9.2251 15.5731ZM10.7251 15.5731C10.7249 17.3125 9.31507 18.7223 7.57568 18.7225C5.83612 18.7225 4.42551 17.3126 4.42529 15.5731C4.42529 13.8334 5.83599 12.4227 7.57568 12.4227C9.3152 12.4229 10.7251 13.8335 10.7251 15.5731Z" fill="currentColor"/>
<path d="M15.8257 15.5729C15.8257 15.1173 15.456 14.7478 15.0005 14.7477C14.5448 14.7477 14.1753 15.1172 14.1753 15.5729C14.1754 16.0284 14.5449 16.3981 15.0005 16.3981C15.456 16.398 15.8256 16.0284 15.8257 15.5729ZM17.3257 15.5729C17.3256 16.8568 16.2844 17.898 15.0005 17.8981C13.7165 17.8981 12.6754 16.8568 12.6753 15.5729C12.6753 14.2888 13.7164 13.2477 15.0005 13.2477C16.2845 13.2478 17.3257 14.2889 17.3257 15.5729Z" fill="currentColor"/>
<path d="M18.5894 15.5348C18.5894 15.013 18.7033 14.4976 18.9224 14.024C19.1415 13.5503 19.4611 13.1296 19.8589 12.7916C20.2567 12.4537 20.7231 12.2057 21.2261 12.066C21.7289 11.9264 22.256 11.8987 22.771 11.983C23.1798 12.05 23.4571 12.4356 23.3901 12.8444C23.323 13.2529 22.9374 13.5295 22.5288 13.4625C22.2284 13.4133 21.9208 13.4299 21.6274 13.5113C21.334 13.5928 21.0617 13.738 20.8296 13.9352C20.5977 14.1323 20.4115 14.3777 20.2837 14.6539C20.156 14.9301 20.0894 15.2305 20.0894 15.5348C20.0894 15.8392 20.1559 16.1403 20.2837 16.4166C20.4115 16.6929 20.5976 16.9383 20.8296 17.1354C21.0616 17.3325 21.3341 17.4767 21.6274 17.5582C21.9208 17.6397 22.2284 17.6572 22.5288 17.608L22.605 17.5992C22.9844 17.5759 23.3272 17.843 23.3901 18.2262C23.4571 18.635 23.1798 19.0205 22.771 19.0875L22.5776 19.1139C22.1248 19.163 21.6661 19.1258 21.2261 19.0035C20.7232 18.8639 20.2567 18.6168 19.8589 18.2789C19.4611 17.941 19.1415 17.5203 18.9224 17.0465C18.7032 16.5728 18.5894 16.0568 18.5894 15.5348Z" fill="currentColor"/>
</svg>
