<svg viewBox="0 0 24 24" fill="none" xmlns="http://www.w3.org/2000/svg">
<path opacity="0.3" d="M5.99978 6C5.99978 6 6.99979 1.99998 11.9998 2C16.5035 2.00002 17.4998 6 17.4998 6C23.4998 6 23.4998 14.5 16.9998 16V22H5.99978L5.99978 16C5.99978 16 1.36916 13.7721 1.49978 11C1.73538 6 5.99978 6 5.99978 6Z" fill="currentColor"/>
<path d="M11.8125 1.5C13.3568 1.5 14.8474 2.06711 16.001 3.09375C16.5625 3.59352 17.0234 4.18623 17.3711 4.83887C18.9154 4.90508 20.2605 5.41676 21.2442 6.34863C22.3049 7.35351 22.8746 8.77971 22.875 10.4541L22.8692 10.7275C22.8124 12.0909 22.3093 13.4009 21.4326 14.4531C20.6162 15.4329 19.5211 16.135 18.2998 16.4707V21.5557C18.2998 21.9699 17.964 22.3057 17.5498 22.3057H6.00002C5.8011 22.3057 5.61039 22.2266 5.46974 22.0859C5.32917 21.9453 5.25002 21.7545 5.25002 21.5557V16.4482C4.05916 16.1047 2.992 15.4126 2.1924 14.4531C1.25725 13.3307 0.746678 11.915 0.750016 10.4541C0.750428 8.77996 1.3204 7.35569 2.36916 6.35156C3.35723 5.40566 4.71065 4.88962 6.2549 4.83594C6.6024 4.18437 7.06325 3.59284 7.62404 3.09375C8.77762 2.06711 10.2683 1.5 11.8125 1.5ZM6.75002 20.8057H16.7998V19.4561H6.75002V20.8057ZM11.8125 3C10.636 3 9.50002 3.4317 8.62111 4.21387C7.75515 4.98454 7.19861 6.04267 7.05177 7.19141C7.0698 7.87471 7.22447 8.54751 7.50783 9.16992C7.67945 9.54687 7.51266 9.99142 7.13576 10.1631C6.75888 10.3347 6.31433 10.1688 6.14259 9.79199C5.76729 8.96765 5.5652 8.07458 5.54982 7.16895C5.54926 7.1358 5.55088 7.10227 5.5547 7.06934C5.58143 6.84056 5.62182 6.61418 5.67287 6.3916C4.72848 6.53018 3.96419 6.90136 3.40627 7.43555C2.693 8.11855 2.25002 9.13109 2.25002 10.4561V10.458C2.24757 11.5668 2.63498 12.6413 3.34474 13.4932C4.05474 14.3452 5.04247 14.9207 6.13381 15.1182C6.49043 15.1828 6.7498 15.4931 6.75002 15.8555V17.9561H16.7998V15.8555C16.8001 15.4415 17.1359 15.1056 17.5498 15.1055H17.5518C18.6191 14.8979 19.5834 14.3294 20.2803 13.4932C20.9901 12.6413 21.3775 11.5668 21.375 10.458V10.4561L21.3701 10.2109C21.3188 9.00587 20.887 8.07707 20.2119 7.4375C19.6579 6.91282 18.8981 6.54423 17.9522 6.39941C18.0024 6.6196 18.0439 6.8431 18.0703 7.06934C18.0744 7.10465 18.0762 7.14025 18.0752 7.17578C18.0509 8.07539 17.8499 8.96238 17.4854 9.78516L16.7998 9.48047L16.1143 9.17676C16.3925 8.54875 16.5471 7.8736 16.5723 7.1875C16.4247 6.04032 15.8689 4.98366 15.0039 4.21387C14.125 3.4317 12.9891 3 11.8125 3ZM17.4854 9.78516C17.3174 10.1635 16.8746 10.3347 16.4961 10.167C16.1174 9.99919 15.9465 9.55546 16.1143 9.17676L17.4854 9.78516Z" fill="currentColor"/>
<path d="M11.0249 18.7059V15.7059C11.0249 15.2917 11.3607 14.9559 11.7749 14.9559C12.1891 14.9559 12.5249 15.2917 12.5249 15.7059V18.7059C12.5249 19.1201 12.1891 19.4559 11.7749 19.4559C11.3607 19.4559 11.0249 19.1201 11.0249 18.7059Z" fill="currentColor"/>
</svg>
