<svg viewBox="0 0 24 24" fill="none" xmlns="http://www.w3.org/2000/svg">
<path opacity="0.3" d="M11.1751 5.02502L18.7501 12.675C17.8912 13.192 16.9023 13.4523 15.9001 13.425C14.4411 13.4252 13.0407 12.8507 12.002 11.8261C10.9633 10.8014 10.3699 9.40896 10.3502 7.95004C10.3352 6.9156 10.6219 5.89918 11.1751 5.02502Z" fill="currentColor"/>
<path opacity="0.3" d="M21.4501 7.94997C21.4548 8.95953 21.1684 9.94904 20.6251 10.8L12.9751 3.14995C13.8543 2.60816 14.8673 2.32246 15.9001 2.32497C17.3789 2.34469 18.7904 2.946 19.8291 3.99876C20.8679 5.05152 21.4502 6.47103 21.4501 7.94997Z" fill="currentColor"/>
<path d="M11.0944 4.27895C11.3213 4.25449 11.547 4.33549 11.7077 4.4977L19.2829 12.1471C19.4448 12.3106 19.5223 12.5399 19.4938 12.7682C19.4652 12.9965 19.3335 13.1994 19.1364 13.318C18.1607 13.9052 17.0382 14.2015 15.9 14.1745V14.1754C14.2439 14.1756 12.6543 13.5231 11.4752 12.36C10.37 11.2697 9.70882 9.81247 9.61196 8.27016L9.60024 7.96059C9.58322 6.78058 9.9095 5.62088 10.5407 4.62368L10.5905 4.55434C10.7144 4.4005 10.8957 4.30051 11.0944 4.27895ZM11.3795 6.29653C11.1875 6.81978 11.0911 7.37633 11.0993 7.93911L11.1002 7.94009L11.109 8.17544C11.1827 9.35077 11.6857 10.4617 12.528 11.2926C13.4263 12.1788 14.6382 12.6756 15.9 12.6754C15.9068 12.6754 15.9138 12.6753 15.9206 12.6754C16.4476 12.6897 16.9701 12.6101 17.4655 12.445L11.3795 6.29653Z" fill="currentColor"/>
<path d="M15.9094 1.57509L16.2229 1.58681C17.784 1.68442 19.2588 2.35394 20.3625 3.47255C21.5387 4.66472 22.1985 6.27153 22.1994 7.94619L22.1965 8.16298C22.1627 9.24136 21.8391 10.2924 21.257 11.204C21.1347 11.3954 20.9321 11.5211 20.7063 11.5458C20.4803 11.5704 20.2556 11.4907 20.0949 11.33L12.4445 3.68056C12.2823 3.51835 12.203 3.29023 12.2297 3.0624C12.2565 2.83477 12.3861 2.63189 12.5813 2.51162C13.5793 1.89661 14.7293 1.57225 15.9016 1.57509H15.9094ZM15.8928 3.07509C15.3295 3.07433 14.773 3.17265 14.2482 3.36318L20.4201 9.53408C20.6061 9.03065 20.7019 8.49585 20.6994 7.954V7.95009L20.6936 7.71083C20.635 6.51605 20.1392 5.38076 19.2951 4.52529C18.3956 3.61368 17.1733 3.09295 15.8928 3.07509Z" fill="currentColor"/>
<path d="M12.0669 1.50004C12.2684 1.49798 12.4624 1.5773 12.6049 1.71977L22.0551 11.17C22.3479 11.4629 22.348 11.9376 22.0551 12.2305L20.1801 14.1055C19.8873 14.3983 19.4125 14.3983 19.1196 14.1055L18.2172 13.2032L10.645 5.5557L9.74459 4.65531C9.45591 4.36664 9.45112 3.90001 9.73385 3.60551L11.5337 1.73051L11.6479 1.63383C11.7702 1.54909 11.9158 1.50166 12.0669 1.50004ZM11.3247 4.1143L11.7075 4.49711L19.2797 12.1446L19.6499 12.5147L20.4643 11.7002L12.0854 3.32133L11.3247 4.1143Z" fill="currentColor"/>
<path d="M11.5448 11.3948C11.8377 11.102 12.3125 11.1019 12.6054 11.3948C12.8981 11.6877 12.8981 12.1625 12.6054 12.4553L2.78017 22.2805C2.4873 22.5733 2.01249 22.5733 1.71962 22.2805C1.42676 21.9877 1.42682 21.5129 1.71962 21.22L11.5448 11.3948Z" fill="currentColor"/>
</svg>
