<svg viewBox="0 0 24 24" fill="none" xmlns="http://www.w3.org/2000/svg">
<path opacity="0.3" d="M11.7 21.9C17.3333 21.9 21.9 17.3333 21.9 11.7C21.9 6.0667 17.3333 1.5 11.7 1.5C6.06668 1.5 1.5 6.0667 1.5 11.7C1.5 17.3333 6.06668 21.9 11.7 21.9Z" fill="currentColor"/>
<path d="M21.1504 11.7002C21.1504 6.48118 16.9192 2.25012 11.7002 2.25C6.48111 2.25 2.25 6.4811 2.25 11.7002C2.2501 16.9192 6.48117 21.1504 11.7002 21.1504C16.9191 21.1503 21.1503 16.9191 21.1504 11.7002ZM22.6504 11.7002C22.6503 17.7476 17.7475 22.6503 11.7002 22.6504C5.65274 22.6504 0.750103 17.7476 0.75 11.7002C0.75 5.65268 5.65268 0.75 11.7002 0.75C17.7476 0.750115 22.6504 5.65275 22.6504 11.7002Z" fill="currentColor"/>
<path d="M15.2251 17.775C16.0535 17.775 16.7251 17.1035 16.7251 16.275C16.7251 15.4466 16.0535 14.775 15.2251 14.775C14.3967 14.775 13.7251 15.4466 13.7251 16.275C13.7251 17.1035 14.3967 17.775 15.2251 17.775Z" fill="currentColor"/>
<path d="M6.5249 14.775C7.35333 14.775 8.0249 14.1035 8.0249 13.275C8.0249 12.4466 7.35333 11.775 6.5249 11.775C5.69648 11.775 5.0249 12.4466 5.0249 13.275C5.0249 14.1035 5.69648 14.775 6.5249 14.775Z" fill="currentColor"/>
<path d="M13.2749 7.5C14.1033 7.5 14.7749 6.82843 14.7749 6C14.7749 5.17157 14.1033 4.5 13.2749 4.5C12.4465 4.5 11.7749 5.17157 11.7749 6C11.7749 6.82843 12.4465 7.5 13.2749 7.5Z" fill="currentColor"/>
<path d="M13.275 12.6001C13.7721 12.6001 14.175 12.1971 14.175 11.7001C14.175 11.203 13.7721 10.8 13.275 10.8C12.778 10.8 12.375 11.203 12.375 11.7001C12.375 12.1971 12.778 12.6001 13.275 12.6001Z" fill="currentColor"/>
<path d="M17.3248 11.0251C17.8219 11.0251 18.2248 10.6221 18.2248 10.1251C18.2248 9.62803 17.8219 9.2251 17.3248 9.2251C16.8278 9.2251 16.4248 9.62803 16.4248 10.1251C16.4248 10.6221 16.8278 11.0251 17.3248 11.0251Z" fill="currentColor"/>
<path d="M9.75011 17.7751C10.2472 17.7751 10.6501 17.3721 10.6501 16.8751C10.6501 16.378 10.2472 15.9751 9.75011 15.9751C9.25305 15.9751 8.8501 16.378 8.8501 16.8751C8.8501 17.3721 9.25305 17.7751 9.75011 17.7751Z" fill="currentColor"/>
<path d="M7.87511 9.3C8.37216 9.3 8.77512 8.89707 8.77512 8.40001C8.77512 7.90295 8.37216 7.5 7.87511 7.5C7.37805 7.5 6.9751 7.90295 6.9751 8.40001C6.9751 8.89707 7.37805 9.3 7.87511 9.3Z" fill="currentColor"/>
</svg>
