<svg viewBox="0 0 24 24" fill="none" xmlns="http://www.w3.org/2000/svg">
<path opacity="0.3" d="M10.05 22.318C14.772 22.318 18.6 18.49 18.6 13.768C18.6 9.04598 14.772 5.21802 10.05 5.21802C5.32797 5.21802 1.5 9.04598 1.5 13.768C1.5 18.49 5.32797 22.318 10.05 22.318Z" fill="currentColor"/>
<path d="M17.8496 13.7679C17.8495 9.46021 14.3576 5.96814 10.0498 5.96814C5.74214 5.96825 2.2501 9.46028 2.25 13.7679C2.25 18.0757 5.74207 21.5676 10.0498 21.5677C14.3576 21.5677 17.8496 18.0758 17.8496 13.7679ZM19.3496 13.7679C19.3496 18.9042 15.1861 23.0677 10.0498 23.0677C4.91365 23.0676 0.75 18.9041 0.75 13.7679C0.750103 8.63185 4.91371 4.46825 10.0498 4.46814C15.186 4.46814 19.3495 8.63178 19.3496 13.7679Z" fill="currentColor"/>
<path d="M21.868 7.28027C21.868 5.94621 21.3377 4.66697 20.3944 3.72363C19.4511 2.78031 18.1718 2.2501 16.8378 2.25C15.5036 2.25 14.2236 2.78022 13.2801 3.72363C12.9873 4.01634 12.5125 4.01634 12.2196 3.72363C11.9268 3.43079 11.9268 2.95599 12.2196 2.66309C13.4443 1.43836 15.1057 0.75 16.8378 0.75C18.5696 0.750103 20.2303 1.43845 21.455 2.66309C22.6796 3.88773 23.368 5.54839 23.368 7.28027C23.368 9.0123 22.6797 10.6737 21.455 11.8984C21.162 12.1912 20.6873 12.1913 20.3944 11.8984C20.1016 11.6056 20.1017 11.1308 20.3944 10.8379C21.3378 9.89447 21.868 8.61447 21.868 7.28027Z" fill="currentColor"/>
<path d="M17.4001 6.26808C17.98 6.26808 18.4501 5.79799 18.4501 5.21809C18.4501 4.63819 17.98 4.16809 17.4001 4.16809C16.8202 4.16809 16.3501 4.63819 16.3501 5.21809C16.3501 5.79799 16.8202 6.26808 17.4001 6.26808Z" fill="currentColor"/>
<path d="M10.05 15.3432C10.6299 15.3432 11.1 14.8731 11.1 14.2932C11.1 13.7133 10.6299 13.2432 10.05 13.2432C9.4701 13.2432 9 13.7133 9 14.2932C9 14.8731 9.4701 15.3432 10.05 15.3432Z" fill="currentColor"/>
<path d="M11.0998 10.3931C11.6797 10.3931 12.1498 9.92299 12.1498 9.34309C12.1498 8.76319 11.6797 8.29309 11.0998 8.29309C10.5199 8.29309 10.0498 8.76319 10.0498 9.34309C10.0498 9.92299 10.5199 10.3931 11.0998 10.3931Z" fill="currentColor"/>
<path d="M14.7751 16.3931C15.355 16.3931 15.8251 15.923 15.8251 15.3431C15.8251 14.7632 15.355 14.2931 14.7751 14.2931C14.1952 14.2931 13.7251 14.7632 13.7251 15.3431C13.7251 15.923 14.1952 16.3931 14.7751 16.3931Z" fill="currentColor"/>
<path d="M7.6501 19.3931C8.23 19.3931 8.7001 18.923 8.7001 18.3431C8.7001 17.7632 8.23 17.2931 7.6501 17.2931C7.0702 17.2931 6.6001 17.7632 6.6001 18.3431C6.6001 18.923 7.0702 19.3931 7.6501 19.3931Z" fill="currentColor"/>
<path d="M6.0002 12.9431C6.58009 12.9431 7.0502 12.473 7.0502 11.8931C7.0502 11.3132 6.58009 10.8431 6.0002 10.8431C5.4203 10.8431 4.9502 11.3132 4.9502 11.8931C4.9502 12.473 5.4203 12.9431 6.0002 12.9431Z" fill="currentColor"/>
</svg>
