<svg viewBox="0 0 24 24" fill="none" xmlns="http://www.w3.org/2000/svg">
<path opacity="0.3" d="M2.33202 13.5938C2.03202 15.7688 2.78202 17.9437 4.20702 20.1187L11.182 13.5938" fill="currentColor"/>
<path opacity="0.3" d="M21.4571 13.5938C21.7571 15.7688 21.0071 17.9437 19.5821 20.1187L12.6821 13.5938" fill="currentColor"/>
<path d="M10.6697 13.0459C10.9721 12.7633 11.4464 12.779 11.7293 13.0811C12.0123 13.3836 11.9966 13.8587 11.6941 14.1416L4.71953 20.6661C4.55797 20.8172 4.33762 20.8895 4.11796 20.8633C3.89817 20.837 3.70119 20.7145 3.57988 20.5293C2.10147 18.2728 1.25447 15.9141 1.58867 13.4913C1.64528 13.0809 2.02405 12.794 2.43437 12.8506C2.84468 12.9072 3.13159 13.286 3.07499 13.6963C2.8417 15.3878 3.31689 17.1284 4.36406 18.9444L10.6697 13.0459Z" fill="currentColor"/>
<path d="M12.1372 13.0781C12.404 12.7961 12.838 12.767 13.1391 12.999L13.1977 13.0488L19.4272 18.9404C20.4728 17.1258 20.9474 15.3865 20.7143 13.6963L22.1997 13.4912C22.5338 15.914 21.6878 18.2728 20.2094 20.5293C20.0877 20.715 19.8899 20.8374 19.6694 20.8633C19.4489 20.8891 19.2282 20.8165 19.0668 20.6641L12.1665 14.1387L12.1137 14.083C11.8654 13.7952 11.8704 13.3602 12.1372 13.0781ZM21.3549 12.8506C21.7651 12.7942 22.143 13.0811 22.1997 13.4912L20.7143 13.6963C20.6577 13.286 20.9446 12.9072 21.3549 12.8506Z" fill="currentColor"/>
<path opacity="0.3" d="M11.9321 13.5937H21.0071C21.214 13.5948 21.4179 13.5456 21.6015 13.4503C21.7851 13.3551 21.9427 13.2166 22.0608 13.0468C22.1789 12.877 22.254 12.681 22.2795 12.4758C22.305 12.2705 22.2801 12.0622 22.2071 11.8687C21.6243 9.98683 20.3696 8.38514 18.6821 7.36865" fill="currentColor"/>
<path opacity="0.3" d="M11.9321 13.5937H2.78206C2.57524 13.5948 2.37124 13.5456 2.18767 13.4503C2.00409 13.3551 1.84646 13.2166 1.72835 13.0468C1.61024 12.877 1.5352 12.681 1.50972 12.4758C1.48423 12.2705 1.50906 12.0622 1.58206 11.8687C2.16489 9.98683 3.41954 8.38514 5.10705 7.36865" fill="currentColor"/>
<path opacity="0.3" d="M11.932 13.5938L18.832 7.21875C18.9338 7.11665 19.0117 6.99324 19.06 6.85741C19.1084 6.72159 19.1261 6.57674 19.1117 6.43327C19.0974 6.28981 19.0514 6.1513 18.9771 6.02774C18.9028 5.90419 18.802 5.79866 18.682 5.71875C14.182 3.09375 9.68196 3.09375 5.10696 5.71875C4.98695 5.79866 4.88617 5.90419 4.81185 6.02774C4.73754 6.1513 4.69155 6.28981 4.6772 6.43327C4.66286 6.57674 4.68051 6.72159 4.72888 6.85741C4.77726 6.99324 4.85516 7.11665 4.95696 7.21875L11.932 13.5938Z" fill="currentColor"/>
<path d="M18.0396 6.98201C18.2399 6.64936 18.6577 6.52776 19.0015 6.69001L19.0688 6.72615L19.4097 6.94197C21.0831 8.05775 22.3259 9.71799 22.9233 11.647H22.9214C23.0254 11.9423 23.0625 12.2569 23.0239 12.5679C22.9834 12.894 22.8638 13.2055 22.6763 13.4752C22.4887 13.7448 22.2383 13.9645 21.9468 14.1158C21.6565 14.2664 21.3343 14.3435 21.0073 14.3424V14.3433H11.9321C11.5179 14.3433 11.1821 14.0075 11.1821 13.5933C11.1823 13.1793 11.5181 12.8433 11.9321 12.8433H21.0112L21.0747 12.8404C21.1378 12.8331 21.1996 12.8142 21.2563 12.7847C21.3317 12.7456 21.3963 12.6884 21.4448 12.6187C21.4935 12.5488 21.5252 12.4679 21.5356 12.3834C21.5461 12.2989 21.5354 12.213 21.5054 12.1334C21.5001 12.1193 21.4952 12.1048 21.4907 12.0904C20.9954 10.4912 19.9649 9.11503 18.5776 8.19001L18.2954 8.0113L18.2319 7.96833C17.9276 7.74041 17.8393 7.31473 18.0396 6.98201Z" fill="currentColor"/>
<path d="M4.788 6.69002C5.13171 6.52798 5.54861 6.64948 5.74893 6.98201C5.96266 7.33682 5.84885 7.79758 5.49405 8.01131L5.21182 8.19002C3.82446 9.11502 2.79412 10.4912 2.29874 12.0904C2.29429 12.1048 2.28939 12.1193 2.28409 12.1334C2.25404 12.213 2.24334 12.2989 2.25382 12.3834C2.26431 12.4679 2.29503 12.5488 2.34366 12.6187C2.3923 12.6887 2.45754 12.7455 2.53311 12.7847C2.60871 12.824 2.69311 12.8438 2.77823 12.8433H11.9316L12.0087 12.8472C12.3868 12.8856 12.6813 13.2052 12.6816 13.5933C12.6816 13.9816 12.3868 14.301 12.0087 14.3394L11.9316 14.3433H2.78214V14.3424C2.45499 14.3435 2.13206 14.2665 1.84171 14.1158C1.55031 13.9645 1.2997 13.7447 1.11221 13.4752C0.924691 13.2056 0.806004 12.8939 0.765534 12.568C0.726966 12.257 0.763153 11.9423 0.867097 11.6471H0.865144C1.50242 9.58943 2.87451 7.83765 4.71964 6.72615L4.788 6.69002Z" fill="currentColor"/>
<path d="M11.9222 3C14.1832 3 16.4156 3.61715 18.6195 4.82227L19.0599 5.07129L19.098 5.09473C19.3101 5.23605 19.4881 5.42312 19.6195 5.6416C19.7509 5.8601 19.8324 6.1048 19.8578 6.3584C19.8831 6.61223 19.8516 6.86908 19.766 7.10938C19.6804 7.34947 19.5427 7.5675 19.3626 7.74805C19.3555 7.75521 19.3486 7.76266 19.3412 7.76953L12.4408 14.1445C12.1546 14.4089 11.7138 14.4102 11.4261 14.1475L4.45054 7.77246C4.44204 7.76469 4.43425 7.7562 4.42612 7.74805C4.24601 7.56743 4.10741 7.34959 4.02182 7.10938C3.93624 6.86908 3.90562 6.61223 3.931 6.3584C3.95641 6.10475 4.03792 5.86008 4.16929 5.6416C4.3007 5.42312 4.47861 5.23608 4.69077 5.09473L4.73374 5.06836C7.1153 3.7019 9.51125 3.00004 11.9222 3ZM11.9222 4.5C9.82551 4.50004 7.69539 5.10436 5.51401 6.34961C5.49023 6.36714 5.46972 6.38872 5.45444 6.41406C5.43731 6.44255 5.42651 6.47473 5.42319 6.50781C5.4199 6.54078 5.42385 6.57423 5.43491 6.60547C5.445 6.6338 5.46157 6.65954 5.48179 6.68164L11.9291 12.5752L18.305 6.68359C18.3261 6.66107 18.3435 6.63464 18.3539 6.60547C18.3649 6.57424 18.3689 6.54076 18.3656 6.50781C18.3623 6.47468 18.3514 6.44252 18.3343 6.41406C18.3186 6.38796 18.2975 6.36546 18.2728 6.34766C16.1303 5.10391 14.0191 4.5 11.9222 4.5Z" fill="currentColor"/>
</svg>
