<svg viewBox="0 0 24 24" fill="none" xmlns="http://www.w3.org/2000/svg">
<path opacity="0.3" d="M19.7999 11.325L19.1249 17.775H5.3999L4.6499 11.325H5.7749L5.54991 6.97498H18.7499L18.5249 11.325H19.7999Z" fill="currentColor"/>
<path opacity="0.3" d="M18.2252 17.775L18.0002 22.2H6.30021L6.0752 17.775H18.2252Z" fill="currentColor"/>
<path d="M18.7496 6.22498C18.9552 6.22498 19.152 6.3094 19.2936 6.45837C19.4352 6.60749 19.5093 6.80868 19.4987 7.01404L19.3151 10.5746H19.8004C20.0126 10.5747 20.2149 10.665 20.3571 10.8226C20.4992 10.9804 20.5676 11.1915 20.5455 11.4027L19.8707 17.8529C19.8308 18.2348 19.5086 18.5248 19.1246 18.5248H5.40003C5.01935 18.5248 4.69891 18.2398 4.65491 17.8617L3.90491 11.4115C3.88025 11.1991 3.94743 10.9863 4.08948 10.8265C4.23179 10.6667 4.43603 10.5746 4.65003 10.5746H4.98499L4.80139 7.01404C4.79077 6.80868 4.86487 6.60749 5.00647 6.45837C5.14806 6.3094 5.34488 6.22498 5.55042 6.22498H18.7496ZM6.52405 11.2865C6.53459 11.4917 6.46041 11.6922 6.31897 11.8412C6.17737 11.9903 5.98066 12.0746 5.77503 12.0746H5.4928L6.068 17.0248H18.4498L18.9674 12.0746H18.525C18.3194 12.0746 18.1227 11.9903 17.9811 11.8412C17.8396 11.6922 17.7655 11.4917 17.776 11.2865L17.9596 7.72498H6.34046L6.52405 11.2865Z" fill="currentColor"/>
<path d="M18.2256 17.025C18.4309 17.0251 18.6271 17.1096 18.7685 17.2584C18.9101 17.4074 18.985 17.6079 18.9746 17.8131L18.749 22.2379C18.7287 22.6368 18.3994 22.9498 18 22.9498H6.2998C5.90057 22.9496 5.57105 22.6367 5.55077 22.2379L5.32617 17.8131C5.31573 17.6079 5.38978 17.4074 5.53124 17.2584C5.67283 17.1095 5.86967 17.025 6.07519 17.025H18.2256ZM7.01269 21.4498H17.2871L17.4365 18.525H6.86425L7.01269 21.4498Z" fill="currentColor"/>
<path d="M16.6504 1.5L16.7627 1.50879C17.0206 1.54793 17.2428 1.71942 17.3438 1.96582L17.8291 3.15039H21.2998C21.714 3.15039 22.0498 3.48618 22.0498 3.90039V6.97461C22.0498 7.38882 21.714 7.72461 21.2998 7.72461H3C2.58579 7.72461 2.25 7.38882 2.25 6.97461V3.90039C2.25 3.48618 2.58579 3.15039 3 3.15039H6.5459L7.03125 1.96582L7.08105 1.86523C7.21488 1.64114 7.4582 1.50014 7.72461 1.5H16.6504ZM7.74414 4.18359C7.62883 4.46546 7.35435 4.65039 7.0498 4.65039H3.75V6.22461H20.5498V4.65039H17.3252C17.0207 4.65039 16.7462 4.46546 16.6309 4.18359L16.1465 3H8.22852L7.74414 4.18359Z" fill="currentColor"/>
<path d="M18.5249 10.575C18.9391 10.575 19.2749 10.9107 19.2749 11.325C19.2749 11.7392 18.9391 12.075 18.5249 12.075H5.7749C5.36069 12.075 5.0249 11.7392 5.0249 11.325C5.0249 10.9107 5.36069 10.575 5.7749 10.575H18.5249Z" fill="currentColor"/>
</svg>
