<svg viewBox="0 0 24 24" fill="none" xmlns="http://www.w3.org/2000/svg">
<path opacity="0.3" d="M17.9248 17.0996C17.9248 18.3528 17.4271 19.5553 16.541 20.4414C15.655 21.3273 14.4532 21.8251 13.2002 21.8252H7.0498C5.79682 21.8251 4.59503 21.3273 3.70898 20.4414C2.82287 19.5553 2.3252 18.3528 2.3252 17.0996V9.52539H17.9248V17.0996ZM9.15039 17.7002H13.875V12.9746H9.15039V17.7002Z" fill="currentColor"/>
<path d="M17.1748 10.275H3.0752V17.1002C3.07525 18.1544 3.49385 19.1654 4.23926 19.9108C4.98468 20.6562 5.99566 21.0748 7.0498 21.0748H13.2002C14.2543 21.0748 15.2653 20.6562 16.0107 19.9108C16.7561 19.1654 17.1747 18.1544 17.1748 17.1002V10.275ZM18.6748 17.1002C18.6747 18.5522 18.098 19.9446 17.0713 20.9713C16.0446 21.998 14.6522 22.5748 13.2002 22.5748H7.0498C5.5978 22.5748 4.20542 21.998 3.17871 20.9713C2.152 19.9446 1.57525 18.5522 1.5752 17.1002V9.84729C1.52836 9.7494 1.5 9.64078 1.5 9.52502C1.5 9.11081 1.83579 8.77502 2.25 8.77502H17.9248C18.339 8.77502 18.6748 9.11081 18.6748 9.52502V17.1002Z" fill="currentColor"/>
<path d="M4.7251 5.92542V3.15002C4.7251 2.73581 5.06088 2.40002 5.4751 2.40002C5.88931 2.40002 6.2251 2.73581 6.2251 3.15002V5.92542C6.22489 6.33945 5.88918 6.67542 5.4751 6.67542C5.06101 6.67542 4.7253 6.33945 4.7251 5.92542Z" fill="currentColor"/>
<path d="M13.9502 5.99988V3.07507C13.9502 2.66086 14.286 2.32507 14.7002 2.32507C15.1144 2.32507 15.4502 2.66086 15.4502 3.07507V5.99988C15.4502 6.41409 15.1144 6.74988 14.7002 6.74988C14.286 6.74988 13.9502 6.41409 13.9502 5.99988Z" fill="currentColor"/>
<path d="M9.30029 4.875V2.25C9.30029 1.83579 9.63608 1.5 10.0503 1.5C10.4645 1.5 10.8003 1.83579 10.8003 2.25V4.875C10.8003 5.28921 10.4645 5.625 10.0503 5.625C9.63608 5.625 9.30029 5.28921 9.30029 4.875Z" fill="currentColor"/>
<path d="M21.2246 11.925H18.6748V16.2747H19.125C19.6817 16.2746 20.2156 16.0539 20.6094 15.6604C21.0032 15.2666 21.2246 14.732 21.2246 14.175V11.925ZM22.7246 14.175C22.7246 15.1298 22.3451 16.0458 21.6699 16.7209C20.9949 17.3958 20.0795 17.7746 19.125 17.7747H17.9248C17.5106 17.7747 17.1748 17.4389 17.1748 17.0247V11.175L17.1787 11.0979C17.2173 10.7199 17.5366 10.425 17.9248 10.425H21.9746C22.3888 10.425 22.7246 10.7608 22.7246 11.175V14.175Z" fill="currentColor"/>
<path d="M13.8745 12.225L13.9517 12.2289C14.3298 12.2673 14.6245 12.5867 14.6245 12.975V17.6996C14.6245 18.1138 14.2887 18.4496 13.8745 18.4496H9.1499C8.73569 18.4496 8.3999 18.1138 8.3999 17.6996V12.975L8.40381 12.8978C8.44243 12.5199 8.76174 12.225 9.1499 12.225H13.8745ZM9.8999 16.9496H13.1245V13.725H9.8999V16.9496Z" fill="currentColor"/>
<path d="M10.7251 12.9752V9.52502C10.7251 9.11081 11.0609 8.77502 11.4751 8.77502C11.8893 8.77502 12.2251 9.11081 12.2251 9.52502V12.9752C12.225 13.3893 11.8892 13.7252 11.4751 13.7252C11.061 13.7252 10.7252 13.3893 10.7251 12.9752Z" fill="currentColor"/>
</svg>
