<svg viewBox="0 0 24 24" fill="none" xmlns="http://www.w3.org/2000/svg">
<path opacity="0.3" d="M3 8.47498H17.7V18.075C17.7 19.0894 17.297 20.0623 16.5797 20.7797C15.8623 21.497 14.8895 21.9 13.875 21.9H6.90001C5.88556 21.9 4.91264 21.497 4.19531 20.7797C3.47799 20.0623 3.075 19.0894 3.075 18.075V8.47498H3Z" fill="currentColor"/>
<path d="M16.9502 9.22498H3.8252V18.0746C3.8252 18.8901 4.14892 19.6727 4.72559 20.2494C5.30226 20.8261 6.08484 21.1498 6.90039 21.1498H13.875C14.6905 21.1498 15.4731 20.8261 16.0498 20.2494C16.6264 19.6727 16.9502 18.89 16.9502 18.0746V9.22498ZM18.4443 18.3021C18.3882 19.4327 17.9145 20.5057 17.1104 21.3099C16.2524 22.1679 15.0884 22.6498 13.875 22.6498H6.90039C5.68703 22.6498 4.52302 22.1679 3.66504 21.3099C2.80706 20.452 2.3252 19.2879 2.3252 18.0746V8.79724C2.27836 8.69935 2.25 8.59074 2.25 8.47498C2.25 8.06076 2.58579 7.72498 3 7.72498H17.7002L17.7764 7.72888C18.1547 7.76714 18.4502 8.08654 18.4502 8.47498V18.0746L18.4443 18.3021Z" fill="currentColor"/>
<path d="M4.6499 5.92529V3.1499C4.6499 2.73569 4.98569 2.3999 5.3999 2.3999C5.81412 2.3999 6.1499 2.73569 6.1499 3.1499V5.92529C6.1497 6.33933 5.81399 6.67529 5.3999 6.67529C4.98582 6.67529 4.65011 6.33933 4.6499 5.92529Z" fill="currentColor"/>
<path d="M13.7998 5.92456V3.07495C13.7998 2.66074 14.1356 2.32495 14.5498 2.32495C14.964 2.32495 15.2998 2.66074 15.2998 3.07495V5.92456C15.2998 6.33877 14.964 6.67456 14.5498 6.67456C14.1356 6.67456 13.7998 6.33877 13.7998 5.92456Z" fill="currentColor"/>
<path d="M9.2251 4.875V2.25C9.2251 1.83579 9.56088 1.5 9.9751 1.5C10.3893 1.5 10.7251 1.83579 10.7251 2.25V4.875C10.7251 5.28921 10.3893 5.625 9.9751 5.625C9.56088 5.625 9.2251 5.28921 9.2251 4.875Z" fill="currentColor"/>
<path d="M21 12H18.75V16.5H18.8828C19.4565 16.4999 19.9992 16.2832 20.3936 15.9092C20.7866 15.5362 20.9999 15.0389 21 14.5293V12ZM22.5 14.5293C22.4999 15.4627 22.109 16.3496 21.4268 16.9971C20.7458 17.6432 19.8298 17.9999 18.8828 18H18C17.5858 18 17.25 17.6642 17.25 17.25V11.25L17.2539 11.1729C17.2925 10.7949 17.6118 10.5 18 10.5H21.75L21.8271 10.5039C22.2051 10.5425 22.5 10.8618 22.5 11.25V14.5293Z" fill="currentColor"/>
</svg>
