<svg viewBox="0 0 24 24" fill="none" xmlns="http://www.w3.org/2000/svg">
<path opacity="0.3" d="M5.69999 7.02199H3.67498C3.40292 7.04236 3.12956 7.00755 2.87128 6.91964C2.61301 6.83172 2.37519 6.69252 2.17205 6.5104C1.96891 6.32827 1.80464 6.10698 1.68915 5.8598C1.57367 5.61262 1.50935 5.34466 1.50001 5.07199C1.49865 4.54008 1.69919 4.02746 2.06113 3.63768C2.42308 3.24789 2.91943 3.00999 3.44999 2.972L15.45 1.547C15.8754 1.47268 16.3116 1.48662 16.7314 1.58797C17.1512 1.68933 17.5457 1.87592 17.8903 2.13617C18.235 2.39641 18.5224 2.72474 18.7348 3.10077C18.9472 3.47679 19.08 3.89247 19.125 4.32199C19.1475 4.88471 19.0028 5.4415 18.7091 5.92203C18.4155 6.40257 17.986 6.78532 17.475 7.02199" fill="currentColor"/>
<path d="M15.3614 0.802681C15.8754 0.718419 16.4008 0.737042 16.9073 0.859322C17.4271 0.984801 17.9152 1.21587 18.3419 1.53803C18.7685 1.86015 19.1249 2.26602 19.3878 2.73139C19.6178 3.13861 19.7724 3.58388 19.8448 4.04487L19.8712 4.24409L19.8741 4.29194C19.9026 5.00274 19.7197 5.70643 19.3487 6.31342C18.9778 6.9202 18.4355 7.40322 17.7902 7.7021L17.7189 7.73139C17.3596 7.85531 16.9582 7.68915 16.795 7.33686C16.621 6.96101 16.7844 6.51581 17.1603 6.34174L17.298 6.27143C17.6139 6.0958 17.8801 5.84107 18.0695 5.5312C18.2808 5.18534 18.3867 4.78558 18.3761 4.38081C18.3399 4.06051 18.2407 3.7505 18.0821 3.46967C17.9203 3.18317 17.7012 2.9326 17.4386 2.73432C17.1761 2.53614 16.8755 2.39456 16.5558 2.31733C16.2359 2.24011 15.9034 2.22945 15.5792 2.28608C15.5657 2.28843 15.5518 2.29033 15.5382 2.29194L3.5382 3.71674C3.52684 3.71809 3.51543 3.71885 3.50402 3.71967C3.16295 3.7441 2.84314 3.89781 2.61047 4.14838C2.38174 4.39491 2.25332 4.71776 2.25011 5.05366C2.25689 5.22265 2.29677 5.38872 2.36828 5.54194C2.44097 5.69753 2.54503 5.83739 2.67297 5.9521C2.80085 6.06671 2.95088 6.15459 3.11339 6.20991C3.27589 6.26516 3.44808 6.28718 3.61925 6.27436L3.67492 6.27241H5.70031L5.77648 6.27534C6.15484 6.31358 6.45031 6.63396 6.45031 7.02241C6.45007 7.41064 6.15469 7.73027 5.77648 7.7685L5.70031 7.77241H3.67492V7.77045C3.32076 7.78978 2.96612 7.7442 2.63 7.62983C2.27605 7.50935 1.95033 7.31785 1.67199 7.06831C1.39377 6.81887 1.16814 6.51628 1.00988 6.17768C0.851605 5.83892 0.762916 5.47121 0.750114 5.0976C0.749847 5.0898 0.750137 5.08197 0.750114 5.07417C0.74827 4.35228 1.02062 3.65589 1.51183 3.1269C1.99501 2.6067 2.65479 2.28688 3.36144 2.22749L15.3614 0.801705V0.802681Z" fill="currentColor"/>
<path d="M20.8568 3.11852C21.6068 3.20782 22.302 3.55761 22.8206 4.10681C23.105 4.40797 23.0915 4.88298 22.7904 5.16735C22.4892 5.45171 22.0142 5.43822 21.7298 5.13708C21.4525 4.84337 21.0811 4.65561 20.68 4.60778C20.2788 4.56002 19.8731 4.65491 19.5345 4.87536C19.1874 5.10133 18.7225 5.00361 18.4964 4.65661C18.2704 4.30949 18.3691 3.84453 18.7162 3.61852C19.3492 3.2064 20.1067 3.02928 20.8568 3.11852Z" fill="currentColor"/>
<path d="M12.2255 12.1221L12.368 12.1357C12.6921 12.1984 12.9445 12.4702 12.9725 12.8105L13.6473 21.0605L13.6503 21.1221C13.6503 21.7387 13.4046 22.3296 12.9686 22.7656C12.5326 23.2016 11.9416 23.4463 11.3251 23.4463C11.0203 23.4466 10.7187 23.3855 10.4384 23.2656C10.1579 23.1456 9.9046 22.9699 9.69421 22.749C9.48382 22.5281 9.31998 22.2665 9.21374 21.9805C9.10757 21.6945 9.06084 21.3897 9.07605 21.085L9.07702 21.0605L9.7528 12.8105L9.77819 12.6699C9.86702 12.3518 10.1582 12.1221 10.4999 12.1221H12.2255ZM10.5741 21.1592V21.2354C10.578 21.3113 10.5934 21.3864 10.62 21.458C10.6554 21.5533 10.71 21.6402 10.7801 21.7139C10.8503 21.7876 10.9347 21.8467 11.0282 21.8867C11.1217 21.9267 11.2224 21.9474 11.3241 21.9473H11.3251L11.4061 21.9434C11.5952 21.9247 11.7726 21.8405 11.9081 21.7051C12.0573 21.5559 12.1423 21.3557 12.1483 21.1455L11.5341 13.6221H11.1913L10.5741 21.1592Z" fill="currentColor"/>
<path d="M8.13296 9.13082C8.51635 9.07039 8.87771 9.31236 8.97475 9.67965L8.99135 9.75485L9.03237 9.95797C9.14925 10.4248 9.40907 10.8462 9.77749 11.1611C10.1984 11.5206 10.7337 11.7186 11.2873 11.7187C11.841 11.7187 12.377 11.5208 12.798 11.1611C13.219 10.8012 13.4979 10.302 13.5841 9.75485L13.5998 9.67965C13.6967 9.31238 14.0582 9.07061 14.4415 9.13082C14.8507 9.19532 15.1301 9.58006 15.0656 9.98922L15.0353 10.1562C14.8655 10.9903 14.4221 11.7456 13.7726 12.3007C13.0799 12.8928 12.1985 13.2187 11.2873 13.2187C10.3762 13.2186 9.49543 12.8926 8.80288 12.3007C8.15337 11.7456 7.70896 10.9903 7.53921 10.1562L7.50893 9.98922L7.50112 9.91207C7.48039 9.53278 7.74968 9.19142 8.13296 9.13082Z" fill="currentColor"/>
<path d="M7.5 9.87183V5.82202C7.5 5.40781 7.83579 5.07202 8.25 5.07202C8.66421 5.07202 9 5.40781 9 5.82202V9.87183C9 10.286 8.66421 10.6218 8.25 10.6218C7.83579 10.6218 7.5 10.286 7.5 9.87183Z" fill="currentColor"/>
<path d="M10.5752 9.72241V5.82202C10.5752 5.40781 10.911 5.07202 11.3252 5.07202C11.7394 5.07202 12.0752 5.40781 12.0752 5.82202V9.72241C12.075 10.1365 11.7393 10.4724 11.3252 10.4724C10.9111 10.4724 10.5754 10.1365 10.5752 9.72241Z" fill="currentColor"/>
<path d="M13.5752 9.87183V5.82202C13.5752 5.40781 13.911 5.07202 14.3252 5.07202C14.7394 5.07202 15.0752 5.40781 15.0752 5.82202V9.87183C15.0752 10.286 14.7394 10.6218 14.3252 10.6218C13.911 10.6218 13.5752 10.286 13.5752 9.87183Z" fill="currentColor"/>
</svg>
