<svg viewBox="0 0 24 24" fill="none" xmlns="http://www.w3.org/2000/svg">
<path opacity="0.3" d="M15.2246 14.25H19.4996V20.025C19.4996 20.582 19.2783 21.1161 18.8845 21.5099C18.4907 21.9038 17.9566 22.125 17.3996 22.125C16.8427 22.125 16.3085 21.9038 15.9147 21.5099C15.5209 21.1161 15.2996 20.582 15.2996 20.025V14.25H15.2246Z" fill="currentColor"/>
<path d="M21.2246 0.75C21.6388 0.75 21.9746 1.08579 21.9746 1.5V8.94727C21.9746 9.36148 21.6388 9.69727 21.2246 9.69727H13.4248C13.0106 9.69727 12.6748 9.36148 12.6748 8.94727V1.5L12.6787 1.42285C12.7173 1.04488 13.0366 0.75 13.4248 0.75H21.2246ZM14.1748 8.19727H20.4746V2.25H14.1748V8.19727Z" fill="currentColor"/>
<path d="M18.75 15H16.0498V20.0254C16.0499 20.3833 16.1922 20.7264 16.4453 20.9795C16.6984 21.2326 17.0415 21.3749 17.3994 21.375C17.7574 21.375 18.1013 21.2327 18.3545 20.9795C18.6075 20.7264 18.7499 20.3832 18.75 20.0254V15ZM20.25 20.0254C20.2499 20.781 19.9493 21.5057 19.415 22.04C18.8806 22.5745 18.1553 22.875 17.3994 22.875C16.6437 22.8749 15.9192 22.5744 15.3848 22.04C14.8504 21.5056 14.5499 20.7811 14.5498 20.0254V14.5723C14.503 14.4744 14.4746 14.3658 14.4746 14.25C14.4746 13.8358 14.8104 13.5 15.2246 13.5H19.5C19.914 13.5002 20.25 13.8359 20.25 14.25V20.0254Z" fill="currentColor"/>
<path d="M16.5747 14.25V1.5C16.5747 1.08579 16.9105 0.75 17.3247 0.75C17.7389 0.75 18.0747 1.08579 18.0747 1.5V14.25C18.0747 14.6642 17.7389 15 17.3247 15C16.9105 15 16.5747 14.6642 16.5747 14.25Z" fill="currentColor"/>
<path opacity="0.3" d="M3.8252 14.25H8.1002V20.025C8.1002 20.582 7.87898 21.1161 7.48515 21.5099C7.09133 21.9038 6.55717 22.125 6.00021 22.125C5.44326 22.125 4.9091 21.9038 4.51527 21.5099C4.12145 21.1161 3.90022 20.582 3.90022 20.025V14.25H3.8252Z" fill="currentColor"/>
<path d="M7.35059 15H4.65039V20.0254C4.65049 20.3833 4.79283 20.7264 5.0459 20.9795C5.29901 21.2326 5.64207 21.3749 6 21.375C6.35805 21.375 6.70191 21.2327 6.95508 20.9795C7.20804 20.7264 7.35048 20.3832 7.35059 20.0254V15ZM8.85059 20.0254C8.85048 20.781 8.54992 21.5057 8.01562 22.04C7.48114 22.5745 6.75586 22.875 6 22.875C5.24426 22.8749 4.51978 22.5744 3.98535 22.04C3.45095 21.5056 3.15049 20.7811 3.15039 20.0254V14.5723C3.10356 14.4744 3.0752 14.3658 3.0752 14.25C3.0752 13.8358 3.41098 13.5 3.8252 13.5H8.10059C8.51462 13.5002 8.85059 13.8359 8.85059 14.25V20.0254Z" fill="currentColor"/>
<path d="M5.3252 14.2504V9.22498C5.3252 8.81076 5.66098 8.47498 6.0752 8.47498C6.48941 8.47498 6.8252 8.81076 6.8252 9.22498V14.2504C6.82498 14.6644 6.48928 15.0004 6.0752 15.0004C5.66111 15.0004 5.32541 14.6644 5.3252 14.2504Z" fill="currentColor"/>
<path d="M8.09961 1.5C8.09961 1.08591 8.43557 0.750206 8.84961 0.75C9.26382 0.75 9.59961 1.08579 9.59961 1.5V6.16309C9.58929 6.58978 9.50316 7.01177 9.34473 7.40918C9.16366 7.86332 8.89256 8.27639 8.54688 8.62207C8.20116 8.96776 7.78809 9.23888 7.33398 9.41992C6.87995 9.60091 6.39391 9.68781 5.90527 9.6748V9.67383C4.93774 9.66864 4.01071 9.28318 3.32617 8.59863C2.63703 7.90944 2.25 6.97462 2.25 6V1.5C2.25 1.08579 2.58579 0.75 3 0.75C3.41421 0.75 3.75 1.08579 3.75 1.5V6C3.75 6.57681 3.97889 7.13021 4.38672 7.53809C4.79456 7.94592 5.34803 8.17475 5.9248 8.1748C5.93147 8.1748 5.93865 8.17463 5.94531 8.1748C6.23024 8.18237 6.51352 8.13191 6.77832 8.02637C7.04326 7.92074 7.28467 7.76221 7.48633 7.56055C7.68782 7.35894 7.8466 7.11826 7.95215 6.85352C8.05767 6.5887 8.10819 6.30455 8.10059 6.01953C8.10042 6.01302 8.09961 6.00651 8.09961 6V1.5Z" fill="currentColor"/>
</svg>
