<svg viewBox="0 0 24 24" fill="none" xmlns="http://www.w3.org/2000/svg">
<path opacity="0.3" d="M16.7998 15.075H19.7248V21.3749C19.7248 21.7529 19.5747 22.1153 19.3074 22.3826C19.0402 22.6498 18.6777 22.7999 18.2998 22.7999H18.2248C17.8469 22.7999 17.4844 22.6498 17.2172 22.3826C16.95 22.1153 16.7998 21.7529 16.7998 21.3749V15.075Z" fill="currentColor"/>
<path d="M19.8013 0.753906C20.1795 0.792256 20.4751 1.11163 20.4751 1.5V15.1504C20.4749 15.5643 20.139 15.9002 19.7251 15.9004H14.6997C14.2856 15.9004 13.9499 15.5644 13.9497 15.1504V6.52539C13.9497 4.99377 14.5581 3.52443 15.6411 2.44141C16.7241 1.35838 18.1935 0.75 19.7251 0.75L19.8013 0.753906ZM15.4497 14.4004H18.9751V2.31738C18.1198 2.46976 17.3244 2.87924 16.7017 3.50195C15.8999 4.30367 15.4497 5.39158 15.4497 6.52539V14.4004Z" fill="currentColor"/>
<path d="M18.9746 15.825H17.5498V21.3748L17.5625 21.5076C17.5884 21.6371 17.6523 21.7574 17.7471 21.8523C17.8736 21.9788 18.0457 22.0495 18.2246 22.0496H18.2998C18.4788 22.0496 18.6508 21.9789 18.7773 21.8523C18.9039 21.7257 18.9746 21.5537 18.9746 21.3748V15.825ZM20.4746 21.3748C20.4746 21.9516 20.2457 22.505 19.8379 22.9128C19.43 23.3207 18.8766 23.5496 18.2998 23.5496H18.2246C17.6479 23.5495 17.0944 23.3207 16.6865 22.9128C16.3297 22.5559 16.1099 22.0875 16.0605 21.5896L16.0498 21.3748V15.075L16.0537 14.9978C16.0923 14.6198 16.4116 14.325 16.7998 14.325H19.7246L19.8018 14.3289C20.1798 14.3674 20.4746 14.6867 20.4746 15.075V21.3748Z" fill="currentColor"/>
<path opacity="0.3" d="M7.20009 22.7999C6.74259 22.7999 6.30383 22.6182 5.98033 22.2947C5.65683 21.9712 5.4751 21.5324 5.4751 21.075L6.2251 11.7H8.25008L9.00008 21.075C9.0003 21.3079 8.95334 21.5385 8.862 21.7529C8.77066 21.9672 8.63683 22.1608 8.46862 22.322C8.30041 22.4832 8.1013 22.6087 7.88328 22.6908C7.66526 22.773 7.43285 22.8101 7.20009 22.7999Z" fill="currentColor"/>
<path d="M8.25049 10.95L8.39307 10.9636C8.71779 11.0264 8.97027 11.2993 8.99756 11.6404L9.74756 21.0154L9.75049 21.074C9.7508 21.4081 9.68322 21.7392 9.55225 22.0466C9.42125 22.354 9.22895 22.6318 8.98779 22.863C8.74653 23.0942 8.46064 23.2745 8.14795 23.3923C7.84516 23.5064 7.52287 23.5584 7.19971 23.5486V23.5496C7.19808 23.5496 7.19645 23.5486 7.19482 23.5486C7.18573 23.5483 7.17657 23.55 7.16748 23.5496V23.5476C6.52288 23.5391 5.90617 23.2814 5.44971 22.825C4.98567 22.3608 4.7251 21.7313 4.7251 21.075C4.7251 21.0551 4.72547 21.0352 4.72705 21.0154L5.47705 11.6404L5.50244 11.4988C5.59089 11.1801 5.88288 10.95 6.2251 10.95H8.25049ZM6.22607 21.0964C6.2316 21.3472 6.3326 21.5867 6.51025 21.7644C6.67032 21.9245 6.88068 22.0236 7.104 22.0457L7.19971 22.0496L7.23291 22.0505C7.36435 22.0562 7.49556 22.0354 7.61865 21.989C7.74177 21.9426 7.85468 21.872 7.94971 21.781C8.0448 21.6899 8.12075 21.5799 8.17236 21.4587C8.22121 21.3441 8.246 21.221 8.24854 21.0964L7.55811 12.45H6.91748L6.22607 21.0964Z" fill="currentColor"/>
<path d="M10.5751 7.57495L10.6561 7.57983C10.8437 7.60027 11.0178 7.69044 11.1424 7.83472C11.2849 7.99993 11.3483 8.21951 11.3163 8.4353C11.1682 9.43121 10.6676 10.3413 9.90513 10.9988C9.14263 11.6562 8.16877 12.0173 7.16197 12.0173C6.15537 12.0172 5.18217 11.6561 4.41978 10.9988C3.70489 10.3823 3.21971 9.54386 3.0399 8.62085L3.00767 8.4353C2.97559 8.21951 3.03903 7.99993 3.1815 7.83472C3.32397 7.66954 3.53173 7.57495 3.74986 7.57495H10.5751ZM4.77525 9.07495C4.93151 9.37162 5.14133 9.63961 5.39927 9.86206C5.88937 10.2847 6.51482 10.5172 7.16197 10.5173C7.80926 10.5173 8.43544 10.2848 8.92564 9.86206C9.18356 9.63961 9.39343 9.37161 9.54966 9.07495H4.77525Z" fill="currentColor"/>
<path d="M3 8.32458V2.09998C3 1.68576 3.33579 1.34998 3.75 1.34998C4.16421 1.34998 4.5 1.68576 4.5 2.09998V8.32458C4.5 8.7388 4.16421 9.07458 3.75 9.07458C3.33579 9.07458 3 8.7388 3 8.32458Z" fill="currentColor"/>
<path d="M6.375 8.17517V2.09998C6.375 1.68576 6.71079 1.34998 7.125 1.34998C7.53921 1.34998 7.875 1.68576 7.875 2.09998V8.17517C7.8749 8.5893 7.53915 8.92517 7.125 8.92517C6.71085 8.92517 6.3751 8.5893 6.375 8.17517Z" fill="currentColor"/>
<path d="M9.82471 8.32458V2.09998C9.82471 1.68576 10.1605 1.34998 10.5747 1.34998C10.9889 1.34998 11.3247 1.68576 11.3247 2.09998V8.32458C11.3247 8.7388 10.9889 9.07458 10.5747 9.07458C10.1605 9.07458 9.82471 8.7388 9.82471 8.32458Z" fill="currentColor"/>
</svg>
