<svg viewBox="0 0 24 24" fill="none" xmlns="http://www.w3.org/2000/svg">
<path opacity="0.3" d="M6.975 22.5C6.5175 22.5 6.07873 22.3183 5.75523 21.9948C5.43173 21.6713 5.25 21.2325 5.25 20.775L6 11.4H8.025L8.775 20.775C8.77522 21.008 8.72824 21.2386 8.6369 21.4529C8.54556 21.6673 8.41174 21.8609 8.24353 22.0221C8.07532 22.1833 7.8762 22.3087 7.65818 22.3909C7.44016 22.473 7.20776 22.5101 6.975 22.5Z" fill="currentColor"/>
<path d="M8.02539 10.65L8.16797 10.6637C8.4927 10.7265 8.74517 10.9994 8.77246 11.3405L9.52246 20.7155L9.52539 20.774C9.52571 21.1082 9.45811 21.4393 9.32715 21.7467C9.19616 22.0541 9.00387 22.3319 8.7627 22.5631C8.52143 22.7943 8.23553 22.9746 7.92285 23.0924C7.62007 23.2065 7.29778 23.2585 6.97461 23.2487V23.2496C6.97298 23.2496 6.97135 23.2487 6.96973 23.2487C6.96064 23.2484 6.95147 23.25 6.94238 23.2496V23.2477C6.29779 23.2392 5.68107 22.9815 5.22461 22.525C4.76057 22.0609 4.5 21.4313 4.5 20.775C4.5 20.7552 4.50038 20.7353 4.50195 20.7155L5.25195 11.3405L5.27734 11.1989C5.36579 10.8801 5.65778 10.65 6 10.65H8.02539ZM6.00098 20.7965C6.0065 21.0472 6.1075 21.2867 6.28516 21.4645C6.44522 21.6245 6.65558 21.7236 6.87891 21.7457L6.97461 21.7496L7.00781 21.7506C7.13926 21.7563 7.27046 21.7354 7.39355 21.6891C7.51669 21.6427 7.62959 21.5721 7.72461 21.4811C7.81969 21.39 7.89564 21.28 7.94727 21.1588C7.99612 21.0441 8.0209 20.921 8.02344 20.7965L7.33301 12.15H6.69238L6.00098 20.7965Z" fill="currentColor"/>
<path d="M10.2002 6.4502C10.2002 3.96865 8.61051 2.25 6.97461 2.25C5.33885 2.25028 3.75 3.96885 3.75 6.4502C3.75008 8.93143 5.33889 10.6501 6.97461 10.6504C8.61047 10.6504 10.2001 8.93164 10.2002 6.4502ZM11.7002 6.4502C11.7001 9.4362 9.72932 12.1504 6.97461 12.1504C4.22011 12.1501 2.25008 9.43606 2.25 6.4502C2.25 3.46426 4.22005 0.750258 6.97461 0.75C9.72937 0.75 11.7002 3.46412 11.7002 6.4502Z" fill="currentColor"/>
<path opacity="0.3" d="M17.4003 22.5C16.9428 22.5 16.504 22.3183 16.1805 21.9948C15.857 21.6713 15.6753 21.2325 15.6753 20.775L16.4253 11.4H18.4503L19.2003 20.775C19.2005 21.008 19.1535 21.2386 19.0622 21.4529C18.9709 21.6673 18.837 21.8609 18.6688 22.0221C18.5006 22.1833 18.3015 22.3087 18.0835 22.3909C17.8655 22.473 17.633 22.5101 17.4003 22.5Z" fill="currentColor"/>
<path d="M18.4507 10.65L18.5933 10.6637C18.918 10.7265 19.1705 10.9994 19.1978 11.3405L19.9478 20.7155L19.9507 20.774C19.951 21.1082 19.8834 21.4393 19.7524 21.7467C19.6214 22.0541 19.4291 22.3319 19.188 22.5631C18.9467 22.7943 18.6608 22.9745 18.3481 23.0924C18.0454 23.2065 17.7231 23.2585 17.3999 23.2487V23.2496C17.3983 23.2496 17.3966 23.2487 17.395 23.2487C17.3859 23.2484 17.3768 23.25 17.3677 23.2496V23.2477C16.7231 23.2392 16.1064 22.9815 15.6499 22.525C15.1859 22.0609 14.9253 21.4313 14.9253 20.775C14.9253 20.7552 14.9257 20.7353 14.9272 20.7155L15.6772 11.3405L15.7026 11.1989C15.7911 10.8801 16.0831 10.65 16.4253 10.65H18.4507ZM16.4263 20.7965C16.4318 21.0472 16.5328 21.2867 16.7104 21.4645C16.8705 21.6245 17.0809 21.7236 17.3042 21.7457L17.3999 21.7496L17.4331 21.7506C17.5645 21.7563 17.6958 21.7354 17.8188 21.6891C17.942 21.6427 18.0549 21.5721 18.1499 21.4811C18.245 21.3899 18.3209 21.2799 18.3726 21.1588C18.4214 21.0441 18.4462 20.9211 18.4487 20.7965L17.7583 12.15H17.1177L16.4263 20.7965Z" fill="currentColor"/>
<path d="M20.7754 7.27502C20.9771 7.27508 21.1705 7.35646 21.3115 7.50061C21.4525 7.64478 21.5298 7.84002 21.5254 8.04163C21.5014 9.13954 21.0477 10.1848 20.2627 10.9528C19.5267 11.6726 18.5538 12.0953 17.5303 12.1451L17.3252 12.15C16.2312 12.15 15.1818 11.7156 14.4082 10.942C13.6346 10.1684 13.2002 9.11904 13.2002 8.02502L13.2041 7.94788C13.2427 7.56991 13.562 7.27502 13.9502 7.27502H20.7754ZM14.8096 8.77502C14.933 9.18907 15.1577 9.57042 15.4688 9.88147C15.961 10.3738 16.629 10.65 17.3252 10.65L17.5889 10.6373C18.1983 10.5777 18.7724 10.3122 19.2139 9.88049C19.5308 9.57049 19.7634 9.18977 19.8965 8.77502H14.8096Z" fill="currentColor"/>
<path d="M13.2002 8.02466V1.80005C13.2002 1.38584 13.536 1.05005 13.9502 1.05005C14.3644 1.05005 14.7002 1.38584 14.7002 1.80005V8.02466C14.7002 8.43887 14.3644 8.77466 13.9502 8.77466C13.536 8.77466 13.2002 8.43887 13.2002 8.02466Z" fill="currentColor"/>
<path d="M16.5752 7.87524V1.80005C16.5752 1.38584 16.911 1.05005 17.3252 1.05005C17.7394 1.05005 18.0752 1.38584 18.0752 1.80005V7.87524C18.0751 8.28937 17.7393 8.62524 17.3252 8.62524C16.911 8.62524 16.5753 8.28937 16.5752 7.87524Z" fill="currentColor"/>
<path d="M20.0254 8.02466V1.80005C20.0254 1.38584 20.3612 1.05005 20.7754 1.05005C21.1896 1.05005 21.5254 1.38584 21.5254 1.80005V8.02466C21.5254 8.43887 21.1896 8.77466 20.7754 8.77466C20.3612 8.77466 20.0254 8.43887 20.0254 8.02466Z" fill="currentColor"/>
</svg>
