<svg viewBox="0 0 24 24" fill="none" xmlns="http://www.w3.org/2000/svg">
<path opacity="0.3" d="M23.1 19.5001V21.2251H1.5V19.5001C1.51532 17.102 2.33391 14.7783 3.825 12.9001C4.82247 11.604 6.10696 10.5569 7.57751 9.84112C9.04806 9.12537 10.6646 8.76047 12.3 8.77508C13.9524 8.7692 15.5838 9.14517 17.0669 9.87371C18.55 10.6023 19.8447 11.6637 20.85 12.9751C22.2886 14.848 23.0784 17.1385 23.1 19.5001Z" fill="currentColor"/>
<path d="M12.3057 8.02551C14.0707 8.02051 15.8132 8.42209 17.3975 9.20032C18.9839 9.97962 20.3689 11.1151 21.4443 12.5177L21.7246 12.8986C23.0847 14.8266 23.828 17.1265 23.8496 19.4933V21.2247C23.8496 21.6389 23.5138 21.9747 23.0996 21.9747H1.5C1.08579 21.9747 0.75 21.6389 0.75 21.2247V19.4952L0.762695 19.0148C0.878325 16.6203 1.74182 14.3175 3.2373 12.4337C4.30446 11.0499 5.67766 9.93201 7.24902 9.16711C8.82093 8.40203 10.5488 8.01141 12.2969 8.02551V8.02454L12.2998 8.02551C12.3021 8.02553 12.3044 8.02452 12.3066 8.02454L12.3057 8.02551ZM12.0088 9.52649C10.5868 9.55497 9.18618 9.8923 7.90527 10.5157C6.53924 11.1807 5.34555 12.1535 4.41895 13.3575L4.41211 13.3663C3.02538 15.1132 2.26425 17.2747 2.25 19.505V20.4747H22.3496V19.507L22.3379 19.0958C22.2357 17.0433 21.5107 15.0667 20.2549 13.4318V13.4308C19.32 12.2112 18.1156 11.2246 16.7363 10.547C15.357 9.86941 13.8396 9.51907 12.3027 9.52454H12.293L12.0088 9.52649Z" fill="currentColor"/>
<path d="M12.3866 2.25001L12.6073 2.2588C13.7053 2.32772 14.7476 2.7785 15.5516 3.53614C16.159 4.10853 16.5981 4.82728 16.8348 5.61524C17.2542 5.48324 17.6917 5.40957 18.1346 5.4004H18.1493L18.3807 5.40528C18.92 5.432 19.4511 5.55329 19.9501 5.7627C20.52 6.00191 21.0367 6.35186 21.4696 6.79297C21.9025 7.23417 22.2432 7.75767 22.4716 8.33204C22.698 8.90179 22.8094 9.5111 22.7997 10.124L22.7938 10.3604C22.7668 10.911 22.644 11.4537 22.4296 11.9629C22.1846 12.5446 21.8249 13.0711 21.3729 13.5117C21.2194 13.6613 21.0096 13.7381 20.7958 13.7227C20.5821 13.7072 20.3852 13.6016 20.2548 13.4316C19.3198 12.212 18.1155 11.2245 16.7362 10.5469C15.3569 9.8693 13.8394 9.51994 12.3026 9.5254H12.2929C10.7735 9.51187 9.27132 9.85068 7.90516 10.5156C6.62429 11.1391 5.49526 12.0331 4.59559 13.1348L4.41883 13.3574C4.28441 13.532 4.08029 13.639 3.86023 13.6494C3.66741 13.6585 3.47942 13.5926 3.33484 13.4678L3.27625 13.4111C2.4475 12.5209 1.97524 11.3566 1.95008 10.1406V10.1397C1.93819 9.52153 2.04985 8.90657 2.2782 8.33204C2.50656 7.75769 2.8473 7.23416 3.28016 6.79297C3.71304 6.35186 4.22978 6.0019 4.79969 5.7627C5.36963 5.5235 5.98142 5.40034 6.59949 5.4004H6.61512C7.05336 5.40947 7.48601 5.482 7.90125 5.61133C8.13044 4.81692 8.56874 4.09122 9.17957 3.51563C10.0442 2.70094 11.1879 2.24808 12.3759 2.25001H12.3866ZM12.3671 3.75001C11.5645 3.75032 10.7921 4.05693 10.2079 4.60743C9.69527 5.09051 9.36123 5.72936 9.25477 6.41993L9.22352 6.71876C9.20834 6.9786 9.05916 7.21157 8.82996 7.33497C8.62934 7.44293 8.39248 7.45379 8.18543 7.36719L8.09852 7.32422C7.64206 7.05965 7.12674 6.91288 6.59949 6.89942V6.9004C6.18073 6.90034 5.76587 6.98347 5.37977 7.14551C4.99372 7.30758 4.64371 7.54489 4.35047 7.84376C4.05715 8.14271 3.82645 8.49754 3.67176 8.88672C3.51727 9.27549 3.44219 9.69113 3.45008 10.1094L3.47059 10.4258C3.52064 10.8686 3.65795 11.2949 3.86902 11.6836C4.82619 10.6427 5.97221 9.78844 7.24891 9.167C8.82083 8.4019 10.5487 8.01129 12.2968 8.0254H12.3055C14.0705 8.0204 15.8131 8.42199 17.3973 9.2002C18.6999 9.84006 19.8666 10.7203 20.8378 11.791C20.9168 11.6597 20.987 11.5228 21.0468 11.3809C21.1931 11.0334 21.2773 10.6629 21.2958 10.2871L21.2997 10.126C21.2997 10.1209 21.2996 10.1154 21.2997 10.1104L21.2987 9.95411C21.2876 9.58858 21.2133 9.22731 21.078 8.88672C20.9233 8.49755 20.6926 8.14271 20.3993 7.84376C20.1061 7.5449 19.756 7.30758 19.37 7.14551C18.9839 6.98348 18.569 6.90036 18.1503 6.9004V6.89942C17.6894 6.91117 17.2374 7.02459 16.8261 7.2295L16.6512 7.32422C16.428 7.45366 16.153 7.45921 15.9247 7.33887C15.6965 7.21851 15.5467 6.98874 15.5272 6.73145C15.4666 5.92941 15.1077 5.17856 14.5223 4.62696C13.938 4.07659 13.1696 3.76393 12.3671 3.75001Z" fill="currentColor"/>
<path d="M7.86948 13.2697C8.16231 12.9769 8.63712 12.977 8.93003 13.2697C9.22292 13.5626 9.22292 14.0374 8.93003 14.3303L7.95542 15.3049C7.66252 15.5978 7.18776 15.5978 6.89487 15.3049C6.60217 15.012 6.60204 14.5372 6.89487 14.2444L7.86948 13.2697Z" fill="currentColor"/>
<path d="M13.7494 16.9651C14.0312 17.2686 14.0138 17.7428 13.7104 18.0247C13.4069 18.3064 12.9327 18.2888 12.6508 17.9856L13.7494 16.9651ZM11.7143 15.8752C11.9988 15.611 12.4337 15.6106 12.7192 15.8616L12.7748 15.9143L13.7494 16.9651L13.1996 17.4749L12.6508 17.9856L11.6752 16.9358L11.6264 16.8762C11.3973 16.573 11.4298 16.1395 11.7143 15.8752Z" fill="currentColor"/>
<path d="M15.8017 13.218C16.0963 12.9779 16.5311 12.9952 16.8056 13.2698C17.0801 13.5445 17.0969 13.9792 16.8564 14.2737L16.8056 14.3303L16.2802 14.8557L16.2236 14.9065C15.9291 15.147 15.4944 15.1302 15.2197 14.8557C14.9268 14.5628 14.9268 14.0871 15.2197 13.7942L15.7451 13.2698L15.8017 13.218Z" fill="currentColor"/>
</svg>
