<svg viewBox="0 0 24 24" fill="none" xmlns="http://www.w3.org/2000/svg">
<path opacity="0.3" fill-rule="evenodd" clip-rule="evenodd" d="M10.9909 2.26874C12.8154 2.15566 14.6368 2.54622 16.2545 3.39764C17.8721 4.24906 19.2249 5.52891 20.1647 7.09686C21.1044 8.66485 21.5944 10.4612 21.5827 12.2892C21.5926 13.602 21.3421 14.9036 20.8444 16.1183C20.3466 17.3331 19.6115 18.4362 18.6832 19.3644C17.755 20.2927 16.6519 21.0278 15.4371 21.5256C14.2224 22.0233 12.9207 22.2738 11.608 22.2639H11.4577C10.2591 22.2401 9.10376 21.8129 8.17835 21.051C7.25289 20.2888 6.61119 19.2365 6.35804 18.0646C5.96769 16.4617 5.25338 14.9549 4.25843 13.6389C3.20745 12.146 2.79097 10.2976 3.10023 8.49823C3.40952 6.69899 4.41882 5.09552 5.90785 4.03924C7.40793 2.99466 9.16641 2.38188 10.9909 2.26874ZM11.608 5.23944C9.20591 5.23965 7.25865 7.18693 7.25843 9.58905C7.25856 11.9912 9.20587 13.9394 11.608 13.9396C14.0102 13.9394 15.9585 11.9913 15.9586 9.58905C15.9584 7.18692 14.0102 5.23964 11.608 5.23944Z" fill="currentColor"/>
<path d="M10.9446 1.52054C12.9063 1.39895 14.8644 1.81897 16.6037 2.7344C18.3429 3.64979 19.7974 5.02524 20.8078 6.71097C21.8165 8.39379 22.3439 10.3215 22.3332 12.2832L22.3244 12.8125C22.2726 14.0443 22.0068 15.2591 21.5383 16.4024C21.0028 17.7091 20.2127 18.897 19.2141 19.8955C18.2157 20.8939 17.0284 21.6834 15.7219 22.2188C14.417 22.7535 13.0187 23.0226 11.6086 23.0127V23.0137H11.4436C10.076 22.9867 8.75731 22.4994 7.7014 21.6299C6.65016 20.7642 5.9205 19.5702 5.62913 18.2403V18.2412C5.26304 16.7382 4.59327 15.3259 3.66038 14.0918L3.65257 14.0811L3.64476 14.0713C2.4795 12.4161 2.0177 10.3661 2.36058 8.37112C2.70345 6.37638 3.8231 4.59887 5.47386 3.42776L5.47972 3.42386L5.78538 3.21878C7.32921 2.22059 9.10556 1.63458 10.9446 1.52054ZM15.9045 4.06155C14.4085 3.27428 12.7246 2.91304 11.0373 3.01761C9.35208 3.12213 7.72726 3.68645 6.34105 4.65042L6.34202 4.6514C5.01497 5.59283 4.11479 7.02149 3.83909 8.62503C3.56394 10.2259 3.93338 11.8709 4.86644 13.2002C5.85196 14.5073 6.57766 15.9902 7.00511 17.5684L7.08714 17.8867L7.09105 17.9063C7.30851 18.913 7.85954 19.8169 8.65452 20.4717C9.44593 21.1235 10.4336 21.4902 11.4582 21.5137H11.6135L11.6086 22.209L11.6135 21.5147C12.8267 21.5239 14.0299 21.2911 15.1526 20.8311C16.2753 20.371 17.2956 19.6919 18.1535 18.834C19.0114 17.9761 19.6906 16.9566 20.1506 15.834C20.6107 14.7113 20.8425 13.5082 20.8332 12.295V12.2842L20.8303 11.9678C20.7862 10.387 20.3356 8.84194 19.5207 7.48245C18.6516 6.03244 17.4005 4.84892 15.9045 4.06155Z" fill="currentColor"/>
<path d="M14.4585 9.58875C14.4583 8.01492 13.1818 6.73914 11.6079 6.73914C10.0342 6.73935 8.75852 8.01505 8.7583 9.58875C8.7583 11.1626 10.0341 12.4391 11.6079 12.4393C13.1819 12.4393 14.4585 11.1628 14.4585 9.58875ZM15.9585 9.58875C15.9585 11.9912 14.0103 13.9393 11.6079 13.9393C9.20565 13.9391 7.2583 11.9911 7.2583 9.58875C7.25852 7.18663 9.20578 5.23935 11.6079 5.23914C14.0102 5.23914 15.9583 7.1865 15.9585 9.58875Z" fill="currentColor"/>
</svg>
