<svg viewBox="0 0 24 24" fill="none" xmlns="http://www.w3.org/2000/svg">
<path opacity="0.3" d="M6.45 11.025C7.94117 11.025 9.14999 9.81615 9.14999 8.32498C9.14999 6.83381 7.94117 5.625 6.45 5.625C4.95884 5.625 3.75 6.83381 3.75 8.32498C3.75 9.81615 4.95884 11.025 6.45 11.025Z" fill="currentColor"/>
<path opacity="0.3" d="M11.9251 11.025C13.4163 11.025 14.6251 9.81615 14.6251 8.32498C14.6251 6.83381 13.4163 5.625 11.9251 5.625C10.4339 5.625 9.2251 6.83381 9.2251 8.32498C9.2251 9.81615 10.4339 11.025 11.9251 11.025Z" fill="currentColor"/>
<path opacity="0.3" d="M17.4002 11.025C18.8913 11.025 20.1002 9.81615 20.1002 8.32498C20.1002 6.83381 18.8913 5.625 17.4002 5.625C15.909 5.625 14.7002 6.83381 14.7002 8.32498C14.7002 9.81615 15.909 11.025 17.4002 11.025Z" fill="currentColor"/>
<path opacity="0.3" d="M9.22491 16.4999C10.7161 16.4999 11.9249 15.291 11.9249 13.7999C11.9249 12.3087 10.7161 11.0999 9.22491 11.0999C7.73374 11.0999 6.5249 12.3087 6.5249 13.7999C6.5249 15.291 7.73374 16.4999 9.22491 16.4999Z" fill="currentColor"/>
<path opacity="0.3" d="M14.6248 16.4999C16.116 16.4999 17.3248 15.291 17.3248 13.7999C17.3248 12.3087 16.116 11.0999 14.6248 11.0999C13.1336 11.0999 11.9248 12.3087 11.9248 13.7999C11.9248 15.291 13.1336 16.4999 14.6248 16.4999Z" fill="currentColor"/>
<path opacity="0.3" d="M11.9251 21.525C13.4163 21.525 14.6251 20.3162 14.6251 18.825C14.6251 17.3338 13.4163 16.125 11.9251 16.125C10.4339 16.125 9.2251 17.3338 9.2251 18.825C9.2251 20.3162 10.4339 21.525 11.9251 21.525Z" fill="currentColor"/>
<path d="M8.40039 8.3252C8.40039 7.2483 7.52706 6.3751 6.4502 6.375C5.37323 6.375 4.5 7.24825 4.5 8.3252C4.50012 9.40205 5.37331 10.2754 6.4502 10.2754C7.52698 10.2753 8.40028 9.402 8.40039 8.3252ZM9.90039 8.3252C9.90028 10.2304 8.35543 11.7753 6.4502 11.7754C4.54488 11.7754 3.00012 10.2305 3 8.3252C3 6.4198 4.54482 4.875 6.4502 4.875C8.35549 4.8751 9.90039 6.41988 9.90039 8.3252Z" fill="currentColor"/>
<path d="M13.8755 8.3252C13.8755 7.24831 13.0022 6.3751 11.9253 6.375C10.8483 6.375 9.9751 7.24825 9.9751 8.3252C9.97521 9.40205 10.8484 10.2754 11.9253 10.2754C13.0021 10.2753 13.8754 9.40199 13.8755 8.3252ZM15.3755 8.3252C15.3754 10.2304 13.8305 11.7753 11.9253 11.7754C10.02 11.7754 8.47521 10.2305 8.4751 8.3252C8.4751 6.4198 10.0199 4.875 11.9253 4.875C13.8306 4.8751 15.3755 6.41987 15.3755 8.3252Z" fill="currentColor"/>
<path d="M19.3506 8.3252C19.3506 7.24832 18.4773 6.37512 17.4004 6.375C16.3234 6.375 15.4502 7.24824 15.4502 8.3252C15.4503 9.40206 16.3235 10.2754 17.4004 10.2754C18.4772 10.2753 19.3505 9.40198 19.3506 8.3252ZM20.8506 8.3252C20.8505 10.2304 19.3056 11.7753 17.4004 11.7754C15.4951 11.7754 13.9503 10.2305 13.9502 8.3252C13.9502 6.41981 15.495 4.875 17.4004 4.875C19.3057 4.87512 20.8506 6.41988 20.8506 8.3252Z" fill="currentColor"/>
<path d="M11.1753 13.8002C11.1753 12.7233 10.302 11.8501 9.2251 11.85C8.14814 11.85 7.2749 12.7232 7.2749 13.8002C7.27501 14.877 8.14821 15.7504 9.2251 15.7504C10.3019 15.7503 11.1752 14.877 11.1753 13.8002ZM12.6753 13.8002C12.6752 15.7054 11.1303 17.2503 9.2251 17.2504C7.31978 17.2504 5.77501 15.7055 5.7749 13.8002C5.7749 11.8948 7.31972 10.35 9.2251 10.35C11.1304 10.3501 12.6753 11.8949 12.6753 13.8002Z" fill="currentColor"/>
<path d="M16.5752 13.8002C16.5752 12.7233 15.7019 11.8501 14.625 11.85C13.548 11.85 12.6748 12.7232 12.6748 13.8002C12.6749 14.877 13.5481 15.7504 14.625 15.7504C15.7018 15.7503 16.5751 14.877 16.5752 13.8002ZM18.0752 13.8002C18.0751 15.7054 16.5302 17.2503 14.625 17.2504C12.7197 17.2504 11.1749 15.7055 11.1748 13.8002C11.1748 11.8948 12.7196 10.35 14.625 10.35C16.5303 10.3501 18.0752 11.8949 18.0752 13.8002Z" fill="currentColor"/>
<path d="M13.8755 18.8252C13.8755 17.7483 13.0022 16.8751 11.9253 16.875C10.8483 16.875 9.9751 17.7482 9.9751 18.8252C9.97521 19.9021 10.8484 20.7754 11.9253 20.7754C13.0021 20.7753 13.8754 19.902 13.8755 18.8252ZM15.3755 18.8252C15.3754 20.7304 13.8305 22.2753 11.9253 22.2754C10.02 22.2754 8.47521 20.7305 8.4751 18.8252C8.4751 16.9198 10.0199 15.375 11.9253 15.375C13.8306 15.3751 15.3755 16.9199 15.3755 18.8252Z" fill="currentColor"/>
<path d="M12.9115 1.64156C13.2474 1.3994 13.7161 1.47559 13.9584 1.81149C14.2005 2.14742 14.1243 2.6161 13.7884 2.85836C13.3761 3.15581 13.0536 3.56093 12.8558 4.02926C12.6827 4.43927 12.6112 4.88427 12.6459 5.32613L12.6673 5.51559L12.6742 5.59176C12.6915 5.97144 12.4186 6.31031 12.0345 6.36715C11.6507 6.42377 11.2921 6.1786 11.1986 5.81051L11.183 5.73434L11.1498 5.44332C11.0964 4.76274 11.2073 4.07779 11.474 3.44625C11.7788 2.7244 12.276 2.09992 12.9115 1.64156Z" fill="currentColor"/>
</svg>
