<svg viewBox="0 0 24 24" fill="none" xmlns="http://www.w3.org/2000/svg">
<path opacity="0.3" d="M20.8169 8.02307C22.0178 6.82221 22.0178 4.87523 20.817 3.67437C19.6161 2.47351 17.6691 2.47349 16.4682 3.67436L3.82515 16.3174C2.62429 17.5183 2.62431 19.4653 3.82517 20.6662C5.02603 21.867 6.973 21.867 8.17387 20.6661L20.8169 8.02307Z" fill="currentColor"/>
<path d="M20.2867 7.49314C21.1947 6.5852 21.1946 5.11279 20.2867 4.20481C19.3788 3.29684 17.9064 3.29685 16.9984 4.20481L4.35543 16.8478C3.44752 17.7558 3.44747 19.2282 4.35543 20.1361C5.26339 21.0439 6.73582 21.044 7.64375 20.1361L20.2867 7.49314ZM8.70441 21.1968C7.2107 22.6904 4.78852 22.6904 3.29477 21.1968C1.80104 19.703 1.80106 17.2809 3.29477 15.7871L15.9378 3.14415C17.4315 1.65039 19.8536 1.6504 21.3474 3.14415C22.841 4.63792 22.8411 7.06008 21.3474 8.5538L8.70441 21.1968Z" fill="currentColor"/>
<path d="M16.881 3.29664C17.1734 3.58958 17.173 4.06388 16.8803 4.35661L4.3112 16.9257C4.01828 17.2183 3.54334 17.2185 3.25054 16.9257C2.50523 16.1803 2.08699 15.1687 2.08699 14.1145C2.08708 13.0604 2.50585 12.0494 3.25123 11.3041L11.3339 3.22137C11.6697 2.90302 12.0591 2.64525 12.4844 2.4604C12.9702 2.2492 13.4937 2.13711 14.0236 2.13102C14.5534 2.12494 15.079 2.22586 15.5697 2.42587C16.0603 2.62589 16.5064 2.92189 16.881 3.29664ZM4.31189 12.3647C3.84783 12.8288 3.58692 13.4583 3.58683 14.1145C3.58683 14.5137 3.68514 14.9023 3.86511 15.2505L15.2071 3.90845C15.1408 3.87411 15.0728 3.84214 15.0034 3.81385C14.698 3.68937 14.3706 3.62777 14.0408 3.63155C13.711 3.63534 13.3849 3.70445 13.0824 3.83594C12.7799 3.96745 12.507 4.15885 12.2793 4.39735L4.31189 12.3647Z" fill="currentColor"/>
<path d="M7.68611 21.2908C7.39322 20.998 7.39322 20.5231 7.68611 20.2302L20.2552 7.66109C20.5481 7.36848 21.0231 7.36829 21.3159 7.66109C22.0611 8.40651 22.4794 9.41813 22.4794 10.4722C22.4793 11.5264 22.0605 12.5374 21.3152 13.2827L13.3602 21.2377C12.6148 21.983 11.6039 22.4019 10.5498 22.4019C9.61416 22.4019 8.7131 22.0712 8.00099 21.4759C7.88605 21.4415 7.77694 21.3816 7.68611 21.2908ZM20.2545 12.2221C20.7186 11.758 20.9795 11.1285 20.9796 10.4722C20.9796 10.0731 20.8812 9.68447 20.7013 9.33632L9.41313 20.6245C9.76137 20.8046 10.1505 20.9021 10.5498 20.9021C11.206 20.902 11.8354 20.6411 12.2996 20.177L20.2545 12.2221Z" fill="currentColor"/>
<path d="M17.1898 5.33016C17.4826 5.03734 17.9574 5.03748 18.2503 5.33016C18.5432 5.62305 18.5432 6.09781 18.2503 6.39071C17.9472 6.69389 17.7961 6.95676 17.7064 7.19246C17.6112 7.44264 17.5729 7.68945 17.5248 8.02157C17.4791 8.33632 17.4239 8.74035 17.2591 9.16121C17.0882 9.59787 16.8122 10.0262 16.3617 10.4542C15.4389 11.3307 14.6068 11.4527 13.9398 11.5606C13.6186 11.6126 13.3765 11.6556 13.1312 11.755C12.8974 11.8497 12.6339 12.0072 12.3255 12.3155C12.0223 12.6187 11.8713 12.8816 11.7816 13.1173C11.6864 13.3675 11.6481 13.6142 11.5999 13.9464C11.5543 14.2612 11.4981 14.6651 11.3333 15.086C11.1624 15.5226 10.8874 15.951 10.4369 16.379C9.51404 17.2557 8.68201 17.3775 8.01498 17.4854C7.69367 17.5374 7.45175 17.5804 7.20639 17.6798C6.97257 17.7745 6.7091 17.932 6.40073 18.2403C6.10783 18.5332 5.63307 18.5332 5.34018 18.2403C5.04748 17.9474 5.04735 17.4726 5.34018 17.1798C5.78163 16.7384 6.21221 16.4649 6.64389 16.2901C7.06405 16.12 7.45971 16.0551 7.77573 16.004C8.38355 15.9057 8.82667 15.8401 9.40366 15.2921C9.70296 15.0077 9.85001 14.761 9.93686 14.5391C10.0298 14.3016 10.0674 14.0626 10.1156 13.7305C10.1612 13.416 10.2168 13.0109 10.3792 12.5841C10.5473 12.1425 10.8183 11.7017 11.265 11.255C11.7065 10.8135 12.137 10.5401 12.5687 10.3653C12.9888 10.1952 13.3845 10.1303 13.7005 10.0792C14.3085 9.98083 14.7513 9.91456 15.3285 9.36629C15.6277 9.08206 15.7748 8.83608 15.8617 8.61434C15.9546 8.37683 15.9923 8.13779 16.0404 7.80574C16.086 7.4911 16.1425 7.08624 16.305 6.65926C16.4731 6.21775 16.7432 5.77681 17.1898 5.33016Z" fill="currentColor"/>
</svg>
