<svg viewBox="0 0 24 24" fill="none" xmlns="http://www.w3.org/2000/svg">
<path opacity="0.3" d="M20.4751 14.475C22.4251 12.9 19.2751 9.07495 19.2751 9.07495C19.2751 9.07495 16.1251 12.9 18.1501 14.475C18.4863 14.7246 18.8939 14.8594 19.3126 14.8594C19.7314 14.8594 20.139 14.7246 20.4751 14.475Z" fill="currentColor"/>
<path opacity="0.3" d="M7.8 1.5C9.27195 1.5 10.6836 2.08471 11.7244 3.12554C12.7653 4.16637 13.35 5.57804 13.35 7.05V16.725H2.25V7.05C2.25 5.57804 2.83473 4.16637 3.87556 3.12554C4.91639 2.08471 6.32805 1.5 7.8 1.5Z" fill="currentColor"/>
<path d="M12.5996 7.0498C12.5996 5.77697 12.0943 4.55635 11.1943 3.65625C10.2942 2.75608 9.07285 2.25 7.7998 2.25C6.52683 2.25005 5.30637 2.75613 4.40625 3.65625C3.50613 4.55638 3.00005 5.77684 3 7.0498V15.9746H12.5996V7.0498ZM14.0996 16.7246C14.0996 17.1388 13.7638 17.4746 13.3496 17.4746H2.25C1.83579 17.4746 1.5 17.1388 1.5 16.7246V7.0498C1.50005 5.37901 2.16427 3.77616 3.3457 2.59473C4.52709 1.41359 6.12924 0.750052 7.7998 0.75C9.47057 0.75 11.0734 1.41336 12.2549 2.59473C13.4363 3.77616 14.0996 5.37901 14.0996 7.0498V16.7246Z" fill="currentColor"/>
<path d="M9.00049 17.475H6.6001V20.6254C6.6002 20.9434 6.72683 21.2481 6.95166 21.473C7.17669 21.6981 7.48202 21.8246 7.80029 21.8246C8.11849 21.8245 8.42394 21.698 8.64893 21.473C8.87363 21.2481 9.00039 20.9433 9.00049 20.6254V17.475ZM10.5005 20.6254C10.5004 21.3413 10.2157 22.0283 9.70947 22.5345C9.20317 23.0408 8.51625 23.3245 7.80029 23.3246C7.08436 23.3246 6.39744 23.0407 5.89111 22.5345C5.38486 22.0283 5.1002 21.3413 5.1001 20.6254V16.725L5.104 16.6478C5.14263 16.2699 5.46193 15.975 5.8501 15.975H9.75049C10.1645 15.9752 10.5005 16.3109 10.5005 16.725V20.6254Z" fill="currentColor"/>
<path d="M5.1748 13.2V7.94995C5.1748 7.53574 5.51059 7.19995 5.9248 7.19995C6.33902 7.19995 6.6748 7.53574 6.6748 7.94995V13.2C6.6748 13.6142 6.33902 13.95 5.9248 13.95C5.51059 13.95 5.1748 13.6142 5.1748 13.2Z" fill="currentColor"/>
<path d="M9 13.2V7.94995C9 7.53574 9.33579 7.19995 9.75 7.19995C10.1642 7.19995 10.5 7.53574 10.5 7.94995V13.2C10.5 13.6142 10.1642 13.95 9.75 13.95C9.33579 13.95 9 13.6142 9 13.2Z" fill="currentColor"/>
<path d="M19.275 8.32495C19.4991 8.32495 19.7116 8.42539 19.8541 8.59839L19.856 8.60034C19.8566 8.60109 19.8571 8.60221 19.858 8.60327C19.8601 8.60589 19.8632 8.60958 19.8668 8.61401C19.874 8.62291 19.8844 8.63522 19.897 8.65112C19.9224 8.68303 19.9582 8.72895 20.0025 8.78687C20.091 8.90257 20.2138 9.06832 20.3541 9.27124C20.6325 9.67419 20.9895 10.238 21.2847 10.864C21.5754 11.4804 21.8335 12.2131 21.8599 12.9392C21.8873 13.6934 21.6612 14.4812 20.9468 15.0583C20.939 15.0647 20.9305 15.0709 20.9224 15.0769C20.457 15.4225 19.8927 15.6091 19.313 15.6091C18.7333 15.6091 18.1682 15.4225 17.7027 15.0769C17.6984 15.0737 17.6942 15.0704 17.69 15.0671C16.958 14.4978 16.7084 13.7145 16.7222 12.9529C16.7356 12.2226 16.9867 11.4867 17.273 10.8689C17.564 10.241 17.9192 9.67575 18.1968 9.27222C18.3367 9.06898 18.4589 8.90277 18.5474 8.78687C18.5916 8.72894 18.6275 8.68308 18.6529 8.65112C18.6655 8.63521 18.6759 8.62295 18.6832 8.61401C18.6868 8.60953 18.6898 8.60592 18.6919 8.60327L18.6959 8.59937V8.59839L18.7525 8.53687C18.8916 8.40171 19.0788 8.32501 19.275 8.32495ZM19.2759 10.3572C19.0625 10.6846 18.8276 11.0806 18.6334 11.4998C18.3854 12.0348 18.2291 12.5505 18.2212 12.9802C18.214 13.3772 18.3299 13.6618 18.608 13.8796C18.8129 14.0285 19.0596 14.1091 19.313 14.1091C19.5639 14.1091 19.8076 14.0296 20.0113 13.8835C20.2658 13.6739 20.3755 13.3954 20.3609 12.9939C20.3451 12.5601 20.1812 12.0411 19.9283 11.5046C19.7297 11.0834 19.4914 10.6856 19.2759 10.3572Z" fill="currentColor"/>
</svg>
