<svg viewBox="0 0 24 24" fill="none" xmlns="http://www.w3.org/2000/svg">
<path opacity="0.3" d="M17.55 11.3251C17.1687 12.7647 16.322 14.0377 15.1418 14.946C13.9616 15.8543 12.5142 16.3468 11.025 16.3468C9.53578 16.3468 8.08834 15.8543 6.90816 14.946C5.72798 14.0377 4.8813 12.7647 4.5 11.3251" fill="currentColor"/>
<path d="M16.8252 11.1326C16.9315 10.7325 17.3419 10.4944 17.7422 10.6004C18.1425 10.7066 18.3815 11.1171 18.2754 11.5174C17.8518 13.1167 16.9107 14.5307 15.5996 15.5399C14.2884 16.549 12.68 17.0964 11.0254 17.0965C9.37075 17.0965 7.76252 16.549 6.45121 15.5399C5.22173 14.5936 4.31759 13.2915 3.86039 11.8143L3.77543 11.5174L3.75883 11.4422C3.69902 11.0668 3.93245 10.7 4.30766 10.6004C4.68284 10.501 5.06706 10.704 5.20121 11.0594L5.22465 11.1326L5.29301 11.3709C5.65873 12.5526 6.38187 13.5944 7.36527 14.3514C8.41432 15.1587 9.70166 15.5965 11.0254 15.5965C12.3491 15.5964 13.6357 15.1587 14.6846 14.3514C15.7335 13.544 16.4863 12.4122 16.8252 11.1326Z" fill="currentColor"/>
<path d="M17.5498 10.5751L17.627 10.579C18.005 10.6175 18.2998 10.9368 18.2998 11.3251C18.2998 11.7133 18.005 12.0326 17.627 12.0712L17.5498 12.0751H4.5C4.08579 12.0751 3.75 11.7393 3.75 11.3251C3.75 10.9109 4.08579 10.5751 4.5 10.5751H17.5498Z" fill="currentColor"/>
<path d="M10.2749 21.5249V16.3501C10.2749 15.9359 10.6107 15.6001 11.0249 15.6001C11.4391 15.6001 11.7749 15.9359 11.7749 16.3501V21.5249C11.7749 21.9391 11.4391 22.2749 11.0249 22.2749C10.6107 22.2749 10.2749 21.9391 10.2749 21.5249Z" fill="currentColor"/>
<path d="M15.375 21.1501L15.4512 21.1541C15.8295 21.1923 16.125 21.5117 16.125 21.9001C16.125 22.2886 15.8295 22.608 15.4512 22.6462L15.375 22.6501H6.6748C6.26059 22.6501 5.9248 22.3144 5.9248 21.9001C5.9248 21.4859 6.26059 21.1501 6.6748 21.1501H15.375Z" fill="currentColor"/>
<path d="M16.7998 8.8501C16.7998 8.05443 16.4835 7.2916 15.9209 6.729C15.3583 6.16641 14.5955 5.8501 13.7998 5.8501C13.0042 5.8501 12.2413 6.16639 11.6787 6.729C11.1161 7.29162 10.7998 8.05445 10.7998 8.8501C10.7998 9.26431 10.464 9.6001 10.0498 9.6001C9.63559 9.6001 9.2998 9.26431 9.2998 8.8501C9.2998 7.65662 9.77426 6.51237 10.6182 5.66846C11.4621 4.82454 12.6063 4.3501 13.7998 4.3501C14.9933 4.3501 16.1375 4.82455 16.9814 5.66846C17.8254 6.51238 18.2998 7.65664 18.2998 8.8501C18.2998 9.26431 17.964 9.6001 17.5498 9.6001C17.1356 9.6001 16.7998 9.26431 16.7998 8.8501Z" fill="currentColor"/>
<path d="M4.2749 8.8501C4.2749 7.65664 4.74933 6.51238 5.59326 5.66846C6.43718 4.82455 7.58145 4.3501 8.7749 4.3501C9.18912 4.3501 9.5249 4.68588 9.5249 5.1001C9.5249 5.51431 9.18912 5.8501 8.7749 5.8501C7.97925 5.8501 7.21641 6.16641 6.65381 6.729C6.09121 7.2916 5.7749 8.05443 5.7749 8.8501C5.7749 9.26431 5.43912 9.6001 5.0249 9.6001C4.61069 9.6001 4.2749 9.26431 4.2749 8.8501Z" fill="currentColor"/>
<path d="M13.9163 5.48832C13.7021 5.84241 13.2414 5.95615 12.887 5.74223C12.5325 5.52803 12.4189 5.06649 12.6331 4.71195L13.9163 5.48832ZM14.8079 1.11234C15.0221 0.757836 15.4827 0.644304 15.8372 0.858438C16.1917 1.07257 16.3061 1.53324 16.0921 1.88773L13.9163 5.48832L13.2747 5.09965L12.6331 4.71195L14.8079 1.11234Z" fill="currentColor"/>
<path d="M19.7979 3.5264C20.1284 3.27678 20.599 3.34243 20.8487 3.67288C21.0983 4.00336 21.0327 4.47399 20.7022 4.72366L17.3272 7.27347C16.9968 7.52316 16.5262 7.45747 16.2765 7.12698C16.027 6.79651 16.0925 6.32585 16.4229 6.0762L19.7979 3.5264Z" fill="currentColor"/>
</svg>
