<svg viewBox="0 0 24 24" fill="none" xmlns="http://www.w3.org/2000/svg">
<path opacity="0.3" d="M12.5256 21.8988C12.4866 21.9963 12.4194 22.0798 12.3325 22.1387C12.2456 22.1975 12.143 22.229 12.0381 22.229C11.9331 22.229 11.8306 22.1975 11.7437 22.1387C11.6568 22.0798 11.5895 21.9963 11.5506 21.8988L9.67559 17.3238L7.35059 11.5488H16.7256L14.4006 17.3238L12.5256 21.8988Z" fill="currentColor"/>
<path d="M16.7257 10.7988C16.9747 10.7988 17.2073 10.9226 17.3467 11.1289C17.4862 11.3354 17.514 11.598 17.421 11.8291L15.0967 17.6035L15.0948 17.6084L13.2198 22.1836L13.2178 22.1826C13.1229 22.4166 12.9622 22.6181 12.753 22.7598C12.542 22.9027 12.2929 22.9785 12.0382 22.9785C11.7834 22.9785 11.5344 22.9027 11.3233 22.7598C11.114 22.618 10.9524 22.4168 10.8575 22.1826L10.8565 22.1836L8.98151 17.6084L8.97956 17.6035L6.65534 11.8291C6.56229 11.598 6.5901 11.3354 6.72956 11.1289C6.86904 10.9226 7.10161 10.7988 7.35066 10.7988H16.7257ZM10.3692 17.0391L12.0382 21.1113L13.7071 17.0391L15.6153 12.2988H8.46101L10.3692 17.0391Z" fill="currentColor"/>
<path d="M12.333 0.757812C13.0191 0.794335 13.6935 0.957862 14.3213 1.24121C15.0388 1.56509 15.6794 2.03853 16.2002 2.62891C16.7209 3.21924 17.11 3.91377 17.3418 4.66602C17.4916 5.15214 17.5723 5.65523 17.585 6.16113C18.2853 6.22194 18.9452 6.52645 19.4463 7.02734C20.0088 7.58986 20.3251 8.35292 20.3252 9.14844C20.3252 9.16129 20.3249 9.17467 20.3242 9.1875C20.2847 9.95426 19.9732 10.6818 19.4453 11.2393C19.4401 11.2447 19.4341 11.2506 19.4287 11.2559C18.8734 11.8076 18.1283 12.1269 17.3457 12.1484H6.65039C5.87233 12.1225 5.13487 11.795 4.59375 11.2354C4.0526 10.6755 3.74958 9.92705 3.75 9.14844H3.75098C3.73954 8.37666 4.02558 7.62965 4.55078 7.06348L4.66211 6.95215C4.91307 6.714 5.20472 6.52234 5.52344 6.38574C5.83068 6.25407 6.15757 6.1754 6.49023 6.1543C6.50346 5.65067 6.58527 5.14998 6.73438 4.66602C6.96617 3.91371 7.35524 3.21927 7.87598 2.62891C8.39679 2.0385 9.03729 1.56509 9.75488 1.24121C10.4724 0.917372 11.2509 0.75 12.0381 0.75L12.333 0.757812ZM11.8232 2.25586C11.3225 2.28244 10.8303 2.40162 10.3721 2.6084C9.84843 2.84474 9.38104 3.19025 9.00098 3.62109C8.62099 4.05187 8.33714 4.55847 8.16797 5.10742C7.9988 5.65646 7.94786 6.23564 8.01953 6.80566C8.04624 7.01896 7.98003 7.23326 7.83789 7.39453C7.69552 7.55593 7.49061 7.64844 7.27539 7.64844H6.67578C6.48287 7.64844 6.29155 7.68773 6.11426 7.76367C5.9399 7.8384 5.78212 7.94756 5.65039 8.08398L5.55664 8.19531C5.35243 8.46348 5.24325 8.79396 5.25 9.13379C5.2501 9.13891 5.25 9.1443 5.25 9.14941C5.24983 9.53859 5.40143 9.91253 5.67188 10.1924C5.93968 10.4694 6.3038 10.6325 6.68848 10.6484H17.3174C17.7111 10.6345 18.0844 10.4727 18.3652 10.1963C18.6373 9.90408 18.7994 9.52733 18.8242 9.12891C18.819 8.73829 18.6623 8.3645 18.3857 8.08789C18.1045 7.80678 17.7229 7.64844 17.3252 7.64844H16.8008C16.5856 7.64844 16.3807 7.55593 16.2383 7.39453C16.0961 7.23324 16.0299 7.01903 16.0566 6.80566C16.1283 6.23564 16.0774 5.65646 15.9082 5.10742C15.7391 4.5585 15.4551 4.05186 15.0752 3.62109C14.6951 3.19025 14.2277 2.84474 13.7041 2.6084C13.1805 2.37208 12.6126 2.25002 12.0381 2.25L11.8232 2.25586Z" fill="currentColor"/>
</svg>
