<svg viewBox="0 0 24 24" fill="none" xmlns="http://www.w3.org/2000/svg">
<path opacity="0.3" d="M3.75 18.75H20.4004V22.0498H3.75V18.75ZM15 5.40039C16.4321 5.40039 17.8057 5.96882 18.8184 6.98145C19.831 7.99409 20.4003 9.36771 20.4004 10.7998V12.2998H3.75V10.7998C3.75005 9.36771 4.31938 7.99409 5.33203 6.98145C6.3447 5.96894 7.71837 5.40039 9.15039 5.40039H15Z" fill="currentColor"/>
<path d="M20.0996 1.5C20.5138 1.5 20.8496 1.83579 20.8496 2.25V5.37793C20.8494 5.79195 20.5137 6.12793 20.0996 6.12793H4.0498C3.63573 6.12793 3.30003 5.79195 3.2998 5.37793V2.25L3.30371 2.17285C3.34233 1.79488 3.66164 1.5 4.0498 1.5H20.0996ZM4.7998 4.62793H19.3496V3H4.7998V4.62793Z" fill="currentColor"/>
<path d="M19.6504 10.8004C19.6504 9.56725 19.16 8.38436 18.2881 7.51233C17.416 6.64029 16.2333 6.15002 15 6.15002H9.15039C7.91713 6.15002 6.73435 6.64029 5.8623 7.51233C4.99026 8.38437 4.5 9.56716 4.5 10.8004V21.3004H19.6504V10.8004ZM21.1504 22.0504C21.1502 22.4643 20.8143 22.8002 20.4004 22.8004H3.75C3.33592 22.8004 3.00022 22.4644 3 22.0504V10.8004C3 9.16933 3.64841 7.60513 4.80176 6.45178C5.95511 5.29843 7.51931 4.65002 9.15039 4.65002H15C16.6311 4.65002 18.1953 5.29843 19.3486 6.45178C20.5019 7.60511 21.1504 9.16942 21.1504 10.8004V22.0504Z" fill="currentColor"/>
<path d="M20.4746 11.55C20.8888 11.55 21.2246 11.8858 21.2246 12.3V18.7502C21.2245 19.1644 20.8888 19.5002 20.4746 19.5002H3.75C3.33585 19.5002 3.0001 19.1644 3 18.7502V12.3L3.00391 12.2229C3.04253 11.8449 3.36183 11.55 3.75 11.55H20.4746ZM4.5 18.0002H19.7246V13.05H4.5V18.0002Z" fill="currentColor"/>
<path d="M3.75 18.825H20.475" stroke="currentColor" stroke-width="1.5" stroke-linecap="round" stroke-linejoin="round"/>
<path d="M17.1753 14.625L17.2515 14.6289C17.6298 14.6672 17.9253 14.9866 17.9253 15.375C17.9253 15.7634 17.6298 16.0828 17.2515 16.1211L17.1753 16.125H11.4751C11.0609 16.125 10.7251 15.7892 10.7251 15.375C10.7251 14.9608 11.0609 14.625 11.4751 14.625H17.1753Z" fill="currentColor"/>
<path d="M8.39941 14.625L8.47656 14.6289C8.85471 14.6674 9.14941 14.9867 9.14941 15.375C9.14941 15.7633 8.85471 16.0826 8.47656 16.1211L8.39941 16.125H7.0498C6.63559 16.125 6.2998 15.7892 6.2998 15.375C6.2998 14.9608 6.63559 14.625 7.0498 14.625H8.39941Z" fill="currentColor"/>
</svg>
