<svg viewBox="0 0 24 24" fill="none" xmlns="http://www.w3.org/2000/svg">
<path opacity="0.3" d="M12.1501 22.35H3.97504L3.75 14.625H12.375L12.1501 22.35Z" fill="currentColor"/>
<path opacity="0.3" d="M16.2002 10.8C17.7318 10.8 19.2007 11.4085 20.2837 12.4915C21.3667 13.5745 21.9752 15.0434 21.9752 16.575C21.9752 18.1067 21.3667 19.5756 20.2837 20.6586C19.2007 21.7416 17.7318 22.35 16.2002 22.35" fill="currentColor"/>
<path d="M12.8998 6.15002C13.1049 6.15002 13.3012 6.23403 13.4428 6.38245C13.5843 6.53098 13.6587 6.73125 13.6488 6.93616L12.8988 22.3864C12.8794 22.786 12.5499 23.1002 12.1498 23.1002H3.97499C3.57492 23.1002 3.24537 22.786 3.22597 22.3864L2.47597 6.93616C2.46609 6.73125 2.54052 6.53098 2.68202 6.38245C2.82357 6.23396 3.01985 6.15002 3.22499 6.15002H12.8998ZM4.68984 21.6002H11.435L12.1127 7.65002H4.0121L4.68984 21.6002Z" fill="currentColor"/>
<path d="M6.22461 0.75L6.36621 0.763672C6.68696 0.824938 6.93864 1.09082 6.97168 1.42676L8.77148 19.7266L8.77539 19.8037C8.77397 20.1836 8.48487 20.5088 8.09863 20.5469C7.71213 20.5849 7.36524 20.3219 7.29004 19.9492L7.27832 19.873L5.54492 2.25H2.25C1.83579 2.25 1.5 1.91421 1.5 1.5C1.5 1.08579 1.83579 0.75 2.25 0.75H6.22461Z" fill="currentColor"/>
<path d="M12.5249 13.875L12.6021 13.8789C12.9801 13.9174 13.2749 14.2368 13.2749 14.625C13.2749 15.0132 12.9801 15.3326 12.6021 15.3711L12.5249 15.375H3.6001C3.18588 15.375 2.8501 15.0392 2.8501 14.625C2.8501 14.2108 3.18588 13.875 3.6001 13.875H12.5249Z" fill="currentColor"/>
<path d="M21.2256 16.5754C21.2256 15.2427 20.6953 13.9641 19.7529 13.0217C18.8694 12.1384 17.6911 11.6175 16.4492 11.5559L16.2002 11.55L16.123 11.5461C15.7451 11.5075 15.4502 11.1882 15.4502 10.8C15.4502 10.3858 15.786 10.05 16.2002 10.05L16.5234 10.0579C18.1363 10.1378 19.6672 10.8139 20.8145 11.9612C22.038 13.1848 22.7256 14.845 22.7256 16.5754C22.7255 18.3057 22.0379 19.9652 20.8145 21.1887C19.5908 22.4124 17.9307 23.0999 16.2002 23.0999C15.786 23.0999 15.4502 22.7641 15.4502 22.3499C15.4503 21.9357 15.786 21.5999 16.2002 21.5999C17.5328 21.5999 18.8106 21.0704 19.7529 20.1282C20.6952 19.1859 21.2255 17.908 21.2256 16.5754Z" fill="currentColor"/>
<path d="M21.375 3.59985C21.375 4.97226 20.8298 6.28855 19.8594 7.25903C18.8889 8.22948 17.5726 8.7746 16.2002 8.77466C15.786 8.77466 15.4502 8.43887 15.4502 8.02466V7.72485C15.4502 6.35242 15.9954 5.03613 16.9658 4.06567C17.9363 3.09522 19.2526 2.55005 20.625 2.55005L20.7021 2.55396C21.0801 2.59258 21.375 2.91188 21.375 3.30005V3.59985ZM19.8359 4.13599C19.1559 4.2855 18.5264 4.6262 18.0264 5.12622C17.4651 5.68747 17.1049 6.41186 16.9902 7.18774C17.6698 7.03805 18.2991 6.69822 18.7988 6.19849C19.3603 5.63691 19.7215 4.91234 19.8359 4.13599Z" fill="currentColor"/>
</svg>
