<svg viewBox="0 0 24 24" fill="none" xmlns="http://www.w3.org/2000/svg">
<path opacity="0.3" d="M13.6069 15.5999C13.6581 16.9077 13.2518 18.1925 12.4578 19.2329C11.6638 20.2733 10.5318 21.0043 9.25686 21.3C8.37054 21.5087 7.4471 21.5021 6.56386 21.2807C5.68062 21.0592 4.86328 20.6294 4.18028 20.0272C3.49728 19.425 2.9685 18.6679 2.6382 17.8193C2.30791 16.9708 2.18572 16.0554 2.28186 15.1499C2.41175 13.7637 3.05113 12.4749 4.07631 11.5329C5.1015 10.5908 6.43963 10.0624 7.83186 10.05C8.92317 9.99519 9.94816 9.50966 10.6819 8.69995L11.5069 7.94995L15.4819 11.925L14.9569 12.5249C14.5324 12.9171 14.1934 13.3925 13.9611 13.9216C13.7289 14.4508 13.6082 15.0221 13.6069 15.5999Z" fill="currentColor"/>
<path d="M17.3085 1.5C18.0464 1.52641 18.7452 1.83871 19.2578 2.37012C19.6048 2.72997 19.8449 3.17263 19.9658 3.64941C20.2034 3.69568 20.4352 3.77226 20.6552 3.87793C21.0877 4.08565 21.4612 4.39878 21.7402 4.78906C22.0191 5.17928 22.1943 5.63405 22.2509 6.11035C22.3075 6.5867 22.2432 7.0699 22.0634 7.51465C21.8836 7.95946 21.5944 8.352 21.2226 8.65527C20.8508 8.95854 20.4084 9.16323 19.9365 9.25C19.4646 9.33673 18.9787 9.30251 18.5234 9.15137C18.32 9.08383 18.1261 8.99307 17.9443 8.88281L15.1933 11.6992L15.1367 11.751C14.8449 11.9948 14.4105 11.9824 14.1328 11.7109C13.8366 11.4214 13.8306 10.9466 14.1201 10.6504L17.3456 7.35059L17.4013 7.29883C17.538 7.18485 17.7119 7.12266 17.8915 7.125C18.0968 7.12772 18.292 7.21477 18.4316 7.36523C18.5861 7.53176 18.7804 7.65694 18.996 7.72852C19.2115 7.80001 19.4417 7.81542 19.665 7.77441C19.8884 7.73333 20.0983 7.63674 20.2744 7.49316C20.4504 7.34957 20.5876 7.16373 20.6728 6.95312C20.7579 6.74255 20.7884 6.51363 20.7617 6.28809C20.7349 6.06249 20.6516 5.84695 20.5195 5.66211C20.3873 5.47722 20.2107 5.3279 20.0058 5.22949C19.801 5.13114 19.5745 5.08625 19.3476 5.09863C19.1419 5.10988 18.9406 5.03619 18.791 4.89453C18.6602 4.77061 18.5788 4.60432 18.5605 4.42676L18.5566 4.34961C18.5568 3.99977 18.4215 3.66296 18.1787 3.41113C17.9417 3.16548 17.6204 3.02054 17.2802 3.00195C16.9291 3.0205 16.5967 3.16694 16.3476 3.41602C16.0953 3.66833 15.9479 4.00614 15.9326 4.3623C15.9393 4.69324 16.074 5.00894 16.3095 5.24219C16.4512 5.38259 16.5307 5.57396 16.5312 5.77344C16.5316 5.97289 16.4525 6.16463 16.3115 6.30566L13.0869 9.53027C12.794 9.82317 12.3192 9.82317 12.0263 9.53027C11.7334 9.23738 11.7334 8.76262 12.0263 8.46973L14.7929 5.70215C14.5622 5.2945 14.4349 4.83213 14.4316 4.35547C14.4315 4.34529 14.4312 4.33439 14.4316 4.32422C14.4568 3.58332 14.7629 2.87966 15.2871 2.35547C15.8112 1.83128 16.5149 1.52522 17.2558 1.5H17.3085Z" fill="currentColor"/>
<path d="M11.12 7.3074C11.4095 7.13278 11.7892 7.17195 12.037 7.4197L16.0116 11.3943C16.2908 11.6735 16.3058 12.1216 16.0458 12.4187L15.5214 13.0193C15.5039 13.0392 15.4851 13.058 15.4657 13.076C15.1171 13.398 14.8382 13.7888 14.6473 14.2234C14.4581 14.6545 14.359 15.1199 14.3563 15.5906C14.4095 17.0658 13.9494 18.5144 13.0536 19.6883C12.1538 20.8671 10.8713 21.6959 9.42664 22.031L9.42567 22.0301C8.42375 22.2656 7.38008 22.2588 6.38172 22.0086C5.3823 21.758 4.4573 21.271 3.68446 20.5896C2.91164 19.9082 2.3131 19.0517 1.93934 18.0916C1.56562 17.1314 1.42728 16.0956 1.53602 15.0711C1.68513 13.5034 2.40861 12.0459 3.56824 10.9802C4.72246 9.91962 6.22718 9.32228 7.79383 9.30056L7.96082 9.28884C8.79091 9.20587 9.56305 8.81718 10.1259 8.19607L10.1776 8.14529L11.0018 7.39529L11.12 7.3074ZM11.205 9.23708C10.3402 10.1733 9.1432 10.7347 7.86903 10.7986C7.85894 10.7991 7.84885 10.7995 7.83875 10.7996C6.63229 10.8104 5.47232 11.2685 4.58387 12.0847C3.69548 12.9011 3.14086 14.0183 3.02821 15.2195L3.02723 15.2293C2.94376 16.0156 3.04998 16.8108 3.3368 17.5476C3.62364 18.2845 4.08356 18.9417 4.67664 19.4646C5.26971 19.9875 5.97908 20.3612 6.74598 20.5535C7.51301 20.7458 8.31515 20.7514 9.08485 20.5701L9.08778 20.5691L9.29285 20.5174C10.3136 20.2334 11.216 19.6234 11.8612 18.7781C12.5493 17.8765 12.9017 16.763 12.8573 15.6297C12.8569 15.6194 12.8563 15.6087 12.8563 15.5984C12.858 14.9174 13.0005 14.2435 13.2743 13.6199C13.5407 13.0133 13.9268 12.4672 14.4081 12.0125L14.455 11.9588L11.4813 8.98513L11.205 9.23708Z" fill="currentColor"/>
</svg>
