<svg viewBox="0 0 24 24" fill="none" xmlns="http://www.w3.org/2000/svg">
<path opacity="0.3" d="M19.6502 4.49721L20.7752 5.62221C21.4943 6.35189 21.8974 7.33525 21.8974 8.35973C21.8974 9.3842 21.4943 10.3675 20.7752 11.0972L20.3252 11.5472C18.232 13.5902 15.6497 15.0621 12.8252 15.8222L9.67521 16.5722L8.62519 15.5222L7.5752 14.4722L8.4002 11.3222C9.10054 8.49524 10.582 5.92223 12.6752 3.89722L13.1252 3.37221C13.8549 2.6531 14.8382 2.25 15.8627 2.25C16.8872 2.25 17.8705 2.6531 18.6002 3.37221L19.6502 4.49721Z" fill="currentColor"/>
<path d="M7.12012 14.0169C7.41303 13.7242 7.88784 13.7241 8.18066 14.0169C8.4733 14.3098 8.4733 14.7846 8.18066 15.0775L6.00488 17.2523C5.72741 17.5296 5.28378 17.5462 4.98633 17.2904C4.74645 17.084 4.44447 16.9646 4.12891 16.9486C3.82799 16.9664 3.54432 17.0961 3.33496 17.3138C3.11979 17.5376 2.99977 17.8364 3 18.1468L3.00586 18.2582C3.03138 18.5157 3.14455 18.7581 3.3291 18.9427C3.54008 19.1537 3.82664 19.2718 4.125 19.2718L4.20215 19.2757C4.58001 19.3143 4.87481 19.6338 4.875 20.0218C4.875 20.3201 4.99324 20.6068 5.2041 20.8177C5.41508 21.0287 5.70164 21.1468 6 21.1468H6.00098L6.11621 21.1419C6.38439 21.1162 6.6372 21.0001 6.83301 20.8119C7.05101 20.6022 7.1797 20.3183 7.19727 20.0169C7.18096 19.702 7.06243 19.401 6.85645 19.1615C6.60059 18.864 6.61716 18.4194 6.89453 18.1419L9.06934 15.9671C9.3622 15.6743 9.83698 15.6743 10.1299 15.9671C10.4228 16.26 10.4228 16.7348 10.1299 17.0277L8.38574 18.7708C8.57737 19.1498 8.68566 19.5683 8.69922 19.9984V20.0511C8.67234 20.749 8.3765 21.4098 7.87305 21.8939C7.36972 22.3778 6.69819 22.6462 6 22.6458V22.6468C5.3038 22.6468 4.63583 22.3705 4.14355 21.8783C3.81076 21.5454 3.57868 21.1317 3.46191 20.6839C3.01464 20.567 2.60106 20.3358 2.26855 20.0033C1.8379 19.5725 1.57234 19.0075 1.5127 18.4066L1.5 18.1468C1.49973 17.4488 1.77012 16.778 2.25391 16.2748C2.73792 15.7714 3.39795 15.4746 4.0957 15.4476H4.14844L4.39746 15.4662C4.73901 15.5062 5.06907 15.6072 5.37402 15.7611L7.12012 14.0169Z" fill="currentColor"/>
<path d="M21.1431 8.20508C21.1053 7.43565 20.7868 6.70442 20.2447 6.15234L19.1011 5.00879L18.0621 3.89551C17.5109 3.3577 16.7831 3.04158 16.0171 3.00391L15.8619 3C15.0428 3.00011 14.2559 3.3188 13.6685 3.88867L13.2447 4.38574C13.2295 4.40346 13.2126 4.4203 13.1958 4.43652C11.2039 6.36366 9.79395 8.81266 9.12748 11.5029L9.12553 11.5127L8.40873 14.2451L9.90776 15.7451L12.6294 15.0977L13.1333 14.9541C15.6344 14.1944 17.9193 12.8448 19.7945 11.0166L20.2447 10.5664C20.8229 9.97748 21.147 9.18484 21.147 8.35938L21.1431 8.20508ZM22.6412 8.58789C22.5853 9.72644 22.113 10.8083 21.3091 11.624L21.3052 11.6279L20.855 12.0771L20.8482 12.084C18.7999 14.0831 16.3031 15.5583 13.5699 16.3887L13.0201 16.5469C13.0131 16.5488 13.0056 16.5501 12.9986 16.5518L9.84819 17.3018C9.62652 17.3545 9.39513 17.303 9.21733 17.166L9.14409 17.1025L7.04448 15.0029C6.8561 14.8145 6.78169 14.5399 6.84916 14.2822L7.67436 11.1318C8.40602 8.18646 9.9464 5.50439 12.1216 3.38867L12.5552 2.88379L12.5982 2.83789L12.7652 2.68164C13.6152 1.92255 14.7169 1.5001 15.8619 1.5L16.0904 1.50586C17.153 1.55801 18.166 1.97296 18.9595 2.68164L19.1265 2.83789L19.148 2.86035L20.1802 3.9668L21.3091 5.0957L21.4654 5.2627C22.2244 6.11273 22.6469 7.21446 22.647 8.35938L22.6412 8.58789Z" fill="currentColor"/>
</svg>
