<svg viewBox="0 0 24 24" fill="none" xmlns="http://www.w3.org/2000/svg">
<path opacity="0.3" d="M22.7246 9.6748H0.75C0.750051 7.50673 1.61147 5.4276 3.14453 3.89453C4.6776 2.36147 6.75673 1.50005 8.9248 1.5H22.7246V9.6748ZM13.125 3.75C12.4623 3.75 11.9248 4.28745 11.9248 4.9502V4.97266C11.9249 5.63532 12.4623 6.17285 13.125 6.17285H18.9746C19.6373 6.17285 20.1747 5.63532 20.1748 4.97266V4.9502C20.1748 4.28745 19.6374 3.75 18.9746 3.75H13.125Z" fill="currentColor"/>
<path d="M22.7246 0.75C23.1388 0.75 23.4746 1.08579 23.4746 1.5V9.6748C23.4746 10.089 23.1388 10.4248 22.7246 10.4248H0.75C0.551088 10.4248 0.360379 10.3457 0.219727 10.2051C0.0791338 10.0644 0 9.87367 0 9.6748C5.05119e-05 7.30782 0.940541 5.03797 2.61426 3.36426C4.28797 1.69054 6.55782 0.750051 8.9248 0.75H22.7246ZM8.9248 2.25C6.95564 2.25005 5.06722 3.03239 3.6748 4.4248C2.46031 5.6393 1.71003 7.23115 1.53809 8.9248H21.9746V2.25H8.9248Z" fill="currentColor"/>
<path d="M17.7749 21.7504V9.59998C17.7749 9.18576 18.1107 8.84998 18.5249 8.84998C18.9391 8.84998 19.2749 9.18576 19.2749 9.59998V21.7504C19.2747 22.1644 18.939 22.5004 18.5249 22.5004C18.1108 22.5004 17.7751 22.1644 17.7749 21.7504Z" fill="currentColor"/>
<path d="M18.6001 13.6499C19.9662 13.65 21.0067 14.6576 21.6538 15.689C22.3164 16.7449 22.725 18.0621 22.7251 19.1245C22.7251 19.1613 22.7217 19.1984 22.7163 19.2349C22.5683 20.2308 22.0677 21.1408 21.3052 21.7983C20.5427 22.4559 19.5689 22.8179 18.562 22.8179C17.5553 22.8178 16.5822 22.4557 15.8198 21.7983C15.0573 21.1408 14.5558 20.2308 14.4077 19.2349C14.4023 19.1985 14.3999 19.1613 14.3999 19.1245C14.4 18.0536 14.8327 16.7334 15.5142 15.6802C16.1802 14.6509 17.2394 13.6499 18.6001 13.6499ZM18.6001 15.1499C18.0108 15.1499 17.3444 15.6114 16.7729 16.4946C16.2311 17.332 15.9175 18.3432 15.9019 19.0688C16.0068 19.6877 16.323 20.2519 16.7993 20.6626C17.2894 21.0851 17.915 21.3178 18.562 21.3179C19.2092 21.3179 19.8355 21.0853 20.3257 20.6626C20.8019 20.2519 21.1172 19.6877 21.2222 19.0688C21.2073 18.3351 20.9072 17.3207 20.3833 16.4858C19.8305 15.6049 19.1838 15.15 18.6001 15.1499Z" fill="currentColor"/>
<path d="M19.4248 4.9502C19.4248 4.70169 19.2232 4.5 18.9746 4.5H13.125C12.8765 4.5 12.6748 4.70169 12.6748 4.9502V4.97266C12.6749 5.2211 12.8765 5.42285 13.125 5.42285H18.9746C19.2231 5.42285 19.4247 5.2211 19.4248 4.97266V4.9502ZM20.9248 4.97266C20.9247 6.04953 20.0515 6.92285 18.9746 6.92285H13.125C12.0481 6.92285 11.1749 6.04953 11.1748 4.97266V4.9502C11.1748 3.87322 12.0481 3 13.125 3H18.9746C20.0515 3 20.9248 3.87322 20.9248 4.9502V4.97266Z" fill="currentColor"/>
</svg>
