<svg viewBox="0 0 24 24" fill="none" xmlns="http://www.w3.org/2000/svg">
<path opacity="0.3" d="M17.1007 18.8147V21.8897H6.60074V18.8147H6.67576C5.0865 17.9152 3.76785 16.6055 2.85756 15.0224C1.94726 13.4392 1.47868 11.6407 1.50074 9.8147H22.2758C22.2822 11.6377 21.807 13.4301 20.8983 15.0105C19.9896 16.5909 18.6795 17.9032 17.1007 18.8147Z" fill="currentColor"/>
<path d="M22.2752 9.06482L22.3524 9.06873C22.7294 9.10708 23.0237 9.42476 23.0252 9.81189C23.0321 11.7669 22.5231 13.6893 21.5486 15.3842C20.6471 16.952 19.376 18.2726 17.8504 19.2357V21.89C17.8503 22.3041 17.5146 22.64 17.1004 22.64H6.60041C6.18632 22.6399 5.85051 22.3041 5.85041 21.89V19.1927C4.34793 18.2431 3.09551 16.9414 2.20685 15.3959C1.22985 13.6965 0.727161 11.7661 0.750797 9.80603L0.755679 9.72986C0.797974 9.35518 1.11577 9.06482 1.5008 9.06482H22.2752ZM2.27228 10.5648C2.36764 11.9993 2.78777 13.3969 3.50763 14.6488C4.35098 16.1154 5.57241 17.3291 7.04474 18.1625C7.3412 18.3303 7.48795 18.6768 7.40119 19.0062C7.38889 19.0529 7.37069 19.0968 7.35041 19.139V21.14H16.3504V18.8148C16.3504 18.5469 16.4934 18.2994 16.7254 18.1654C18.1897 17.32 19.405 16.1028 20.2479 14.6371C20.9661 13.3879 21.3912 11.9955 21.4979 10.5648H2.27228Z" fill="currentColor"/>
<path d="M17.5225 0.804708C18.1843 0.675755 18.8679 0.776279 19.461 1.08498L19.709 1.23049L19.7276 1.24318C20.3603 1.68288 20.7976 2.35139 20.9453 3.10744C21.093 3.86344 20.9395 4.64684 20.5186 5.29201C20.5129 5.30068 20.507 5.30995 20.501 5.31838L17.0303 10.1856C16.8896 10.3828 16.6623 10.5 16.42 10.5H11.25C10.9715 10.5 10.7156 10.3452 10.586 10.0987C10.4566 9.8523 10.4743 9.55454 10.6319 9.32522L15.6543 2.02346L15.6563 2.01955L15.8321 1.79201C16.2655 1.28327 16.8609 0.9337 17.5225 0.804708ZM18.8819 2.48147C18.5644 2.27825 18.1802 2.20515 17.8096 2.27736C17.4355 2.35031 17.1051 2.56598 16.8877 2.87795L16.8867 2.87697L12.6758 9.00002H16.0342L19.2647 4.46779C19.4703 4.15017 19.5452 3.76566 19.4727 3.39455C19.4005 3.02579 19.1891 2.69875 18.8819 2.48147Z" fill="currentColor"/>
</svg>
