<svg viewBox="0 0 24 24" fill="none" xmlns="http://www.w3.org/2000/svg">
<path opacity="0.3" d="M11.85 15.6369C11.8634 15.9911 11.9137 16.343 12 16.6869C12.3145 17.7358 12.2068 18.8662 11.7 19.8369C11.291 20.5759 10.6942 21.1939 9.96994 21.6284C9.24567 22.063 8.41955 22.2987 7.57501 22.3119C6.73989 22.3011 5.92308 22.0656 5.21043 21.63C4.49778 21.1945 3.91557 20.5751 3.52499 19.8369C3.02831 18.8652 2.89531 17.748 3.14999 16.6869L3.37503 15.6369C4.27503 10.7619 4.27503 13.0869 3.37503 8.21189L3.14999 7.2369C2.97226 6.56004 2.9522 5.85141 3.09131 5.16557C3.23042 4.47972 3.525 3.83494 3.95241 3.28082C4.37981 2.72669 4.92866 2.27801 5.55668 1.96928C6.18471 1.66055 6.8752 1.5 7.57501 1.5C8.27482 1.5 8.96531 1.66055 9.59334 1.96928C10.2214 2.27801 10.7702 2.72669 11.1976 3.28082C11.625 3.83494 11.9196 4.47972 12.0587 5.16557C12.1978 5.85141 12.1778 6.56004 12 7.2369C11.9138 7.55529 11.8635 7.88232 11.85 8.21189C10.95 12.9369 10.95 10.9869 11.85 15.6369Z" fill="currentColor"/>
<path d="M7.87974 0.758789C8.58906 0.799467 9.28421 0.981613 9.92369 1.2959C10.6545 1.65514 11.2935 2.17754 11.7909 2.82227C12.2884 3.46724 12.6319 4.21833 12.7938 5.0166C12.9557 5.81482 12.9323 6.63995 12.7254 7.42773L12.7235 7.43262C12.6519 7.69693 12.6107 7.96863 12.5995 8.24219C12.598 8.27899 12.5937 8.31636 12.5868 8.35254C12.3609 9.53814 12.1886 10.3204 12.079 10.8604C11.9667 11.4137 11.9247 11.6929 11.9247 11.9521C11.9247 12.2105 11.9659 12.4844 12.078 13.0273C12.1327 13.2925 12.2038 13.6178 12.2889 14.0225L12.5858 15.4941L12.5995 15.6084C12.6109 15.9101 12.653 16.2101 12.7264 16.5029C13.0856 17.7302 12.9572 19.0492 12.3651 20.1836C12.3623 20.189 12.3592 20.1949 12.3563 20.2002C11.8834 21.0547 11.1928 21.769 10.3553 22.2715C9.518 22.7738 8.56309 23.0463 7.58677 23.0615C7.57969 23.0616 7.57237 23.0616 7.56529 23.0615C6.59548 23.049 5.6468 22.7753 4.81919 22.2695C3.9917 21.7638 3.3157 21.0447 2.86216 20.1875L2.85728 20.1787C2.27918 19.0477 2.12433 17.7468 2.42076 16.5117L2.64146 15.4795C2.86635 14.263 3.03579 13.4884 3.14634 12.9541C3.26016 12.404 3.29961 12.1561 3.29966 11.9248C3.29966 11.6935 3.26018 11.4457 3.14634 10.8955C3.03573 10.3609 2.8666 9.58517 2.64146 8.36719L2.4188 7.40527L2.41978 7.4043C2.21841 6.62337 2.19597 5.80716 2.3563 5.0166C2.51822 4.21833 2.86078 3.46724 3.35826 2.82227C3.8557 2.17742 4.49458 1.65519 5.22544 1.2959C5.95642 0.936559 6.76052 0.75 7.57505 0.75L7.87974 0.758789ZM7.3563 2.25586C6.84653 2.28503 6.34711 2.41667 5.88755 2.64258C5.36247 2.9007 4.90309 3.27598 4.54576 3.73926C4.18862 4.2024 3.94231 4.74127 3.82603 5.31445C3.72426 5.8162 3.72486 6.33266 3.82603 6.83301L3.87486 7.04688L3.88072 7.06836L4.10533 8.04297L4.11216 8.07617C4.33519 9.2842 4.50227 10.0408 4.61607 10.5908C4.72718 11.1279 4.79966 11.5187 4.79966 11.9248C4.79961 12.3308 4.72714 12.721 4.61607 13.2578C4.50226 13.8079 4.33524 14.5651 4.11216 15.7734C4.11089 15.7803 4.10971 15.7871 4.10826 15.7939L3.88365 16.8438C3.88237 16.8497 3.88019 16.8564 3.87876 16.8623C3.66619 17.7484 3.7771 18.6815 4.19126 19.4932C4.51882 20.1093 5.00594 20.6263 5.60142 20.9902C6.19583 21.3535 6.87671 21.5495 7.5731 21.5605C8.2822 21.5478 8.9756 21.3503 9.58384 20.9854C10.193 20.6199 10.6949 20.1004 11.0399 19.4795C11.4517 18.6844 11.5383 17.7603 11.2811 16.9023C11.2779 16.8915 11.2751 16.8801 11.2723 16.8691C11.1794 16.4992 11.1236 16.1211 11.1043 15.7402C10.8842 14.6055 10.7235 13.8843 10.6092 13.3311C10.4964 12.7845 10.4247 12.3781 10.4247 11.9521C10.4247 11.5274 10.4957 11.1172 10.6083 10.5625C10.7224 10.0002 10.884 9.26432 11.1043 8.11035C11.124 7.75095 11.1806 7.39451 11.2743 7.04688L11.3241 6.83301C11.4252 6.33268 11.4249 5.81618 11.3231 5.31445C11.2068 4.74119 10.9606 4.20244 10.6034 3.73926C10.2461 3.27606 9.78751 2.9007 9.26255 2.64258C8.73753 2.38449 8.16007 2.25003 7.57505 2.25L7.3563 2.25586Z" fill="currentColor"/>
<path d="M16.315 16.9806C15.946 17.1684 15.4942 17.0214 15.3062 16.6525C15.1184 16.2835 15.2654 15.8317 15.6343 15.6437L16.315 16.9806ZM17.2291 5.3654C18.4141 5.072 19.601 5.24883 20.6031 6.15544C21.6521 7.10455 21.9135 8.59155 21.6539 10.0666C21.3935 11.5455 20.5966 13.1382 19.3326 14.5324L19.3336 14.5334C18.511 15.5525 17.4822 16.3865 16.315 16.9806L15.9752 16.3117L15.6343 15.6437C16.6133 15.1454 17.4767 14.4458 18.1666 13.591L18.1959 13.5558C19.3138 12.3331 19.9701 10.9783 20.1763 9.80681C20.3854 8.61943 20.1222 7.74356 19.5962 7.26774C19.0235 6.7497 18.3729 6.62744 17.5894 6.82145C16.7633 7.02604 15.8152 7.58257 14.8003 8.41618L14.7388 8.46208C14.4222 8.67231 13.9921 8.61264 13.7457 8.31267C13.4827 7.99259 13.5291 7.51992 13.8492 7.257L14.2584 6.93181C15.2216 6.1933 16.2292 5.61298 17.2291 5.3654Z" fill="currentColor"/>
<path d="M19.9089 6.74546C20.2219 6.47423 20.6952 6.50781 20.9665 6.82065C21.2378 7.13361 21.2042 7.60696 20.8913 7.87827L15.2663 12.7533C14.9534 13.0245 14.48 12.9909 14.2087 12.6781C13.9375 12.3651 13.9711 11.8918 14.2839 11.6205L19.9089 6.74546Z" fill="currentColor"/>
</svg>
