<svg viewBox="0 0 24 24" fill="none" xmlns="http://www.w3.org/2000/svg">
<path opacity="0.3" d="M18.375 2.25C19.4865 3.3179 20.3719 4.59916 20.9775 6.0166C21.583 7.43391 21.897 8.95876 21.9004 10.5C21.9004 13.5235 20.6985 16.4226 18.5605 18.5605C16.4226 20.6985 13.5235 21.9004 10.5 21.9004C7.40172 21.8881 4.4347 20.6471 2.25 18.4502L4.4248 16.2754C5.58202 17.4872 7.07566 18.3251 8.71289 18.6816C10.3501 19.0381 12.057 18.8963 13.6133 18.2754C15.1693 17.6545 16.5042 16.5827 17.4463 15.1973C18.3885 13.8116 18.8952 12.1756 18.9004 10.5C18.897 9.36249 18.6621 8.23757 18.2109 7.19336C17.7597 6.14911 17.1015 5.20688 16.2754 4.4248L18.375 2.25Z" fill="currentColor"/>
<path d="M17.8915 1.6767C18.1813 1.43177 18.615 1.4405 18.8945 1.70893C20.0787 2.84662 21.0217 4.21154 21.6669 5.72162C22.3121 7.23156 22.6467 8.85602 22.6503 10.498V10.4999L22.6347 11.1025C22.4857 14.1055 21.2279 16.9556 19.0917 19.0917C16.8132 21.3703 13.7223 22.6503 10.4999 22.6503H10.497C7.20008 22.6373 4.04248 21.3163 1.71772 18.9785C1.42663 18.6853 1.42758 18.2121 1.71967 17.9199L15.7451 3.89447L17.8359 1.72944L17.8915 1.6767ZM16.8144 4.94623L3.32905 18.4306C5.3081 20.1661 7.85206 21.1384 10.5009 21.1494C13.3251 21.1491 16.0332 20.0272 18.0302 18.0302C20.027 16.0334 21.1498 13.3257 21.1503 10.5019L21.1347 9.96186C21.0687 8.70594 20.7823 7.46957 20.2871 6.31049C19.8191 5.21541 19.1709 4.20934 18.374 3.32904L16.8144 4.94623Z" fill="currentColor"/>
<path d="M15.8596 3.79995C16.1447 3.61005 16.5321 3.6359 16.7903 3.88003C17.6901 4.73195 18.4081 5.75814 18.8997 6.89566C19.3911 8.03313 19.646 9.25909 19.6497 10.4982V10.5021C19.644 12.3272 19.0928 14.109 18.0667 15.6183C17.0403 17.1277 15.5862 18.2964 13.8909 18.9728C12.1956 19.6492 10.3364 19.8026 8.55298 19.4142C6.76975 19.0258 5.14351 18.1129 3.88306 16.7931C3.60165 16.4984 3.60665 16.0324 3.89478 15.7443L15.7444 3.89468L15.8596 3.79995ZM5.49829 16.2609C6.46173 17.0936 7.62053 17.6758 8.87232 17.9484C10.3634 18.2731 11.9178 18.1447 13.3352 17.5792C14.7525 17.0138 15.9684 16.0374 16.8264 14.7755C17.6836 13.5148 18.144 12.0265 18.1497 10.5021L18.1389 10.1144C18.0904 9.21122 17.8823 8.32255 17.5227 7.49038C17.2083 6.76289 16.7821 6.09117 16.2629 5.49624L5.49829 16.2609Z" fill="currentColor"/>
<path d="M9.74475 9.89465C10.0193 9.62004 10.4541 9.60258 10.7487 9.84289L10.8053 9.89465L16.8805 15.9698L16.9322 16.0265C17.1724 16.3211 17.155 16.7559 16.8805 17.0304C16.6059 17.3049 16.1712 17.3223 15.8766 17.0821L15.8199 17.0304L9.74475 10.9552L9.69299 10.8986C9.45268 10.604 9.47014 10.1693 9.74475 9.89465Z" fill="currentColor"/>
<path d="M9.5249 18.8995V10.4249C9.5249 10.0107 9.86069 9.67493 10.2749 9.67493C10.6891 9.67493 11.0249 10.0107 11.0249 10.4249V18.8995C11.0249 19.3137 10.6891 19.6495 10.2749 19.6495C9.86069 19.6495 9.5249 19.3137 9.5249 18.8995Z" fill="currentColor"/>
<path d="M18.8999 9.67493C19.3141 9.67493 19.6499 10.0107 19.6499 10.4249C19.6499 10.8391 19.3141 11.1749 18.8999 11.1749H10.2749C9.86069 11.1749 9.5249 10.8391 9.5249 10.4249C9.5249 10.0107 9.86069 9.67493 10.2749 9.67493H18.8999Z" fill="currentColor"/>
</svg>
