<svg viewBox="0 0 24 24" fill="none" xmlns="http://www.w3.org/2000/svg">
<path d="M18.0747 4.5752C18.0747 4.09781 17.8849 3.63933 17.5474 3.30176C17.2098 2.96444 16.7521 2.77539 16.2749 2.77539H16.2661C16.0199 2.7724 15.7757 2.82176 15.5503 2.9209C15.3249 3.02007 15.1227 3.16603 14.9585 3.34961C14.7512 3.58139 14.4228 3.6617 14.1323 3.55078C13.8418 3.43983 13.6499 3.16058 13.6499 2.84961C13.6498 2.49173 13.5075 2.14859 13.2544 1.89551C13.0013 1.6424 12.6582 1.5001 12.3003 1.5C11.9423 1.5 11.5984 1.64232 11.3452 1.89551C11.0922 2.14855 10.9498 2.49173 10.9497 2.84961C10.9497 3.16058 10.7578 3.43983 10.4673 3.55078C10.1768 3.6616 9.84835 3.58136 9.64111 3.34961C9.47696 3.16607 9.27468 3.02006 9.04932 2.9209C8.82412 2.82187 8.58042 2.77246 8.33447 2.77539H8.32471C7.84754 2.77545 7.38974 2.96443 7.05225 3.30176C6.71468 3.63933 6.5249 4.09781 6.5249 4.5752C6.52481 4.98933 6.18906 5.3252 5.7749 5.3252C5.36074 5.3252 5.02499 4.98933 5.0249 4.5752C5.0249 3.69998 5.37283 2.86008 5.9917 2.24121C6.60841 1.62465 7.44409 1.27777 8.31592 1.27539H8.32471C8.78206 1.27109 9.23514 1.36365 9.65381 1.54785C9.68474 1.56146 9.71516 1.57627 9.74561 1.59082C9.88214 1.31383 10.0622 1.05747 10.2847 0.834961C10.8191 0.300492 11.5444 0 12.3003 0C13.0561 0.000101018 13.7806 0.300594 14.3149 0.834961C14.5373 1.05736 14.7165 1.31396 14.853 1.59082C14.8837 1.57612 14.9146 1.56159 14.9458 1.54785C15.3644 1.36366 15.8176 1.27112 16.2749 1.27539H16.2827C17.1549 1.27745 17.9909 1.62444 18.6079 2.24121C19.2268 2.86008 19.5747 3.69998 19.5747 4.5752C19.5746 4.98933 19.2389 5.3252 18.8247 5.3252C18.4106 5.32508 18.0748 4.98926 18.0747 4.5752Z" fill="currentColor"/>
<path opacity="0.3" d="M19.35 22.7999H5.25L3.75 6.82495H20.85L19.35 22.7999Z" fill="currentColor"/>
<path d="M19.35 22.7999H5.25L3.75 6.82495H20.85L19.35 22.7999Z" stroke="currentColor" stroke-width="1.5" stroke-linecap="round" stroke-linejoin="round"/>
<path d="M7.42969 6.07792C7.81616 6.04163 8.16157 6.30579 8.23535 6.6785L8.24707 6.75467L9.74707 22.7303C9.78554 23.1424 9.48247 23.5079 9.07031 23.5467C8.65791 23.5854 8.29165 23.2823 8.25293 22.8699L6.75293 6.8953L6.75 6.81815C6.753 6.43818 7.04323 6.11429 7.42969 6.07792Z" fill="currentColor"/>
<path d="M16.347 22.8699C16.3083 23.2823 15.9421 23.5854 15.5297 23.5467C15.1175 23.5079 14.8144 23.1424 14.8529 22.7303L16.347 22.8699ZM17.1703 6.07792C17.5826 6.11672 17.8858 6.48295 17.847 6.8953L16.347 22.8699L15.6 22.7996L14.8529 22.7303L16.3529 6.75467C16.3917 6.34236 16.7579 6.0392 17.1703 6.07792Z" fill="currentColor"/>
<path d="M11.5498 22.7997V6.82507C11.5498 6.41086 11.8856 6.07507 12.2998 6.07507C12.714 6.07507 13.0498 6.41086 13.0498 6.82507V22.7997C13.0498 23.2139 12.714 23.5497 12.2998 23.5497C11.8856 23.5497 11.5498 23.2139 11.5498 22.7997Z" fill="currentColor"/>
</svg>
