<svg viewBox="0 0 24 24" fill="none" xmlns="http://www.w3.org/2000/svg">
<path opacity="0.3" d="M21.5307 9.21933L16.1617 14.6062C17.236 16.7559 16.0004 18.9056 15.2139 19.95C15.1492 20.0349 15.0671 20.105 14.9731 20.1557C14.8792 20.2063 14.7755 20.2363 14.669 20.2437C14.5625 20.2511 14.4556 20.2356 14.3556 20.1984C14.2556 20.1611 14.1646 20.103 14.0889 20.0278L3.96947 9.91495C3.8948 9.84035 3.8367 9.75083 3.799 9.65225C3.76129 9.55366 3.74482 9.44822 3.75066 9.34283C3.7565 9.23744 3.78452 9.13447 3.83289 9.04065C3.88126 8.94683 3.94889 8.86428 4.03135 8.79839C6.81104 6.55589 9.4126 7.86089 9.4126 7.86089L14.7817 2.47401C14.9223 2.33347 15.113 2.25452 15.3118 2.25452C15.5106 2.25452 15.7013 2.33347 15.842 2.47401L21.5307 8.1562C21.6007 8.22589 21.6563 8.30872 21.6942 8.39994C21.7321 8.49117 21.7516 8.58898 21.7516 8.68776C21.7516 8.78655 21.7321 8.88436 21.6942 8.97558C21.6563 9.0668 21.6007 9.14964 21.5307 9.21933Z" fill="currentColor"/>
<path d="M22.0611 7.62846L16.3714 1.93971C16.2321 1.80038 16.0668 1.68986 15.8847 1.61446C15.7027 1.53905 15.5077 1.50024 15.3106 1.50024C15.1136 1.50024 14.9185 1.53905 14.7365 1.61446C14.5545 1.68986 14.3892 1.80038 14.2499 1.93971L9.22205 6.98346C8.22267 6.67033 5.9408 6.29252 3.55955 8.21533C3.39541 8.34731 3.26091 8.51238 3.1648 8.69978C3.06869 8.88719 3.01312 9.09273 3.00171 9.30304C2.99031 9.51334 3.02331 9.72369 3.09859 9.9204C3.17386 10.1171 3.28972 10.2957 3.43861 10.4447L7.96861 14.9728L3.96923 18.9694C3.8285 19.1101 3.74944 19.301 3.74944 19.5C3.74944 19.699 3.8285 19.8899 3.96923 20.0306C4.10996 20.1714 4.30084 20.2504 4.49986 20.2504C4.69888 20.2504 4.88975 20.1714 5.03048 20.0306L9.02705 16.0313L13.5542 20.5585C13.6934 20.6982 13.8588 20.8092 14.0409 20.8849C14.223 20.9607 14.4182 20.9998 14.6155 21C14.6511 21 14.6858 21 14.7214 21C14.9352 20.9852 15.1434 20.9245 15.3317 20.8221C15.52 20.7197 15.684 20.578 15.8127 20.4066C17.6539 17.9597 17.4767 15.9703 17.0492 14.7816L22.062 9.75002C22.2013 9.61066 22.3118 9.44524 22.3871 9.2632C22.4624 9.08115 22.5011 8.88605 22.501 8.68904C22.501 8.49203 22.4621 8.29697 22.3866 8.11499C22.3111 7.93301 22.2005 7.76769 22.0611 7.62846ZM20.9999 8.68971L15.6308 14.0766C15.5199 14.1879 15.4468 14.3312 15.4217 14.4863C15.3967 14.6414 15.4209 14.8004 15.4911 14.941C16.378 16.7156 15.3224 18.5588 14.6155 19.4991L4.49986 9.38252C5.63236 8.46939 6.71611 8.22846 7.54486 8.22846C8.07073 8.22128 8.59226 8.32443 9.0758 8.53127C9.21686 8.60187 9.3766 8.62619 9.53229 8.60078C9.68798 8.57536 9.83169 8.5015 9.94298 8.38971L15.3111 3.00002L20.9999 8.68877V8.68971Z" fill="currentColor"/>
</svg>
