<svg viewBox="0 0 24 24" fill="none" xmlns="http://www.w3.org/2000/svg">
<path opacity="0.3" d="M14.7184 16.0825L7.50586 8.87L5.73985 10.636L12.9524 17.8485L14.7184 16.0825Z" fill="currentColor"/>
<path opacity="0.3" d="M14.0996 15.5183L8.09961 9.44325L11.9246 3.66827C12.8005 2.77432 13.9952 2.26436 15.2466 2.2503C16.498 2.23624 17.7039 2.71922 18.5996 3.59326L20.0246 5.01826C20.8987 5.91397 21.3817 7.11984 21.3676 8.37126C21.3536 9.62268 20.8436 10.8174 19.9496 11.6933L14.0996 15.5183Z" fill="currentColor"/>
<path d="M15.2384 1.49998C16.5979 1.48472 17.911 1.97606 18.925 2.87205L19.1232 3.05662L19.13 3.06248L20.5549 4.48826L20.5617 4.49412L20.7463 4.69334C21.6421 5.70732 22.1326 7.02049 22.1174 8.37986C22.101 9.82971 21.5104 11.2137 20.4748 12.2285C20.4397 12.2628 20.4016 12.2944 20.3605 12.3213L14.5099 16.1455C14.2114 16.3407 13.8173 16.2987 13.5666 16.0449L7.56657 9.97068C7.31717 9.71817 7.27879 9.32517 7.47477 9.02928L11.3 3.25388L11.3888 3.14353L11.5832 2.95408C12.5768 2.03554 13.879 1.51525 15.2384 1.49998ZM15.255 2.99998C14.2234 3.01161 13.2375 3.42413 12.505 4.14842L9.06071 9.34861L14.2023 14.5547L19.4699 11.1094C20.1929 10.3771 20.6057 9.39391 20.6174 8.36326C20.6291 7.31357 20.2255 6.30166 19.4943 5.54881L18.0695 4.124V4.12303C17.3167 3.39191 16.3047 2.98819 15.255 2.99998Z" fill="currentColor"/>
<path d="M15.2488 15.5523L15.2999 15.6089C15.5404 15.9035 15.5235 16.3383 15.2488 16.6129L13.4831 18.3786C13.1903 18.6715 12.7154 18.6714 12.4225 18.3786L5.20983 11.166C4.91694 10.8731 4.91694 10.3982 5.20983 10.1054L6.97553 8.33966L7.03284 8.28787C7.32742 8.04791 7.76171 8.06518 8.03619 8.33966L15.2488 15.5523ZM6.80082 10.6357L12.9528 16.7876L13.6578 16.0826L7.50586 9.93065L6.80082 10.6357Z" fill="currentColor"/>
<path d="M3.81977 14.988C4.11266 14.6951 4.58742 14.6951 4.88031 14.988C5.17321 15.2809 5.17321 15.7556 4.88031 16.0485L3.75531 17.1735C3.46242 17.4664 2.98766 17.4664 2.69477 17.1735C2.40187 16.8806 2.40187 16.4059 2.69477 16.113L3.81977 14.988Z" fill="currentColor"/>
<path d="M7.79483 19.038C8.08769 18.7451 8.56248 18.7452 8.85538 19.038C9.14826 19.3309 9.14828 19.8056 8.85538 20.0985L7.80557 21.1483C7.51267 21.4412 7.03791 21.4412 6.74502 21.1483C6.45221 20.8554 6.45215 20.3806 6.74502 20.0878L7.79483 19.038Z" fill="currentColor"/>
<path d="M2.76944 20.0131C3.0623 19.7202 3.53709 19.7203 3.82999 20.0131C4.12287 20.306 4.12288 20.7807 3.82999 21.0736L2.78018 22.1234C2.48728 22.4163 2.01252 22.4163 1.71963 22.1234C1.42682 21.8305 1.42676 21.3557 1.71963 21.0629L2.76944 20.0131Z" fill="currentColor"/>
</svg>
