<svg viewBox="0 0 24 24" fill="none" xmlns="http://www.w3.org/2000/svg">
<path opacity="0.3" d="M12.2246 8.09961C14.0148 8.09961 15.7322 8.81128 16.998 10.0771C18.2638 11.3429 18.9745 13.0596 18.9746 14.8496V21.5996H5.47461V14.8496C5.47471 13.0595 6.18637 11.3429 7.45215 10.0771C8.71792 8.81138 10.4346 8.09972 12.2246 8.09961ZM12.2246 10.7998C9.98821 10.8001 8.17504 12.6132 8.1748 14.8496C8.1748 17.0862 9.98807 18.9001 12.2246 18.9004C14.4614 18.9004 16.2754 17.0864 16.2754 14.8496C16.2752 12.6131 14.4612 10.7998 12.2246 10.7998Z" fill="currentColor"/>
<path d="M18.2251 14.85C18.2251 13.2587 17.5925 11.733 16.4673 10.6078C15.3421 9.48257 13.8164 8.84998 12.2251 8.84998C10.6338 8.84998 9.10715 9.48257 7.98193 10.6078C6.85701 11.733 6.2251 13.2589 6.2251 14.85V20.85H18.2251V14.85ZM19.7251 21.6C19.7251 22.0142 19.3893 22.35 18.9751 22.35H5.4751C5.06088 22.35 4.7251 22.0142 4.7251 21.6V14.85C4.7251 12.8609 5.51486 10.9528 6.92139 9.54626C8.32791 8.13975 10.236 7.34998 12.2251 7.34998C14.2142 7.34998 16.1223 8.13974 17.5288 9.54626C18.9353 10.9528 19.7251 12.8608 19.7251 14.85V21.6Z" fill="currentColor"/>
<path d="M11.4751 5.3252V2.25C11.4751 1.83579 11.8109 1.5 12.2251 1.5C12.6393 1.5 12.9751 1.83579 12.9751 2.25V5.3252C12.975 5.73932 12.6392 6.0752 12.2251 6.0752C11.8109 6.0752 11.4752 5.73932 11.4751 5.3252Z" fill="currentColor"/>
<path d="M22.9502 1.5L23.0264 1.50391C23.4047 1.54216 23.7002 1.86156 23.7002 2.25C23.7002 2.63844 23.4047 2.95784 23.0264 2.99609L22.9502 3H1.5C1.08579 3 0.75 2.66421 0.75 2.25C0.75 1.83579 1.08579 1.5 1.5 1.5H22.9502Z" fill="currentColor"/>
<path d="M15.5244 14.8499C15.5243 13.0274 14.0471 11.55 12.2246 11.55C10.4022 11.5502 8.92491 13.0275 8.9248 14.8499C8.9248 16.6723 10.4022 18.1495 12.2246 18.1497C14.0471 18.1497 15.5244 16.6724 15.5244 14.8499ZM17.0244 14.8499C17.0244 17.5008 14.8756 19.6497 12.2246 19.6497C9.57374 19.6495 7.4248 17.5008 7.4248 14.8499C7.42491 12.199 9.57381 10.0502 12.2246 10.05C14.8755 10.05 17.0243 12.199 17.0244 14.8499Z" fill="currentColor"/>
<path d="M11.4751 14.85V12.975C11.4751 12.5608 11.8109 12.225 12.2251 12.225C12.6393 12.225 12.9751 12.5608 12.9751 12.975V14.85C12.9751 15.2642 12.6393 15.6 12.2251 15.6C11.8109 15.6 11.4751 15.2642 11.4751 14.85Z" fill="currentColor"/>
</svg>
