<svg viewBox="0 0 24 24" fill="none" xmlns="http://www.w3.org/2000/svg">
<path opacity="0.3" d="M7.575 19.1415C9.06617 19.1415 10.275 17.9326 10.275 16.4415C10.275 14.9503 9.06617 13.7415 7.575 13.7415C6.08383 13.7415 4.875 14.9503 4.875 16.4415C4.875 17.9326 6.08383 19.1415 7.575 19.1415Z" fill="currentColor"/>
<path opacity="0.3" d="M15.9817 12.0233L11.9512 7.9928L9.69198 10.252L13.7225 14.2825L15.9817 12.0233Z" fill="currentColor"/>
<path opacity="0.3" d="M16.6499 7.3664C16.403 7.14608 16.2281 6.85664 16.1479 6.53566C16.0677 6.21467 16.0858 5.87697 16.1999 5.56641L17.4749 2.56641C17.5718 2.46064 17.6908 2.37757 17.8235 2.32308C17.9562 2.2686 18.0992 2.24405 18.2425 2.25122C18.3858 2.25838 18.5257 2.29707 18.6523 2.36451C18.7789 2.43196 18.889 2.52651 18.9749 2.64141L21.3749 5.04142C21.485 5.13292 21.5737 5.24755 21.6345 5.37717C21.6953 5.50679 21.7269 5.64823 21.7269 5.79142C21.7269 5.93461 21.6953 6.07603 21.6345 6.20565C21.5737 6.33528 21.485 6.44993 21.3749 6.54142L18.4499 7.81641C18.1393 7.93052 17.8016 7.94863 17.4806 7.86839C17.1596 7.78814 16.8702 7.61324 16.6499 7.3664Z" fill="currentColor"/>
<path d="M9.52539 16.4415C9.52539 15.3646 8.65206 14.4914 7.5752 14.4913C6.49824 14.4913 5.625 15.3646 5.625 16.4415C5.6251 17.5184 6.49831 18.3917 7.5752 18.3917C8.652 18.3916 9.52529 17.5183 9.52539 16.4415ZM11.0254 16.4415C11.0253 18.3468 9.48042 19.8916 7.5752 19.8917C5.66987 19.8917 4.1251 18.3468 4.125 16.4415C4.125 14.5361 5.66981 12.9913 7.5752 12.9913C9.48049 12.9914 11.0254 14.5362 11.0254 16.4415Z" fill="currentColor"/>
<path d="M16.1079 15.5459L16.1597 15.6032C16.3999 15.8978 16.3825 16.332 16.1079 16.6066L13.8485 18.866C13.5556 19.1587 13.0806 19.1588 12.7878 18.866L5.20438 11.2825C4.91157 10.9897 4.91172 10.5148 5.20438 10.2219L7.46381 7.96246L7.52112 7.91067C7.8157 7.67071 8.25 7.68798 8.52447 7.96246L16.1079 15.5459ZM6.79537 10.7522L13.3182 17.275L14.5169 16.0762L7.99414 9.55345L6.79537 10.7522Z" fill="currentColor"/>
<path d="M16.5121 11.4931L16.5632 11.5497C16.8037 11.8443 16.7868 12.2791 16.5121 12.5538L14.2527 14.8132C13.9599 15.1058 13.4849 15.1059 13.1921 14.8132L9.16141 10.7825C8.8686 10.4897 8.86875 10.0148 9.16141 9.72189L11.4208 7.46246L11.4782 7.41067C11.7727 7.17071 12.207 7.18798 12.4815 7.46246L16.5121 11.4931ZM10.7524 10.2522L13.7224 13.2222L14.9212 12.0234L11.9512 9.05345L10.7524 10.2522Z" fill="currentColor"/>
<path d="M5.17574 17.7802C5.47184 17.4907 5.94667 17.4959 6.23629 17.7919C6.52579 18.088 6.52055 18.5628 6.22457 18.8524L2.77437 22.2274C2.47828 22.5171 2.00347 22.5118 1.71383 22.2157C1.4242 21.9196 1.42946 21.4448 1.72555 21.1552L5.17574 17.7802Z" fill="currentColor"/>
<path d="M16.12 6.83608C16.4129 6.54328 16.8877 6.54322 17.1806 6.83608C17.4733 7.12895 17.4733 7.60376 17.1806 7.89662L14.4804 10.5968C14.1875 10.8896 13.7127 10.8896 13.4198 10.5968C13.127 10.304 13.127 9.82917 13.4198 9.53627L16.12 6.83608Z" fill="currentColor"/>
<path d="M20.9767 5.79097C20.9767 5.75813 20.9692 5.72597 20.9552 5.69624C20.9481 5.68114 20.94 5.66637 20.9298 5.65327L20.8957 5.61812L20.8449 5.57124L18.4445 3.17183C18.4191 3.14642 18.3957 3.11858 18.3742 3.0898C18.3544 3.06346 18.329 3.04181 18.3 3.02632C18.2707 3.01075 18.2383 3.00161 18.2052 2.99995C18.1723 2.99831 18.1392 3.004 18.1086 3.01656C18.1039 3.01848 18.0994 3.02117 18.0949 3.02339L16.9035 5.82417L16.9045 5.82515C16.8422 5.99451 16.8324 6.17842 16.8761 6.35347C16.9089 6.48472 16.9702 6.60663 17.0558 6.70991L17.1496 6.80659L17.2091 6.86714L17.3068 6.95991C17.41 7.04551 17.5311 7.10773 17.6623 7.14058C17.8345 7.18364 18.0156 7.1738 18.1828 7.11421L20.9386 5.91206C20.9441 5.90356 20.9509 5.89589 20.9552 5.88667C20.9693 5.85676 20.9767 5.82398 20.9767 5.79097ZM22.4767 5.79097C22.4767 6.04432 22.4213 6.29504 22.3136 6.52437C22.2061 6.7535 22.0494 6.95627 21.8547 7.11812C21.8276 7.1406 21.7986 7.16122 21.7687 7.17964L21.675 7.22847L18.7502 8.50386C18.7368 8.5097 18.7229 8.51542 18.7091 8.52046C18.2574 8.68643 17.7659 8.71237 17.299 8.59566C16.8455 8.48227 16.4361 8.23834 16.1193 7.89546C15.7773 7.57886 15.5333 7.17046 15.4201 6.71773C15.3034 6.25085 15.3303 5.7593 15.4963 5.30757L15.5099 5.27339L16.7843 2.27339L16.8439 2.16011C16.8668 2.12448 16.8933 2.09088 16.922 2.05952L17.0578 1.92671C17.2003 1.80199 17.3633 1.7011 17.5392 1.62886C17.7738 1.53264 18.0271 1.48924 18.2804 1.50191C18.5337 1.51462 18.7812 1.5829 19.005 1.7021C19.2044 1.80832 19.3782 1.95509 19.5216 2.12886L21.9054 4.5107H21.9045C22.0755 4.66461 22.2157 4.84984 22.3136 5.05855C22.4212 5.28774 22.4767 5.5378 22.4767 5.79097Z" fill="currentColor"/>
</svg>
