<svg viewBox="0 0 24 24" fill="none" xmlns="http://www.w3.org/2000/svg">
<path opacity="0.3" d="M5.25 8.25H18.525V8.85001C18.525 10.6004 17.8296 12.2792 16.5919 13.5169C15.3542 14.7547 13.6754 15.45 11.925 15.45C10.1746 15.45 8.49583 14.7547 7.25809 13.5169C6.02035 12.2792 5.32498 10.6004 5.32498 8.85001V8.25H5.25Z" fill="currentColor"/>
<path d="M17.7754 3H6.0752V8.84961C6.0752 10.401 6.69118 11.8893 7.78809 12.9863C8.88513 14.0834 10.3734 14.7001 11.9248 14.7002C13.4763 14.7002 14.9644 14.0834 16.0615 12.9863C17.1585 11.8893 17.7754 10.4011 17.7754 8.84961V3ZM19.2754 8.84961C19.2754 10.7989 18.5004 12.6685 17.1221 14.0469C15.7437 15.4253 13.8741 16.2002 11.9248 16.2002C9.97553 16.2001 8.10589 15.4252 6.72754 14.0469C5.34934 12.6685 4.5752 10.7988 4.5752 8.84961V2.57227C4.52836 2.47437 4.5 2.36576 4.5 2.25C4.5 1.83579 4.83579 1.5 5.25 1.5H18.5254C18.9394 1.50022 19.2754 1.83592 19.2754 2.25V8.84961Z" fill="currentColor"/>
<path d="M18.75 7.5C19.1642 7.5 19.5 7.83579 19.5 8.25C19.5 8.66421 19.1642 9 18.75 9H5.25C4.83579 9 4.5 8.66421 4.5 8.25C4.5 7.83579 4.83579 7.5 5.25 7.5H18.75Z" fill="currentColor"/>
<path d="M11.0996 22.4996V15.525C11.0996 15.1108 11.4354 14.775 11.8496 14.775C12.2638 14.775 12.5996 15.1108 12.5996 15.525V22.4996C12.5996 22.9138 12.2638 23.2496 11.8496 23.2496C11.4354 23.2496 11.0996 22.9138 11.0996 22.4996Z" fill="currentColor"/>
<path d="M17.0244 21.75L17.1016 21.7539C17.4797 21.7924 17.7744 22.1117 17.7744 22.5C17.7744 22.8883 17.4797 23.2076 17.1016 23.2461L17.0244 23.25H6.6748C6.26059 23.25 5.9248 22.9142 5.9248 22.5C5.9248 22.0858 6.26059 21.75 6.6748 21.75H17.0244Z" fill="currentColor"/>
</svg>
