<svg viewBox="0 0 24 24" fill="none" xmlns="http://www.w3.org/2000/svg">
<path opacity="0.3" d="M8.25 9.15662L16.2 9.15662V13.425C16.2 14.4793 15.7812 15.4903 15.0358 16.2358C14.2903 16.9812 13.2792 17.4 12.225 17.4C11.1708 17.4 10.1597 16.9812 9.41425 16.2358C8.6688 15.4903 8.25 14.4793 8.25 13.425V9.15662Z" fill="currentColor"/>
<path d="M15.4502 2.25H9V13.4248C9 14.28 9.33971 15.1003 9.94434 15.7051C10.5491 16.3098 11.3694 16.6503 12.2246 16.6504C13.0799 16.6504 13.9011 16.3099 14.5059 15.7051C15.1104 15.1003 15.4502 14.2799 15.4502 13.4248V2.25ZM16.9502 13.4248C16.9502 14.6778 16.4523 15.8796 15.5664 16.7656C14.6803 17.6517 13.4778 18.1504 12.2246 18.1504C10.9716 18.1503 9.76981 17.6516 8.88379 16.7656C7.99786 15.8795 7.5 14.6778 7.5 13.4248V1.5L7.50391 1.42285C7.54253 1.04488 7.86183 0.75 8.25 0.75H16.2002C16.6143 0.750103 16.9502 1.08585 16.9502 1.5V13.4248Z" fill="currentColor"/>
<path d="M16.2002 8.84998L16.2764 8.85388C16.6547 8.89214 16.9502 9.21154 16.9502 9.59998C16.9502 9.98841 16.6547 10.3078 16.2764 10.3461L16.2002 10.35H8.25C7.83579 10.35 7.5 10.0142 7.5 9.59998C7.5 9.18576 7.83579 8.84998 8.25 8.84998H16.2002Z" fill="currentColor"/>
<path d="M11.4751 22.8004V17.4C11.4751 16.9858 11.8109 16.65 12.2251 16.65C12.6393 16.65 12.9751 16.9858 12.9751 17.4V22.8004C12.9749 23.2144 12.6392 23.5504 12.2251 23.5504C11.811 23.5504 11.4753 23.2144 11.4751 22.8004Z" fill="currentColor"/>
<path d="M16.2002 22.05L16.2764 22.054C16.6547 22.0922 16.9502 22.4116 16.9502 22.8C16.9502 23.1885 16.6547 23.5079 16.2764 23.5461L16.2002 23.55H8.25C7.83579 23.55 7.5 23.2143 7.5 22.8C7.5 22.3858 7.83579 22.05 8.25 22.05H16.2002Z" fill="currentColor"/>
</svg>
